<?xml version="1.0" standalone="no"?>
<!DOCTYPE svg PUBLIC "-//W3C//DTD SVG 20010904//EN"
 "http://www.w3.org/TR/2001/REC-SVG-20010904/DTD/svg10.dtd">
<svg version="1.0" xmlns="http://www.w3.org/2000/svg"
 width="776.000000pt" height="627.000000pt" viewBox="0 0 776.000000 627.000000"
 preserveAspectRatio="xMidYMid meet">

<g transform="translate(0.000000,627.000000) scale(0.100000,-0.100000)"
fill="#000000" stroke="none">
<path d="M1498 5993 c-2 -76 -3 -556 -3 -1068 l0 -930 520 0 c512 0 520 0 523
-20 11 -77 33 -87 42 -19 l5 39 115 1 c242 3 2910 14 3413 14 452 0 527 2 527
14 0 13 -268 14 -2029 9 l-2029 -6 -4 24 c-4 30 -32 32 -36 2 l-3 -23 -510 0
-509 0 6 808 c4 444 7 808 8 809 2 2 757 4 979 3 l37 0 0 -297 0 -296 1328 6
c730 4 1650 7 2045 7 650 0 717 1 717 16 0 15 -175 16 -2017 14 -1110 -1
-2023 -2 -2030 -1 -9 1 -12 67 -12 279 1 152 1 283 0 289 -1 10 -116 13 -523
15 l-523 3 -5 219 c-4 157 -8 220 -17 223 -9 3 -13 -32 -15 -134z"/>
<path d="M489 5883 c-1 -5 0 -12 1 -18 2 -5 2 -54 1 -107 -1 -53 2 -99 7 -102
4 -2 50 44 101 105 51 60 97 109 103 109 5 0 6 5 3 10 -11 18 -55 12 -55 -8 0
-9 -25 -46 -55 -80 l-55 -63 0 70 c0 41 4 71 10 71 6 0 10 5 10 10 0 11 -69
14 -71 3z"/>
<path d="M1080 5880 c0 -5 5 -10 10 -10 6 0 10 -44 10 -112 l1 -113 25 30 c79
91 141 162 160 182 12 12 19 24 16 27 -9 10 -62 6 -62 -4 0 -5 5 -10 10 -10
19 0 9 -15 -50 -78 l-60 -64 0 71 c0 43 4 71 11 71 5 0 7 5 4 10 -3 6 -22 10
-41 10 -19 0 -34 -4 -34 -10z"/>
<path d="M1286 5764 c-11 -10 -16 -34 -16 -74 0 -65 15 -90 55 -90 34 0 55 36
55 92 0 73 -53 114 -94 72z m52 -70 c2 -65 -11 -100 -28 -74 -11 17 -14 123
-3 134 17 17 28 -5 31 -60z"/>
<path d="M1080 5131 c0 -6 5 -11 10 -11 6 0 10 -44 10 -111 l0 -110 31 33 c17
18 47 53 67 78 20 25 53 62 73 82 32 32 35 38 20 43 -24 7 -51 -4 -45 -18 2
-7 -20 -39 -50 -72 l-55 -60 -1 67 c0 44 4 68 13 71 6 3 0 6 -15 6 -14 1 -33
4 -42 7 -9 3 -16 1 -16 -5z"/>
<path d="M1612 5073 c2 -12 13 -18 33 -18 20 0 31 6 33 18 3 14 -4 17 -33 17
-29 0 -36 -3 -33 -17z"/>
<path d="M1772 5073 c2 -12 13 -18 33 -18 20 0 31 6 33 18 3 14 -4 17 -33 17
-29 0 -36 -3 -33 -17z"/>
<path d="M1926 5081 c-9 -14 21 -33 46 -29 12 2 24 11 26 21 3 13 -4 17 -32
17 -19 0 -37 -4 -40 -9z"/>
<path d="M2080 5082 c0 -15 24 -32 46 -32 23 0 48 22 37 33 -9 10 -83 9 -83
-1z"/>
<path d="M2242 5073 c2 -13 13 -18 38 -18 25 0 36 5 38 18 3 14 -4 17 -38 17
-34 0 -41 -3 -38 -17z"/>
<path d="M2404 5079 c-9 -15 16 -30 46 -27 14 2 26 10 28 21 3 13 -4 17 -32
17 -19 0 -38 -5 -42 -11z"/>
<path d="M1304 5005 c-17 -13 -17 -14 -1 -15 14 0 17 -9 17 -55 0 -40 -4 -57
-15 -61 -23 -9 -18 -24 8 -20 12 3 31 5 42 6 18 1 19 1 3 11 -15 8 -18 24 -18
79 0 39 -4 70 -8 70 -5 0 -17 -7 -28 -15z"/>
<path d="M2550 4955 c0 -24 5 -35 15 -35 10 0 15 11 15 35 0 24 -5 35 -15 35
-10 0 -15 -11 -15 -35z"/>
<path d="M2550 4795 c0 -24 5 -35 15 -35 10 0 15 11 15 35 0 24 -5 35 -15 35
-10 0 -15 -11 -15 -35z"/>
<path d="M2555 4668 c-9 -22 -2 -68 10 -71 14 -3 19 63 6 76 -7 7 -12 5 -16
-5z"/>
<path d="M2550 4481 c0 -30 4 -41 16 -41 11 0 14 9 12 37 -4 52 -28 56 -28 4z"/>
<path d="M2544 4336 c-8 -32 2 -59 19 -53 16 5 16 69 0 74 -7 3 -15 -7 -19
-21z"/>
<path d="M2547 4186 c-3 -8 -4 -22 -2 -32 2 -11 4 -22 4 -26 1 -5 8 -8 16 -8
11 0 15 11 15 40 0 40 -21 57 -33 26z"/>
<path d="M5685 3920 c-10 -11 -19 -35 -20 -52 -2 -18 -6 -52 -10 -75 -6 -35
-5 -43 7 -43 14 0 48 30 48 43 0 3 -7 4 -16 0 -12 -4 -14 0 -8 23 11 48 23 74
32 74 5 0 7 11 4 25 -5 30 -13 31 -37 5z"/>
<path d="M5937 3903 c-18 -17 -4 -51 34 -84 25 -21 39 -40 35 -47 -11 -19 -40
-14 -54 8 -16 27 -34 25 -30 -2 2 -19 10 -24 41 -26 73 -6 89 40 32 94 -36 33
-44 54 -23 54 6 0 20 -7 30 -17 17 -15 18 -15 18 5 0 19 -6 22 -38 22 -21 0
-42 -3 -45 -7z"/>
<path d="M6071 3884 c-39 -49 -15 -134 37 -134 32 0 72 25 72 46 0 18 -9 18
-31 -2 -17 -15 -20 -15 -44 0 -14 9 -25 25 -25 36 0 17 7 20 50 20 29 0 50 5
50 11 0 53 -73 68 -109 23z m67 -7 c3 -12 -3 -17 -22 -17 -29 0 -44 19 -25 31
20 13 43 6 47 -14z"/>
<path d="M6236 3897 c-28 -21 -32 -87 -6 -119 12 -16 30 -28 41 -28 23 0 75
48 64 58 -4 4 -10 1 -12 -5 -6 -18 -58 -16 -72 1 -17 21 -9 77 12 90 15 9 21
6 37 -14 16 -22 20 -23 25 -8 4 9 4 22 0 28 -9 14 -68 13 -89 -3z"/>
<path d="M5743 3784 c-3 -8 -1 -20 5 -26 8 -8 9 -15 1 -25 -8 -9 -8 -13 -1
-13 13 0 32 32 32 53 0 21 -30 30 -37 11z"/>
<path d="M2502 3757 c-12 -13 -20 -26 -17 -29 3 -2 -2 -27 -10 -54 -8 -27 -15
-57 -15 -66 0 -21 30 -24 48 -6 14 14 16 32 2 23 -15 -10 0 88 16 101 10 8 12
19 6 33 l-8 22 -22 -24z"/>
<path d="M2570 3691 c-14 -27 -13 -124 2 -139 17 -17 54 -15 72 4 11 10 16 34
16 74 0 48 -4 61 -19 70 -30 16 -59 12 -71 -9z m60 -60 c0 -68 -11 -94 -32
-73 -16 16 -22 96 -9 121 7 11 18 21 26 21 12 0 15 -15 15 -69z"/>
<path d="M3341 3554 c33 -53 33 -173 1 -227 -30 -52 -5 -42 33 12 25 36 30 52
29 96 -2 58 -39 137 -70 149 -12 5 -11 -2 7 -30z"/>
<path d="M3915 3465 l0 -116 25 3 c17 2 23 8 20 18 -2 8 -6 59 -8 113 -3 83
-6 97 -20 97 -15 0 -17 -14 -17 -115z"/>
<path d="M3538 3538 c10 -18 34 -68 52 -110 19 -43 37 -78 42 -78 5 0 13 11
18 24 5 13 13 27 19 30 5 3 17 28 27 54 9 26 28 62 41 80 l24 32 -28 0 c-25 0
-29 -4 -31 -32 -2 -18 -15 -54 -31 -81 l-28 -48 -26 59 c-15 33 -27 69 -27 81
0 17 -6 21 -36 21 l-36 0 20 -32z"/>
<path d="M4811 3526 c-19 -21 -22 -28 -12 -40 8 -10 10 -30 6 -60 -5 -31 -3
-51 5 -61 16 -19 44 -19 60 0 10 12 9 15 -8 15 -17 0 -21 8 -24 46 -4 51 -1
57 27 68 20 8 20 8 -2 18 -12 6 -23 17 -25 25 -2 11 -9 8 -27 -11z"/>
<path d="M4011 3518 c-17 -13 -21 -22 -14 -26 7 -4 13 -37 15 -72 3 -64 3 -65
32 -65 16 0 31 6 34 13 2 7 -5 12 -17 12 -19 0 -21 6 -21 55 0 48 2 55 20 55
11 0 20 5 20 10 0 6 -7 10 -15 10 -7 0 -18 6 -22 14 -7 12 -12 11 -32 -6z"/>
<path d="M3188 3509 c-19 -11 -25 -49 -8 -49 6 0 10 7 10 15 0 21 27 30 45 15
21 -18 19 -29 -10 -40 -40 -15 -67 -45 -63 -72 3 -21 9 -23 62 -26 36 -2 63 1
70 9 8 8 8 13 -1 16 -8 3 -13 22 -13 47 0 71 -45 113 -92 85z m62 -90 c0 -20
-21 -49 -35 -49 -23 0 -28 20 -9 41 19 21 44 26 44 8z"/>
<path d="M3761 3494 c-60 -50 -32 -144 42 -144 49 0 68 19 74 72 5 40 2 50
-20 72 -33 33 -57 33 -96 0z m69 -16 c25 -27 26 -69 2 -98 -21 -25 -45 -19
-61 16 -14 31 -14 47 1 79 14 31 31 32 58 3z"/>
<path d="M4118 3509 c-21 -12 -23 -35 -4 -42 8 -3 18 5 25 20 9 21 14 23 26
13 24 -20 17 -39 -18 -56 -43 -21 -61 -48 -47 -73 8 -16 21 -19 65 -19 51 1
85 16 57 26 -7 2 -12 24 -12 53 0 28 -5 59 -10 70 -12 21 -53 25 -82 8z m62
-88 c0 -23 -14 -41 -31 -41 -21 0 -25 20 -7 38 14 14 38 16 38 3z"/>
<path d="M4289 3510 c-23 -13 -32 -56 -18 -81 6 -11 7 -28 4 -37 -14 -33 -15
-96 -3 -104 27 -16 79 -8 103 17 43 42 27 75 -37 75 -21 0 -38 5 -38 10 0 6
11 10 23 10 30 0 57 29 57 62 0 15 6 28 13 31 20 7 5 15 -43 21 -25 4 -52 2
-61 -4z m56 -40 c11 -48 -14 -69 -35 -30 -13 25 -4 60 15 60 7 0 16 -13 20
-30z m30 -130 c11 -17 -15 -40 -44 -40 -35 0 -55 15 -48 34 7 18 82 23 92 6z"/>
<path d="M4440 3498 c-25 -27 -27 -93 -4 -126 19 -28 63 -29 92 -2 23 21 29
40 13 40 -5 0 -14 -7 -21 -15 -17 -20 -33 -19 -55 5 -27 30 -14 48 35 44 51
-4 63 16 30 52 -29 30 -63 31 -90 2z m54 -4 c19 -18 12 -34 -14 -34 -25 0 -35
17 -20 35 15 18 15 18 34 -1z"/>
<path d="M4682 3508 c-7 -7 -12 -24 -12 -38 0 -20 9 -31 35 -46 35 -19 50 -39
39 -55 -8 -14 -22 -11 -45 12 -15 15 -24 18 -32 10 -17 -17 11 -41 47 -41 39
0 56 15 56 51 0 20 -9 32 -35 48 -33 19 -43 39 -28 54 3 4 17 -2 29 -14 15
-14 24 -17 29 -9 19 30 -56 55 -83 28z"/>
<path d="M4916 3501 c-29 -32 -32 -91 -6 -123 27 -35 63 -36 97 -2 25 25 26
46 1 27 -38 -29 -78 -15 -78 28 0 16 7 19 45 19 38 0 45 3 45 19 0 23 -36 51
-66 51 -11 0 -29 -9 -38 -19z m74 -20 c0 -10 -24 -21 -46 -21 -17 0 -18 22 -2
38 12 12 48 -1 48 -17z"/>
<path d="M5061 3512 c-7 -2 -11 -41 -11 -118 l0 -114 32 0 c25 0 29 3 20 12
-7 7 -12 22 -12 35 0 19 5 23 28 23 29 0 73 38 86 73 7 21 -20 86 -38 89 -26
3 -94 4 -105 0z m97 -34 c17 -17 15 -74 -4 -92 -32 -33 -64 -11 -64 44 0 39
14 60 40 60 9 0 21 -5 28 -12z"/>
<path d="M1487 3053 c-3 -5 -6 -485 -8 -1068 l-4 -1060 2375 0 c2901 0 2930 0
2930 22 0 15 -174 15 -2105 11 -2050 -5 -2105 -5 -2105 13 0 26 -36 25 -43 -1
-5 -20 -14 -20 -512 -20 l-506 0 2 788 c1 433 4 795 7 805 4 16 26 17 279 17
l276 0 -6 -37 c-4 -21 -9 -53 -13 -70 -5 -26 -3 -33 9 -33 13 0 17 -14 19 -72
2 -60 6 -73 21 -76 15 -3 17 6 17 72 0 71 1 76 21 76 19 0 21 4 15 35 -3 19
-9 51 -12 70 l-7 35 199 -2 199 -3 -3 -478 c-3 -358 0 -482 8 -493 20 -23 31
-6 29 42 -4 61 23 88 266 272 38 29 111 62 136 62 18 0 19 -9 18 -192 -1 -106
-3 -197 -6 -204 -4 -12 -39 -7 -101 16 -40 15 -62 7 -62 -20 0 -31 -44 -23
-48 8 -4 26 -8 26 -64 8 -24 -7 -62 -19 -85 -25 -24 -6 -43 -16 -43 -21 0 -4
24 -16 53 -24 28 -9 67 -21 85 -27 35 -11 57 -2 57 24 0 7 10 13 23 15 16 3
22 -2 22 -17 0 -27 11 -32 53 -21 21 6 53 14 72 19 25 7 35 6 36 -2 0 -7 1
-73 2 -147 2 -113 4 -135 17 -135 13 0 15 49 18 373 l2 372 38 1 c168 2 187 4
187 19 0 12 -20 16 -100 20 l-100 5 40 19 c63 30 261 76 365 85 52 5 652 9
1334 10 l1238 2 -7 -53 c-4 -29 -11 -61 -16 -70 -14 -25 -11 -48 6 -48 16 0
16 -2 19 -90 1 -48 4 -55 21 -55 18 0 20 8 23 73 2 54 6 72 17 72 26 0 26 20
4 90 -12 39 -19 73 -15 77 4 4 163 8 354 10 191 1 350 3 355 3 4 0 7 7 7 16 0
14 -155 15 -1652 12 -909 -1 -1717 -4 -1796 -6 -137 -3 -143 -4 -140 -24 3
-17 -10 -25 -77 -49 -44 -16 -86 -27 -92 -24 -10 3 -13 66 -13 270 0 227 -2
265 -15 265 -12 0 -15 -33 -17 -217 l-3 -218 -67 -9 c-56 -8 -68 -12 -68 -28
0 -16 6 -18 70 -12 l70 7 0 -40 c0 -58 -25 -71 -136 -75 -75 -3 -89 -6 -92
-20 -3 -15 4 -18 44 -18 l47 0 -24 -19 c-13 -10 -50 -36 -82 -58 -32 -22 -79
-60 -105 -85 -26 -24 -52 -47 -58 -51 -9 -5 -12 96 -13 393 l-2 399 26 17 c15
10 22 21 17 26 -4 4 -253 9 -553 11 l-544 2 3 233 c3 200 1 232 -12 232 -8 0
-17 -3 -19 -7z"/>
<path d="M6030 2936 c0 -57 -4 -77 -15 -84 -14 -7 -14 -18 -4 -80 13 -77 31
-114 47 -97 10 10 52 142 52 162 0 6 -9 13 -20 16 -16 4 -19 15 -22 78 -2 61
-6 74 -20 77 -16 3 -18 -6 -18 -72z"/>
<path d="M505 2950 c4 -6 0 -39 -9 -73 -8 -34 -18 -74 -21 -89 -3 -15 -12 -34
-21 -42 -14 -15 -12 -16 24 -16 35 0 39 3 35 19 -3 11 0 36 7 55 11 33 15 36
49 36 42 0 65 19 76 61 4 17 1 30 -9 38 -20 16 -140 26 -131 11z m93 -38 c4
-28 -14 -52 -39 -52 -20 0 -26 31 -13 65 10 24 48 15 52 -13z"/>
<path d="M717 2843 c-4 -3 -7 -15 -7 -25 0 -12 -11 -23 -28 -29 -36 -12 -66
-62 -58 -95 7 -26 25 -31 45 -11 11 10 14 10 18 0 3 -7 11 -13 18 -13 16 0 28
27 14 32 -7 2 -2 28 11 66 20 57 20 82 1 82 -4 0 -11 -3 -14 -7z m-27 -112
c-14 -36 -40 -41 -40 -9 0 28 30 62 43 49 6 -6 5 -21 -3 -40z"/>
<path d="M5124 2588 c-10 -16 12 -30 42 -26 41 4 38 32 -4 34 -18 1 -35 -3
-38 -8z"/>
<path d="M5405 2590 c-12 -19 10 -32 46 -28 48 4 46 32 -3 36 -20 2 -39 -2
-43 -8z"/>
<path d="M5697 2593 c-19 -19 -5 -33 33 -33 33 0 40 3 40 20 0 16 -7 20 -33
20 -19 0 -37 -3 -40 -7z"/>
<path d="M5987 2594 c-20 -20 -6 -35 31 -32 47 4 52 32 7 36 -17 2 -34 0 -38
-4z"/>
<path d="M6277 2593 c-16 -16 -5 -33 21 -33 34 0 57 14 48 29 -8 12 -58 15
-69 4z"/>
<path d="M6560 2580 c0 -15 7 -20 29 -20 29 0 57 21 44 33 -3 4 -21 7 -40 7
-26 0 -33 -4 -33 -20z"/>
<path d="M2832 2573 c4 -22 44 -29 64 -13 24 21 16 30 -27 30 -33 0 -40 -3
-37 -17z"/>
<path d="M3117 2583 c-16 -15 -5 -23 33 -23 29 0 40 4 40 15 0 10 -10 15 -33
15 -19 0 -37 -3 -40 -7z"/>
<path d="M3407 2583 c-13 -12 -7 -21 17 -25 28 -6 59 9 51 23 -7 10 -58 12
-68 2z"/>
<path d="M3690 2575 c0 -10 11 -15 35 -15 24 0 35 5 35 15 0 10 -11 15 -35 15
-24 0 -35 -5 -35 -15z"/>
<path d="M3977 2584 c-13 -13 5 -24 39 -24 24 0 34 5 34 15 0 10 -10 15 -33
15 -19 0 -37 -3 -40 -6z"/>
<path d="M4260 2575 c0 -13 8 -16 38 -13 20 2 37 8 37 13 0 6 -17 11 -37 13
-30 3 -38 0 -38 -13z"/>
<path d="M4550 2575 c0 -10 11 -15 35 -15 24 0 35 5 35 15 0 10 -11 15 -35 15
-24 0 -35 -5 -35 -15z"/>
<path d="M4832 2578 c3 -7 21 -14 41 -16 28 -2 37 1 37 12 0 12 -11 16 -41 16
-28 0 -39 -4 -37 -12z"/>
<path d="M1899 2174 c-15 -35 -57 -129 -76 -166 -7 -14 -13 -29 -13 -32 0 -3
61 -6 135 -6 l135 0 0 -60 c0 -44 -4 -61 -16 -68 -14 -8 -15 -16 -5 -61 18
-86 28 -80 -131 -83 -112 -2 -143 -6 -143 -16 0 -11 57 -14 307 -14 169 0 312
3 318 7 28 17 -14 25 -141 25 -155 0 -150 -3 -124 70 20 56 19 70 -5 70 -18 0
-20 7 -20 75 0 58 -4 76 -16 83 -14 8 -15 14 -4 46 10 32 15 36 46 36 24 0 43
8 59 25 53 52 18 95 -78 95 -51 0 -58 -2 -47 -15 9 -11 8 -26 -4 -69 -9 -30
-16 -65 -16 -78 0 -25 -17 -48 -35 -48 -6 0 -28 42 -49 93 -49 117 -61 131
-77 91z m279 -24 c4 -24 -19 -50 -45 -50 -16 0 -17 34 -2 61 14 27 43 20 47
-11z m-243 -78 c34 -81 34 -82 -29 -82 -41 0 -56 4 -56 14 0 23 52 116 61 110
5 -3 16 -22 24 -42z"/>
<path d="M3062 2133 c2 -12 13 -18 33 -18 20 0 31 6 33 18 3 14 -4 17 -33 17
-29 0 -36 -3 -33 -17z"/>
<path d="M2242 2082 c-14 -9 -20 -131 -8 -151 9 -14 51 -14 77 -1 15 9 19 22
19 70 0 40 -5 64 -16 74 -17 17 -51 21 -72 8z m53 -32 c8 -35 -4 -120 -16
-120 -25 0 -38 95 -19 131 15 27 27 24 35 -11z"/>
<path d="M2728 2076 c-25 -19 -22 -36 6 -36 26 0 51 24 41 40 -8 14 -26 12
-47 -4z"/>
<path d="M2617 1982 c-23 -25 -21 -42 3 -42 21 0 45 34 35 50 -9 15 -20 12
-38 -8z"/>
<path d="M5900 1525 c-31 -64 -48 -111 -42 -117 5 -5 69 -7 143 -6 126 3 134
4 131 22 -2 11 -1 34 3 52 5 30 10 33 51 40 54 8 74 25 74 64 0 37 -23 50 -88
50 -46 0 -49 -2 -45 -22 6 -31 -45 -188 -61 -188 -7 0 -32 44 -56 98 -24 53
-47 101 -51 106 -5 5 -31 -39 -59 -99z m319 71 c16 -19 3 -46 -27 -57 -33 -13
-41 -2 -30 39 9 34 36 43 57 18z m-259 -59 c0 -7 9 -29 20 -50 11 -20 20 -41
20 -47 0 -6 -26 -10 -59 -10 l-60 0 21 53 c12 28 26 58 31 64 11 14 27 8 27
-10z"/>
<path d="M2534 1476 c-9 -25 0 -61 16 -61 10 0 16 12 18 38 2 28 0 37 -13 37
-8 0 -18 -6 -21 -14z"/>
<path d="M6291 1461 c-14 -9 -12 -36 4 -75 7 -17 5 -18 -18 -12 -20 5 -27 3
-27 -9 0 -20 44 -20 60 0 12 14 11 29 -5 69 -7 15 -5 17 13 11 16 -5 22 -2 22
9 0 17 -27 21 -49 7z"/>
<path d="M2705 1349 c-9 -28 1 -35 23 -16 18 16 52 23 52 11 0 -12 -42 -160
-50 -175 -7 -13 -4 -18 9 -22 27 -7 37 3 44 43 25 134 32 155 55 158 13 2 25
-3 28 -12 9 -25 24 -19 24 9 0 25 -1 25 -89 25 -82 0 -90 -2 -96 -21z"/>
<path d="M2530 1285 c0 -28 4 -35 20 -35 16 0 20 7 20 35 0 28 -4 35 -20 35
-16 0 -20 -7 -20 -35z"/>
<path d="M2883 1204 c-7 -3 -10 -11 -7 -19 3 -7 -3 -43 -14 -79 l-20 -66 24 0
c14 0 24 5 23 13 -3 28 2 36 29 39 19 2 32 13 44 37 23 47 11 75 -33 78 -19 1
-39 0 -46 -3z m67 -29 c0 -23 -21 -63 -37 -69 -11 -5 -12 2 -7 32 4 20 9 40
11 45 8 13 33 7 33 -8z"/>
<path d="M2534 1146 c-9 -25 0 -61 16 -61 10 0 16 12 18 38 2 28 0 37 -13 37
-8 0 -18 -6 -21 -14z"/>
<path d="M6900 949 c0 -5 5 -7 10 -4 6 3 10 8 10 11 0 2 -4 4 -10 4 -5 0 -10
-5 -10 -11z"/>
<path d="M5697 832 c-10 -10 -17 -31 -17 -47 0 -15 -5 -45 -12 -67 -16 -53 0
-68 38 -34 26 22 27 24 7 19 -23 -5 -23 -5 -8 42 7 27 18 52 23 57 10 10 4 48
-8 48 -4 0 -14 -8 -23 -18z"/>
<path d="M5956 814 c-26 -25 -19 -52 19 -76 35 -23 47 -58 20 -58 -8 0 -23 10
-35 22 l-20 22 0 -26 c0 -45 78 -50 101 -7 9 18 5 26 -30 58 -23 21 -41 43
-41 49 0 18 31 14 46 -5 12 -17 13 -17 14 3 0 14 -8 24 -22 28 -32 8 -35 8
-52 -10z"/>
<path d="M6089 811 c-19 -15 -24 -28 -23 -65 0 -25 7 -52 14 -61 25 -30 110
-13 110 22 0 13 -3 14 -12 5 -21 -21 -68 -15 -77 11 -8 20 -5 22 38 27 53 6
64 27 32 59 -26 26 -52 27 -82 2z m61 -16 c0 -10 -10 -15 -30 -15 -22 0 -28 4
-24 15 4 8 17 15 30 15 15 0 24 -6 24 -15z"/>
<path d="M6245 805 c-47 -46 -24 -135 34 -135 32 0 81 34 67 47 -5 4 -11 2
-13 -4 -8 -21 -61 -16 -73 7 -26 49 13 117 43 76 9 -12 20 -17 31 -13 23 9 20
22 -9 35 -38 17 -53 15 -80 -13z"/>
<path d="M5770 685 c0 -8 5 -15 11 -15 6 0 9 -9 6 -20 -3 -11 -1 -20 4 -20 13
0 31 40 25 56 -7 19 -46 18 -46 -1z"/>
<path d="M2228 603 c-2 -5 -1 -55 2 -113 5 -102 6 -105 32 -114 71 -25 135 64
98 135 -8 14 -21 19 -55 19 l-45 0 0 40 c0 28 -4 40 -14 40 -8 0 -16 -3 -18
-7z m88 -101 c32 -20 27 -84 -7 -103 -27 -14 -49 5 -49 43 0 53 26 80 56 60z"/>
<path d="M2427 549 c29 -72 26 -144 -7 -194 -25 -38 -25 -48 -1 -36 33 18 64
99 59 158 -4 49 -47 133 -68 133 -4 0 3 -28 17 -61z"/>
<path d="M3145 601 c-3 -5 -1 -12 4 -15 9 -6 6 -115 -4 -178 -4 -25 -1 -28 23
-28 l27 0 -3 115 c-3 105 -5 115 -22 115 -10 0 -21 -4 -25 -9z"/>
<path d="M2613 586 c14 -11 17 -29 17 -99 0 -71 -3 -88 -17 -96 -14 -8 -7 -10
32 -11 38 0 46 3 37 12 -14 14 -16 88 -2 88 6 0 26 -22 46 -50 26 -36 43 -50
60 -50 13 0 24 3 24 6 0 3 -15 25 -34 50 l-34 45 23 23 c29 29 23 69 -11 85
-14 6 -55 11 -92 11 -58 -1 -65 -2 -49 -14z m121 -28 c15 -25 -3 -52 -38 -56
-24 -3 -26 -1 -26 38 0 39 2 41 26 38 15 -2 32 -11 38 -20z"/>
<path d="M3367 531 l-38 -6 -2 -113 -2 -112 35 0 c29 1 32 2 18 11 -11 6 -18
22 -18 40 0 26 3 29 25 23 16 -4 34 1 55 16 26 19 30 27 30 69 0 66 -26 84
-103 72z m55 -28 c18 -16 24 -68 10 -89 -13 -19 -41 -23 -57 -8 -21 22 -20 90
3 103 23 14 23 14 44 -6z"/>
<path d="M3921 523 c-12 -10 -24 -34 -27 -54 -5 -30 -1 -42 23 -69 32 -36 52
-36 91 1 29 26 28 45 0 25 -30 -21 -51 -20 -73 4 -24 26 -12 38 44 42 51 3 61
18 32 47 -26 26 -62 27 -90 4z m57 -16 c3 -12 -4 -17 -22 -17 -28 0 -33 9 -14
28 15 15 32 10 36 -11z"/>
<path d="M4094 533 l-30 -4 4 -58 c3 -37 0 -61 -7 -65 -22 -14 -10 -26 25 -26
30 0 34 2 25 14 -7 8 -11 36 -9 63 3 41 6 48 26 51 12 2 22 10 22 18 0 8 -6
13 -12 12 -7 0 -27 -3 -44 -5z"/>
<path d="M4289 532 c-11 -2 -13 -16 -11 -63 3 -37 -1 -65 -8 -74 -11 -13 -7
-15 22 -15 l34 0 -4 66 -4 66 28 -4 c21 -2 29 1 29 12 0 14 -43 20 -86 12z"/>
<path d="M4413 525 c-44 -30 -30 -117 23 -145 21 -12 28 -11 52 7 15 11 29 28
30 37 4 17 2 17 -21 1 -31 -20 -67 -6 -67 25 0 17 7 20 45 20 37 0 45 3 45 18
0 44 -65 67 -107 37z m65 -18 c3 -12 -3 -17 -22 -17 -25 0 -35 18 -19 34 12
12 38 2 41 -17z"/>
<path d="M4562 528 c-22 -22 -13 -52 23 -76 21 -13 35 -30 35 -42 0 -26 -24
-25 -50 2 l-20 22 0 -26 c0 -19 6 -27 26 -32 79 -20 110 55 41 99 -35 22 -48
55 -22 55 8 0 18 -7 21 -15 8 -21 36 -19 32 2 -4 21 -67 30 -86 11z"/>
<path d="M4685 532 c-19 -3 -20 -10 -18 -115 l1 -112 26 -3 c26 -3 26 -2 20
37 -6 40 -6 41 23 41 44 0 83 42 83 90 0 62 -32 77 -135 62z m85 -31 c12 -24
13 -71 1 -89 -4 -8 -19 -12 -32 -10 -20 3 -24 9 -27 46 -5 63 33 98 58 53z"/>
<path d="M4883 530 c-73 -29 -47 -151 33 -150 73 1 113 96 58 139 -28 22 -55
25 -91 11z m55 -13 c46 -55 10 -155 -39 -111 -26 23 -26 99 -1 113 23 14 28
13 40 -2z"/>
<path d="M5033 533 c-10 -4 -10 -10 -2 -24 12 -23 2 -109 -13 -109 -5 0 -6 -4
-3 -10 3 -5 18 -10 33 -10 27 0 27 1 27 67 0 61 2 68 20 68 18 0 20 -7 20 -68
0 -65 1 -67 25 -67 26 0 26 1 22 68 -2 43 -9 71 -19 79 -14 11 -84 14 -110 6z"/>
<path d="M5202 528 c-21 -21 -13 -46 28 -78 44 -35 49 -47 23 -57 -10 -4 -23
2 -34 15 -22 28 -29 28 -29 -2 0 -18 7 -25 31 -30 46 -9 47 -8 65 19 14 22 15
30 4 50 -7 14 -19 25 -25 25 -7 0 -20 9 -30 20 -14 16 -16 23 -7 32 10 10 17
10 32 0 17 -10 20 -10 20 3 0 19 -60 21 -78 3z"/>
<path d="M5337 523 c-25 -29 -30 -67 -13 -107 13 -31 19 -36 49 -36 20 0 42 8
55 20 23 22 29 40 12 40 -5 0 -10 -4 -10 -9 0 -14 -41 -21 -60 -11 -10 5 -20
19 -23 30 -5 18 0 20 38 20 58 0 79 24 46 51 -29 24 -73 24 -94 2z m63 -7 c0
-7 -11 -16 -25 -18 -30 -6 -39 1 -24 19 15 17 49 17 49 -1z"/>
<path d="M2835 500 c-20 -38 -19 -58 5 -97 14 -24 27 -33 45 -33 26 0 82 46
71 57 -4 4 -12 1 -18 -5 -27 -27 -78 -7 -78 30 0 15 8 18 44 18 51 0 62 10 44
40 -17 27 -48 27 -41 0 5 -17 0 -20 -26 -20 -35 0 -37 3 -15 24 14 14 14 16 0
16 -9 0 -22 -13 -31 -30z"/>
<path d="M2990 510 c0 -11 6 -20 14 -20 7 0 16 9 19 20 4 15 0 20 -14 20 -12
0 -19 -7 -19 -20z"/>
<path d="M3059 512 c11 -21 -3 -42 -26 -42 -17 0 -53 -36 -53 -54 0 -28 28
-44 75 -42 47 2 76 18 56 30 -6 4 -11 27 -11 51 0 56 -8 75 -31 75 -16 0 -18
-3 -10 -18z m11 -72 c0 -16 -26 -40 -44 -40 -11 0 -6 36 6 48 18 18 38 14 38
-8z"/>
<path d="M3519 514 c-7 -9 -13 -36 -13 -61 -1 -38 3 -49 26 -66 50 -38 118 3
118 71 0 41 -23 72 -54 72 -15 0 -16 -2 -3 -15 25 -24 31 -73 13 -100 -20 -31
-30 -31 -56 -3 -26 28 -26 72 0 98 19 19 19 20 1 20 -10 0 -24 -7 -32 -16z"/>
<path d="M3675 513 c4 -10 14 -36 22 -57 31 -86 45 -95 63 -41 6 19 15 35 19
35 4 0 13 -16 20 -35 7 -19 15 -35 19 -35 8 0 35 58 51 109 14 43 14 41 -5 41
-8 0 -13 -3 -10 -8 2 -4 -2 -23 -10 -41 -17 -40 -33 -32 -37 17 -2 28 -6 32
-29 32 -31 0 -33 -3 -18 -30 10 -19 4 -50 -10 -50 -10 0 -40 62 -34 72 3 4 -7
8 -21 8 -22 0 -26 -3 -20 -17z"/>
</g>
</svg>
