<?xml version="1.0" standalone="no"?>
<!DOCTYPE svg PUBLIC "-//W3C//DTD SVG 20010904//EN"
 "http://www.w3.org/TR/2001/REC-SVG-20010904/DTD/svg10.dtd">
<svg version="1.0" xmlns="http://www.w3.org/2000/svg"
 width="636.000000pt" height="497.000000pt" viewBox="0 0 636.000000 497.000000"
 preserveAspectRatio="xMidYMid meet">

<g transform="translate(0.000000,497.000000) scale(0.100000,-0.100000)"
fill="#000000" stroke="none">
<path d="M100 2460 l0 -2430 3075 0 3075 0 0 2430 0 2430 -3075 0 -3075 0 0
-2430z m6120 0 l0 -2400 -3045 0 -3045 0 0 2400 0 2400 3045 0 3045 0 0 -2400z"/>
<path d="M1040 4732 c0 -5 11 -40 24 -78 32 -92 48 -91 87 4 16 40 29 75 29
78 0 2 -8 4 -18 4 -18 0 -42 -37 -42 -65 0 -28 -17 -15 -33 25 -9 23 -22 40
-31 40 -9 0 -16 -4 -16 -8z"/>
<path d="M1310 4664 c0 -56 3 -75 13 -72 8 3 13 30 15 76 2 60 0 72 -13 72
-12 0 -15 -14 -15 -76z"/>
<path d="M1850 4659 c0 -60 3 -80 13 -77 6 3 13 17 15 31 3 22 8 27 31 27 36
0 51 17 51 56 0 36 -13 44 -71 44 l-39 0 0 -81z m74 30 c-7 -12 -44 -12 -44 0
0 5 6 11 13 14 17 6 38 -3 31 -14z"/>
<path d="M2203 4720 c-3 -11 -9 -20 -14 -20 -5 0 -9 -7 -9 -15 0 -8 5 -15 10
-15 6 0 10 -20 10 -45 0 -33 4 -45 15 -45 11 0 15 12 15 45 0 26 5 45 11 45 6
0 9 9 6 20 -3 11 -1 20 3 20 5 0 10 -28 12 -62 2 -48 7 -63 18 -63 12 0 16 17
18 78 l3 77 -47 0 c-37 0 -47 -4 -51 -20z"/>
<path d="M2322 4663 c2 -50 7 -78 16 -81 9 -3 12 17 12 77 0 66 -3 81 -15 81
-13 0 -15 -13 -13 -77z"/>
<path d="M2557 4666 c-14 -41 -23 -77 -19 -80 12 -12 31 -5 37 14 9 27 49 26
68 -2 12 -18 18 -20 27 -11 10 9 7 26 -12 80 -21 57 -30 68 -51 71 -23 3 -27
-3 -50 -72z m63 -2 c0 -14 -12 -19 -23 -8 -9 9 4 35 14 28 5 -3 9 -12 9 -20z"/>
<path d="M2699 4675 c-1 -36 -2 -71 -3 -77 -1 -7 7 -14 17 -16 15 -3 17 6 17
77 0 65 -3 81 -15 81 -12 0 -15 -15 -16 -65z"/>
<path d="M3360 4720 c0 -14 6 -20 18 -18 14 3 18 -6 20 -52 5 -95 42 -93 42 3
0 40 3 47 20 47 16 0 19 -8 22 -57 2 -44 7 -58 18 -58 10 0 16 13 18 41 3 43
25 61 53 44 9 -6 9 -12 -4 -25 -20 -19 -20 -21 -7 -46 11 -20 40 -27 40 -9 0
6 10 5 25 -2 14 -6 27 -9 29 -7 2 2 1 31 -2 64 -7 56 -9 60 -35 63 -16 2 -35
-2 -43 -9 -13 -10 -17 -10 -23 0 -5 7 -14 12 -22 11 -31 -5 -49 1 -49 15 0 12
-13 15 -60 15 -54 0 -60 -2 -60 -20z m260 -44 c0 -11 -19 -15 -25 -6 -3 5 1
10 9 10 9 0 16 -2 16 -4z m-5 -55 c-3 -6 -11 -11 -17 -11 -6 0 -6 6 2 15 14
17 26 13 15 -4z"/>
<path d="M4110 4659 c0 -60 3 -80 13 -77 8 3 13 31 15 81 2 64 0 77 -13 77
-12 0 -15 -15 -15 -81z"/>
<path d="M4395 4697 c-10 -63 -3 -112 15 -112 12 0 16 17 18 78 2 63 0 77 -12
77 -10 0 -17 -15 -21 -43z"/>
<path d="M4770 4659 l0 -80 53 3 c38 2 52 7 52 18 0 10 -12 16 -37 18 l-38 3
0 60 c0 46 -3 59 -15 59 -12 0 -15 -16 -15 -81z"/>
<path d="M4900 4660 c0 -44 4 -80 9 -80 15 0 21 28 21 96 0 50 -3 64 -15 64
-12 0 -15 -16 -15 -80z"/>
<path d="M5200 4725 c-17 -21 -4 -50 24 -51 31 -2 43 33 18 52 -22 17 -27 17
-42 -1z"/>
<path d="M1361 4716 c-12 -15 -4 -103 11 -123 6 -8 17 -9 32 -3 13 4 28 5 35
1 19 -12 86 -7 85 7 -1 7 -2 32 -2 57 -2 38 -5 45 -26 51 -39 10 -69 -4 -62
-29 5 -23 -19 -65 -31 -54 -3 4 -7 18 -9 31 -2 18 1 23 12 19 19 -7 19 24 0
43 -18 18 -30 18 -45 0z m124 -46 c-3 -5 -10 -10 -16 -10 -5 0 -9 5 -9 10 0 6
7 10 16 10 8 0 12 -4 9 -10z m-5 -50 c0 -5 -4 -10 -10 -10 -5 0 -10 5 -10 10
0 6 5 10 10 10 6 0 10 -4 10 -10z"/>
<path d="M1187 4692 c-18 -19 -22 -68 -9 -89 4 -6 19 -14 34 -18 21 -5 33 -1
52 18 13 14 23 33 21 43 -2 11 -4 22 -4 26 -2 16 -34 38 -55 38 -13 0 -30 -8
-39 -18z m61 -45 c4 -21 -27 -35 -38 -17 -12 19 0 42 19 38 9 -2 17 -11 19
-21z"/>
<path d="M1555 4694 c-18 -19 -20 -75 -3 -92 10 -10 10 -15 -1 -22 -23 -14 5
-40 43 -40 47 0 56 15 56 96 l0 72 -40 0 c-23 1 -46 -6 -55 -14z m53 -46 c-4
-27 -23 -34 -32 -13 -8 21 1 35 20 35 10 0 14 -8 12 -22z"/>
<path d="M1686 4694 c-22 -22 -20 -77 3 -98 14 -13 28 -16 50 -11 41 9 40 33
-1 38 l-33 4 33 1 c28 2 32 5 32 32 0 45 -52 66 -84 34z"/>
<path d="M1990 4645 c0 -51 3 -65 15 -65 11 0 15 12 15 45 0 32 4 45 14 45 12
0 26 20 26 36 0 2 -16 4 -35 4 l-35 0 0 -65z"/>
<path d="M2077 4692 c-26 -28 -22 -78 7 -97 62 -41 129 42 76 95 -25 25 -62
26 -83 2z m58 -47 c0 -11 -7 -21 -16 -23 -18 -3 -33 23 -23 39 10 17 39 5 39
-16z"/>
<path d="M2387 4692 c-32 -35 -13 -112 26 -112 57 1 78 36 25 43 l-33 4 31 1
c37 2 47 20 30 53 -15 31 -56 36 -79 11z"/>
<path d="M2766 4694 c-9 -8 -16 -31 -16 -49 0 -42 35 -71 72 -59 30 9 38 22
38 61 0 37 -22 63 -55 63 -13 0 -31 -7 -39 -16z m59 -49 c0 -11 -7 -21 -16
-23 -18 -3 -33 23 -23 39 10 17 39 5 39 -16z"/>
<path d="M2880 4644 c0 -49 3 -64 14 -64 10 0 16 14 18 43 2 29 8 42 18 42 11
0 16 -13 18 -43 4 -59 26 -50 30 12 4 59 -9 75 -59 74 l-39 0 0 -64z"/>
<path d="M3020 4700 c-13 -8 -15 -34 -8 -115 3 -37 6 -40 34 -43 49 -5 64 18
64 98 l0 68 -38 0 c-21 0 -44 -3 -52 -8z m55 -55 c0 -11 -8 -21 -17 -23 -14
-3 -18 3 -18 23 0 20 4 26 18 23 9 -2 17 -12 17 -23z"/>
<path d="M3200 4695 c-6 -8 -9 -19 -6 -24 4 -6 1 -19 -6 -31 -21 -33 1 -55 53
-55 l44 0 -4 55 c-1 30 -5 58 -8 63 -8 13 -60 8 -73 -8z m45 -25 c-3 -5 -11
-10 -16 -10 -6 0 -7 5 -4 10 3 6 11 10 16 10 6 0 7 -4 4 -10z m0 -50 c-3 -5
-10 -10 -16 -10 -5 0 -9 5 -9 10 0 6 7 10 16 10 8 0 12 -4 9 -10z"/>
<path d="M3682 4648 c4 -73 25 -92 30 -26 2 31 8 44 21 46 14 3 17 -4 17 -42
0 -25 4 -46 10 -46 14 0 22 40 18 86 l-3 39 -48 2 -48 2 3 -61z"/>
<path d="M3809 4694 c-11 -14 -11 -21 3 -45 15 -26 15 -29 2 -29 -24 0 -11
-24 19 -34 21 -8 31 -6 47 9 22 20 26 51 8 58 -10 4 -10 8 1 15 12 9 12 13 2
26 -17 21 -65 21 -82 0z m51 -24 c0 -5 -2 -10 -4 -10 -3 0 -8 5 -11 10 -3 6
-1 10 4 10 6 0 11 -4 11 -10z"/>
<path d="M3920 4660 c0 -27 3 -55 6 -64 12 -31 24 -16 24 29 0 33 4 45 15 45
10 0 15 -10 15 -32 0 -18 4 -39 9 -47 15 -23 31 -2 31 40 0 55 24 47 28 -9 2
-29 8 -42 18 -42 11 0 14 14 14 60 0 68 1 68 -102 68 l-58 1 0 -49z"/>
<path d="M4172 4698 c-17 -17 -15 -38 5 -60 15 -17 15 -18 0 -18 -20 0 -23
-26 -4 -33 8 -3 29 -2 48 2 27 5 35 12 37 34 2 15 -2 27 -8 27 -6 0 -9 12 -8
28 3 24 -1 27 -27 30 -17 2 -36 -3 -43 -10z m48 -28 c0 -5 -2 -10 -4 -10 -3 0
-8 5 -11 10 -3 6 -1 10 4 10 6 0 11 -4 11 -10z"/>
<path d="M4293 4704 c-7 -3 -13 -19 -13 -35 0 -23 7 -32 33 -44 l32 -15 -32 6
c-26 4 -33 2 -33 -10 0 -18 40 -31 69 -21 23 7 36 39 24 57 -4 7 -8 24 -8 38
0 21 -5 25 -30 27 -16 1 -36 0 -42 -3z m47 -34 c0 -5 -7 -7 -15 -4 -8 4 -15 8
-15 10 0 2 7 4 15 4 8 0 15 -4 15 -10z"/>
<path d="M4466 4694 c-35 -34 -11 -114 34 -114 10 0 22 5 25 10 4 6 10 8 15 5
10 -6 20 19 20 55 0 35 -23 60 -55 60 -13 0 -31 -7 -39 -16z m59 -49 c0 -11
-7 -21 -16 -23 -18 -3 -33 23 -23 39 10 17 39 5 39 -16z"/>
<path d="M4580 4660 c0 -53 7 -80 21 -80 5 0 9 10 9 23 0 38 12 67 26 67 10 0
14 -12 14 -38 0 -45 8 -56 27 -41 17 14 17 93 0 107 -7 6 -32 11 -55 10 l-42
0 0 -48z"/>
<path d="M4950 4656 c0 -84 34 -106 42 -27 4 46 28 54 28 9 0 -18 5 -40 10
-48 9 -13 11 -13 20 0 13 20 13 76 0 100 -8 15 -21 19 -55 18 l-45 -1 0 -51z"/>
<path d="M5087 4692 c-17 -19 -22 -69 -9 -88 11 -17 41 -25 68 -18 25 6 34 34
12 34 -7 0 -5 5 5 11 23 13 22 34 -3 59 -25 25 -52 26 -73 2z"/>
<path d="M840 4253 c-7 -32 -20 -89 -30 -128 -10 -38 -21 -82 -24 -97 l-6 -28
136 0 c104 0 135 3 131 13 -2 8 -36 12 -116 13 -61 1 -114 4 -117 7 -3 3 -1
21 5 39 6 18 13 47 16 63 3 17 12 55 20 85 17 64 19 90 6 90 -5 0 -15 -26 -21
-57z"/>
<path d="M5471 4181 c-16 -71 -33 -140 -37 -155 l-6 -26 136 0 c75 0 136 4
136 9 0 15 -41 21 -142 21 -54 0 -98 1 -98 3 0 1 5 18 10 37 6 19 13 50 16 68
3 19 12 55 20 80 16 54 18 92 5 92 -5 0 -23 -58 -40 -129z"/>
<path d="M5654 4235 c-9 -23 3 -45 26 -45 12 0 19 4 16 9 -4 5 -1 11 5 13 5 2
7 11 4 21 -9 21 -44 23 -51 2z"/>
<path d="M515 4208 c4 -18 16 -54 27 -80 30 -70 49 -64 82 25 32 87 32 89 4
85 -17 -2 -25 -13 -31 -40 -5 -21 -12 -38 -16 -38 -5 0 -15 18 -24 40 -20 51
-52 57 -42 8z"/>
<path d="M5163 4213 c8 -41 40 -127 52 -135 5 -4 13 -2 17 5 4 7 8 8 8 2 1
-16 48 97 52 125 2 17 -2 26 -14 28 -12 2 -21 -11 -33 -49 l-18 -52 -16 49
c-10 32 -22 50 -35 52 -16 3 -18 -1 -13 -25z"/>
<path d="M885 4190 c-3 -5 -4 -19 0 -29 3 -11 1 -22 -5 -26 -5 -3 -10 -22 -10
-41 0 -28 5 -36 26 -44 57 -22 79 22 50 105 -14 40 -46 59 -61 35z m45 -80 c8
-16 7 -25 -4 -42 l-15 -21 -7 27 c-6 25 0 56 10 56 3 0 10 -9 16 -20z"/>
<path d="M5530 4166 c-13 -39 -5 -100 15 -116 21 -18 58 -7 73 20 15 29 8 110
-11 122 -6 4 -24 8 -39 8 -21 0 -29 -7 -38 -34z m58 -47 c-2 -19 -7 -33 -13
-32 -14 3 -18 29 -10 60 9 37 27 14 23 -28z"/>
<path d="M662 4138 c-18 -18 -15 -85 4 -92 39 -15 66 11 57 57 -9 45 -36 60
-61 35z"/>
<path d="M5300 4096 c0 -46 13 -68 24 -40 6 15 8 15 24 0 27 -24 30 -21 28 32
-1 47 -1 47 -38 50 l-38 3 0 -45z"/>
<path d="M2603 3942 c-13 -2 -23 -9 -23 -17 0 -15 31 -25 78 -25 27 0 32 4 32
24 0 21 -5 24 -32 23 -18 0 -43 -2 -55 -5z"/>
<path d="M2728 3944 c-8 -7 3 -44 13 -44 4 0 11 5 14 10 3 6 22 10 41 10 24 0
34 5 34 15 0 11 -12 15 -48 15 -27 0 -51 -3 -54 -6z"/>
<path d="M2860 3930 c0 -17 7 -20 49 -20 45 0 61 10 61 36 0 2 -25 4 -55 4
-48 0 -55 -2 -55 -20z"/>
<path d="M3000 3929 c0 -18 5 -20 52 -17 41 2 54 7 56 21 3 14 -5 17 -52 17
-50 0 -56 -2 -56 -21z"/>
<path d="M3140 3930 c0 -17 7 -20 49 -20 40 0 50 3 54 20 5 18 0 20 -49 20
-47 0 -54 -2 -54 -20z"/>
<path d="M3280 3930 c0 -22 21 -25 79 -14 54 11 38 34 -24 34 -48 0 -55 -2
-55 -20z"/>
<path d="M3422 3928 c3 -20 10 -23 51 -26 46 -3 48 -2 45 20 -3 20 -10 23 -51
26 -46 3 -48 2 -45 -20z"/>
<path d="M2450 3918 c0 -12 3 -18 7 -15 3 4 12 2 18 -3 20 -16 75 -1 75 21 0
16 -8 19 -50 19 -45 0 -50 -2 -50 -22z"/>
<path d="M3560 3923 c0 -14 10 -18 50 -20 44 -3 50 0 50 17 0 17 -7 20 -50 20
-41 0 -50 -3 -50 -17z"/>
<path d="M3700 3918 c0 -10 4 -17 9 -13 5 3 12 1 16 -5 10 -16 65 -12 72 5 7
21 6 21 -49 27 -43 5 -48 3 -48 -14z"/>
<path d="M2317 3923 c-11 -10 -8 -43 3 -43 6 0 10 4 10 9 0 5 17 7 39 4 33 -5
39 -2 44 16 5 19 1 21 -42 21 -26 0 -51 -3 -54 -7z"/>
<path d="M3833 3914 c-9 -24 7 -34 53 -34 31 0 46 5 51 15 7 21 6 21 -50 28
-35 3 -50 1 -54 -9z"/>
<path d="M2198 3913 c-41 -6 -39 -43 1 -43 17 0 33 5 36 11 4 6 13 8 21 5 9
-3 14 2 14 14 0 21 -10 22 -72 13z"/>
<path d="M2068 3903 c-30 -3 -38 -9 -38 -24 0 -24 25 -36 43 -21 7 6 22 9 34
6 24 -7 41 25 21 38 -7 4 -15 7 -18 6 -3 -1 -22 -3 -42 -5z"/>
<path d="M3970 3889 c0 -18 4 -20 25 -15 14 4 25 2 25 -4 0 -5 14 -10 30 -10
29 0 38 13 22 36 -4 6 -28 11 -54 13 -43 2 -48 0 -48 -20z"/>
<path d="M785 3618 c3 -156 10 -287 15 -291 4 -5 15 -1 24 8 13 13 16 39 16
141 l0 124 2275 0 2275 0 0 -130 c0 -109 3 -132 15 -137 9 -3 18 -3 20 -1 3 3
6 131 7 286 l3 282 -22 0 c-23 0 -23 -2 -23 -130 l0 -130 -34 0 c-19 0 -53 9
-77 20 -57 25 -79 25 -79 0 0 -20 -6 -20 -2117 -19 -1165 1 -2105 4 -2088 6
41 6 75 53 39 53 -41 0 -94 -24 -94 -42 0 -20 -15 -24 -25 -8 -4 6 -23 9 -43
8 -36 -3 -37 -2 -38 32 -3 215 -2 210 -30 210 l-27 0 8 -282z"/>
<path d="M4110 3882 c0 -27 15 -35 40 -22 13 7 20 7 20 0 0 -18 29 -11 40 10
9 17 8 20 -7 20 -10 0 -35 3 -55 6 -34 6 -38 4 -38 -14z"/>
<path d="M1913 3883 c-33 -6 -31 -43 2 -43 14 0 25 4 25 10 0 5 13 7 30 4 26
-6 30 -4 30 15 0 17 -6 21 -32 20 -18 -1 -43 -4 -55 -6z"/>
<path d="M4250 3862 c0 -28 59 -41 90 -19 26 18 16 25 -44 33 -42 6 -46 5 -46
-14z"/>
<path d="M1788 3863 c-16 -2 -28 -11 -28 -18 0 -19 50 -32 59 -16 4 6 15 9 25
5 14 -5 17 -3 14 12 -3 20 -23 24 -70 17z"/>
<path d="M4390 3839 c0 -11 5 -17 10 -14 6 3 10 1 10 -4 0 -6 18 -11 40 -11
32 0 40 4 40 19 0 13 -10 20 -31 25 -54 11 -69 8 -69 -15z"/>
<path d="M1638 3843 c-10 -2 -18 -10 -18 -18 0 -18 30 -28 45 -15 7 6 20 7 30
4 17 -7 38 13 29 28 -5 8 -56 9 -86 1z"/>
<path d="M4520 3821 c0 -13 9 -21 30 -26 16 -4 34 -4 40 0 5 3 10 1 10 -4 0
-6 7 -11 15 -11 15 0 21 35 8 43 -5 3 -29 8 -55 11 -44 7 -48 5 -48 -13z"/>
<path d="M1530 3823 c-47 -6 -60 -20 -36 -39 17 -12 22 -12 37 2 12 11 19 12
24 4 10 -16 35 7 28 26 -3 8 -8 13 -12 12 -3 0 -22 -3 -41 -5z"/>
<path d="M6011 3822 c-7 -2 -11 -32 -11 -83 0 -64 3 -79 15 -79 10 0 15 10 15
30 0 25 4 30 23 30 39 0 59 22 55 60 -3 33 -6 35 -44 40 -23 3 -46 4 -53 2z
m63 -41 c8 -12 -21 -34 -34 -26 -17 11 -11 35 9 35 11 0 22 -4 25 -9z"/>
<path d="M4665 3812 c-8 -8 -6 -42 3 -40 4 1 24 -2 46 -7 28 -6 40 -4 47 6 4
8 5 17 1 21 -10 10 -90 27 -97 20z"/>
<path d="M140 3724 c0 -64 3 -85 13 -82 6 3 13 17 15 31 2 18 9 27 22 27 53 0
82 45 55 86 -12 19 -24 24 -60 24 l-45 0 0 -86z m75 31 c0 -5 -10 -11 -22 -13
-16 -2 -23 2 -23 13 0 11 7 15 23 13 12 -2 22 -7 22 -13z"/>
<path d="M1373 3788 c-36 -12 -38 -15 -23 -38 7 -11 12 -12 18 -3 4 6 24 14
45 18 21 4 37 13 37 21 0 16 -30 17 -77 2z"/>
<path d="M4796 3775 c-6 -17 10 -39 23 -31 6 4 17 4 24 -1 6 -4 22 -9 35 -11
16 -2 22 2 22 16 0 15 -11 22 -50 29 -36 7 -50 7 -54 -2z"/>
<path d="M5837 3760 c-4 -16 -14 -20 -54 -21 -26 -1 -59 -4 -73 -8 -23 -7 -23
-8 13 -15 20 -4 37 -11 37 -16 0 -6 18 -10 40 -10 29 0 40 -4 40 -15 0 -8 2
-15 3 -15 12 0 91 48 94 57 3 8 -77 63 -92 63 -2 0 -5 -9 -8 -20z"/>
<path d="M640 3750 c0 -17 -8 -19 -72 -22 l-73 -3 39 -17 c21 -10 52 -18 68
-18 21 0 31 -6 35 -20 3 -11 8 -20 12 -20 19 0 91 47 91 60 0 13 -72 60 -92
60 -5 0 -8 -9 -8 -20z"/>
<path d="M1243 3759 c-23 -7 -33 -16 -33 -29 0 -20 16 -28 22 -11 2 5 17 11
33 13 32 3 56 18 48 31 -5 9 -29 8 -70 -4z"/>
<path d="M4939 3756 c-1 -1 -3 -11 -4 -23 -2 -17 5 -23 39 -32 40 -10 56 -2
57 26 0 5 -87 33 -92 29z"/>
<path d="M1113 3729 c-18 -5 -33 -16 -33 -24 0 -17 20 -31 29 -19 3 5 19 10
34 11 34 1 41 7 34 28 -7 17 -17 17 -64 4z"/>
<path d="M5070 3701 c0 -20 38 -39 68 -33 6 2 12 -2 12 -8 0 -6 5 -8 10 -5 21
13 10 42 -17 49 -16 3 -38 8 -50 12 -19 5 -23 2 -23 -15z"/>
<path d="M6018 3554 c-25 -13 -28 -20 -28 -64 0 -61 17 -80 76 -81 24 -1 50
-2 57 -3 11 -1 13 31 8 116 -1 18 -49 48 -73 48 -7 -1 -25 -8 -40 -16z m70
-36 c7 -7 12 -23 12 -36 0 -18 -4 -23 -17 -18 -9 4 -20 1 -24 -6 -7 -10 -12
-9 -25 4 -15 14 -16 22 -6 43 12 27 40 33 60 13z"/>
<path d="M1520 3450 l0 -80 46 0 c73 0 84 11 81 78 -1 31 -6 63 -10 70 -5 7
-30 12 -63 12 l-54 0 0 -80z m86 37 c4 -4 -5 -7 -19 -7 -15 0 -27 4 -27 10 0
11 35 8 46 -3z m4 -62 c0 -9 -9 -15 -25 -15 -16 0 -25 6 -25 15 0 9 9 15 25
15 16 0 25 -6 25 -15z"/>
<path d="M1784 3453 c1 -62 4 -78 16 -78 12 0 16 17 18 78 3 70 1 77 -16 77
-18 0 -20 -7 -18 -77z"/>
<path d="M2202 3518 c-7 -7 -12 -23 -12 -36 0 -18 9 -27 40 -39 22 -9 40 -20
40 -25 0 -14 -37 -9 -50 7 -19 23 -32 18 -28 -12 6 -57 108 -52 116 5 5 30
-12 49 -49 57 -16 4 -27 11 -23 16 3 5 13 5 24 -1 28 -15 40 -12 40 9 0 30
-72 45 -98 19z"/>
<path d="M2840 3450 c0 -64 3 -80 15 -80 12 0 15 16 15 80 0 64 -3 80 -15 80
-12 0 -15 -16 -15 -80z"/>
<path d="M3390 3511 c0 -14 -5 -18 -20 -14 -32 8 -50 -15 -50 -63 0 -50 15
-63 70 -60 l35 2 3 77 c3 72 1 77 -18 77 -13 0 -20 -7 -20 -19z m0 -70 c0 -11
-5 -23 -11 -27 -15 -9 -33 12 -26 30 9 23 37 20 37 -3z"/>
<path d="M3982 3453 l3 -78 50 0 c39 0 50 4 53 17 2 13 -5 17 -35 20 l-38 3
-3 58 c-2 42 -7 57 -18 57 -12 0 -14 -14 -12 -77z"/>
<path d="M4420 3515 c0 -9 -9 -15 -23 -15 -13 0 -28 -5 -35 -12 -16 -16 -15
-93 1 -106 14 -12 87 -11 87 1 0 4 0 39 0 77 0 56 -3 70 -15 70 -8 0 -15 -7
-15 -15z m0 -74 c0 -11 -5 -23 -11 -27 -15 -9 -33 12 -26 30 9 23 37 20 37 -3z"/>
<path d="M4480 3450 c0 -64 3 -80 15 -80 12 0 15 16 15 80 0 64 -3 80 -15 80
-12 0 -15 -16 -15 -80z"/>
<path d="M5827 3500 c-4 -17 -14 -20 -66 -20 -34 0 -61 -2 -61 -4 0 -28 16
-36 71 -36 52 0 59 -2 59 -20 0 -11 3 -20 7 -20 16 0 93 52 93 63 0 12 -70 57
-88 57 -5 0 -12 -9 -15 -20z"/>
<path d="M162 3490 c-50 -47 -16 -140 51 -140 18 0 41 -3 53 -6 19 -5 21 -1
22 60 0 59 -2 68 -25 86 -33 26 -73 26 -101 0z m76 -32 c7 -7 12 -23 12 -36 0
-18 -4 -23 -17 -18 -9 4 -20 1 -24 -5 -11 -19 -29 0 -29 31 0 37 33 53 58 28z"/>
<path d="M348 3488 c-21 -12 -38 -27 -38 -33 0 -5 20 -22 45 -37 42 -25 44
-26 50 -8 5 16 17 20 68 22 49 2 62 6 65 21 3 14 -4 17 -40 17 -57 0 -88 9
-88 26 0 20 -19 17 -62 -8z"/>
<path d="M1680 3485 c-17 -21 -14 -85 4 -103 9 -10 24 -12 45 -7 36 8 49 24
30 36 -10 6 -11 9 -1 9 18 0 14 45 -6 63 -23 21 -56 22 -72 2z m47 -71 c-3 -3
-12 -4 -19 -1 -8 3 -5 6 6 6 11 1 17 -2 13 -5z"/>
<path d="M1851 3481 c-32 -32 -6 -110 37 -111 31 0 62 32 62 65 0 60 -58 87
-99 46z m69 -39 c0 -10 -22 -32 -31 -32 -11 0 -19 28 -13 45 5 11 11 12 25 4
10 -5 19 -13 19 -17z"/>
<path d="M1960 3488 c0 -6 8 -35 17 -65 18 -57 45 -70 51 -25 4 28 20 29 24 0
5 -34 24 -32 42 6 26 56 32 96 12 96 -10 0 -19 -11 -22 -30 -7 -34 -24 -30
-24 6 0 17 -5 24 -20 24 -13 0 -20 -7 -20 -19 0 -30 -17 -34 -24 -6 -6 25 -36
36 -36 13z"/>
<path d="M2330 3446 c0 -63 19 -88 51 -68 11 7 19 8 19 2 0 -5 7 -10 15 -10
12 0 15 14 15 65 0 51 -3 65 -15 65 -10 0 -15 -10 -15 -32 0 -18 -5 -40 -10
-48 -9 -13 -11 -13 -20 0 -5 8 -10 30 -10 48 0 22 -5 32 -15 32 -11 0 -15 -13
-15 -54z"/>
<path d="M2460 3434 c0 -48 3 -65 13 -61 6 2 12 12 13 23 1 10 2 29 3 42 0 12
7 22 15 22 12 0 26 20 26 36 0 2 -16 4 -35 4 l-35 0 0 -66z"/>
<path d="M2540 3480 c-13 -24 -13 -56 0 -81 7 -13 7 -19 0 -19 -15 0 -12 -16
6 -35 10 -9 20 -13 23 -8 3 4 20 8 36 8 l30 0 3 76 3 76 -45 1 c-35 1 -48 -3
-56 -18z m67 -35 c5 -16 -14 -38 -26 -31 -18 12 -13 48 6 44 9 -2 18 -7 20
-13z"/>
<path d="M2676 3484 c-9 -8 -16 -31 -16 -49 0 -57 44 -82 86 -50 15 12 16 16
6 23 -11 8 -11 10 1 15 16 6 13 41 -6 65 -13 17 -52 15 -71 -4z"/>
<path d="M2890 3434 c0 -57 2 -65 18 -62 12 2 18 15 20 46 2 28 8 42 18 42 10
0 14 -12 14 -45 0 -33 4 -45 15 -45 11 0 15 12 16 43 1 23 1 45 0 49 0 4 6 5
14 2 8 -3 15 -23 17 -47 4 -59 32 -58 36 0 5 70 -6 80 -93 81 l-75 2 0 -66z"/>
<path d="M3080 3414 c0 -46 2 -84 4 -84 20 0 33 14 29 31 -4 15 -2 18 11 13
28 -11 66 23 66 57 0 53 -15 68 -65 67 l-45 -1 0 -83z m77 31 c5 -16 -14 -38
-26 -31 -18 12 -13 48 6 44 9 -2 18 -7 20 -13z"/>
<path d="M3218 3489 c-12 -7 -18 -22 -18 -49 0 -61 42 -89 86 -55 16 13 17 16
4 25 -10 6 -11 10 -2 10 15 0 16 52 0 68 -15 15 -47 15 -70 1z m49 -35 c-3 -3
-12 -4 -19 -1 -8 3 -5 6 6 6 11 1 17 -2 13 -5z"/>
<path d="M3461 3486 c-7 -8 -11 -20 -10 -28 1 -7 -1 -21 -5 -30 -4 -9 -3 -25
3 -36 8 -16 21 -20 56 -20 l45 1 -6 51 c-3 28 -7 57 -9 64 -6 17 -60 15 -74
-2z m44 -26 c-3 -5 -11 -10 -16 -10 -6 0 -7 5 -4 10 3 6 11 10 16 10 6 0 7 -4
4 -10z m0 -49 c-3 -6 -11 -8 -17 -5 -6 4 -5 9 3 15 16 10 23 4 14 -10z"/>
<path d="M3560 3435 c0 -58 2 -65 20 -65 17 0 20 7 20 45 0 33 4 45 15 45 11
0 15 -12 15 -46 0 -38 3 -45 18 -42 12 2 18 15 20 45 5 64 -10 83 -63 83 l-45
0 0 -65z"/>
<path d="M3702 3488 c-30 -30 -5 -118 34 -118 24 0 54 19 54 34 0 19 -25 27
-39 13 -15 -15 -36 6 -27 28 4 13 13 15 36 10 22 -5 30 -3 30 7 0 22 -22 38
-50 38 -14 0 -31 -5 -38 -12z"/>
<path d="M3817 3482 c-22 -25 -21 -64 2 -93 16 -20 23 -22 47 -14 28 10 34 24
35 78 0 45 -53 63 -84 29z"/>
<path d="M4122 3482 c-27 -27 -18 -90 14 -104 29 -13 74 3 74 27 0 8 5 15 10
15 6 0 10 -9 10 -19 0 -22 19 -30 65 -27 29 1 30 3 33 49 4 56 -9 77 -48 77
-35 0 -57 -24 -41 -44 9 -11 9 -15 -1 -18 -7 -3 -19 9 -28 26 -18 38 -60 46
-88 18z m163 -22 c-3 -5 -11 -10 -16 -10 -6 0 -7 5 -4 10 3 6 11 10 16 10 6 0
7 -4 4 -10z m-102 -14 c8 -20 -20 -43 -35 -28 -14 14 -3 42 16 42 7 0 16 -6
19 -14z m100 -21 c4 -8 2 -17 -3 -20 -6 -4 -10 3 -10 14 0 25 6 27 13 6z"/>
<path d="M4540 3433 c0 -47 3 -64 13 -61 6 3 14 22 17 44 7 56 34 53 38 -3 2
-29 8 -43 18 -43 11 0 14 14 14 59 0 65 -4 69 -67 69 l-33 1 0 -66z"/>
<path d="M4672 3488 c-15 -15 -16 -95 -1 -104 8 -4 7 -9 -2 -15 -11 -6 -11
-11 -1 -21 15 -15 84 -12 94 5 4 7 8 42 8 78 l0 66 -43 1 c-24 1 -49 -4 -55
-10z m58 -47 c0 -28 -21 -37 -36 -16 -16 22 -10 35 17 35 12 0 19 -7 19 -19z"/>
<path d="M5502 3070 c-13 -28 -74 -281 -69 -286 6 -7 259 -6 265 1 11 11 -22
25 -60 25 l-37 0 15 28 c37 71 -9 162 -67 131 -26 -13 -35 -89 -16 -127 l15
-30 -40 -4 c-22 -2 -41 -1 -43 3 -2 3 9 61 26 128 30 122 35 184 11 131z m86
-181 c-2 -19 -7 -33 -13 -32 -14 3 -18 29 -10 60 9 37 27 14 23 -28z"/>
<path d="M851 3043 c-34 -130 -63 -254 -60 -258 7 -6 258 -9 265 -3 18 19 -17
26 -117 26 -60 0 -112 2 -115 5 -3 3 -1 21 5 39 6 18 12 49 14 68 3 19 7 42
10 50 28 77 33 110 17 110 -5 0 -14 -17 -19 -37z"/>
<path d="M5654 3005 c-9 -23 3 -45 25 -45 25 0 34 14 26 40 -7 23 -43 27 -51
5z"/>
<path d="M518 2988 c37 -120 46 -139 66 -136 13 2 26 21 42 63 28 73 30 98 7
93 -9 -2 -23 -22 -31 -47 l-15 -45 -16 45 c-12 31 -23 45 -38 47 -18 3 -21 0
-15 -20z"/>
<path d="M5163 2983 c3 -15 14 -52 24 -80 25 -73 50 -73 81 2 12 31 22 67 22
80 0 38 -27 30 -41 -12 -18 -58 -21 -59 -38 -12 -20 52 -57 70 -48 22z"/>
<path d="M894 2965 c-4 -8 -3 -22 0 -31 4 -9 0 -24 -8 -33 -11 -12 -13 -25 -8
-46 7 -25 14 -30 45 -32 32 -3 37 0 43 23 9 35 -19 119 -40 118 -9 -1 -13 2
-10 7 3 5 0 9 -6 9 -6 0 -13 -7 -16 -15z m44 -98 c2 -19 -1 -27 -13 -27 -19 0
-30 24 -21 46 9 23 31 11 34 -19z"/>
<path d="M674 2913 c-7 -5 -12 -27 -12 -51 -1 -43 0 -43 31 -40 31 3 32 5 32
48 0 37 -3 45 -20 48 -11 1 -25 -1 -31 -5z"/>
<path d="M5302 2869 c3 -41 28 -69 28 -32 1 17 1 17 15 -1 19 -25 30 -15 30
31 0 37 -1 38 -38 41 l-38 3 3 -42z"/>
<path d="M785 2377 c-4 -144 -6 -271 -4 -282 3 -12 12 -20 24 -20 19 0 20 8
23 130 l3 130 2279 -3 2280 -2 0 -130 0 -130 26 0 26 0 -3 285 -4 285 -22 0
c-23 0 -23 -2 -23 -130 l0 -130 -2276 0 -2275 0 3 23 c2 16 11 23 36 27 18 3
33 8 32 13 0 4 0 12 0 17 0 6 -13 10 -29 10 -17 0 -33 5 -37 11 -4 7 -6 45 -5
85 2 72 1 74 -22 74 l-25 0 -7 -263z"/>
<path d="M150 2474 c0 -64 3 -85 13 -82 6 3 13 17 15 31 2 19 9 27 23 27 39 0
59 19 59 55 0 40 -20 55 -74 55 l-36 0 0 -86z m75 31 c0 -5 -10 -11 -22 -13
-16 -2 -23 2 -23 13 0 11 7 15 23 13 12 -2 22 -7 22 -13z"/>
<path d="M5994 2547 c-3 -8 -4 -45 -2 -83 2 -53 6 -69 18 -69 9 0 16 11 18 28
2 19 9 27 23 27 39 0 59 19 59 55 0 24 -6 38 -19 45 -28 15 -91 13 -97 -3z
m76 -42 c0 -8 -9 -15 -20 -15 -11 0 -20 7 -20 15 0 8 9 15 20 15 11 0 20 -7
20 -15z"/>
<path d="M647 2490 c-4 -17 -14 -20 -66 -20 -34 0 -61 -4 -61 -9 0 -13 57 -31
96 -31 27 0 34 -4 34 -20 0 -11 3 -20 6 -20 13 0 94 53 94 61 0 10 -74 59 -89
59 -5 0 -11 -9 -14 -20z"/>
<path d="M5827 2490 c-4 -17 -14 -20 -66 -20 -34 0 -61 -4 -61 -9 0 -12 56
-31 93 -31 17 0 35 -8 43 -17 12 -17 14 -17 48 1 29 15 54 44 44 51 -27 17
-81 45 -87 45 -5 0 -11 -9 -14 -20z"/>
<path d="M960 2450 c0 -17 7 -20 50 -20 43 0 50 3 50 20 0 17 -7 20 -50 20
-43 0 -50 -3 -50 -20z"/>
<path d="M1090 2450 c0 -18 7 -20 55 -20 48 0 55 2 55 20 0 18 -7 20 -55 20
-48 0 -55 -2 -55 -20z"/>
<path d="M1230 2450 c0 -17 7 -20 50 -20 43 0 50 3 50 20 0 17 -7 20 -50 20
-43 0 -50 -3 -50 -20z"/>
<path d="M1370 2450 c0 -18 7 -20 55 -20 48 0 55 2 55 20 0 18 -7 20 -55 20
-48 0 -55 -2 -55 -20z"/>
<path d="M1510 2450 c0 -17 7 -20 50 -20 43 0 50 3 50 20 0 17 -7 20 -50 20
-43 0 -50 -3 -50 -20z"/>
<path d="M1650 2450 c0 -17 7 -20 50 -20 43 0 50 3 50 20 0 17 -7 20 -50 20
-43 0 -50 -3 -50 -20z"/>
<path d="M1790 2450 c0 -17 7 -20 50 -20 43 0 50 3 50 20 0 17 -7 20 -50 20
-43 0 -50 -3 -50 -20z"/>
<path d="M1920 2450 c0 -18 7 -20 55 -20 48 0 55 2 55 20 0 18 -7 20 -55 20
-48 0 -55 -2 -55 -20z"/>
<path d="M2060 2449 c0 -18 5 -20 52 -17 41 2 54 7 56 21 3 14 -5 17 -52 17
-50 0 -56 -2 -56 -21z"/>
<path d="M2200 2450 c0 -18 7 -20 55 -20 48 0 55 2 55 20 0 18 -7 20 -55 20
-48 0 -55 -2 -55 -20z"/>
<path d="M2340 2450 c0 -18 7 -20 55 -20 48 0 55 2 55 20 0 18 -7 20 -55 20
-48 0 -55 -2 -55 -20z"/>
<path d="M2480 2450 c0 -17 7 -20 50 -20 43 0 50 3 50 20 0 17 -7 20 -50 20
-43 0 -50 -3 -50 -20z"/>
<path d="M2620 2450 c0 -17 7 -20 50 -20 43 0 50 3 50 20 0 17 -7 20 -50 20
-43 0 -50 -3 -50 -20z"/>
<path d="M2760 2450 c0 -17 7 -20 50 -20 43 0 50 3 50 20 0 17 -7 20 -50 20
-43 0 -50 -3 -50 -20z"/>
<path d="M2900 2450 c0 -17 7 -20 50 -20 43 0 50 3 50 20 0 17 -7 20 -50 20
-43 0 -50 -3 -50 -20z"/>
<path d="M3030 2450 c0 -18 7 -20 55 -20 48 0 55 2 55 20 0 18 -7 20 -55 20
-48 0 -55 -2 -55 -20z"/>
<path d="M3170 2450 c0 -18 7 -20 55 -20 48 0 55 2 55 20 0 18 -7 20 -55 20
-48 0 -55 -2 -55 -20z"/>
<path d="M3310 2450 c0 -17 7 -20 50 -20 43 0 50 3 50 20 0 17 -7 20 -50 20
-43 0 -50 -3 -50 -20z"/>
<path d="M3450 2450 c0 -18 7 -20 55 -20 48 0 55 2 55 20 0 18 -7 20 -55 20
-48 0 -55 -2 -55 -20z"/>
<path d="M3590 2450 c0 -17 7 -20 50 -20 43 0 50 3 50 20 0 17 -7 20 -50 20
-43 0 -50 -3 -50 -20z"/>
<path d="M3727 2464 c-3 -3 -3 -12 0 -20 3 -9 21 -14 54 -14 42 0 49 3 49 20
0 17 -7 20 -48 20 -27 0 -51 -3 -55 -6z"/>
<path d="M3870 2450 c0 -17 7 -20 50 -20 43 0 50 3 50 20 0 17 -7 20 -50 20
-43 0 -50 -3 -50 -20z"/>
<path d="M4000 2450 c0 -18 7 -20 55 -20 48 0 55 2 55 20 0 18 -7 20 -55 20
-48 0 -55 -2 -55 -20z"/>
<path d="M4140 2450 c0 -17 7 -20 50 -20 43 0 50 3 50 20 0 17 -7 20 -50 20
-43 0 -50 -3 -50 -20z"/>
<path d="M4280 2450 c0 -18 7 -20 55 -20 48 0 55 2 55 20 0 18 -7 20 -55 20
-48 0 -55 -2 -55 -20z"/>
<path d="M4420 2450 c0 -18 7 -20 55 -20 48 0 55 2 55 20 0 18 -7 20 -55 20
-48 0 -55 -2 -55 -20z"/>
<path d="M4560 2450 c0 -17 7 -20 50 -20 43 0 50 3 50 20 0 17 -7 20 -50 20
-43 0 -50 -3 -50 -20z"/>
<path d="M4700 2450 c0 -17 7 -20 50 -20 43 0 50 3 50 20 0 17 -7 20 -50 20
-43 0 -50 -3 -50 -20z"/>
<path d="M4835 2460 c-12 -20 7 -30 56 -30 42 0 49 3 49 20 0 17 -7 20 -49 20
-28 0 -53 -4 -56 -10z"/>
<path d="M4972 2453 c2 -14 15 -19 56 -21 47 -3 52 -1 52 17 0 19 -6 21 -56
21 -47 0 -55 -3 -52 -17z"/>
<path d="M5115 2460 c-12 -20 7 -30 56 -30 42 0 49 3 49 20 0 17 -7 20 -49 20
-28 0 -53 -4 -56 -10z"/>
<path d="M5250 2450 c0 -18 7 -20 55 -20 48 0 55 2 55 20 0 18 -7 20 -55 20
-48 0 -55 -2 -55 -20z"/>
<path d="M1532 2198 c-12 -35 -22 -69 -22 -75 0 -18 27 -16 34 2 8 22 49 18
70 -6 12 -15 21 -18 28 -11 8 8 4 31 -13 79 -20 58 -28 68 -49 71 -24 3 -28
-3 -48 -60z m50 -20 c-9 -9 -12 -7 -12 12 0 19 3 21 12 12 9 -9 9 -15 0 -24z"/>
<path d="M1669 2242 c-10 -12 -13 -25 -8 -38 4 -10 8 -35 8 -55 1 -38 17 -54
41 -39 12 7 12 13 0 35 -12 22 -12 30 -1 47 10 17 10 25 0 44 -15 29 -20 29
-40 6z"/>
<path d="M1801 2246 c-22 -26 -5 -63 34 -76 38 -13 47 -30 15 -30 -11 0 -23 7
-26 15 -8 21 -34 19 -34 -2 1 -42 46 -61 92 -37 41 21 36 63 -9 84 -18 8 -33
18 -33 23 0 10 18 9 25 -3 12 -20 36 -11 33 13 -2 18 -10 23 -44 25 -27 2 -45
-2 -53 -12z"/>
<path d="M2440 2187 c0 -78 4 -89 26 -80 10 4 14 25 14 79 0 67 -2 74 -20 74
-18 0 -20 -7 -20 -73z"/>
<path d="M3000 2241 c0 -14 -6 -17 -27 -13 -31 6 -53 -18 -53 -58 0 -42 22
-62 66 -63 l39 -1 3 77 c2 64 0 77 -13 77 -8 0 -15 -8 -15 -19z m-7 -65 c9
-22 -18 -40 -33 -22 -6 9 -9 20 -5 26 9 15 32 12 38 -4z"/>
<path d="M3590 2186 l0 -74 35 -6 c42 -8 78 1 72 17 -2 7 -20 13 -40 15 l-37
3 0 60 c0 46 -3 59 -15 59 -12 0 -15 -15 -15 -74z"/>
<path d="M4030 2241 c0 -14 -6 -17 -23 -14 -37 7 -60 -22 -52 -66 8 -44 30
-64 56 -51 12 7 20 7 24 0 16 -27 25 -3 25 70 0 64 -3 80 -15 80 -8 0 -15 -8
-15 -19z m-2 -73 c-2 -13 -10 -23 -18 -23 -8 0 -16 10 -18 23 -3 17 2 22 18
22 16 0 21 -5 18 -22z"/>
<path d="M4081 2185 c-2 -70 0 -75 19 -75 20 0 21 5 19 75 -2 63 -5 75 -19 75
-15 0 -18 -11 -19 -75z"/>
<path d="M1932 2173 l3 -58 48 -5 c26 -4 50 -4 52 -1 3 2 5 31 5 63 0 51 -2
58 -19 58 -16 0 -20 -8 -23 -42 -4 -59 -28 -63 -28 -4 0 40 -3 46 -21 46 -19
0 -20 -5 -17 -57z"/>
<path d="M2062 2168 c3 -69 21 -86 26 -26 2 25 10 41 23 48 32 18 23 40 -16
40 l-36 0 3 -62z"/>
<path d="M2151 2216 c-6 -7 -11 -41 -10 -75 1 -55 4 -64 25 -73 17 -8 31 -8
49 0 23 11 25 16 25 87 l0 75 -39 0 c-21 0 -44 -6 -50 -14z m59 -45 c0 -11 -5
-23 -11 -27 -15 -9 -33 12 -26 30 9 23 37 20 37 -3z"/>
<path d="M2272 2218 c-13 -13 -16 -77 -4 -94 12 -17 41 -24 65 -15 19 8 24 17
25 52 1 23 -3 48 -9 55 -14 17 -61 18 -77 2z m55 -74 c-3 -3 -12 -4 -19 -1 -8
3 -5 6 6 6 11 1 17 -2 13 -5z"/>
<path d="M2500 2169 c0 -45 3 -59 14 -59 10 0 16 13 18 38 2 25 8 37 18 37 10
0 16 -12 18 -37 5 -54 32 -52 32 2 0 57 28 55 32 -2 2 -23 9 -43 16 -46 10 -3
12 11 10 59 l-3 64 -77 1 -78 2 0 -59z"/>
<path d="M2680 2158 c0 -40 4 -79 9 -87 11 -17 31 -5 31 19 0 14 8 20 33 22
30 3 32 6 35 46 4 56 -10 72 -64 72 l-44 0 0 -72z m78 4 c-5 -28 -33 -20 -36
11 -3 26 -2 28 18 17 12 -6 20 -19 18 -28z"/>
<path d="M2822 2218 c-7 -7 -12 -31 -12 -55 0 -52 26 -71 73 -54 29 11 35 26
15 34 -10 4 -10 6 0 6 15 1 16 35 2 62 -12 22 -59 26 -78 7z"/>
<path d="M3059 2214 c-10 -13 -10 -17 0 -24 9 -5 10 -10 2 -14 -16 -10 -13
-54 4 -63 8 -5 32 -7 52 -5 l38 4 -4 46 c-2 26 -8 53 -13 60 -15 17 -63 15
-79 -4z m51 -18 c0 -11 -19 -15 -25 -6 -3 5 1 10 9 10 9 0 16 -2 16 -4z m-6
-57 c-3 -5 -10 -7 -15 -3 -5 3 -7 10 -3 15 3 5 10 7 15 3 5 -3 7 -10 3 -15z"/>
<path d="M3170 2170 c0 -53 2 -60 20 -60 13 0 18 5 14 15 -9 23 5 65 21 65 11
0 15 -12 15 -46 0 -38 3 -45 16 -40 9 3 18 6 20 6 8 0 4 69 -6 94 -8 23 -15
26 -55 26 l-45 0 0 -60z"/>
<path d="M3306 2214 c-26 -25 -18 -82 14 -101 21 -14 80 3 80 23 0 18 -32 27
-42 12 -6 -10 -12 -8 -24 7 -13 18 -13 21 3 32 12 10 19 10 24 2 8 -14 29 -3
29 16 0 27 -60 34 -84 9z"/>
<path d="M3422 2218 c-14 -14 -16 -77 -3 -97 11 -16 69 -17 85 -1 8 8 7 13 -4
20 -10 7 -11 10 -2 10 15 0 16 34 2 61 -12 22 -59 26 -78 7z m48 -28 c0 -5 -5
-10 -11 -10 -5 0 -7 5 -4 10 3 6 8 10 11 10 2 0 4 -4 4 -10z"/>
<path d="M3728 2219 c-21 -12 -25 -78 -6 -97 20 -20 76 -15 88 7 34 65 -21
126 -82 90z m62 -44 c0 -15 -14 -35 -25 -35 -19 0 -27 17 -20 40 5 16 10 18
26 10 10 -6 19 -12 19 -15z"/>
<path d="M3851 2221 c-8 -5 -11 -16 -7 -29 4 -11 3 -23 -2 -26 -15 -9 -2 -55
17 -58 9 -2 30 -2 48 0 32 4 32 5 29 52 -2 26 -6 53 -10 59 -8 13 -55 14 -75
2z m44 -31 c-3 -5 -11 -10 -16 -10 -6 0 -7 5 -4 10 3 6 11 10 16 10 6 0 7 -4
4 -10z m-4 -53 c-13 -13 -26 -3 -16 12 3 6 11 8 17 5 6 -4 6 -10 -1 -17z"/>
<path d="M4142 2168 c2 -48 7 -63 18 -63 15 0 17 5 19 58 2 45 31 35 31 -11 0
-43 6 -53 26 -45 18 7 19 94 2 111 -7 7 -32 12 -55 12 l-44 0 3 -62z"/>
<path d="M4280 2215 c-15 -19 -15 -82 0 -100 8 -9 7 -15 -2 -18 -16 -7 18 -37
42 -37 38 0 52 25 58 98 l5 72 -45 0 c-29 0 -50 -6 -58 -15z m58 -47 c-2 -13
-10 -23 -18 -23 -8 0 -16 10 -18 23 -3 17 2 22 18 22 16 0 21 -5 18 -22z"/>
<path d="M821 1638 c-18 -73 -34 -141 -37 -150 -5 -17 6 -18 130 -18 84 0 136
4 136 10 0 6 -27 10 -60 10 -57 0 -78 11 -45 24 19 7 19 48 1 101 -11 31 -19
40 -38 40 -18 0 -23 -5 -23 -27 0 -14 -3 -30 -7 -34 -13 -13 -9 -62 7 -78 8
-8 15 -17 15 -20 0 -10 -79 -6 -85 4 -3 5 1 33 10 62 15 50 45 184 45 201 0 4
-4 7 -9 7 -5 0 -23 -60 -40 -132z m109 -69 c12 -22 -4 -54 -21 -43 -16 9 -9
64 7 64 2 0 8 -9 14 -21z"/>
<path d="M5471 1638 c-17 -73 -31 -141 -31 -150 0 -16 13 -18 135 -18 83 0
135 4 135 10 0 6 -46 10 -119 10 -66 0 -122 3 -124 8 -3 4 8 59 24 122 31 122
34 150 20 150 -5 0 -23 -60 -40 -132z"/>
<path d="M5659 1704 c-9 -11 -10 -20 -3 -32 16 -25 32 -25 44 -2 22 41 -12 69
-41 34z"/>
<path d="M5165 1678 c12 -55 54 -140 67 -136 14 5 20 16 49 91 20 50 21 60 9
67 -24 15 -27 12 -40 -35 -7 -25 -16 -45 -19 -45 -4 0 -13 19 -21 42 -9 26
-22 44 -33 46 -17 3 -18 0 -12 -30z"/>
<path d="M514 1670 c3 -17 15 -53 27 -80 31 -72 50 -67 83 23 31 86 31 87 6
87 -14 0 -22 -11 -31 -40 -7 -22 -16 -40 -20 -40 -5 0 -14 18 -20 40 -9 29
-18 40 -32 40 -16 0 -19 -5 -13 -30z"/>
<path d="M5542 1658 c-7 -7 -12 -37 -12 -68 0 -60 11 -80 46 -80 31 0 45 22
51 78 3 37 0 53 -12 66 -19 19 -56 21 -73 4z m48 -68 c0 -40 -15 -54 -26 -25
-8 20 4 65 16 65 6 0 10 -18 10 -40z"/>
<path d="M663 1598 c-6 -7 -11 -28 -11 -46 -1 -39 27 -59 58 -42 17 9 20 17
14 48 -9 49 -39 68 -61 40z"/>
<path d="M5302 1564 c2 -27 8 -49 16 -52 6 -2 12 4 12 14 0 16 1 16 18 1 28
-26 33 -21 30 31 -3 47 -3 47 -41 50 l-38 3 3 -47z"/>
<path d="M5403 1373 c-10 -3 -13 -39 -13 -134 l0 -129 -2278 0 -2277 0 0 130
0 130 -27 0 -28 0 1 -137 c1 -76 4 -203 8 -283 6 -141 7 -145 28 -148 23 -3
23 -3 23 132 l0 136 26 -10 c14 -6 30 -8 35 -4 5 3 9 1 9 -4 0 -15 41 -2 47
14 4 12 357 14 2148 14 1425 0 2146 -3 2150 -10 3 -5 -1 -10 -9 -10 -9 0 -16
-8 -16 -19 0 -14 6 -19 20 -18 11 1 20 5 20 9 0 4 7 5 15 2 8 -3 26 6 40 20
21 21 30 24 45 16 17 -9 20 -24 22 -133 3 -118 4 -122 26 -125 l22 -3 0 279
c0 286 -2 297 -37 285z"/>
<path d="M1551 1323 c-11 -23 -41 -122 -41 -140 0 -7 7 -13 15 -13 8 0 15 7
15 15 0 8 12 18 27 21 21 6 30 2 41 -14 8 -12 21 -22 29 -22 19 0 14 29 -17
113 -23 60 -49 76 -69 40z m39 -69 c0 -8 -6 -14 -14 -14 -9 0 -12 7 -9 20 6
22 23 18 23 -6z"/>
<path d="M1670 1256 l0 -84 40 2 c50 3 72 28 66 75 -6 38 -19 51 -53 51 -16 0
-23 6 -23 20 0 11 -7 20 -15 20 -12 0 -15 -16 -15 -84z m65 -21 c0 -28 -29
-25 -33 3 -3 19 0 23 15 20 10 -2 18 -12 18 -23z"/>
<path d="M2228 1329 c-21 -12 -24 -62 -5 -76 6 -6 25 -13 41 -17 22 -5 26 -10
17 -19 -9 -9 -16 -9 -31 1 -29 18 -51 15 -43 -5 15 -44 65 -56 103 -25 33 27
21 63 -27 86 -22 11 -32 21 -25 23 8 3 19 0 25 -6 16 -16 37 -14 37 3 0 37
-54 58 -92 35z"/>
<path d="M2867 1333 c-4 -3 -7 -42 -7 -85 0 -63 3 -78 15 -78 12 0 15 16 15
85 0 78 -5 96 -23 78z"/>
<path d="M3420 1321 c0 -16 -6 -21 -28 -21 -36 0 -52 -17 -52 -55 0 -49 23
-72 70 -72 l41 0 -3 80 c-2 53 -7 82 -15 85 -8 2 -13 -5 -13 -17z m-10 -96
c-19 -23 -44 0 -29 27 10 18 12 19 27 5 13 -13 13 -19 2 -32z"/>
<path d="M4010 1254 l0 -85 52 3 c41 2 54 7 56 21 3 14 -4 17 -37 17 l-41 0 0
65 c0 51 -3 65 -15 65 -12 0 -15 -16 -15 -86z"/>
<path d="M4450 1320 c0 -16 -7 -20 -30 -20 -32 0 -50 -22 -50 -62 0 -42 25
-65 70 -65 l40 0 0 83 c0 68 -3 84 -15 84 -8 0 -15 -9 -15 -20z m-7 -95 c-7
-19 -29 -19 -36 -1 -3 8 -3 24 0 37 l6 22 18 -22 c10 -12 15 -29 12 -36z"/>
<path d="M4501 1255 c-1 -67 1 -85 12 -85 19 0 30 69 21 127 -4 25 -12 43 -19
43 -9 0 -13 -24 -14 -85z"/>
<path d="M140 1230 c0 -63 3 -80 14 -80 9 0 16 12 18 28 2 22 9 28 37 32 27 4
36 11 42 32 11 43 -13 68 -67 68 l-44 0 0 -80z m80 31 c0 -12 -29 -23 -41 -15
-18 10 -9 24 16 24 14 0 25 -4 25 -9z"/>
<path d="M1802 1288 c-33 -33 -3 -118 41 -118 46 0 75 80 41 114 -18 19 -65
21 -82 4z m54 -66 c-17 -17 -36 -8 -36 18 0 25 22 32 38 12 10 -13 10 -19 -2
-30z"/>
<path d="M1912 1288 c3 -7 13 -37 23 -66 11 -36 22 -52 32 -50 14 3 38 54 49
106 7 35 -24 27 -40 -10 l-14 -33 -7 33 c-5 23 -13 32 -27 32 -12 0 -18 -5
-16 -12z"/>
<path d="M2046 1284 c-34 -34 -7 -114 38 -114 28 0 41 14 50 54 14 58 -48 100
-88 60z m44 -19 c0 -8 -4 -15 -10 -15 -5 0 -10 7 -10 15 0 8 5 15 10 15 6 0
10 -7 10 -15z m20 -34 c0 -5 -7 -12 -16 -15 -24 -9 -28 -7 -14 9 14 17 30 20
30 6z"/>
<path d="M2352 1244 c2 -41 8 -60 21 -68 14 -8 20 -8 28 4 8 11 12 12 16 3 2
-7 11 -13 19 -13 11 0 14 16 14 65 0 51 -3 65 -15 65 -10 0 -15 -10 -15 -29 0
-68 -27 -84 -32 -19 -2 32 -8 44 -21 46 -16 3 -18 -3 -15 -54z"/>
<path d="M2472 1238 c2 -50 6 -63 21 -66 14 -3 17 4 17 42 0 35 4 48 20 56 29
15 16 30 -26 30 l-35 0 3 -62z"/>
<path d="M2566 1278 c-18 -25 -21 -64 -6 -73 5 -3 7 -19 4 -35 -6 -25 -3 -30
21 -36 14 -4 37 -2 51 5 22 10 24 16 24 76 0 36 1 68 3 73 1 4 -17 8 -40 10
-33 2 -44 -1 -57 -20z m61 -52 c-4 -9 -11 -16 -17 -16 -15 0 -24 26 -16 47 6
15 8 15 23 1 9 -9 13 -24 10 -32z"/>
<path d="M2692 1288 c-7 -7 -12 -29 -12 -49 0 -60 41 -86 84 -54 17 13 17 17
5 31 -11 13 -11 18 -1 21 31 11 -3 63 -42 63 -12 0 -27 -5 -34 -12z m48 -57
c0 -6 -4 -13 -10 -16 -5 -3 -10 1 -10 9 0 9 5 16 10 16 6 0 10 -4 10 -9z"/>
<path d="M2917 1293 c-9 -8 -9 -70 -1 -100 10 -37 34 -28 34 11 0 19 3 41 6
50 11 28 24 6 24 -40 0 -32 4 -44 15 -44 11 0 15 11 15 39 0 42 23 74 34 45 3
-8 6 -31 6 -50 0 -24 5 -34 15 -34 13 0 15 11 13 63 l-3 62 -76 2 c-42 2 -79
0 -82 -4z"/>
<path d="M3100 1215 c0 -69 3 -85 15 -85 9 0 15 9 15 24 0 19 4 22 24 19 43
-8 71 60 46 108 -8 14 -21 19 -55 19 l-45 0 0 -85z m69 9 c-14 -14 -17 -14
-29 0 -10 13 -10 19 0 32 12 14 15 14 29 0 14 -15 14 -17 0 -32z"/>
<path d="M3230 1281 c-33 -63 36 -148 79 -97 18 21 18 95 1 106 -26 17 -69 11
-80 -9z m50 -21 c0 -5 -5 -10 -11 -10 -5 0 -7 5 -4 10 3 6 8 10 11 10 2 0 4
-4 4 -10z m14 -35 c-4 -8 -10 -15 -15 -15 -5 0 -9 7 -9 15 0 8 7 15 15 15 9 0
12 -6 9 -15z"/>
<path d="M3483 1294 c-7 -3 -13 -12 -13 -21 0 -11 7 -13 33 -8 l32 6 -35 -18
c-27 -14 -34 -24 -32 -42 3 -32 5 -33 51 -36 48 -3 54 9 43 75 -7 41 -10 45
-37 47 -17 1 -36 0 -42 -3z m47 -72 c0 -13 -12 -22 -22 -16 -10 6 -1 24 13 24
5 0 9 -4 9 -8z"/>
<path d="M3590 1235 c0 -51 3 -65 15 -65 11 0 15 11 15 39 0 42 23 74 34 45 3
-8 6 -31 6 -51 0 -57 25 -34 28 27 4 61 -4 70 -60 70 l-38 0 0 -65z"/>
<path d="M3722 1288 c-20 -20 -15 -83 8 -103 16 -15 26 -17 48 -9 35 12 44 46
10 44 -50 -4 -60 6 -39 39 8 12 12 12 25 2 17 -14 36 -7 36 14 0 25 -66 35
-88 13z"/>
<path d="M3829 1279 c-30 -58 29 -136 70 -93 28 28 36 78 16 98 -24 23 -72 21
-86 -5z m61 -53 c0 -3 -4 -8 -10 -11 -5 -3 -10 -1 -10 4 0 6 5 11 10 11 6 0
10 -2 10 -4z"/>
<path d="M4136 1278 c-22 -31 -20 -64 4 -88 39 -39 100 -12 100 44 0 61 -72
91 -104 44z m62 -44 c-4 -23 -26 -30 -34 -10 -8 20 15 51 29 37 5 -5 7 -17 5
-27z"/>
<path d="M4273 1293 c-16 -6 -17 -33 -1 -33 6 0 3 -9 -7 -20 -15 -17 -16 -24
-7 -45 10 -21 17 -24 54 -22 l43 2 -4 55 c-1 30 -5 58 -8 63 -5 8 -51 8 -70 0z
m41 -78 c-6 -16 -24 -21 -24 -7 0 11 11 22 21 22 5 0 6 -7 3 -15z"/>
<path d="M4560 1235 c0 -51 3 -65 15 -65 10 0 15 10 15 31 0 36 17 72 31 64 5
-4 9 -26 9 -51 0 -32 4 -44 15 -44 12 0 15 13 15 59 0 65 -6 71 -66 71 l-34 0
0 -65z"/>
<path d="M4689 1279 c-6 -12 -8 -35 -4 -53 3 -17 6 -42 6 -56 1 -28 14 -40 45
-40 38 0 54 31 54 103 l0 67 -45 0 c-35 0 -47 -4 -56 -21z m71 -33 c0 -20 -17
-39 -29 -32 -12 8 -15 39 -5 49 9 9 34 -3 34 -17z"/>
<path d="M6012 1198 c2 -49 7 -82 13 -81 6 1 11 14 13 28 3 19 9 25 28 25 13
0 24 5 24 10 0 6 6 9 13 8 7 -2 13 11 15 32 4 42 -16 60 -70 60 l-39 0 3 -82z
m73 27 c0 -5 -10 -11 -22 -13 -16 -2 -23 2 -23 13 0 11 7 15 23 13 12 -2 22
-7 22 -13z"/>
<path d="M640 1246 c0 -9 -20 -16 -66 -21 -36 -4 -63 -9 -60 -13 11 -10 80
-32 104 -32 13 0 22 -6 22 -15 0 -8 5 -15 10 -15 21 0 90 41 90 53 0 15 -61
57 -83 57 -9 0 -17 -6 -17 -14z"/>
<path d="M5870 1240 c0 -17 -7 -20 -47 -20 -63 0 -99 -10 -81 -21 7 -5 24 -9
38 -9 20 0 22 -2 10 -10 -11 -7 -2 -10 33 -10 35 0 47 -4 47 -15 0 -21 15 -19
61 7 47 26 49 40 7 65 -56 32 -68 35 -68 13z"/>
<path d="M970 1041 c0 -22 28 -35 54 -25 9 3 16 2 16 -4 0 -16 35 -7 38 10 2
11 -11 19 -42 27 -60 15 -66 14 -66 -8z"/>
<path d="M183 1040 c-45 -18 -57 -86 -24 -130 16 -20 29 -25 74 -26 l54 -2 1
63 c1 47 -3 66 -16 78 -23 21 -62 28 -89 17z m55 -42 c18 -18 16 -62 -3 -54
-9 3 -18 -1 -22 -9 -4 -12 -9 -13 -19 -4 -14 12 -19 60 -7 72 10 11 38 8 51
-5z"/>
<path d="M5128 1027 c-40 -11 -43 -14 -29 -35 7 -12 14 -11 39 2 37 19 45 20
37 4 -4 -7 0 -4 9 6 28 35 11 42 -56 23z"/>
<path d="M1110 999 c0 -16 5 -20 20 -16 10 3 20 1 22 -3 2 -5 15 -12 31 -15
23 -6 27 -4 27 13 0 16 -10 24 -37 31 -54 15 -63 14 -63 -10z"/>
<path d="M650 980 c0 -18 -7 -20 -69 -20 -64 0 -70 -2 -68 -20 1 -18 8 -20 70
-20 64 0 69 -1 64 -20 -6 -23 2 -25 37 -9 14 7 23 17 19 23 -3 6 -3 8 2 4 10
-10 45 10 45 25 0 11 -78 57 -95 57 -3 0 -5 -9 -5 -20z"/>
<path d="M4988 988 c-30 -10 -40 -48 -13 -48 8 0 15 4 15 10 0 5 7 7 15 4 8
-4 15 -1 15 6 0 6 5 8 11 4 10 -6 29 12 29 29 0 10 -39 8 -72 -5z"/>
<path d="M5568 973 c-21 -14 -38 -29 -38 -33 0 -8 83 -60 94 -60 3 0 6 9 6 20
0 18 7 20 65 20 58 0 65 2 65 20 0 18 -7 20 -61 20 -52 0 -62 3 -66 20 -7 26
-20 25 -65 -7z"/>
<path d="M5999 979 c-17 -17 -20 -29 -16 -62 8 -55 27 -71 90 -73 l53 -2 1 60
c2 47 -2 63 -17 78 -27 27 -84 26 -111 -1z m75 -15 c10 -4 16 -18 16 -35 0
-22 -5 -29 -20 -29 -11 0 -20 -5 -20 -11 0 -8 -5 -8 -15 1 -18 15 -20 51 -3
68 14 14 20 14 42 6z"/>
<path d="M1243 973 c-8 -22 8 -32 60 -38 42 -5 47 -4 47 13 0 26 -98 49 -107
25z"/>
<path d="M4853 959 c-33 -9 -43 -31 -22 -45 6 -3 14 -2 18 4 3 6 13 10 21 10
45 -3 60 3 60 22 0 22 -22 25 -77 9z"/>
<path d="M1376 945 c-9 -23 3 -38 25 -32 11 3 19 1 19 -4 0 -5 14 -9 30 -9 23
0 30 5 30 19 0 14 -10 21 -36 25 -19 4 -41 9 -48 12 -8 3 -16 -2 -20 -11z"/>
<path d="M4713 933 c-15 -3 -23 -12 -23 -25 0 -18 4 -19 43 -13 51 9 57 12 57
31 0 14 -28 17 -77 7z"/>
<path d="M1513 914 c-8 -22 15 -36 50 -29 17 3 26 1 22 -5 -3 -6 1 -10 9 -10
22 0 30 20 15 35 -8 7 -31 16 -52 19 -29 6 -39 4 -44 -10z"/>
<path d="M4593 907 c-24 -6 -43 -15 -43 -22 0 -16 42 -28 50 -14 4 5 15 7 24
3 16 -6 35 9 36 27 0 13 -26 15 -67 6z"/>
<path d="M1650 878 c0 -12 3 -18 7 -15 3 4 12 2 20 -4 10 -9 17 -8 28 1 10 9
15 9 15 1 0 -19 27 -12 33 8 3 15 -2 20 -25 25 -58 12 -78 8 -78 -16z"/>
<path d="M4440 883 c-35 -14 -39 -43 -5 -43 14 0 25 4 25 9 0 6 12 9 27 8 19
-1 28 3 31 16 3 13 -3 17 -30 16 -18 0 -40 -3 -48 -6z"/>
<path d="M1787 873 c-17 -16 -6 -35 18 -31 13 3 26 1 27 -4 5 -14 58 2 58 17
0 17 -89 33 -103 18z"/>
<path d="M4313 863 c-44 -6 -47 -38 -3 -38 17 0 30 3 30 8 0 4 9 7 20 7 11 0
20 7 20 15 0 15 -5 15 -67 8z"/>
<path d="M1920 851 c0 -21 41 -38 72 -32 42 9 46 27 7 35 -45 9 -79 7 -79 -3z"/>
<path d="M4153 843 c-15 -6 -17 -43 -3 -43 6 0 10 5 10 11 0 5 12 9 28 8 48
-4 62 0 56 16 -6 15 -63 20 -91 8z"/>
<path d="M2060 832 c0 -17 30 -34 50 -29 11 3 23 1 26 -4 11 -19 35 -9 32 14
-3 19 -10 22 -55 25 -29 2 -53 -1 -53 -6z"/>
<path d="M4042 833 c-33 -3 -42 -8 -40 -20 3 -18 78 -31 78 -13 0 5 7 10 16
10 9 0 14 5 12 12 -5 14 -11 15 -66 11z"/>
<path d="M2200 820 c0 -26 29 -41 65 -34 35 6 52 19 38 27 -21 12 -103 17
-103 7z"/>
<path d="M2340 796 c0 -28 9 -33 27 -15 8 8 13 8 17 0 4 -6 18 -11 32 -11 17
0 24 5 24 20 0 13 -7 20 -19 20 -10 0 -33 3 -50 6 -28 6 -31 4 -31 -20z"/>
<path d="M3860 794 c0 -25 2 -26 33 -19 17 4 42 8 55 9 14 1 22 7 22 19 0 14
-9 17 -55 17 -53 0 -55 -1 -55 -26z"/>
<path d="M2480 800 c0 -20 32 -39 68 -40 25 0 32 4 32 20 0 16 -7 20 -34 20
-19 0 -41 3 -50 6 -9 4 -16 1 -16 -6z"/>
<path d="M3727 803 c-14 -13 -6 -21 28 -27 43 -8 75 0 75 20 0 10 -13 14 -48
14 -27 0 -52 -3 -55 -7z"/>
<path d="M2610 786 c0 -9 8 -16 20 -16 11 0 20 -4 20 -10 0 -5 16 -10 35 -10
28 0 35 4 35 19 0 22 -10 26 -67 30 -34 2 -43 -1 -43 -13z"/>
<path d="M3493 792 c-35 -3 -43 -7 -43 -23 0 -16 7 -19 45 -19 32 0 47 5 52
16 8 22 -6 29 -54 26z"/>
<path d="M3585 790 c-7 -12 36 -30 70 -30 19 0 35 16 35 36 0 9 -99 3 -105 -6z"/>
<path d="M2756 774 c-10 -25 -1 -28 50 -18 59 12 61 28 3 32 -36 2 -48 -1 -53
-14z"/>
<path d="M2908 782 c-10 -2 -18 -12 -18 -23 0 -16 7 -19 54 -19 49 0 53 2 52
22 -1 18 -7 22 -36 23 -19 1 -43 -1 -52 -3z"/>
<path d="M3328 783 c-25 -6 -23 -43 2 -43 11 0 20 4 20 9 0 6 14 11 32 13 47
5 49 28 1 27 -21 -1 -46 -3 -55 -6z"/>
<path d="M3030 760 c0 -18 7 -20 55 -20 48 0 55 2 55 20 0 18 -7 20 -55 20
-48 0 -55 -2 -55 -20z"/>
<path d="M3170 760 c0 -17 7 -20 50 -20 43 0 50 3 50 20 0 17 -7 20 -50 20
-43 0 -50 -3 -50 -20z"/>
<path d="M940 400 c0 -5 -6 -10 -14 -10 -9 0 -12 -8 -9 -24 6 -31 63 -36 63
-5 0 11 -6 27 -14 35 -17 16 -26 18 -26 4z"/>
<path d="M1000 330 c0 -73 2 -80 20 -80 17 0 20 7 20 41 l0 42 18 -24 c10 -13
21 -32 25 -41 3 -10 16 -18 27 -18 18 0 20 6 20 80 0 73 -2 80 -19 80 -16 0
-20 -8 -23 -37 l-3 -38 -22 38 c-14 23 -30 37 -43 37 -18 0 -20 -6 -20 -80z"/>
<path d="M1281 391 c-7 -11 -8 -42 -3 -77 6 -51 10 -59 30 -62 17 -3 22 2 22
17 0 12 -4 21 -10 21 -5 0 -10 11 -10 25 0 14 5 25 10 25 6 0 10 9 10 20 0 11
-4 20 -10 20 -5 0 -10 7 -10 15 0 21 -17 19 -29 -4z"/>
<path d="M1526 388 c-11 -15 -12 -26 -5 -40 6 -11 10 -29 9 -41 -4 -48 0 -57
25 -57 18 0 25 5 25 20 0 11 -4 20 -10 20 -5 0 -10 11 -10 25 0 14 5 25 10 25
6 0 10 9 10 20 0 11 -4 20 -10 20 -5 0 -10 7 -10 15 0 22 -16 18 -34 -7z"/>
<path d="M1590 330 c0 -63 3 -80 14 -80 10 0 16 14 18 43 2 29 8 42 18 42 10
0 16 -13 18 -42 2 -30 8 -43 18 -43 12 0 14 12 12 63 l-3 62 -32 -1 c-26 -2
-33 2 -33 17 0 10 -7 19 -15 19 -12 0 -15 -16 -15 -80z"/>
<path d="M1841 391 c-7 -11 -8 -42 -3 -77 6 -51 10 -59 30 -62 17 -3 22 2 22
17 0 12 -4 21 -10 21 -5 0 -10 11 -10 25 0 14 5 25 10 25 6 0 10 9 10 20 0 11
-4 20 -10 20 -5 0 -10 7 -10 15 0 21 -17 19 -29 -4z"/>
<path d="M1950 400 c0 -5 4 -19 9 -32 5 -13 17 -44 26 -70 26 -74 37 -67 84
49 26 63 26 63 1 63 -14 0 -22 -11 -31 -40 -7 -22 -16 -40 -20 -40 -5 0 -14
18 -20 40 -9 28 -18 40 -31 40 -10 0 -18 -4 -18 -10z"/>
<path d="M2240 402 c0 -5 7 -9 15 -9 8 0 15 4 15 9 0 4 -7 8 -15 8 -8 0 -15
-4 -15 -8z"/>
<path d="M2470 330 l0 -80 60 0 c53 0 60 2 60 20 0 17 -7 20 -46 20 -56 0 -57
23 -1 28 49 4 51 32 3 32 -19 0 -38 5 -41 10 -4 6 10 10 36 10 23 0 39 3 36 7
-4 3 -2 12 4 20 9 11 0 13 -50 13 l-61 0 0 -80z"/>
<path d="M2980 330 c0 -73 2 -80 20 -80 18 0 20 7 20 80 0 73 -2 80 -20 80
-18 0 -20 -7 -20 -80z"/>
<path d="M3099 394 c-15 -18 -13 -112 3 -131 17 -21 48 -16 48 7 0 11 -4 20
-10 20 -13 0 -13 36 1 63 9 16 9 22 0 25 -6 2 -11 10 -11 18 0 19 -14 18 -31
-2z"/>
<path d="M3340 403 c0 -5 12 -39 25 -78 14 -38 25 -71 25 -72 0 -2 8 -3 18 -3
13 0 24 17 39 63 12 34 24 70 28 80 5 13 2 17 -13 17 -14 0 -24 -13 -38 -47
l-18 -48 -15 48 c-10 33 -20 47 -33 47 -10 0 -18 -3 -18 -7z"/>
<path d="M3643 390 c-3 -11 -9 -20 -14 -20 -5 0 -9 -7 -9 -15 0 -8 5 -15 10
-15 6 0 10 -20 10 -45 0 -33 4 -45 15 -45 11 0 15 12 15 45 0 25 5 45 10 45
15 0 12 30 -2 30 -7 0 -5 5 5 11 25 15 21 29 -9 29 -17 0 -28 -6 -31 -20z"/>
<path d="M3971 391 c-7 -11 -8 -42 -3 -77 5 -46 11 -60 26 -62 28 -6 45 16 24
32 -19 14 -25 56 -8 56 6 0 10 9 10 20 0 11 -4 20 -10 20 -5 0 -10 7 -10 15 0
21 -17 19 -29 -4z"/>
<path d="M4040 330 c0 -63 3 -80 14 -80 10 0 16 14 18 43 2 29 8 42 18 42 10
0 16 -13 18 -42 2 -29 8 -43 18 -43 11 0 14 14 14 59 0 61 -7 71 -51 71 -10 0
-19 7 -19 15 0 8 -7 15 -15 15 -12 0 -15 -16 -15 -80z"/>
<path d="M4170 402 c0 -5 7 -9 15 -9 8 0 15 4 15 9 0 4 -7 8 -15 8 -8 0 -15
-4 -15 -8z"/>
<path d="M4400 330 c0 -64 3 -80 15 -80 12 0 15 16 15 80 0 64 -3 80 -15 80
-12 0 -15 -16 -15 -80z"/>
<path d="M4450 330 c0 -73 2 -80 20 -80 18 0 20 7 20 80 0 73 -2 80 -20 80
-18 0 -20 -7 -20 -80z"/>
<path d="M4510 330 c0 -73 2 -80 20 -80 18 0 20 7 20 80 0 73 -2 80 -20 80
-18 0 -20 -7 -20 -80z"/>
<path d="M4817 392 c-14 -15 -15 -26 -4 -80 10 -54 14 -62 34 -62 16 0 23 6
23 20 0 11 -4 20 -10 20 -13 0 -13 36 1 63 9 16 9 22 0 25 -6 2 -11 10 -11 18
0 19 -14 18 -33 -4z"/>
<path d="M5080 390 c-10 -18 -8 -49 6 -117 3 -14 12 -23 24 -23 27 0 32 14 16
45 -11 21 -12 32 -3 46 8 13 8 24 -1 43 -14 31 -28 33 -42 6z"/>
<path d="M5151 330 c-2 -67 1 -80 14 -80 14 0 16 13 14 80 -1 55 -6 80 -14 80
-9 0 -13 -24 -14 -80z"/>
<path d="M1166 364 c-21 -20 -21 -78 0 -98 36 -37 94 -4 94 53 0 36 -23 61
-55 61 -13 0 -31 -7 -39 -16z m62 -47 c4 -20 -25 -34 -40 -19 -15 15 -1 44 19
40 10 -2 19 -11 21 -21z"/>
<path d="M1356 364 c-29 -29 -16 -101 19 -110 37 -9 68 5 62 27 -3 10 -1 19 4
19 17 0 9 40 -11 60 -24 24 -53 26 -74 4z"/>
<path d="M1724 366 c-3 -8 -4 -20 -3 -27 1 -8 -1 -22 -5 -31 -4 -9 -3 -26 4
-37 8 -16 20 -21 55 -21 l44 0 -5 53 c-3 28 -7 58 -10 65 -5 17 -73 16 -80 -2z
m41 -26 c-3 -5 -11 -10 -16 -10 -6 0 -7 5 -4 10 3 6 11 10 16 10 6 0 7 -4 4
-10z m9 -45 c-7 -16 -24 -21 -24 -6 0 8 7 13 27 20 1 1 0 -6 -3 -14z"/>
<path d="M2240 315 c0 -51 3 -65 15 -65 12 0 15 14 15 65 0 51 -3 65 -15 65
-12 0 -15 -14 -15 -65z"/>
<path d="M2302 368 c-16 -16 -15 -40 1 -57 10 -11 10 -14 0 -18 -22 -8 -14
-32 12 -39 14 -3 36 -3 50 0 20 5 25 13 25 36 0 16 -5 32 -10 35 -7 4 -7 12 0
25 8 14 5 19 -13 24 -34 9 -52 7 -65 -6z m49 -86 c-7 -2 -18 1 -23 6 -8 8 -4
9 13 5 13 -4 18 -8 10 -11z"/>
<path d="M2615 356 c-17 -26 -11 -79 11 -97 8 -6 23 -9 34 -6 16 4 20 0 20
-19 0 -15 6 -24 15 -24 12 0 15 16 15 84 l0 84 -40 0 c-31 1 -44 -4 -55 -22z
m65 -35 c0 -11 -5 -23 -11 -27 -15 -9 -33 12 -26 30 9 23 37 20 37 -3z"/>
<path d="M2730 334 c0 -25 5 -54 10 -65 12 -21 46 -26 53 -6 4 10 6 10 6 0 1
-7 9 -13 19 -13 15 0 17 8 14 65 -3 48 -7 65 -18 65 -10 0 -14 -13 -14 -45 0
-33 -4 -45 -15 -45 -11 0 -15 12 -15 45 0 38 -3 45 -20 45 -17 0 -20 -7 -20
-46z"/>
<path d="M2872 368 c-16 -16 -15 -35 1 -41 10 -4 10 -6 0 -6 -19 -1 -16 -58 3
-65 9 -3 31 -6 50 -6 l33 0 -2 56 c-3 58 -14 74 -52 74 -12 0 -26 -5 -33 -12z
m43 -28 c-3 -5 -11 -10 -16 -10 -6 0 -7 5 -4 10 3 6 11 10 16 10 6 0 7 -4 4
-10z m5 -44 c0 -3 -4 -8 -10 -11 -5 -3 -10 -1 -10 4 0 6 5 11 10 11 6 0 10 -2
10 -4z"/>
<path d="M3175 363 c-13 -12 -16 -27 -12 -56 6 -42 19 -57 52 -57 33 0 46 15
52 60 5 35 2 46 -12 57 -26 18 -60 16 -80 -4z m63 -46 c4 -20 -25 -34 -40 -19
-15 15 -1 44 19 40 10 -2 19 -11 21 -21z"/>
<path d="M3710 358 c-23 -25 -25 -40 -9 -71 33 -63 109 -41 109 31 0 56 -62
81 -100 40z m64 -27 c9 -14 -4 -41 -19 -41 -18 0 -28 17 -21 35 6 17 32 20 40
6z"/>
<path d="M3830 315 c0 -51 3 -65 15 -65 11 0 15 11 15 38 0 25 7 43 20 55 29
25 25 37 -15 37 l-35 0 0 -65z"/>
<path d="M4170 315 c0 -51 3 -65 15 -65 12 0 15 14 15 65 0 51 -3 65 -15 65
-12 0 -15 -14 -15 -65z"/>
<path d="M4222 364 c-6 -12 -7 -27 -1 -43 7 -17 6 -27 -2 -32 -20 -12 8 -39
40 -39 35 0 50 11 53 40 2 19 -5 28 -32 42 l-35 18 30 -3 c21 -1 30 2 30 13 0
23 -71 26 -83 4z m58 -80 c0 -2 -7 -4 -15 -4 -8 0 -15 4 -15 10 0 5 7 7 15 4
8 -4 15 -8 15 -10z"/>
<path d="M4570 326 c0 -63 11 -76 65 -73 38 3 40 5 41 37 1 55 -7 90 -22 90
-10 0 -14 -13 -14 -39 0 -42 -16 -63 -31 -40 -5 8 -9 29 -9 47 0 22 -5 32 -15
32 -11 0 -15 -13 -15 -54z"/>
<path d="M4700 365 c-10 -12 -10 -21 -1 -43 9 -18 9 -28 2 -30 -16 -5 -13 -29
5 -36 25 -10 59 -7 72 6 17 17 15 55 -3 62 -8 3 -15 10 -15 17 0 6 7 9 15 5
18 -7 20 5 3 22 -17 17 -63 15 -78 -3z m50 -25 c0 -5 -2 -10 -4 -10 -3 0 -8 5
-11 10 -3 6 -1 10 4 10 6 0 11 -4 11 -10z m-5 -58 c-3 -3 -11 0 -18 7 -9 10
-8 11 6 5 10 -3 15 -9 12 -12z"/>
<path d="M4884 358 c3 -13 6 -42 6 -65 0 -32 4 -43 15 -43 11 0 15 12 15 44 0
35 4 45 20 49 11 3 20 0 21 -6 0 -7 1 -28 2 -47 2 -34 3 -35 50 -38 l48 -3 -2
52 c-2 28 -9 57 -17 65 -17 17 -54 18 -71 2 -11 -10 -14 -10 -18 0 -3 6 -21
12 -40 12 -32 0 -35 -2 -29 -22z m126 -18 c0 -5 -5 -10 -11 -10 -5 0 -7 5 -4
10 3 6 8 10 11 10 2 0 4 -4 4 -10z m5 -49 c-3 -6 -11 -8 -17 -5 -6 4 -5 9 3
15 16 10 23 4 14 -10z"/>
<path d="M5214 355 c-19 -30 -10 -81 18 -99 26 -16 71 4 82 37 24 67 -62 120
-100 62z m61 -40 c0 -11 -8 -21 -17 -23 -14 -3 -18 3 -18 23 0 20 4 26 18 23
9 -2 17 -12 17 -23z"/>
<path d="M5335 371 c-3 -2 -5 -31 -5 -63 0 -45 3 -58 15 -58 9 0 16 10 17 25
0 14 1 31 2 38 1 13 16 27 29 27 4 0 7 -20 7 -45 0 -38 3 -45 20 -45 17 0 20
7 20 46 0 67 -12 83 -61 81 -22 -1 -42 -3 -44 -6z"/>
<path d="M2107 313 c-3 -4 -7 -26 -8 -48 -4 -38 -3 -40 27 -43 36 -4 47 18 35
66 -7 26 -43 43 -54 25z"/>
<path d="M3480 271 c0 -39 4 -51 15 -51 8 0 15 7 15 17 0 15 1 15 18 0 27 -25
31 -22 29 31 -2 47 -2 47 -39 50 l-38 3 0 -50z"/>
</g>
</svg>
