<?xml version="1.0" encoding="utf-8" standalone="no"?>
<!DOCTYPE svg PUBLIC "-//W3C//DTD SVG 1.1//EN"
  "http://www.w3.org/Graphics/SVG/1.1/DTD/svg11.dtd">
<svg xmlns:xlink="http://www.w3.org/1999/xlink" width="711.028125pt" height="422.52625pt" viewBox="0 0 711.028125 422.52625" xmlns="http://www.w3.org/2000/svg" version="1.1">
 <metadata>
  <rdf:RDF xmlns:dc="http://purl.org/dc/elements/1.1/" xmlns:cc="http://creativecommons.org/ns#" xmlns:rdf="http://www.w3.org/1999/02/22-rdf-syntax-ns#">
   <cc:Work>
    <dc:type rdf:resource="http://purl.org/dc/dcmitype/StillImage"/>
    <dc:date>2025-07-08T15:28:59.834925</dc:date>
    <dc:format>image/svg+xml</dc:format>
    <dc:creator>
     <cc:Agent>
      <dc:title>Matplotlib v3.10.0, https://matplotlib.org/</dc:title>
     </cc:Agent>
    </dc:creator>
   </cc:Work>
  </rdf:RDF>
 </metadata>
 <defs>
  <style type="text/css">*{stroke-linejoin: round; stroke-linecap: butt}</style>
 </defs>
 <g id="figure_1">
  <g id="patch_1">
   <path d="M 0 422.52625 
L 711.028125 422.52625 
L 711.028125 0 
L 0 0 
z
" style="fill: #ffffff"/>
  </g>
  <g id="axes_1">
   <g id="patch_2">
    <path d="M 43.803125 384.948125 
L 703.828125 384.948125 
L 703.828125 22.798125 
L 43.803125 22.798125 
z
" style="fill: #ffffff"/>
   </g>
   <g id="matplotlib.axis_1">
    <g id="xtick_1">
     <g id="line2d_1">
      <path d="M 66.445261 384.948125 
L 66.445261 22.798125 
" clip-path="url(#p6c98422d00)" style="fill: none; stroke: #b0b0b0; stroke-width: 0.8; stroke-linecap: square"/>
     </g>
     <g id="line2d_2">
      <defs>
       <path id="mb8e6df31fc" d="M 0 0 
L 0 3.5 
" style="stroke: #000000; stroke-width: 0.8"/>
      </defs>
      <g>
       <use xlink:href="#mb8e6df31fc" x="66.445261" y="384.948125" style="stroke: #000000; stroke-width: 0.8"/>
      </g>
     </g>
     <g id="text_1">
      <!-- 0.0 -->
      <g transform="translate(58.493699 399.546562) scale(0.1 -0.1)">
       <defs>
        <path id="DejaVuSans-30" d="M 2034 4250 
Q 1547 4250 1301 3770 
Q 1056 3291 1056 2328 
Q 1056 1369 1301 889 
Q 1547 409 2034 409 
Q 2525 409 2770 889 
Q 3016 1369 3016 2328 
Q 3016 3291 2770 3770 
Q 2525 4250 2034 4250 
z
M 2034 4750 
Q 2819 4750 3233 4129 
Q 3647 3509 3647 2328 
Q 3647 1150 3233 529 
Q 2819 -91 2034 -91 
Q 1250 -91 836 529 
Q 422 1150 422 2328 
Q 422 3509 836 4129 
Q 1250 4750 2034 4750 
z
" transform="scale(0.015625)"/>
        <path id="DejaVuSans-2e" d="M 684 794 
L 1344 794 
L 1344 0 
L 684 0 
L 684 794 
z
" transform="scale(0.015625)"/>
       </defs>
       <use xlink:href="#DejaVuSans-30"/>
       <use xlink:href="#DejaVuSans-2e" transform="translate(63.623047 0)"/>
       <use xlink:href="#DejaVuSans-30" transform="translate(95.410156 0)"/>
      </g>
     </g>
    </g>
    <g id="xtick_2">
     <g id="line2d_3">
      <path d="M 141.52178 384.948125 
L 141.52178 22.798125 
" clip-path="url(#p6c98422d00)" style="fill: none; stroke: #b0b0b0; stroke-width: 0.8; stroke-linecap: square"/>
     </g>
     <g id="line2d_4">
      <g>
       <use xlink:href="#mb8e6df31fc" x="141.52178" y="384.948125" style="stroke: #000000; stroke-width: 0.8"/>
      </g>
     </g>
     <g id="text_2">
      <!-- 0.1 -->
      <g transform="translate(133.570217 399.546562) scale(0.1 -0.1)">
       <defs>
        <path id="DejaVuSans-31" d="M 794 531 
L 1825 531 
L 1825 4091 
L 703 3866 
L 703 4441 
L 1819 4666 
L 2450 4666 
L 2450 531 
L 3481 531 
L 3481 0 
L 794 0 
L 794 531 
z
" transform="scale(0.015625)"/>
       </defs>
       <use xlink:href="#DejaVuSans-30"/>
       <use xlink:href="#DejaVuSans-2e" transform="translate(63.623047 0)"/>
       <use xlink:href="#DejaVuSans-31" transform="translate(95.410156 0)"/>
      </g>
     </g>
    </g>
    <g id="xtick_3">
     <g id="line2d_5">
      <path d="M 216.598299 384.948125 
L 216.598299 22.798125 
" clip-path="url(#p6c98422d00)" style="fill: none; stroke: #b0b0b0; stroke-width: 0.8; stroke-linecap: square"/>
     </g>
     <g id="line2d_6">
      <g>
       <use xlink:href="#mb8e6df31fc" x="216.598299" y="384.948125" style="stroke: #000000; stroke-width: 0.8"/>
      </g>
     </g>
     <g id="text_3">
      <!-- 0.2 -->
      <g transform="translate(208.646736 399.546562) scale(0.1 -0.1)">
       <defs>
        <path id="DejaVuSans-32" d="M 1228 531 
L 3431 531 
L 3431 0 
L 469 0 
L 469 531 
Q 828 903 1448 1529 
Q 2069 2156 2228 2338 
Q 2531 2678 2651 2914 
Q 2772 3150 2772 3378 
Q 2772 3750 2511 3984 
Q 2250 4219 1831 4219 
Q 1534 4219 1204 4116 
Q 875 4013 500 3803 
L 500 4441 
Q 881 4594 1212 4672 
Q 1544 4750 1819 4750 
Q 2544 4750 2975 4387 
Q 3406 4025 3406 3419 
Q 3406 3131 3298 2873 
Q 3191 2616 2906 2266 
Q 2828 2175 2409 1742 
Q 1991 1309 1228 531 
z
" transform="scale(0.015625)"/>
       </defs>
       <use xlink:href="#DejaVuSans-30"/>
       <use xlink:href="#DejaVuSans-2e" transform="translate(63.623047 0)"/>
       <use xlink:href="#DejaVuSans-32" transform="translate(95.410156 0)"/>
      </g>
     </g>
    </g>
    <g id="xtick_4">
     <g id="line2d_7">
      <path d="M 291.674817 384.948125 
L 291.674817 22.798125 
" clip-path="url(#p6c98422d00)" style="fill: none; stroke: #b0b0b0; stroke-width: 0.8; stroke-linecap: square"/>
     </g>
     <g id="line2d_8">
      <g>
       <use xlink:href="#mb8e6df31fc" x="291.674817" y="384.948125" style="stroke: #000000; stroke-width: 0.8"/>
      </g>
     </g>
     <g id="text_4">
      <!-- 0.3 -->
      <g transform="translate(283.723255 399.546562) scale(0.1 -0.1)">
       <defs>
        <path id="DejaVuSans-33" d="M 2597 2516 
Q 3050 2419 3304 2112 
Q 3559 1806 3559 1356 
Q 3559 666 3084 287 
Q 2609 -91 1734 -91 
Q 1441 -91 1130 -33 
Q 819 25 488 141 
L 488 750 
Q 750 597 1062 519 
Q 1375 441 1716 441 
Q 2309 441 2620 675 
Q 2931 909 2931 1356 
Q 2931 1769 2642 2001 
Q 2353 2234 1838 2234 
L 1294 2234 
L 1294 2753 
L 1863 2753 
Q 2328 2753 2575 2939 
Q 2822 3125 2822 3475 
Q 2822 3834 2567 4026 
Q 2313 4219 1838 4219 
Q 1578 4219 1281 4162 
Q 984 4106 628 3988 
L 628 4550 
Q 988 4650 1302 4700 
Q 1616 4750 1894 4750 
Q 2613 4750 3031 4423 
Q 3450 4097 3450 3541 
Q 3450 3153 3228 2886 
Q 3006 2619 2597 2516 
z
" transform="scale(0.015625)"/>
       </defs>
       <use xlink:href="#DejaVuSans-30"/>
       <use xlink:href="#DejaVuSans-2e" transform="translate(63.623047 0)"/>
       <use xlink:href="#DejaVuSans-33" transform="translate(95.410156 0)"/>
      </g>
     </g>
    </g>
    <g id="xtick_5">
     <g id="line2d_9">
      <path d="M 366.751336 384.948125 
L 366.751336 22.798125 
" clip-path="url(#p6c98422d00)" style="fill: none; stroke: #b0b0b0; stroke-width: 0.8; stroke-linecap: square"/>
     </g>
     <g id="line2d_10">
      <g>
       <use xlink:href="#mb8e6df31fc" x="366.751336" y="384.948125" style="stroke: #000000; stroke-width: 0.8"/>
      </g>
     </g>
     <g id="text_5">
      <!-- 0.4 -->
      <g transform="translate(358.799773 399.546562) scale(0.1 -0.1)">
       <defs>
        <path id="DejaVuSans-34" d="M 2419 4116 
L 825 1625 
L 2419 1625 
L 2419 4116 
z
M 2253 4666 
L 3047 4666 
L 3047 1625 
L 3713 1625 
L 3713 1100 
L 3047 1100 
L 3047 0 
L 2419 0 
L 2419 1100 
L 313 1100 
L 313 1709 
L 2253 4666 
z
" transform="scale(0.015625)"/>
       </defs>
       <use xlink:href="#DejaVuSans-30"/>
       <use xlink:href="#DejaVuSans-2e" transform="translate(63.623047 0)"/>
       <use xlink:href="#DejaVuSans-34" transform="translate(95.410156 0)"/>
      </g>
     </g>
    </g>
    <g id="xtick_6">
     <g id="line2d_11">
      <path d="M 441.827855 384.948125 
L 441.827855 22.798125 
" clip-path="url(#p6c98422d00)" style="fill: none; stroke: #b0b0b0; stroke-width: 0.8; stroke-linecap: square"/>
     </g>
     <g id="line2d_12">
      <g>
       <use xlink:href="#mb8e6df31fc" x="441.827855" y="384.948125" style="stroke: #000000; stroke-width: 0.8"/>
      </g>
     </g>
     <g id="text_6">
      <!-- 0.5 -->
      <g transform="translate(433.876292 399.546562) scale(0.1 -0.1)">
       <defs>
        <path id="DejaVuSans-35" d="M 691 4666 
L 3169 4666 
L 3169 4134 
L 1269 4134 
L 1269 2991 
Q 1406 3038 1543 3061 
Q 1681 3084 1819 3084 
Q 2600 3084 3056 2656 
Q 3513 2228 3513 1497 
Q 3513 744 3044 326 
Q 2575 -91 1722 -91 
Q 1428 -91 1123 -41 
Q 819 9 494 109 
L 494 744 
Q 775 591 1075 516 
Q 1375 441 1709 441 
Q 2250 441 2565 725 
Q 2881 1009 2881 1497 
Q 2881 1984 2565 2268 
Q 2250 2553 1709 2553 
Q 1456 2553 1204 2497 
Q 953 2441 691 2322 
L 691 4666 
z
" transform="scale(0.015625)"/>
       </defs>
       <use xlink:href="#DejaVuSans-30"/>
       <use xlink:href="#DejaVuSans-2e" transform="translate(63.623047 0)"/>
       <use xlink:href="#DejaVuSans-35" transform="translate(95.410156 0)"/>
      </g>
     </g>
    </g>
    <g id="xtick_7">
     <g id="line2d_13">
      <path d="M 516.904373 384.948125 
L 516.904373 22.798125 
" clip-path="url(#p6c98422d00)" style="fill: none; stroke: #b0b0b0; stroke-width: 0.8; stroke-linecap: square"/>
     </g>
     <g id="line2d_14">
      <g>
       <use xlink:href="#mb8e6df31fc" x="516.904373" y="384.948125" style="stroke: #000000; stroke-width: 0.8"/>
      </g>
     </g>
     <g id="text_7">
      <!-- 0.6 -->
      <g transform="translate(508.952811 399.546562) scale(0.1 -0.1)">
       <defs>
        <path id="DejaVuSans-36" d="M 2113 2584 
Q 1688 2584 1439 2293 
Q 1191 2003 1191 1497 
Q 1191 994 1439 701 
Q 1688 409 2113 409 
Q 2538 409 2786 701 
Q 3034 994 3034 1497 
Q 3034 2003 2786 2293 
Q 2538 2584 2113 2584 
z
M 3366 4563 
L 3366 3988 
Q 3128 4100 2886 4159 
Q 2644 4219 2406 4219 
Q 1781 4219 1451 3797 
Q 1122 3375 1075 2522 
Q 1259 2794 1537 2939 
Q 1816 3084 2150 3084 
Q 2853 3084 3261 2657 
Q 3669 2231 3669 1497 
Q 3669 778 3244 343 
Q 2819 -91 2113 -91 
Q 1303 -91 875 529 
Q 447 1150 447 2328 
Q 447 3434 972 4092 
Q 1497 4750 2381 4750 
Q 2619 4750 2861 4703 
Q 3103 4656 3366 4563 
z
" transform="scale(0.015625)"/>
       </defs>
       <use xlink:href="#DejaVuSans-30"/>
       <use xlink:href="#DejaVuSans-2e" transform="translate(63.623047 0)"/>
       <use xlink:href="#DejaVuSans-36" transform="translate(95.410156 0)"/>
      </g>
     </g>
    </g>
    <g id="xtick_8">
     <g id="line2d_15">
      <path d="M 591.980892 384.948125 
L 591.980892 22.798125 
" clip-path="url(#p6c98422d00)" style="fill: none; stroke: #b0b0b0; stroke-width: 0.8; stroke-linecap: square"/>
     </g>
     <g id="line2d_16">
      <g>
       <use xlink:href="#mb8e6df31fc" x="591.980892" y="384.948125" style="stroke: #000000; stroke-width: 0.8"/>
      </g>
     </g>
     <g id="text_8">
      <!-- 0.7 -->
      <g transform="translate(584.029329 399.546562) scale(0.1 -0.1)">
       <defs>
        <path id="DejaVuSans-37" d="M 525 4666 
L 3525 4666 
L 3525 4397 
L 1831 0 
L 1172 0 
L 2766 4134 
L 525 4134 
L 525 4666 
z
" transform="scale(0.015625)"/>
       </defs>
       <use xlink:href="#DejaVuSans-30"/>
       <use xlink:href="#DejaVuSans-2e" transform="translate(63.623047 0)"/>
       <use xlink:href="#DejaVuSans-37" transform="translate(95.410156 0)"/>
      </g>
     </g>
    </g>
    <g id="xtick_9">
     <g id="line2d_17">
      <path d="M 667.057411 384.948125 
L 667.057411 22.798125 
" clip-path="url(#p6c98422d00)" style="fill: none; stroke: #b0b0b0; stroke-width: 0.8; stroke-linecap: square"/>
     </g>
     <g id="line2d_18">
      <g>
       <use xlink:href="#mb8e6df31fc" x="667.057411" y="384.948125" style="stroke: #000000; stroke-width: 0.8"/>
      </g>
     </g>
     <g id="text_9">
      <!-- 0.8 -->
      <g transform="translate(659.105848 399.546562) scale(0.1 -0.1)">
       <defs>
        <path id="DejaVuSans-38" d="M 2034 2216 
Q 1584 2216 1326 1975 
Q 1069 1734 1069 1313 
Q 1069 891 1326 650 
Q 1584 409 2034 409 
Q 2484 409 2743 651 
Q 3003 894 3003 1313 
Q 3003 1734 2745 1975 
Q 2488 2216 2034 2216 
z
M 1403 2484 
Q 997 2584 770 2862 
Q 544 3141 544 3541 
Q 544 4100 942 4425 
Q 1341 4750 2034 4750 
Q 2731 4750 3128 4425 
Q 3525 4100 3525 3541 
Q 3525 3141 3298 2862 
Q 3072 2584 2669 2484 
Q 3125 2378 3379 2068 
Q 3634 1759 3634 1313 
Q 3634 634 3220 271 
Q 2806 -91 2034 -91 
Q 1263 -91 848 271 
Q 434 634 434 1313 
Q 434 1759 690 2068 
Q 947 2378 1403 2484 
z
M 1172 3481 
Q 1172 3119 1398 2916 
Q 1625 2713 2034 2713 
Q 2441 2713 2670 2916 
Q 2900 3119 2900 3481 
Q 2900 3844 2670 4047 
Q 2441 4250 2034 4250 
Q 1625 4250 1398 4047 
Q 1172 3844 1172 3481 
z
" transform="scale(0.015625)"/>
       </defs>
       <use xlink:href="#DejaVuSans-30"/>
       <use xlink:href="#DejaVuSans-2e" transform="translate(63.623047 0)"/>
       <use xlink:href="#DejaVuSans-38" transform="translate(95.410156 0)"/>
      </g>
     </g>
    </g>
    <g id="text_10">
     <!-- Radna snaga $p_2$ (p.u.) -->
     <g transform="translate(319.065625 413.22625) scale(0.1 -0.1)">
      <defs>
       <path id="DejaVuSans-52" d="M 2841 2188 
Q 3044 2119 3236 1894 
Q 3428 1669 3622 1275 
L 4263 0 
L 3584 0 
L 2988 1197 
Q 2756 1666 2539 1819 
Q 2322 1972 1947 1972 
L 1259 1972 
L 1259 0 
L 628 0 
L 628 4666 
L 2053 4666 
Q 2853 4666 3247 4331 
Q 3641 3997 3641 3322 
Q 3641 2881 3436 2590 
Q 3231 2300 2841 2188 
z
M 1259 4147 
L 1259 2491 
L 2053 2491 
Q 2509 2491 2742 2702 
Q 2975 2913 2975 3322 
Q 2975 3731 2742 3939 
Q 2509 4147 2053 4147 
L 1259 4147 
z
" transform="scale(0.015625)"/>
       <path id="DejaVuSans-61" d="M 2194 1759 
Q 1497 1759 1228 1600 
Q 959 1441 959 1056 
Q 959 750 1161 570 
Q 1363 391 1709 391 
Q 2188 391 2477 730 
Q 2766 1069 2766 1631 
L 2766 1759 
L 2194 1759 
z
M 3341 1997 
L 3341 0 
L 2766 0 
L 2766 531 
Q 2569 213 2275 61 
Q 1981 -91 1556 -91 
Q 1019 -91 701 211 
Q 384 513 384 1019 
Q 384 1609 779 1909 
Q 1175 2209 1959 2209 
L 2766 2209 
L 2766 2266 
Q 2766 2663 2505 2880 
Q 2244 3097 1772 3097 
Q 1472 3097 1187 3025 
Q 903 2953 641 2809 
L 641 3341 
Q 956 3463 1253 3523 
Q 1550 3584 1831 3584 
Q 2591 3584 2966 3190 
Q 3341 2797 3341 1997 
z
" transform="scale(0.015625)"/>
       <path id="DejaVuSans-64" d="M 2906 2969 
L 2906 4863 
L 3481 4863 
L 3481 0 
L 2906 0 
L 2906 525 
Q 2725 213 2448 61 
Q 2172 -91 1784 -91 
Q 1150 -91 751 415 
Q 353 922 353 1747 
Q 353 2572 751 3078 
Q 1150 3584 1784 3584 
Q 2172 3584 2448 3432 
Q 2725 3281 2906 2969 
z
M 947 1747 
Q 947 1113 1208 752 
Q 1469 391 1925 391 
Q 2381 391 2643 752 
Q 2906 1113 2906 1747 
Q 2906 2381 2643 2742 
Q 2381 3103 1925 3103 
Q 1469 3103 1208 2742 
Q 947 2381 947 1747 
z
" transform="scale(0.015625)"/>
       <path id="DejaVuSans-6e" d="M 3513 2113 
L 3513 0 
L 2938 0 
L 2938 2094 
Q 2938 2591 2744 2837 
Q 2550 3084 2163 3084 
Q 1697 3084 1428 2787 
Q 1159 2491 1159 1978 
L 1159 0 
L 581 0 
L 581 3500 
L 1159 3500 
L 1159 2956 
Q 1366 3272 1645 3428 
Q 1925 3584 2291 3584 
Q 2894 3584 3203 3211 
Q 3513 2838 3513 2113 
z
" transform="scale(0.015625)"/>
       <path id="DejaVuSans-20" transform="scale(0.015625)"/>
       <path id="DejaVuSans-73" d="M 2834 3397 
L 2834 2853 
Q 2591 2978 2328 3040 
Q 2066 3103 1784 3103 
Q 1356 3103 1142 2972 
Q 928 2841 928 2578 
Q 928 2378 1081 2264 
Q 1234 2150 1697 2047 
L 1894 2003 
Q 2506 1872 2764 1633 
Q 3022 1394 3022 966 
Q 3022 478 2636 193 
Q 2250 -91 1575 -91 
Q 1294 -91 989 -36 
Q 684 19 347 128 
L 347 722 
Q 666 556 975 473 
Q 1284 391 1588 391 
Q 1994 391 2212 530 
Q 2431 669 2431 922 
Q 2431 1156 2273 1281 
Q 2116 1406 1581 1522 
L 1381 1569 
Q 847 1681 609 1914 
Q 372 2147 372 2553 
Q 372 3047 722 3315 
Q 1072 3584 1716 3584 
Q 2034 3584 2315 3537 
Q 2597 3491 2834 3397 
z
" transform="scale(0.015625)"/>
       <path id="DejaVuSans-67" d="M 2906 1791 
Q 2906 2416 2648 2759 
Q 2391 3103 1925 3103 
Q 1463 3103 1205 2759 
Q 947 2416 947 1791 
Q 947 1169 1205 825 
Q 1463 481 1925 481 
Q 2391 481 2648 825 
Q 2906 1169 2906 1791 
z
M 3481 434 
Q 3481 -459 3084 -895 
Q 2688 -1331 1869 -1331 
Q 1566 -1331 1297 -1286 
Q 1028 -1241 775 -1147 
L 775 -588 
Q 1028 -725 1275 -790 
Q 1522 -856 1778 -856 
Q 2344 -856 2625 -561 
Q 2906 -266 2906 331 
L 2906 616 
Q 2728 306 2450 153 
Q 2172 0 1784 0 
Q 1141 0 747 490 
Q 353 981 353 1791 
Q 353 2603 747 3093 
Q 1141 3584 1784 3584 
Q 2172 3584 2450 3431 
Q 2728 3278 2906 2969 
L 2906 3500 
L 3481 3500 
L 3481 434 
z
" transform="scale(0.015625)"/>
       <path id="DejaVuSans-Oblique-70" d="M 3175 2156 
Q 3175 2616 2975 2859 
Q 2775 3103 2400 3103 
Q 2144 3103 1911 2972 
Q 1678 2841 1497 2591 
Q 1319 2344 1212 1994 
Q 1106 1644 1106 1300 
Q 1106 863 1306 627 
Q 1506 391 1875 391 
Q 2147 391 2380 519 
Q 2613 647 2778 891 
Q 2956 1147 3065 1494 
Q 3175 1841 3175 2156 
z
M 1394 2969 
Q 1625 3272 1939 3428 
Q 2253 3584 2638 3584 
Q 3175 3584 3472 3232 
Q 3769 2881 3769 2247 
Q 3769 1728 3584 1258 
Q 3400 788 3053 416 
Q 2822 169 2531 39 
Q 2241 -91 1919 -91 
Q 1547 -91 1294 64 
Q 1041 219 916 525 
L 556 -1331 
L -19 -1331 
L 922 3500 
L 1497 3500 
L 1394 2969 
z
" transform="scale(0.015625)"/>
       <path id="DejaVuSans-28" d="M 1984 4856 
Q 1566 4138 1362 3434 
Q 1159 2731 1159 2009 
Q 1159 1288 1364 580 
Q 1569 -128 1984 -844 
L 1484 -844 
Q 1016 -109 783 600 
Q 550 1309 550 2009 
Q 550 2706 781 3412 
Q 1013 4119 1484 4856 
L 1984 4856 
z
" transform="scale(0.015625)"/>
       <path id="DejaVuSans-70" d="M 1159 525 
L 1159 -1331 
L 581 -1331 
L 581 3500 
L 1159 3500 
L 1159 2969 
Q 1341 3281 1617 3432 
Q 1894 3584 2278 3584 
Q 2916 3584 3314 3078 
Q 3713 2572 3713 1747 
Q 3713 922 3314 415 
Q 2916 -91 2278 -91 
Q 1894 -91 1617 61 
Q 1341 213 1159 525 
z
M 3116 1747 
Q 3116 2381 2855 2742 
Q 2594 3103 2138 3103 
Q 1681 3103 1420 2742 
Q 1159 2381 1159 1747 
Q 1159 1113 1420 752 
Q 1681 391 2138 391 
Q 2594 391 2855 752 
Q 3116 1113 3116 1747 
z
" transform="scale(0.015625)"/>
       <path id="DejaVuSans-75" d="M 544 1381 
L 544 3500 
L 1119 3500 
L 1119 1403 
Q 1119 906 1312 657 
Q 1506 409 1894 409 
Q 2359 409 2629 706 
Q 2900 1003 2900 1516 
L 2900 3500 
L 3475 3500 
L 3475 0 
L 2900 0 
L 2900 538 
Q 2691 219 2414 64 
Q 2138 -91 1772 -91 
Q 1169 -91 856 284 
Q 544 659 544 1381 
z
M 1991 3584 
L 1991 3584 
z
" transform="scale(0.015625)"/>
       <path id="DejaVuSans-29" d="M 513 4856 
L 1013 4856 
Q 1481 4119 1714 3412 
Q 1947 2706 1947 2009 
Q 1947 1309 1714 600 
Q 1481 -109 1013 -844 
L 513 -844 
Q 928 -128 1133 580 
Q 1338 1288 1338 2009 
Q 1338 2731 1133 3434 
Q 928 4138 513 4856 
z
" transform="scale(0.015625)"/>
      </defs>
      <use xlink:href="#DejaVuSans-52" transform="translate(0 0.015625)"/>
      <use xlink:href="#DejaVuSans-61" transform="translate(69.482422 0.015625)"/>
      <use xlink:href="#DejaVuSans-64" transform="translate(130.761719 0.015625)"/>
      <use xlink:href="#DejaVuSans-6e" transform="translate(194.238281 0.015625)"/>
      <use xlink:href="#DejaVuSans-61" transform="translate(257.617188 0.015625)"/>
      <use xlink:href="#DejaVuSans-20" transform="translate(318.896484 0.015625)"/>
      <use xlink:href="#DejaVuSans-73" transform="translate(350.683594 0.015625)"/>
      <use xlink:href="#DejaVuSans-6e" transform="translate(402.783203 0.015625)"/>
      <use xlink:href="#DejaVuSans-61" transform="translate(466.162109 0.015625)"/>
      <use xlink:href="#DejaVuSans-67" transform="translate(527.441406 0.015625)"/>
      <use xlink:href="#DejaVuSans-61" transform="translate(590.917969 0.015625)"/>
      <use xlink:href="#DejaVuSans-20" transform="translate(652.197266 0.015625)"/>
      <use xlink:href="#DejaVuSans-Oblique-70" transform="translate(683.984375 0.015625)"/>
      <use xlink:href="#DejaVuSans-32" transform="translate(747.460938 -16.390625) scale(0.7)"/>
      <use xlink:href="#DejaVuSans-20" transform="translate(794.731445 0.015625)"/>
      <use xlink:href="#DejaVuSans-28" transform="translate(826.518555 0.015625)"/>
      <use xlink:href="#DejaVuSans-70" transform="translate(865.532227 0.015625)"/>
      <use xlink:href="#DejaVuSans-2e" transform="translate(929.008789 0.015625)"/>
      <use xlink:href="#DejaVuSans-75" transform="translate(960.795898 0.015625)"/>
      <use xlink:href="#DejaVuSans-2e" transform="translate(1024.174805 0.015625)"/>
      <use xlink:href="#DejaVuSans-29" transform="translate(1055.961914 0.015625)"/>
     </g>
    </g>
   </g>
   <g id="matplotlib.axis_2">
    <g id="ytick_1">
     <g id="line2d_19">
      <path d="M 43.803125 344.555151 
L 703.828125 344.555151 
" clip-path="url(#p6c98422d00)" style="fill: none; stroke: #b0b0b0; stroke-width: 0.8; stroke-linecap: square"/>
     </g>
     <g id="line2d_20">
      <defs>
       <path id="ma1309af7d1" d="M 0 0 
L -3.5 0 
" style="stroke: #000000; stroke-width: 0.8"/>
      </defs>
      <g>
       <use xlink:href="#ma1309af7d1" x="43.803125" y="344.555151" style="stroke: #000000; stroke-width: 0.8"/>
      </g>
     </g>
     <g id="text_11">
      <!-- 0.2 -->
      <g transform="translate(20.9 348.35437) scale(0.1 -0.1)">
       <use xlink:href="#DejaVuSans-30"/>
       <use xlink:href="#DejaVuSans-2e" transform="translate(63.623047 0)"/>
       <use xlink:href="#DejaVuSans-32" transform="translate(95.410156 0)"/>
      </g>
     </g>
    </g>
    <g id="ytick_2">
     <g id="line2d_21">
      <path d="M 43.803125 278.044388 
L 703.828125 278.044388 
" clip-path="url(#p6c98422d00)" style="fill: none; stroke: #b0b0b0; stroke-width: 0.8; stroke-linecap: square"/>
     </g>
     <g id="line2d_22">
      <g>
       <use xlink:href="#ma1309af7d1" x="43.803125" y="278.044388" style="stroke: #000000; stroke-width: 0.8"/>
      </g>
     </g>
     <g id="text_12">
      <!-- 0.4 -->
      <g transform="translate(20.9 281.843607) scale(0.1 -0.1)">
       <use xlink:href="#DejaVuSans-30"/>
       <use xlink:href="#DejaVuSans-2e" transform="translate(63.623047 0)"/>
       <use xlink:href="#DejaVuSans-34" transform="translate(95.410156 0)"/>
      </g>
     </g>
    </g>
    <g id="ytick_3">
     <g id="line2d_23">
      <path d="M 43.803125 211.533624 
L 703.828125 211.533624 
" clip-path="url(#p6c98422d00)" style="fill: none; stroke: #b0b0b0; stroke-width: 0.8; stroke-linecap: square"/>
     </g>
     <g id="line2d_24">
      <g>
       <use xlink:href="#ma1309af7d1" x="43.803125" y="211.533624" style="stroke: #000000; stroke-width: 0.8"/>
      </g>
     </g>
     <g id="text_13">
      <!-- 0.6 -->
      <g transform="translate(20.9 215.332843) scale(0.1 -0.1)">
       <use xlink:href="#DejaVuSans-30"/>
       <use xlink:href="#DejaVuSans-2e" transform="translate(63.623047 0)"/>
       <use xlink:href="#DejaVuSans-36" transform="translate(95.410156 0)"/>
      </g>
     </g>
    </g>
    <g id="ytick_4">
     <g id="line2d_25">
      <path d="M 43.803125 145.022861 
L 703.828125 145.022861 
" clip-path="url(#p6c98422d00)" style="fill: none; stroke: #b0b0b0; stroke-width: 0.8; stroke-linecap: square"/>
     </g>
     <g id="line2d_26">
      <g>
       <use xlink:href="#ma1309af7d1" x="43.803125" y="145.022861" style="stroke: #000000; stroke-width: 0.8"/>
      </g>
     </g>
     <g id="text_14">
      <!-- 0.8 -->
      <g transform="translate(20.9 148.82208) scale(0.1 -0.1)">
       <use xlink:href="#DejaVuSans-30"/>
       <use xlink:href="#DejaVuSans-2e" transform="translate(63.623047 0)"/>
       <use xlink:href="#DejaVuSans-38" transform="translate(95.410156 0)"/>
      </g>
     </g>
    </g>
    <g id="ytick_5">
     <g id="line2d_27">
      <path d="M 43.803125 78.512098 
L 703.828125 78.512098 
" clip-path="url(#p6c98422d00)" style="fill: none; stroke: #b0b0b0; stroke-width: 0.8; stroke-linecap: square"/>
     </g>
     <g id="line2d_28">
      <g>
       <use xlink:href="#ma1309af7d1" x="43.803125" y="78.512098" style="stroke: #000000; stroke-width: 0.8"/>
      </g>
     </g>
     <g id="text_15">
      <!-- 1.0 -->
      <g transform="translate(20.9 82.311317) scale(0.1 -0.1)">
       <use xlink:href="#DejaVuSans-31"/>
       <use xlink:href="#DejaVuSans-2e" transform="translate(63.623047 0)"/>
       <use xlink:href="#DejaVuSans-30" transform="translate(95.410156 0)"/>
      </g>
     </g>
    </g>
    <g id="text_16">
     <!-- Napon $v_2$ (p.u.) -->
     <g transform="translate(14.8 242.023125) rotate(-90) scale(0.1 -0.1)">
      <defs>
       <path id="DejaVuSans-4e" d="M 628 4666 
L 1478 4666 
L 3547 763 
L 3547 4666 
L 4159 4666 
L 4159 0 
L 3309 0 
L 1241 3903 
L 1241 0 
L 628 0 
L 628 4666 
z
" transform="scale(0.015625)"/>
       <path id="DejaVuSans-6f" d="M 1959 3097 
Q 1497 3097 1228 2736 
Q 959 2375 959 1747 
Q 959 1119 1226 758 
Q 1494 397 1959 397 
Q 2419 397 2687 759 
Q 2956 1122 2956 1747 
Q 2956 2369 2687 2733 
Q 2419 3097 1959 3097 
z
M 1959 3584 
Q 2709 3584 3137 3096 
Q 3566 2609 3566 1747 
Q 3566 888 3137 398 
Q 2709 -91 1959 -91 
Q 1206 -91 779 398 
Q 353 888 353 1747 
Q 353 2609 779 3096 
Q 1206 3584 1959 3584 
z
" transform="scale(0.015625)"/>
       <path id="DejaVuSans-Oblique-76" d="M 459 3500 
L 1069 3500 
L 1581 525 
L 3256 3500 
L 3866 3500 
L 1875 0 
L 1100 0 
L 459 3500 
z
" transform="scale(0.015625)"/>
      </defs>
      <use xlink:href="#DejaVuSans-4e" transform="translate(0 0.125)"/>
      <use xlink:href="#DejaVuSans-61" transform="translate(74.804688 0.125)"/>
      <use xlink:href="#DejaVuSans-70" transform="translate(136.083984 0.125)"/>
      <use xlink:href="#DejaVuSans-6f" transform="translate(199.560547 0.125)"/>
      <use xlink:href="#DejaVuSans-6e" transform="translate(260.742188 0.125)"/>
      <use xlink:href="#DejaVuSans-20" transform="translate(324.121094 0.125)"/>
      <use xlink:href="#DejaVuSans-Oblique-76" transform="translate(355.908203 0.125)"/>
      <use xlink:href="#DejaVuSans-32" transform="translate(415.087891 -16.28125) scale(0.7)"/>
      <use xlink:href="#DejaVuSans-20" transform="translate(462.358398 0.125)"/>
      <use xlink:href="#DejaVuSans-28" transform="translate(494.145508 0.125)"/>
      <use xlink:href="#DejaVuSans-70" transform="translate(533.15918 0.125)"/>
      <use xlink:href="#DejaVuSans-2e" transform="translate(596.635742 0.125)"/>
      <use xlink:href="#DejaVuSans-75" transform="translate(628.422852 0.125)"/>
      <use xlink:href="#DejaVuSans-2e" transform="translate(691.801758 0.125)"/>
      <use xlink:href="#DejaVuSans-29" transform="translate(723.588867 0.125)"/>
     </g>
    </g>
   </g>
   <g id="line2d_29">
    <path d="M 73.952162 78.528724 
L 92.671174 78.715309 
L 111.292416 79.10809 
L 129.747388 79.704879 
L 147.96963 80.502377 
L 165.8955 81.496227 
L 183.464881 82.681075 
L 200.621806 84.050651 
L 217.314973 85.59786 
L 233.498167 87.314873 
L 249.130565 89.193238 
L 264.176928 91.223985 
L 278.607688 93.397732 
L 292.398932 95.704795 
L 305.532298 98.135289 
L 317.994784 100.679232 
L 329.778484 103.326631 
L 340.880281 106.067571 
L 351.30148 108.89229 
L 361.047421 111.791249 
L 370.127067 114.755184 
L 378.552586 117.775162 
L 386.338931 120.842617 
L 393.503431 123.949385 
L 400.065397 127.087723 
L 404.895156 129.616201 
L 409.363963 132.156671 
L 413.483532 134.705788 
L 417.265886 137.26039 
L 420.723269 139.817502 
L 423.86806 142.374332 
L 426.712696 144.928264 
L 429.26961 147.476861 
L 431.551165 150.017851 
L 433.569603 152.549132 
L 435.336996 155.068758 
L 436.86521 157.574936 
L 438.165867 160.066021 
L 439.250316 162.540507 
L 440.129611 164.997022 
L 440.956558 168.040509 
L 441.499947 171.051811 
L 441.779178 174.029031 
L 441.812791 176.970527 
L 441.618451 179.874891 
L 441.212948 182.740933 
L 440.612206 185.567662 
L 439.654754 188.906714 
L 438.462259 192.186915 
L 437.057488 195.407487 
L 435.178428 199.088805 
L 433.07011 202.687911 
L 430.760783 206.204815 
L 427.908313 210.123929 
L 424.861486 213.937094 
L 421.239925 218.101967 
L 417.020665 222.57732 
L 412.640691 226.896157 
L 407.684749 231.471306 
L 402.16477 236.259733 
L 396.106153 241.218157 
L 389.546586 246.303967 
L 382.068484 251.811089 
L 374.206472 257.327449 
L 365.58282 263.112765 
L 355.87565 269.349903 
L 345.265912 275.890538 
L 333.959909 282.596049 
L 321.44047 289.755789 
L 308.087806 297.13487 
L 293.365224 305.013763 
L 277.37712 313.314675 
L 259.75802 322.206509 
L 240.371392 331.734459 
L 218.95948 342.003588 
L 210.823182 345.846745 
L 210.823182 345.846745 
" clip-path="url(#p6c98422d00)" style="fill: none; stroke: #ff0000; stroke-width: 1.5; stroke-linecap: square"/>
   </g>
   <g id="line2d_30">
    <defs>
     <path id="mf9fdf81b7a" d="M 0 3 
C 0.795609 3 1.55874 2.683901 2.12132 2.12132 
C 2.683901 1.55874 3 0.795609 3 0 
C 3 -0.795609 2.683901 -1.55874 2.12132 -2.12132 
C 1.55874 -2.683901 0.795609 -3 0 -3 
C -0.795609 -3 -1.55874 -2.683901 -2.12132 -2.12132 
C -2.683901 -1.55874 -3 -0.795609 -3 0 
C -3 0.795609 -2.683901 1.55874 -2.12132 2.12132 
C -1.55874 2.683901 -0.795609 3 0 3 
z
" style="stroke: #ff0000"/>
    </defs>
    <g clip-path="url(#p6c98422d00)">
     <use xlink:href="#mf9fdf81b7a" x="441.82767" y="175.79831" style="fill: #ff0000; stroke: #ff0000"/>
    </g>
   </g>
   <g id="line2d_31">
    <path d="M 73.922228 79.192405 
L 92.308525 81.02116 
L 110.239714 83.027268 
L 127.665108 85.200396 
L 144.540267 87.529733 
L 160.827126 90.004125 
L 176.494012 92.612203 
L 191.515543 95.342503 
L 205.872429 98.183581 
L 219.551187 101.12411 
L 232.543788 104.152978 
L 244.847257 107.259362 
L 256.463231 110.432799 
L 267.397498 113.663239 
L 277.659524 116.941095 
L 287.261984 120.257271 
L 296.220304 123.603189 
L 304.552219 126.970804 
L 312.277358 130.352612 
L 319.416857 133.741649 
L 325.993002 137.131485 
L 332.028909 140.516216 
L 337.54823 143.890443 
L 342.574901 147.24926 
L 347.132918 150.588232 
L 351.24614 153.903366 
L 354.93813 157.191097 
L 358.232013 160.448255 
L 361.150365 163.672043 
L 363.715121 166.860012 
L 365.947501 170.010037 
L 367.867962 173.120289 
L 369.49615 176.189217 
L 370.850882 179.215521 
L 371.950128 182.198134 
L 372.811006 185.136199 
L 373.449787 188.029051 
L 373.881906 190.876199 
L 374.148168 194.231988 
L 374.161562 197.521178 
L 373.944214 200.743716 
L 373.516714 203.899773 
L 372.898187 206.989715 
L 371.958723 210.511804 
L 370.809252 213.945726 
L 369.47342 217.292795 
L 367.746103 221.013586 
L 365.832502 224.625347 
L 363.489329 228.561549 
L 360.976167 232.367076 
L 358.019504 236.447184 
L 354.607219 240.761709 
L 350.738436 245.269851 
L 346.423546 249.931023 
L 341.683527 254.705649 
L 336.548668 259.555885 
L 330.71417 264.742612 
L 324.572863 269.901007 
L 317.846177 275.262195 
L 310.290783 280.987795 
L 302.345342 286.729263 
L 293.518405 292.828053 
L 284.010417 299.12182 
L 273.77327 305.629848 
L 262.601512 312.464259 
L 250.460555 319.623795 
L 237.482421 327.015886 
L 223.453398 334.749262 
L 208.158693 342.922151 
L 195.887535 349.312221 
L 195.887535 349.312221 
" clip-path="url(#p6c98422d00)" style="fill: none; stroke: #008000; stroke-width: 1.5; stroke-linecap: square"/>
   </g>
   <g id="line2d_32">
    <defs>
     <path id="m3b48a7af31" d="M 0 3 
C 0.795609 3 1.55874 2.683901 2.12132 2.12132 
C 2.683901 1.55874 3 0.795609 3 0 
C 3 -0.795609 2.683901 -1.55874 2.12132 -2.12132 
C 1.55874 -2.683901 0.795609 -3 0 -3 
C -0.795609 -3 -1.55874 -2.683901 -2.12132 -2.12132 
C -2.683901 -1.55874 -3 -0.795609 -3 0 
C -3 0.795609 -2.683901 1.55874 -2.12132 2.12132 
C -1.55874 2.683901 -0.795609 3 0 3 
z
" style="stroke: #008000"/>
    </defs>
    <g clip-path="url(#p6c98422d00)">
     <use xlink:href="#m3b48a7af31" x="374.185054" y="195.884917" style="fill: #008000; stroke: #008000"/>
    </g>
   </g>
   <g id="line2d_33">
    <path d="M 73.87766 80.182974 
L 88.27423 83.566287 
L 102.062878 87.00156 
L 115.242488 90.47972 
L 127.815347 93.99217 
L 139.786782 97.530805 
L 151.164796 101.088026 
L 161.959717 104.65674 
L 172.183861 108.230358 
L 181.851215 111.802792 
L 190.977145 115.368438 
L 199.578121 118.922164 
L 207.671468 122.459296 
L 217.1017 126.850953 
L 225.802822 131.202709 
L 233.811327 135.508135 
L 241.163777 139.761679 
L 247.896423 143.958596 
L 254.0449 148.094883 
L 259.643975 152.167209 
L 264.727359 156.172857 
L 269.327555 160.109654 
L 273.475754 163.975925 
L 277.201766 167.770432 
L 280.533974 171.49233 
L 283.499318 175.141115 
L 286.123296 178.716591 
L 288.429977 182.218825 
L 290.442037 185.648116 
L 292.180792 189.004962 
L 293.666248 192.290034 
L 295.14075 196.138539 
L 296.307547 199.886516 
L 297.194399 203.535817 
L 297.826857 207.088457 
L 298.228406 210.546582 
L 298.420609 213.912431 
L 298.40655 217.725708 
L 298.162981 221.420268 
L 297.71569 224.999891 
L 296.984758 228.955005 
L 296.049063 232.770556 
L 294.785791 236.903114 
L 293.332578 240.873742 
L 291.531556 245.104723 
L 289.568734 249.154905 
L 287.259123 253.412564 
L 284.598915 257.834884 
L 281.593541 262.380345 
L 278.257015 267.009474 
L 274.610834 271.685459 
L 270.436589 276.658021 
L 266.014159 281.576587 
L 261.142633 286.661938 
L 255.87854 291.839331 
L 250.058354 297.249478 
L 243.780196 302.780219 
L 236.943918 308.503563 
L 229.503452 314.436534 
L 221.472276 320.54933 
L 212.922179 326.776228 
L 203.683278 333.228092 
L 193.762611 339.882888 
L 183.106452 346.761119 
L 171.649197 353.888466 
L 167.219112 356.578174 
L 167.219112 356.578174 
" clip-path="url(#p6c98422d00)" style="fill: none; stroke: #ffa500; stroke-width: 1.5; stroke-linecap: square"/>
   </g>
   <g id="line2d_34">
    <defs>
     <path id="m87935eb7f6" d="M 0 3 
C 0.795609 3 1.55874 2.683901 2.12132 2.12132 
C 2.683901 1.55874 3 0.795609 3 0 
C 3 -0.795609 2.683901 -1.55874 2.12132 -2.12132 
C 1.55874 -2.683901 0.795609 -3 0 -3 
C -0.795609 -3 -1.55874 -2.683901 -2.12132 -2.12132 
C -2.683901 -1.55874 -3 -0.795609 -3 0 
C -3 0.795609 -2.683901 1.55874 -2.12132 2.12132 
C -1.55874 2.683901 -0.795609 3 0 3 
z
" style="stroke: #ffa500"/>
    </defs>
    <g clip-path="url(#p6c98422d00)">
     <use xlink:href="#m87935eb7f6" x="298.444453" y="215.56147" style="fill: #ffa500; stroke: #ffa500"/>
    </g>
   </g>
   <g id="line2d_35">
    <path d="M 73.804261 81.820847 
L 84.28918 86.714762 
L 94.150079 91.529311 
L 103.416691 96.262403 
L 112.118184 100.912443 
L 120.283021 105.478279 
L 127.938849 109.959154 
L 135.112411 114.354661 
L 143.97138 120.082413 
L 152.077009 125.658755 
L 159.484335 131.084903 
L 166.245099 136.362662 
L 172.407778 141.494319 
L 178.017659 146.482547 
L 183.116947 151.330325 
L 187.744897 156.040868 
L 191.937949 160.617565 
L 195.729887 165.063934 
L 199.151991 169.383572 
L 202.233193 173.580124 
L 205.000233 177.657253 
L 208.054676 182.591288 
L 210.700773 187.351498 
L 212.978389 191.944832 
L 214.923545 196.378082 
L 216.568787 200.657855 
L 217.94351 204.790553 
L 219.273292 209.56434 
L 220.292665 214.145482 
L 221.03796 218.543748 
L 221.541344 222.768425 
L 221.860705 227.489545 
L 221.929165 231.999557 
L 221.781238 236.310822 
L 221.385534 241.009427 
L 220.784906 245.479605 
L 219.90513 250.253992 
L 218.847389 254.777573 
L 217.503796 259.531292 
L 215.864776 264.454781 
L 214.096991 269.084099 
L 212.06086 273.827099 
L 209.767346 278.635245 
L 207.051576 283.796785 
L 204.116406 288.892207 
L 200.811392 294.173387 
L 197.178629 299.545771 
L 193.269997 304.927163 
L 188.974584 310.459184 
L 184.375796 316.022072 
L 179.261158 321.850825 
L 173.781928 327.74903 
L 167.962927 333.686171 
L 161.641395 339.815294 
L 154.892148 346.046907 
L 147.690781 352.393115 
L 139.954318 358.912462 
L 131.695263 365.578561 
L 127.983391 368.486761 
L 127.983391 368.486761 
" clip-path="url(#p6c98422d00)" style="fill: none; stroke: #0000ff; stroke-width: 1.5; stroke-linecap: square"/>
   </g>
   <g id="line2d_36">
    <defs>
     <path id="m5926563c06" d="M 0 3 
C 0.795609 3 1.55874 2.683901 2.12132 2.12132 
C 2.683901 1.55874 3 0.795609 3 0 
C 3 -0.795609 2.683901 -1.55874 2.12132 -2.12132 
C 1.55874 -2.683901 0.795609 -3 0 -3 
C -0.795609 -3 -1.55874 -2.683901 -2.12132 -2.12132 
C -2.683901 -1.55874 -3 -0.795609 -3 0 
C -3 0.795609 -2.683901 1.55874 -2.12132 2.12132 
C -1.55874 2.683901 -0.795609 3 0 3 
z
" style="stroke: #0000ff"/>
    </defs>
    <g clip-path="url(#p6c98422d00)">
     <use xlink:href="#m5926563c06" x="221.933386" y="231.367717" style="fill: #0000ff; stroke: #0000ff"/>
    </g>
   </g>
   <g id="line2d_37">
    <path d="M 74.027791 76.857851 
L 89.621985 73.607526 
L 105.796679 70.43895 
L 122.533596 67.362758 
L 139.809415 64.389838 
L 157.595547 61.531258 
L 175.857991 58.798184 
L 194.557252 56.201785 
L 213.648353 53.753131 
L 233.080949 51.463081 
L 252.799534 49.342171 
L 272.743768 47.400491 
L 292.848908 45.647568 
L 313.046359 44.092241 
L 333.264323 42.742548 
L 353.428541 41.605614 
L 373.463127 40.687552 
L 393.291453 39.99337 
L 412.837091 39.5269 
L 432.024769 39.29074 
L 450.781321 39.286209 
L 469.036615 39.513335 
L 486.724425 39.970845 
L 503.783224 40.656192 
L 520.156889 41.565592 
L 535.795287 42.694081 
L 550.654742 44.035587 
L 564.698362 45.583024 
L 574.677432 46.873959 
L 584.170618 48.272565 
L 593.170133 49.774934 
L 601.670377 51.376957 
L 609.667891 53.074358 
L 617.161281 54.862716 
L 624.151135 56.737497 
L 630.639921 58.694083 
L 636.631877 60.727795 
L 642.132886 62.833924 
L 647.150352 65.00775 
L 651.693064 67.244572 
L 655.771062 69.539721 
L 659.395499 71.888589 
L 662.578503 74.286639 
L 665.333046 76.729428 
L 667.672814 79.212614 
L 669.612077 81.731976 
L 671.165577 84.28342 
L 671.994373 86.000247 
L 672.66296 87.728433 
L 673.175913 89.466873 
L 673.663588 92.091408 
L 673.826989 94.73309 
L 673.681648 97.388569 
L 673.243004 100.054659 
L 672.52633 102.728331 
L 671.546678 105.406717 
L 670.318826 108.087111 
L 668.857234 110.76696 
L 667.176002 113.443868 
L 665.288844 116.115587 
L 662.475228 119.666203 
L 659.349421 123.199298 
L 655.940292 126.710721 
L 652.275229 130.196731 
L 647.37329 134.513434 
L 642.159061 138.779469 
L 636.676195 142.989909 
L 629.798413 147.963233 
L 622.654303 152.844625 
L 614.057587 158.417271 
L 605.253327 163.853065 
L 595.024095 169.89318 
L 583.405249 176.465187 
L 570.475375 183.489043 
L 556.354707 190.879429 
L 541.199451 198.548513 
L 523.98225 206.994769 
L 505.05149 216.019036 
L 483.728359 225.922058 
L 459.679779 236.830938 
L 432.084588 249.091348 
L 399.440109 263.340956 
L 356.55971 281.797866 
L 225.63985 337.983723 
L 204.200341 347.360157 
L 204.200341 347.360157 
" clip-path="url(#p6c98422d00)" style="fill: none; stroke: #ff00ff; stroke-width: 1.5; stroke-linecap: square"/>
   </g>
   <g id="line2d_38">
    <defs>
     <path id="m47a9f5650b" d="M 0 3 
C 0.795609 3 1.55874 2.683901 2.12132 2.12132 
C 2.683901 1.55874 3 0.795609 3 0 
C 3 -0.795609 2.683901 -1.55874 2.12132 -2.12132 
C 1.55874 -2.683901 0.795609 -3 0 -3 
C -0.795609 -3 -1.55874 -2.683901 -2.12132 -2.12132 
C -2.683901 -1.55874 -3 -0.795609 -3 0 
C -3 0.795609 -2.683901 1.55874 -2.12132 2.12132 
C -1.55874 2.683901 -0.795609 3 0 3 
z
" style="stroke: #ff00ff"/>
    </defs>
    <g clip-path="url(#p6c98422d00)">
     <use xlink:href="#m47a9f5650b" x="673.826989" y="94.73309" style="fill: #ff00ff; stroke: #ff00ff"/>
    </g>
   </g>
   <g id="line2d_39">
    <path d="M 73.982277 77.862384 
L 93.041501 76.377033 
L 112.383489 75.094307 
L 131.937467 74.021529 
L 151.62895 73.164938 
L 171.38062 72.529593 
L 191.113295 72.119291 
L 210.746968 71.936503 
L 230.201869 71.982338 
L 249.399545 72.256517 
L 268.26391 72.757382 
L 286.722244 73.481924 
L 304.70611 74.425833 
L 322.152167 75.583564 
L 339.002861 76.948432 
L 355.206972 78.512712 
L 370.720026 80.267759 
L 385.504545 82.20413 
L 399.530162 84.311718 
L 410.188361 86.113933 
L 420.337104 88.013293 
L 429.970422 90.004046 
L 439.08499 92.080361 
L 447.679994 94.236366 
L 455.756977 96.466192 
L 463.319676 98.764 
L 470.373844 101.124018 
L 476.927069 103.540567 
L 482.988583 106.008089 
L 488.56908 108.521165 
L 493.680528 111.074541 
L 498.33599 113.663139 
L 502.549445 116.282073 
L 506.335632 118.926661 
L 509.709883 121.592428 
L 512.687983 124.27512 
L 515.286035 126.9707 
L 517.520332 129.675352 
L 519.407249 132.385485 
L 520.96314 135.097725 
L 522.204247 137.808915 
L 523.146624 140.516111 
L 523.806068 143.216576 
L 524.198056 145.907773 
L 524.337699 148.587361 
L 524.239702 151.253183 
L 523.918326 153.903265 
L 523.387363 156.5358 
L 522.660118 159.149148 
L 521.494495 162.386597 
L 520.066022 165.589168 
L 518.397315 168.754607 
L 516.509727 171.88097 
L 513.983921 175.578709 
L 511.204241 179.215428 
L 508.200654 182.789244 
L 504.450189 186.877282 
L 500.472452 190.876112 
L 495.694305 195.335707 
L 490.714424 199.676854 
L 484.923531 204.419263 
L 478.316309 209.514464 
L 471.586373 214.429089 
L 464.103247 219.631132 
L 455.908529 225.069212 
L 446.383325 231.11277 
L 436.298548 237.2449 
L 425.101778 243.789521 
L 412.95901 250.628287 
L 399.462649 257.968538 
L 384.917088 265.625404 
L 368.599909 273.95662 
L 350.621061 282.877154 
L 330.864562 292.425337 
L 308.859708 302.808921 
L 283.713494 314.421275 
L 254.538433 327.64035 
L 218.572939 343.680245 
L 216.598299 344.555151 
L 216.598299 344.555151 
" clip-path="url(#p6c98422d00)" style="fill: none; stroke: #ffd700; stroke-width: 1.5; stroke-linecap: square"/>
   </g>
   <g id="line2d_40">
    <defs>
     <path id="mf97459a157" d="M 0 3 
C 0.795609 3 1.55874 2.683901 2.12132 2.12132 
C 2.683901 1.55874 3 0.795609 3 0 
C 3 -0.795609 2.683901 -1.55874 2.12132 -2.12132 
C 1.55874 -2.683901 0.795609 -3 0 -3 
C -0.795609 -3 -1.55874 -2.683901 -2.12132 -2.12132 
C -2.683901 -1.55874 -3 -0.795609 -3 0 
C -3 0.795609 -2.683901 1.55874 -2.12132 2.12132 
C -1.55874 2.683901 -0.795609 3 0 3 
z
" style="stroke: #ffd700"/>
    </defs>
    <g clip-path="url(#p6c98422d00)">
     <use xlink:href="#mf97459a157" x="524.337699" y="148.587361" style="fill: #ffd700; stroke: #ffd700"/>
    </g>
   </g>
   <g id="line2d_41">
    <path d="M 221.933386 231.367717 
L 298.444453 215.56147 
L 374.185054 195.884917 
L 441.82767 175.79831 
L 524.337699 148.587361 
L 673.826989 94.73309 
" clip-path="url(#p6c98422d00)" style="fill: none; stroke-dasharray: 5.55,2.4; stroke-dashoffset: 0; stroke: #808080; stroke-width: 1.5"/>
   </g>
   <g id="patch_3">
    <path d="M 43.803125 384.948125 
L 43.803125 22.798125 
" style="fill: none; stroke: #000000; stroke-width: 0.8; stroke-linejoin: miter; stroke-linecap: square"/>
   </g>
   <g id="patch_4">
    <path d="M 703.828125 384.948125 
L 703.828125 22.798125 
" style="fill: none; stroke: #000000; stroke-width: 0.8; stroke-linejoin: miter; stroke-linecap: square"/>
   </g>
   <g id="patch_5">
    <path d="M 43.803125 384.948125 
L 703.828125 384.948125 
" style="fill: none; stroke: #000000; stroke-width: 0.8; stroke-linejoin: miter; stroke-linecap: square"/>
   </g>
   <g id="patch_6">
    <path d="M 43.803125 22.798125 
L 703.828125 22.798125 
" style="fill: none; stroke: #000000; stroke-width: 0.8; stroke-linejoin: miter; stroke-linecap: square"/>
   </g>
   <g id="text_17">
    <!-- PV krivulja za različite vrijednosti faktora snage cos(φ) (normalizirano) -->
    <g transform="translate(162.855625 16.798125) scale(0.12 -0.12)">
     <defs>
      <path id="DejaVuSans-50" d="M 1259 4147 
L 1259 2394 
L 2053 2394 
Q 2494 2394 2734 2622 
Q 2975 2850 2975 3272 
Q 2975 3691 2734 3919 
Q 2494 4147 2053 4147 
L 1259 4147 
z
M 628 4666 
L 2053 4666 
Q 2838 4666 3239 4311 
Q 3641 3956 3641 3272 
Q 3641 2581 3239 2228 
Q 2838 1875 2053 1875 
L 1259 1875 
L 1259 0 
L 628 0 
L 628 4666 
z
" transform="scale(0.015625)"/>
      <path id="DejaVuSans-56" d="M 1831 0 
L 50 4666 
L 709 4666 
L 2188 738 
L 3669 4666 
L 4325 4666 
L 2547 0 
L 1831 0 
z
" transform="scale(0.015625)"/>
      <path id="DejaVuSans-6b" d="M 581 4863 
L 1159 4863 
L 1159 1991 
L 2875 3500 
L 3609 3500 
L 1753 1863 
L 3688 0 
L 2938 0 
L 1159 1709 
L 1159 0 
L 581 0 
L 581 4863 
z
" transform="scale(0.015625)"/>
      <path id="DejaVuSans-72" d="M 2631 2963 
Q 2534 3019 2420 3045 
Q 2306 3072 2169 3072 
Q 1681 3072 1420 2755 
Q 1159 2438 1159 1844 
L 1159 0 
L 581 0 
L 581 3500 
L 1159 3500 
L 1159 2956 
Q 1341 3275 1631 3429 
Q 1922 3584 2338 3584 
Q 2397 3584 2469 3576 
Q 2541 3569 2628 3553 
L 2631 2963 
z
" transform="scale(0.015625)"/>
      <path id="DejaVuSans-69" d="M 603 3500 
L 1178 3500 
L 1178 0 
L 603 0 
L 603 3500 
z
M 603 4863 
L 1178 4863 
L 1178 4134 
L 603 4134 
L 603 4863 
z
" transform="scale(0.015625)"/>
      <path id="DejaVuSans-76" d="M 191 3500 
L 800 3500 
L 1894 563 
L 2988 3500 
L 3597 3500 
L 2284 0 
L 1503 0 
L 191 3500 
z
" transform="scale(0.015625)"/>
      <path id="DejaVuSans-6c" d="M 603 4863 
L 1178 4863 
L 1178 0 
L 603 0 
L 603 4863 
z
" transform="scale(0.015625)"/>
      <path id="DejaVuSans-6a" d="M 603 3500 
L 1178 3500 
L 1178 -63 
Q 1178 -731 923 -1031 
Q 669 -1331 103 -1331 
L -116 -1331 
L -116 -844 
L 38 -844 
Q 366 -844 484 -692 
Q 603 -541 603 -63 
L 603 3500 
z
M 603 4863 
L 1178 4863 
L 1178 4134 
L 603 4134 
L 603 4863 
z
" transform="scale(0.015625)"/>
      <path id="DejaVuSans-7a" d="M 353 3500 
L 3084 3500 
L 3084 2975 
L 922 459 
L 3084 459 
L 3084 0 
L 275 0 
L 275 525 
L 2438 3041 
L 353 3041 
L 353 3500 
z
" transform="scale(0.015625)"/>
      <path id="DejaVuSans-10d" d="M 3122 3366 
L 3122 2828 
Q 2878 2963 2633 3030 
Q 2388 3097 2138 3097 
Q 1578 3097 1268 2742 
Q 959 2388 959 1747 
Q 959 1106 1268 751 
Q 1578 397 2138 397 
Q 2388 397 2633 464 
Q 2878 531 3122 666 
L 3122 134 
Q 2881 22 2623 -34 
Q 2366 -91 2075 -91 
Q 1284 -91 818 406 
Q 353 903 353 1747 
Q 353 2603 823 3093 
Q 1294 3584 2113 3584 
Q 2378 3584 2631 3529 
Q 2884 3475 3122 3366 
z
M 1797 3944 
L 1031 5119 
L 1466 5119 
L 2028 4353 
L 2591 5119 
L 3025 5119 
L 2259 3944 
L 1797 3944 
z
" transform="scale(0.015625)"/>
      <path id="DejaVuSans-74" d="M 1172 4494 
L 1172 3500 
L 2356 3500 
L 2356 3053 
L 1172 3053 
L 1172 1153 
Q 1172 725 1289 603 
Q 1406 481 1766 481 
L 2356 481 
L 2356 0 
L 1766 0 
Q 1100 0 847 248 
Q 594 497 594 1153 
L 594 3053 
L 172 3053 
L 172 3500 
L 594 3500 
L 594 4494 
L 1172 4494 
z
" transform="scale(0.015625)"/>
      <path id="DejaVuSans-65" d="M 3597 1894 
L 3597 1613 
L 953 1613 
Q 991 1019 1311 708 
Q 1631 397 2203 397 
Q 2534 397 2845 478 
Q 3156 559 3463 722 
L 3463 178 
Q 3153 47 2828 -22 
Q 2503 -91 2169 -91 
Q 1331 -91 842 396 
Q 353 884 353 1716 
Q 353 2575 817 3079 
Q 1281 3584 2069 3584 
Q 2775 3584 3186 3129 
Q 3597 2675 3597 1894 
z
M 3022 2063 
Q 3016 2534 2758 2815 
Q 2500 3097 2075 3097 
Q 1594 3097 1305 2825 
Q 1016 2553 972 2059 
L 3022 2063 
z
" transform="scale(0.015625)"/>
      <path id="DejaVuSans-66" d="M 2375 4863 
L 2375 4384 
L 1825 4384 
Q 1516 4384 1395 4259 
Q 1275 4134 1275 3809 
L 1275 3500 
L 2222 3500 
L 2222 3053 
L 1275 3053 
L 1275 0 
L 697 0 
L 697 3053 
L 147 3053 
L 147 3500 
L 697 3500 
L 697 3744 
Q 697 4328 969 4595 
Q 1241 4863 1831 4863 
L 2375 4863 
z
" transform="scale(0.015625)"/>
      <path id="DejaVuSans-63" d="M 3122 3366 
L 3122 2828 
Q 2878 2963 2633 3030 
Q 2388 3097 2138 3097 
Q 1578 3097 1268 2742 
Q 959 2388 959 1747 
Q 959 1106 1268 751 
Q 1578 397 2138 397 
Q 2388 397 2633 464 
Q 2878 531 3122 666 
L 3122 134 
Q 2881 22 2623 -34 
Q 2366 -91 2075 -91 
Q 1284 -91 818 406 
Q 353 903 353 1747 
Q 353 2603 823 3093 
Q 1294 3584 2113 3584 
Q 2378 3584 2631 3529 
Q 2884 3475 3122 3366 
z
" transform="scale(0.015625)"/>
      <path id="DejaVuSans-3c6" d="M 2591 3034 
Q 2388 3034 2388 2581 
L 2388 438 
Q 2684 438 2981 763 
Q 3247 1053 3247 1750 
Q 3247 2400 2978 2750 
Q 2759 3034 2591 3034 
z
M 2591 3525 
Q 3028 3525 3425 3113 
Q 3853 2672 3853 1750 
Q 3853 903 3425 400 
Q 3022 -75 2388 -75 
L 2388 -1331 
L 1816 -1331 
L 1816 -78 
Q 1194 -78 775 400 
Q 350 888 350 1747 
Q 350 2641 775 3097 
Q 1094 3438 1613 3525 
L 1613 3016 
Q 1406 2944 1225 2700 
Q 956 2341 956 1747 
Q 956 1116 1225 756 
Q 1466 434 1816 434 
L 1816 2581 
Q 1816 3525 2591 3525 
z
" transform="scale(0.015625)"/>
      <path id="DejaVuSans-6d" d="M 3328 2828 
Q 3544 3216 3844 3400 
Q 4144 3584 4550 3584 
Q 5097 3584 5394 3201 
Q 5691 2819 5691 2113 
L 5691 0 
L 5113 0 
L 5113 2094 
Q 5113 2597 4934 2840 
Q 4756 3084 4391 3084 
Q 3944 3084 3684 2787 
Q 3425 2491 3425 1978 
L 3425 0 
L 2847 0 
L 2847 2094 
Q 2847 2600 2669 2842 
Q 2491 3084 2119 3084 
Q 1678 3084 1418 2786 
Q 1159 2488 1159 1978 
L 1159 0 
L 581 0 
L 581 3500 
L 1159 3500 
L 1159 2956 
Q 1356 3278 1631 3431 
Q 1906 3584 2284 3584 
Q 2666 3584 2933 3390 
Q 3200 3197 3328 2828 
z
" transform="scale(0.015625)"/>
     </defs>
     <use xlink:href="#DejaVuSans-50"/>
     <use xlink:href="#DejaVuSans-56" transform="translate(60.302734 0)"/>
     <use xlink:href="#DejaVuSans-20" transform="translate(128.710938 0)"/>
     <use xlink:href="#DejaVuSans-6b" transform="translate(160.498047 0)"/>
     <use xlink:href="#DejaVuSans-72" transform="translate(218.408203 0)"/>
     <use xlink:href="#DejaVuSans-69" transform="translate(259.521484 0)"/>
     <use xlink:href="#DejaVuSans-76" transform="translate(287.304688 0)"/>
     <use xlink:href="#DejaVuSans-75" transform="translate(346.484375 0)"/>
     <use xlink:href="#DejaVuSans-6c" transform="translate(409.863281 0)"/>
     <use xlink:href="#DejaVuSans-6a" transform="translate(437.646484 0)"/>
     <use xlink:href="#DejaVuSans-61" transform="translate(465.429688 0)"/>
     <use xlink:href="#DejaVuSans-20" transform="translate(526.708984 0)"/>
     <use xlink:href="#DejaVuSans-7a" transform="translate(558.496094 0)"/>
     <use xlink:href="#DejaVuSans-61" transform="translate(610.986328 0)"/>
     <use xlink:href="#DejaVuSans-20" transform="translate(672.265625 0)"/>
     <use xlink:href="#DejaVuSans-72" transform="translate(704.052734 0)"/>
     <use xlink:href="#DejaVuSans-61" transform="translate(745.166016 0)"/>
     <use xlink:href="#DejaVuSans-7a" transform="translate(806.445312 0)"/>
     <use xlink:href="#DejaVuSans-6c" transform="translate(858.935547 0)"/>
     <use xlink:href="#DejaVuSans-69" transform="translate(886.71875 0)"/>
     <use xlink:href="#DejaVuSans-10d" transform="translate(914.501953 0)"/>
     <use xlink:href="#DejaVuSans-69" transform="translate(969.482422 0)"/>
     <use xlink:href="#DejaVuSans-74" transform="translate(997.265625 0)"/>
     <use xlink:href="#DejaVuSans-65" transform="translate(1036.474609 0)"/>
     <use xlink:href="#DejaVuSans-20" transform="translate(1097.998047 0)"/>
     <use xlink:href="#DejaVuSans-76" transform="translate(1129.785156 0)"/>
     <use xlink:href="#DejaVuSans-72" transform="translate(1188.964844 0)"/>
     <use xlink:href="#DejaVuSans-69" transform="translate(1230.078125 0)"/>
     <use xlink:href="#DejaVuSans-6a" transform="translate(1257.861328 0)"/>
     <use xlink:href="#DejaVuSans-65" transform="translate(1285.644531 0)"/>
     <use xlink:href="#DejaVuSans-64" transform="translate(1347.167969 0)"/>
     <use xlink:href="#DejaVuSans-6e" transform="translate(1410.644531 0)"/>
     <use xlink:href="#DejaVuSans-6f" transform="translate(1474.023438 0)"/>
     <use xlink:href="#DejaVuSans-73" transform="translate(1535.205078 0)"/>
     <use xlink:href="#DejaVuSans-74" transform="translate(1587.304688 0)"/>
     <use xlink:href="#DejaVuSans-69" transform="translate(1626.513672 0)"/>
     <use xlink:href="#DejaVuSans-20" transform="translate(1654.296875 0)"/>
     <use xlink:href="#DejaVuSans-66" transform="translate(1686.083984 0)"/>
     <use xlink:href="#DejaVuSans-61" transform="translate(1721.289062 0)"/>
     <use xlink:href="#DejaVuSans-6b" transform="translate(1782.568359 0)"/>
     <use xlink:href="#DejaVuSans-74" transform="translate(1840.478516 0)"/>
     <use xlink:href="#DejaVuSans-6f" transform="translate(1879.6875 0)"/>
     <use xlink:href="#DejaVuSans-72" transform="translate(1940.869141 0)"/>
     <use xlink:href="#DejaVuSans-61" transform="translate(1981.982422 0)"/>
     <use xlink:href="#DejaVuSans-20" transform="translate(2043.261719 0)"/>
     <use xlink:href="#DejaVuSans-73" transform="translate(2075.048828 0)"/>
     <use xlink:href="#DejaVuSans-6e" transform="translate(2127.148438 0)"/>
     <use xlink:href="#DejaVuSans-61" transform="translate(2190.527344 0)"/>
     <use xlink:href="#DejaVuSans-67" transform="translate(2251.806641 0)"/>
     <use xlink:href="#DejaVuSans-65" transform="translate(2315.283203 0)"/>
     <use xlink:href="#DejaVuSans-20" transform="translate(2376.806641 0)"/>
     <use xlink:href="#DejaVuSans-63" transform="translate(2408.59375 0)"/>
     <use xlink:href="#DejaVuSans-6f" transform="translate(2463.574219 0)"/>
     <use xlink:href="#DejaVuSans-73" transform="translate(2524.755859 0)"/>
     <use xlink:href="#DejaVuSans-28" transform="translate(2576.855469 0)"/>
     <use xlink:href="#DejaVuSans-3c6" transform="translate(2615.869141 0)"/>
     <use xlink:href="#DejaVuSans-29" transform="translate(2681.835938 0)"/>
     <use xlink:href="#DejaVuSans-20" transform="translate(2720.849609 0)"/>
     <use xlink:href="#DejaVuSans-28" transform="translate(2752.636719 0)"/>
     <use xlink:href="#DejaVuSans-6e" transform="translate(2791.650391 0)"/>
     <use xlink:href="#DejaVuSans-6f" transform="translate(2855.029297 0)"/>
     <use xlink:href="#DejaVuSans-72" transform="translate(2916.210938 0)"/>
     <use xlink:href="#DejaVuSans-6d" transform="translate(2955.574219 0)"/>
     <use xlink:href="#DejaVuSans-61" transform="translate(3052.986328 0)"/>
     <use xlink:href="#DejaVuSans-6c" transform="translate(3114.265625 0)"/>
     <use xlink:href="#DejaVuSans-69" transform="translate(3142.048828 0)"/>
     <use xlink:href="#DejaVuSans-7a" transform="translate(3169.832031 0)"/>
     <use xlink:href="#DejaVuSans-69" transform="translate(3222.322266 0)"/>
     <use xlink:href="#DejaVuSans-72" transform="translate(3250.105469 0)"/>
     <use xlink:href="#DejaVuSans-61" transform="translate(3291.21875 0)"/>
     <use xlink:href="#DejaVuSans-6e" transform="translate(3352.498047 0)"/>
     <use xlink:href="#DejaVuSans-6f" transform="translate(3415.876953 0)"/>
     <use xlink:href="#DejaVuSans-29" transform="translate(3477.058594 0)"/>
    </g>
   </g>
   <g id="legend_1">
    <g id="patch_7">
     <path d="M 564.348438 379.948125 
L 696.828125 379.948125 
Q 698.828125 379.948125 698.828125 377.948125 
L 698.828125 290.879375 
Q 698.828125 288.879375 696.828125 288.879375 
L 564.348438 288.879375 
Q 562.348438 288.879375 562.348438 290.879375 
L 562.348438 377.948125 
Q 562.348438 379.948125 564.348438 379.948125 
z
" style="fill: #ffffff; opacity: 0.8; stroke: #cccccc; stroke-linejoin: miter"/>
    </g>
    <g id="line2d_42">
     <path d="M 566.348438 296.977812 
L 576.348438 296.977812 
L 586.348438 296.977812 
" style="fill: none; stroke: #ff0000; stroke-width: 1.5; stroke-linecap: square"/>
    </g>
    <g id="text_18">
     <!-- cos(φ) = 1.0 -->
     <g transform="translate(594.348438 300.477812) scale(0.1 -0.1)">
      <defs>
       <path id="DejaVuSans-3d" d="M 678 2906 
L 4684 2906 
L 4684 2381 
L 678 2381 
L 678 2906 
z
M 678 1631 
L 4684 1631 
L 4684 1100 
L 678 1100 
L 678 1631 
z
" transform="scale(0.015625)"/>
      </defs>
      <use xlink:href="#DejaVuSans-63"/>
      <use xlink:href="#DejaVuSans-6f" transform="translate(54.980469 0)"/>
      <use xlink:href="#DejaVuSans-73" transform="translate(116.162109 0)"/>
      <use xlink:href="#DejaVuSans-28" transform="translate(168.261719 0)"/>
      <use xlink:href="#DejaVuSans-3c6" transform="translate(207.275391 0)"/>
      <use xlink:href="#DejaVuSans-29" transform="translate(273.242188 0)"/>
      <use xlink:href="#DejaVuSans-20" transform="translate(312.255859 0)"/>
      <use xlink:href="#DejaVuSans-3d" transform="translate(344.042969 0)"/>
      <use xlink:href="#DejaVuSans-20" transform="translate(427.832031 0)"/>
      <use xlink:href="#DejaVuSans-31" transform="translate(459.619141 0)"/>
      <use xlink:href="#DejaVuSans-2e" transform="translate(523.242188 0)"/>
      <use xlink:href="#DejaVuSans-30" transform="translate(555.029297 0)"/>
     </g>
    </g>
    <g id="line2d_43">
     <path d="M 566.348438 311.655937 
L 576.348438 311.655937 
L 586.348438 311.655937 
" style="fill: none; stroke: #008000; stroke-width: 1.5; stroke-linecap: square"/>
    </g>
    <g id="text_19">
     <!-- cos(φ) = 0.98 (ind.) -->
     <g transform="translate(594.348438 315.155937) scale(0.1 -0.1)">
      <defs>
       <path id="DejaVuSans-39" d="M 703 97 
L 703 672 
Q 941 559 1184 500 
Q 1428 441 1663 441 
Q 2288 441 2617 861 
Q 2947 1281 2994 2138 
Q 2813 1869 2534 1725 
Q 2256 1581 1919 1581 
Q 1219 1581 811 2004 
Q 403 2428 403 3163 
Q 403 3881 828 4315 
Q 1253 4750 1959 4750 
Q 2769 4750 3195 4129 
Q 3622 3509 3622 2328 
Q 3622 1225 3098 567 
Q 2575 -91 1691 -91 
Q 1453 -91 1209 -44 
Q 966 3 703 97 
z
M 1959 2075 
Q 2384 2075 2632 2365 
Q 2881 2656 2881 3163 
Q 2881 3666 2632 3958 
Q 2384 4250 1959 4250 
Q 1534 4250 1286 3958 
Q 1038 3666 1038 3163 
Q 1038 2656 1286 2365 
Q 1534 2075 1959 2075 
z
" transform="scale(0.015625)"/>
      </defs>
      <use xlink:href="#DejaVuSans-63"/>
      <use xlink:href="#DejaVuSans-6f" transform="translate(54.980469 0)"/>
      <use xlink:href="#DejaVuSans-73" transform="translate(116.162109 0)"/>
      <use xlink:href="#DejaVuSans-28" transform="translate(168.261719 0)"/>
      <use xlink:href="#DejaVuSans-3c6" transform="translate(207.275391 0)"/>
      <use xlink:href="#DejaVuSans-29" transform="translate(273.242188 0)"/>
      <use xlink:href="#DejaVuSans-20" transform="translate(312.255859 0)"/>
      <use xlink:href="#DejaVuSans-3d" transform="translate(344.042969 0)"/>
      <use xlink:href="#DejaVuSans-20" transform="translate(427.832031 0)"/>
      <use xlink:href="#DejaVuSans-30" transform="translate(459.619141 0)"/>
      <use xlink:href="#DejaVuSans-2e" transform="translate(523.242188 0)"/>
      <use xlink:href="#DejaVuSans-39" transform="translate(555.029297 0)"/>
      <use xlink:href="#DejaVuSans-38" transform="translate(618.652344 0)"/>
      <use xlink:href="#DejaVuSans-20" transform="translate(682.275391 0)"/>
      <use xlink:href="#DejaVuSans-28" transform="translate(714.0625 0)"/>
      <use xlink:href="#DejaVuSans-69" transform="translate(753.076172 0)"/>
      <use xlink:href="#DejaVuSans-6e" transform="translate(780.859375 0)"/>
      <use xlink:href="#DejaVuSans-64" transform="translate(844.238281 0)"/>
      <use xlink:href="#DejaVuSans-2e" transform="translate(907.714844 0)"/>
      <use xlink:href="#DejaVuSans-29" transform="translate(939.501953 0)"/>
     </g>
    </g>
    <g id="line2d_44">
     <path d="M 566.348438 326.334062 
L 576.348438 326.334062 
L 586.348438 326.334062 
" style="fill: none; stroke: #ffa500; stroke-width: 1.5; stroke-linecap: square"/>
    </g>
    <g id="text_20">
     <!-- cos(φ) = 0.89 (ind.) -->
     <g transform="translate(594.348438 329.834062) scale(0.1 -0.1)">
      <use xlink:href="#DejaVuSans-63"/>
      <use xlink:href="#DejaVuSans-6f" transform="translate(54.980469 0)"/>
      <use xlink:href="#DejaVuSans-73" transform="translate(116.162109 0)"/>
      <use xlink:href="#DejaVuSans-28" transform="translate(168.261719 0)"/>
      <use xlink:href="#DejaVuSans-3c6" transform="translate(207.275391 0)"/>
      <use xlink:href="#DejaVuSans-29" transform="translate(273.242188 0)"/>
      <use xlink:href="#DejaVuSans-20" transform="translate(312.255859 0)"/>
      <use xlink:href="#DejaVuSans-3d" transform="translate(344.042969 0)"/>
      <use xlink:href="#DejaVuSans-20" transform="translate(427.832031 0)"/>
      <use xlink:href="#DejaVuSans-30" transform="translate(459.619141 0)"/>
      <use xlink:href="#DejaVuSans-2e" transform="translate(523.242188 0)"/>
      <use xlink:href="#DejaVuSans-38" transform="translate(555.029297 0)"/>
      <use xlink:href="#DejaVuSans-39" transform="translate(618.652344 0)"/>
      <use xlink:href="#DejaVuSans-20" transform="translate(682.275391 0)"/>
      <use xlink:href="#DejaVuSans-28" transform="translate(714.0625 0)"/>
      <use xlink:href="#DejaVuSans-69" transform="translate(753.076172 0)"/>
      <use xlink:href="#DejaVuSans-6e" transform="translate(780.859375 0)"/>
      <use xlink:href="#DejaVuSans-64" transform="translate(844.238281 0)"/>
      <use xlink:href="#DejaVuSans-2e" transform="translate(907.714844 0)"/>
      <use xlink:href="#DejaVuSans-29" transform="translate(939.501953 0)"/>
     </g>
    </g>
    <g id="line2d_45">
     <path d="M 566.348438 341.012187 
L 576.348438 341.012187 
L 586.348438 341.012187 
" style="fill: none; stroke: #0000ff; stroke-width: 1.5; stroke-linecap: square"/>
    </g>
    <g id="text_21">
     <!-- cos(φ) = 0.71 (ind.) -->
     <g transform="translate(594.348438 344.512187) scale(0.1 -0.1)">
      <use xlink:href="#DejaVuSans-63"/>
      <use xlink:href="#DejaVuSans-6f" transform="translate(54.980469 0)"/>
      <use xlink:href="#DejaVuSans-73" transform="translate(116.162109 0)"/>
      <use xlink:href="#DejaVuSans-28" transform="translate(168.261719 0)"/>
      <use xlink:href="#DejaVuSans-3c6" transform="translate(207.275391 0)"/>
      <use xlink:href="#DejaVuSans-29" transform="translate(273.242188 0)"/>
      <use xlink:href="#DejaVuSans-20" transform="translate(312.255859 0)"/>
      <use xlink:href="#DejaVuSans-3d" transform="translate(344.042969 0)"/>
      <use xlink:href="#DejaVuSans-20" transform="translate(427.832031 0)"/>
      <use xlink:href="#DejaVuSans-30" transform="translate(459.619141 0)"/>
      <use xlink:href="#DejaVuSans-2e" transform="translate(523.242188 0)"/>
      <use xlink:href="#DejaVuSans-37" transform="translate(555.029297 0)"/>
      <use xlink:href="#DejaVuSans-31" transform="translate(618.652344 0)"/>
      <use xlink:href="#DejaVuSans-20" transform="translate(682.275391 0)"/>
      <use xlink:href="#DejaVuSans-28" transform="translate(714.0625 0)"/>
      <use xlink:href="#DejaVuSans-69" transform="translate(753.076172 0)"/>
      <use xlink:href="#DejaVuSans-6e" transform="translate(780.859375 0)"/>
      <use xlink:href="#DejaVuSans-64" transform="translate(844.238281 0)"/>
      <use xlink:href="#DejaVuSans-2e" transform="translate(907.714844 0)"/>
      <use xlink:href="#DejaVuSans-29" transform="translate(939.501953 0)"/>
     </g>
    </g>
    <g id="line2d_46">
     <path d="M 566.348438 355.690312 
L 576.348438 355.690312 
L 586.348438 355.690312 
" style="fill: none; stroke: #ff00ff; stroke-width: 1.5; stroke-linecap: square"/>
    </g>
    <g id="text_22">
     <!-- cos(φ) = 0.89 (kap.) -->
     <g transform="translate(594.348438 359.190312) scale(0.1 -0.1)">
      <use xlink:href="#DejaVuSans-63"/>
      <use xlink:href="#DejaVuSans-6f" transform="translate(54.980469 0)"/>
      <use xlink:href="#DejaVuSans-73" transform="translate(116.162109 0)"/>
      <use xlink:href="#DejaVuSans-28" transform="translate(168.261719 0)"/>
      <use xlink:href="#DejaVuSans-3c6" transform="translate(207.275391 0)"/>
      <use xlink:href="#DejaVuSans-29" transform="translate(273.242188 0)"/>
      <use xlink:href="#DejaVuSans-20" transform="translate(312.255859 0)"/>
      <use xlink:href="#DejaVuSans-3d" transform="translate(344.042969 0)"/>
      <use xlink:href="#DejaVuSans-20" transform="translate(427.832031 0)"/>
      <use xlink:href="#DejaVuSans-30" transform="translate(459.619141 0)"/>
      <use xlink:href="#DejaVuSans-2e" transform="translate(523.242188 0)"/>
      <use xlink:href="#DejaVuSans-38" transform="translate(555.029297 0)"/>
      <use xlink:href="#DejaVuSans-39" transform="translate(618.652344 0)"/>
      <use xlink:href="#DejaVuSans-20" transform="translate(682.275391 0)"/>
      <use xlink:href="#DejaVuSans-28" transform="translate(714.0625 0)"/>
      <use xlink:href="#DejaVuSans-6b" transform="translate(753.076172 0)"/>
      <use xlink:href="#DejaVuSans-61" transform="translate(809.236328 0)"/>
      <use xlink:href="#DejaVuSans-70" transform="translate(870.515625 0)"/>
      <use xlink:href="#DejaVuSans-2e" transform="translate(933.992188 0)"/>
      <use xlink:href="#DejaVuSans-29" transform="translate(965.779297 0)"/>
     </g>
    </g>
    <g id="line2d_47">
     <path d="M 566.348438 370.368437 
L 576.348438 370.368437 
L 586.348438 370.368437 
" style="fill: none; stroke: #ffd700; stroke-width: 1.5; stroke-linecap: square"/>
    </g>
    <g id="text_23">
     <!-- cos(φ) = 0.98 (kap.) -->
     <g transform="translate(594.348438 373.868437) scale(0.1 -0.1)">
      <use xlink:href="#DejaVuSans-63"/>
      <use xlink:href="#DejaVuSans-6f" transform="translate(54.980469 0)"/>
      <use xlink:href="#DejaVuSans-73" transform="translate(116.162109 0)"/>
      <use xlink:href="#DejaVuSans-28" transform="translate(168.261719 0)"/>
      <use xlink:href="#DejaVuSans-3c6" transform="translate(207.275391 0)"/>
      <use xlink:href="#DejaVuSans-29" transform="translate(273.242188 0)"/>
      <use xlink:href="#DejaVuSans-20" transform="translate(312.255859 0)"/>
      <use xlink:href="#DejaVuSans-3d" transform="translate(344.042969 0)"/>
      <use xlink:href="#DejaVuSans-20" transform="translate(427.832031 0)"/>
      <use xlink:href="#DejaVuSans-30" transform="translate(459.619141 0)"/>
      <use xlink:href="#DejaVuSans-2e" transform="translate(523.242188 0)"/>
      <use xlink:href="#DejaVuSans-39" transform="translate(555.029297 0)"/>
      <use xlink:href="#DejaVuSans-38" transform="translate(618.652344 0)"/>
      <use xlink:href="#DejaVuSans-20" transform="translate(682.275391 0)"/>
      <use xlink:href="#DejaVuSans-28" transform="translate(714.0625 0)"/>
      <use xlink:href="#DejaVuSans-6b" transform="translate(753.076172 0)"/>
      <use xlink:href="#DejaVuSans-61" transform="translate(809.236328 0)"/>
      <use xlink:href="#DejaVuSans-70" transform="translate(870.515625 0)"/>
      <use xlink:href="#DejaVuSans-2e" transform="translate(933.992188 0)"/>
      <use xlink:href="#DejaVuSans-29" transform="translate(965.779297 0)"/>
     </g>
    </g>
   </g>
  </g>
 </g>
 <defs>
  <clipPath id="p6c98422d00">
   <rect x="43.803125" y="22.798125" width="660.025" height="362.15"/>
  </clipPath>
 </defs>
</svg>
