<?xml version="1.0" encoding="utf-8" standalone="no"?>
<!DOCTYPE svg PUBLIC "-//W3C//DTD SVG 1.1//EN"
  "http://www.w3.org/Graphics/SVG/1.1/DTD/svg11.dtd">
<svg xmlns:xlink="http://www.w3.org/1999/xlink" width="423.028125pt" height="422.79625pt" viewBox="0 0 423.028125 422.79625" xmlns="http://www.w3.org/2000/svg" version="1.1">
 <metadata>
  <rdf:RDF xmlns:dc="http://purl.org/dc/elements/1.1/" xmlns:cc="http://creativecommons.org/ns#" xmlns:rdf="http://www.w3.org/1999/02/22-rdf-syntax-ns#">
   <cc:Work>
    <dc:type rdf:resource="http://purl.org/dc/dcmitype/StillImage"/>
    <dc:date>2025-07-07T09:19:44.879822</dc:date>
    <dc:format>image/svg+xml</dc:format>
    <dc:creator>
     <cc:Agent>
      <dc:title>Matplotlib v3.10.0, https://matplotlib.org/</dc:title>
     </cc:Agent>
    </dc:creator>
   </cc:Work>
  </rdf:RDF>
 </metadata>
 <defs>
  <style type="text/css">*{stroke-linejoin: round; stroke-linecap: butt}</style>
 </defs>
 <g id="figure_1">
  <g id="patch_1">
   <path d="M 0 422.79625 
L 423.028125 422.79625 
L 423.028125 0 
L 0 0 
z
" style="fill: #ffffff"/>
  </g>
  <g id="axes_1">
   <g id="patch_2">
    <path d="M 43.803125 385.218125 
L 415.828125 385.218125 
L 415.828125 22.318125 
L 43.803125 22.318125 
z
" style="fill: #ffffff"/>
   </g>
   <g id="matplotlib.axis_1">
    <g id="xtick_1">
     <g id="line2d_1">
      <path d="M 43.803125 385.218125 
L 43.803125 22.318125 
" clip-path="url(#p65242cb1f9)" style="fill: none; stroke: #b0b0b0; stroke-width: 0.8; stroke-linecap: square"/>
     </g>
     <g id="line2d_2">
      <defs>
       <path id="mc161a8f942" d="M 0 0 
L 0 3.5 
" style="stroke: #000000; stroke-width: 0.8"/>
      </defs>
      <g>
       <use xlink:href="#mc161a8f942" x="43.803125" y="385.218125" style="stroke: #000000; stroke-width: 0.8"/>
      </g>
     </g>
     <g id="text_1">
      <!-- 0 -->
      <g transform="translate(40.621875 399.816562) scale(0.1 -0.1)">
       <defs>
        <path id="DejaVuSans-30" d="M 2034 4250 
Q 1547 4250 1301 3770 
Q 1056 3291 1056 2328 
Q 1056 1369 1301 889 
Q 1547 409 2034 409 
Q 2525 409 2770 889 
Q 3016 1369 3016 2328 
Q 3016 3291 2770 3770 
Q 2525 4250 2034 4250 
z
M 2034 4750 
Q 2819 4750 3233 4129 
Q 3647 3509 3647 2328 
Q 3647 1150 3233 529 
Q 2819 -91 2034 -91 
Q 1250 -91 836 529 
Q 422 1150 422 2328 
Q 422 3509 836 4129 
Q 1250 4750 2034 4750 
z
" transform="scale(0.015625)"/>
       </defs>
       <use xlink:href="#DejaVuSans-30"/>
      </g>
     </g>
    </g>
    <g id="xtick_2">
     <g id="line2d_3">
      <path d="M 114.66503 385.218125 
L 114.66503 22.318125 
" clip-path="url(#p65242cb1f9)" style="fill: none; stroke: #b0b0b0; stroke-width: 0.8; stroke-linecap: square"/>
     </g>
     <g id="line2d_4">
      <g>
       <use xlink:href="#mc161a8f942" x="114.66503" y="385.218125" style="stroke: #000000; stroke-width: 0.8"/>
      </g>
     </g>
     <g id="text_2">
      <!-- 1 -->
      <g transform="translate(111.48378 399.816562) scale(0.1 -0.1)">
       <defs>
        <path id="DejaVuSans-31" d="M 794 531 
L 1825 531 
L 1825 4091 
L 703 3866 
L 703 4441 
L 1819 4666 
L 2450 4666 
L 2450 531 
L 3481 531 
L 3481 0 
L 794 0 
L 794 531 
z
" transform="scale(0.015625)"/>
       </defs>
       <use xlink:href="#DejaVuSans-31"/>
      </g>
     </g>
    </g>
    <g id="xtick_3">
     <g id="line2d_5">
      <path d="M 185.526935 385.218125 
L 185.526935 22.318125 
" clip-path="url(#p65242cb1f9)" style="fill: none; stroke: #b0b0b0; stroke-width: 0.8; stroke-linecap: square"/>
     </g>
     <g id="line2d_6">
      <g>
       <use xlink:href="#mc161a8f942" x="185.526935" y="385.218125" style="stroke: #000000; stroke-width: 0.8"/>
      </g>
     </g>
     <g id="text_3">
      <!-- 2 -->
      <g transform="translate(182.345685 399.816562) scale(0.1 -0.1)">
       <defs>
        <path id="DejaVuSans-32" d="M 1228 531 
L 3431 531 
L 3431 0 
L 469 0 
L 469 531 
Q 828 903 1448 1529 
Q 2069 2156 2228 2338 
Q 2531 2678 2651 2914 
Q 2772 3150 2772 3378 
Q 2772 3750 2511 3984 
Q 2250 4219 1831 4219 
Q 1534 4219 1204 4116 
Q 875 4013 500 3803 
L 500 4441 
Q 881 4594 1212 4672 
Q 1544 4750 1819 4750 
Q 2544 4750 2975 4387 
Q 3406 4025 3406 3419 
Q 3406 3131 3298 2873 
Q 3191 2616 2906 2266 
Q 2828 2175 2409 1742 
Q 1991 1309 1228 531 
z
" transform="scale(0.015625)"/>
       </defs>
       <use xlink:href="#DejaVuSans-32"/>
      </g>
     </g>
    </g>
    <g id="xtick_4">
     <g id="line2d_7">
      <path d="M 256.38884 385.218125 
L 256.38884 22.318125 
" clip-path="url(#p65242cb1f9)" style="fill: none; stroke: #b0b0b0; stroke-width: 0.8; stroke-linecap: square"/>
     </g>
     <g id="line2d_8">
      <g>
       <use xlink:href="#mc161a8f942" x="256.38884" y="385.218125" style="stroke: #000000; stroke-width: 0.8"/>
      </g>
     </g>
     <g id="text_4">
      <!-- 3 -->
      <g transform="translate(253.20759 399.816562) scale(0.1 -0.1)">
       <defs>
        <path id="DejaVuSans-33" d="M 2597 2516 
Q 3050 2419 3304 2112 
Q 3559 1806 3559 1356 
Q 3559 666 3084 287 
Q 2609 -91 1734 -91 
Q 1441 -91 1130 -33 
Q 819 25 488 141 
L 488 750 
Q 750 597 1062 519 
Q 1375 441 1716 441 
Q 2309 441 2620 675 
Q 2931 909 2931 1356 
Q 2931 1769 2642 2001 
Q 2353 2234 1838 2234 
L 1294 2234 
L 1294 2753 
L 1863 2753 
Q 2328 2753 2575 2939 
Q 2822 3125 2822 3475 
Q 2822 3834 2567 4026 
Q 2313 4219 1838 4219 
Q 1578 4219 1281 4162 
Q 984 4106 628 3988 
L 628 4550 
Q 988 4650 1302 4700 
Q 1616 4750 1894 4750 
Q 2613 4750 3031 4423 
Q 3450 4097 3450 3541 
Q 3450 3153 3228 2886 
Q 3006 2619 2597 2516 
z
" transform="scale(0.015625)"/>
       </defs>
       <use xlink:href="#DejaVuSans-33"/>
      </g>
     </g>
    </g>
    <g id="xtick_5">
     <g id="line2d_9">
      <path d="M 327.250745 385.218125 
L 327.250745 22.318125 
" clip-path="url(#p65242cb1f9)" style="fill: none; stroke: #b0b0b0; stroke-width: 0.8; stroke-linecap: square"/>
     </g>
     <g id="line2d_10">
      <g>
       <use xlink:href="#mc161a8f942" x="327.250745" y="385.218125" style="stroke: #000000; stroke-width: 0.8"/>
      </g>
     </g>
     <g id="text_5">
      <!-- 4 -->
      <g transform="translate(324.069495 399.816562) scale(0.1 -0.1)">
       <defs>
        <path id="DejaVuSans-34" d="M 2419 4116 
L 825 1625 
L 2419 1625 
L 2419 4116 
z
M 2253 4666 
L 3047 4666 
L 3047 1625 
L 3713 1625 
L 3713 1100 
L 3047 1100 
L 3047 0 
L 2419 0 
L 2419 1100 
L 313 1100 
L 313 1709 
L 2253 4666 
z
" transform="scale(0.015625)"/>
       </defs>
       <use xlink:href="#DejaVuSans-34"/>
      </g>
     </g>
    </g>
    <g id="xtick_6">
     <g id="line2d_11">
      <path d="M 398.112651 385.218125 
L 398.112651 22.318125 
" clip-path="url(#p65242cb1f9)" style="fill: none; stroke: #b0b0b0; stroke-width: 0.8; stroke-linecap: square"/>
     </g>
     <g id="line2d_12">
      <g>
       <use xlink:href="#mc161a8f942" x="398.112651" y="385.218125" style="stroke: #000000; stroke-width: 0.8"/>
      </g>
     </g>
     <g id="text_6">
      <!-- 5 -->
      <g transform="translate(394.931401 399.816562) scale(0.1 -0.1)">
       <defs>
        <path id="DejaVuSans-35" d="M 691 4666 
L 3169 4666 
L 3169 4134 
L 1269 4134 
L 1269 2991 
Q 1406 3038 1543 3061 
Q 1681 3084 1819 3084 
Q 2600 3084 3056 2656 
Q 3513 2228 3513 1497 
Q 3513 744 3044 326 
Q 2575 -91 1722 -91 
Q 1428 -91 1123 -41 
Q 819 9 494 109 
L 494 744 
Q 775 591 1075 516 
Q 1375 441 1709 441 
Q 2250 441 2565 725 
Q 2881 1009 2881 1497 
Q 2881 1984 2565 2268 
Q 2250 2553 1709 2553 
Q 1456 2553 1204 2497 
Q 953 2441 691 2322 
L 691 4666 
z
" transform="scale(0.015625)"/>
       </defs>
       <use xlink:href="#DejaVuSans-35"/>
      </g>
     </g>
    </g>
    <g id="text_7">
     <!-- Radna snaga $p_2$ (p.u.) -->
     <g transform="translate(175.065625 413.49625) scale(0.1 -0.1)">
      <defs>
       <path id="DejaVuSans-52" d="M 2841 2188 
Q 3044 2119 3236 1894 
Q 3428 1669 3622 1275 
L 4263 0 
L 3584 0 
L 2988 1197 
Q 2756 1666 2539 1819 
Q 2322 1972 1947 1972 
L 1259 1972 
L 1259 0 
L 628 0 
L 628 4666 
L 2053 4666 
Q 2853 4666 3247 4331 
Q 3641 3997 3641 3322 
Q 3641 2881 3436 2590 
Q 3231 2300 2841 2188 
z
M 1259 4147 
L 1259 2491 
L 2053 2491 
Q 2509 2491 2742 2702 
Q 2975 2913 2975 3322 
Q 2975 3731 2742 3939 
Q 2509 4147 2053 4147 
L 1259 4147 
z
" transform="scale(0.015625)"/>
       <path id="DejaVuSans-61" d="M 2194 1759 
Q 1497 1759 1228 1600 
Q 959 1441 959 1056 
Q 959 750 1161 570 
Q 1363 391 1709 391 
Q 2188 391 2477 730 
Q 2766 1069 2766 1631 
L 2766 1759 
L 2194 1759 
z
M 3341 1997 
L 3341 0 
L 2766 0 
L 2766 531 
Q 2569 213 2275 61 
Q 1981 -91 1556 -91 
Q 1019 -91 701 211 
Q 384 513 384 1019 
Q 384 1609 779 1909 
Q 1175 2209 1959 2209 
L 2766 2209 
L 2766 2266 
Q 2766 2663 2505 2880 
Q 2244 3097 1772 3097 
Q 1472 3097 1187 3025 
Q 903 2953 641 2809 
L 641 3341 
Q 956 3463 1253 3523 
Q 1550 3584 1831 3584 
Q 2591 3584 2966 3190 
Q 3341 2797 3341 1997 
z
" transform="scale(0.015625)"/>
       <path id="DejaVuSans-64" d="M 2906 2969 
L 2906 4863 
L 3481 4863 
L 3481 0 
L 2906 0 
L 2906 525 
Q 2725 213 2448 61 
Q 2172 -91 1784 -91 
Q 1150 -91 751 415 
Q 353 922 353 1747 
Q 353 2572 751 3078 
Q 1150 3584 1784 3584 
Q 2172 3584 2448 3432 
Q 2725 3281 2906 2969 
z
M 947 1747 
Q 947 1113 1208 752 
Q 1469 391 1925 391 
Q 2381 391 2643 752 
Q 2906 1113 2906 1747 
Q 2906 2381 2643 2742 
Q 2381 3103 1925 3103 
Q 1469 3103 1208 2742 
Q 947 2381 947 1747 
z
" transform="scale(0.015625)"/>
       <path id="DejaVuSans-6e" d="M 3513 2113 
L 3513 0 
L 2938 0 
L 2938 2094 
Q 2938 2591 2744 2837 
Q 2550 3084 2163 3084 
Q 1697 3084 1428 2787 
Q 1159 2491 1159 1978 
L 1159 0 
L 581 0 
L 581 3500 
L 1159 3500 
L 1159 2956 
Q 1366 3272 1645 3428 
Q 1925 3584 2291 3584 
Q 2894 3584 3203 3211 
Q 3513 2838 3513 2113 
z
" transform="scale(0.015625)"/>
       <path id="DejaVuSans-20" transform="scale(0.015625)"/>
       <path id="DejaVuSans-73" d="M 2834 3397 
L 2834 2853 
Q 2591 2978 2328 3040 
Q 2066 3103 1784 3103 
Q 1356 3103 1142 2972 
Q 928 2841 928 2578 
Q 928 2378 1081 2264 
Q 1234 2150 1697 2047 
L 1894 2003 
Q 2506 1872 2764 1633 
Q 3022 1394 3022 966 
Q 3022 478 2636 193 
Q 2250 -91 1575 -91 
Q 1294 -91 989 -36 
Q 684 19 347 128 
L 347 722 
Q 666 556 975 473 
Q 1284 391 1588 391 
Q 1994 391 2212 530 
Q 2431 669 2431 922 
Q 2431 1156 2273 1281 
Q 2116 1406 1581 1522 
L 1381 1569 
Q 847 1681 609 1914 
Q 372 2147 372 2553 
Q 372 3047 722 3315 
Q 1072 3584 1716 3584 
Q 2034 3584 2315 3537 
Q 2597 3491 2834 3397 
z
" transform="scale(0.015625)"/>
       <path id="DejaVuSans-67" d="M 2906 1791 
Q 2906 2416 2648 2759 
Q 2391 3103 1925 3103 
Q 1463 3103 1205 2759 
Q 947 2416 947 1791 
Q 947 1169 1205 825 
Q 1463 481 1925 481 
Q 2391 481 2648 825 
Q 2906 1169 2906 1791 
z
M 3481 434 
Q 3481 -459 3084 -895 
Q 2688 -1331 1869 -1331 
Q 1566 -1331 1297 -1286 
Q 1028 -1241 775 -1147 
L 775 -588 
Q 1028 -725 1275 -790 
Q 1522 -856 1778 -856 
Q 2344 -856 2625 -561 
Q 2906 -266 2906 331 
L 2906 616 
Q 2728 306 2450 153 
Q 2172 0 1784 0 
Q 1141 0 747 490 
Q 353 981 353 1791 
Q 353 2603 747 3093 
Q 1141 3584 1784 3584 
Q 2172 3584 2450 3431 
Q 2728 3278 2906 2969 
L 2906 3500 
L 3481 3500 
L 3481 434 
z
" transform="scale(0.015625)"/>
       <path id="DejaVuSans-Oblique-70" d="M 3175 2156 
Q 3175 2616 2975 2859 
Q 2775 3103 2400 3103 
Q 2144 3103 1911 2972 
Q 1678 2841 1497 2591 
Q 1319 2344 1212 1994 
Q 1106 1644 1106 1300 
Q 1106 863 1306 627 
Q 1506 391 1875 391 
Q 2147 391 2380 519 
Q 2613 647 2778 891 
Q 2956 1147 3065 1494 
Q 3175 1841 3175 2156 
z
M 1394 2969 
Q 1625 3272 1939 3428 
Q 2253 3584 2638 3584 
Q 3175 3584 3472 3232 
Q 3769 2881 3769 2247 
Q 3769 1728 3584 1258 
Q 3400 788 3053 416 
Q 2822 169 2531 39 
Q 2241 -91 1919 -91 
Q 1547 -91 1294 64 
Q 1041 219 916 525 
L 556 -1331 
L -19 -1331 
L 922 3500 
L 1497 3500 
L 1394 2969 
z
" transform="scale(0.015625)"/>
       <path id="DejaVuSans-28" d="M 1984 4856 
Q 1566 4138 1362 3434 
Q 1159 2731 1159 2009 
Q 1159 1288 1364 580 
Q 1569 -128 1984 -844 
L 1484 -844 
Q 1016 -109 783 600 
Q 550 1309 550 2009 
Q 550 2706 781 3412 
Q 1013 4119 1484 4856 
L 1984 4856 
z
" transform="scale(0.015625)"/>
       <path id="DejaVuSans-70" d="M 1159 525 
L 1159 -1331 
L 581 -1331 
L 581 3500 
L 1159 3500 
L 1159 2969 
Q 1341 3281 1617 3432 
Q 1894 3584 2278 3584 
Q 2916 3584 3314 3078 
Q 3713 2572 3713 1747 
Q 3713 922 3314 415 
Q 2916 -91 2278 -91 
Q 1894 -91 1617 61 
Q 1341 213 1159 525 
z
M 3116 1747 
Q 3116 2381 2855 2742 
Q 2594 3103 2138 3103 
Q 1681 3103 1420 2742 
Q 1159 2381 1159 1747 
Q 1159 1113 1420 752 
Q 1681 391 2138 391 
Q 2594 391 2855 752 
Q 3116 1113 3116 1747 
z
" transform="scale(0.015625)"/>
       <path id="DejaVuSans-2e" d="M 684 794 
L 1344 794 
L 1344 0 
L 684 0 
L 684 794 
z
" transform="scale(0.015625)"/>
       <path id="DejaVuSans-75" d="M 544 1381 
L 544 3500 
L 1119 3500 
L 1119 1403 
Q 1119 906 1312 657 
Q 1506 409 1894 409 
Q 2359 409 2629 706 
Q 2900 1003 2900 1516 
L 2900 3500 
L 3475 3500 
L 3475 0 
L 2900 0 
L 2900 538 
Q 2691 219 2414 64 
Q 2138 -91 1772 -91 
Q 1169 -91 856 284 
Q 544 659 544 1381 
z
M 1991 3584 
L 1991 3584 
z
" transform="scale(0.015625)"/>
       <path id="DejaVuSans-29" d="M 513 4856 
L 1013 4856 
Q 1481 4119 1714 3412 
Q 1947 2706 1947 2009 
Q 1947 1309 1714 600 
Q 1481 -109 1013 -844 
L 513 -844 
Q 928 -128 1133 580 
Q 1338 1288 1338 2009 
Q 1338 2731 1133 3434 
Q 928 4138 513 4856 
z
" transform="scale(0.015625)"/>
      </defs>
      <use xlink:href="#DejaVuSans-52" transform="translate(0 0.015625)"/>
      <use xlink:href="#DejaVuSans-61" transform="translate(69.482422 0.015625)"/>
      <use xlink:href="#DejaVuSans-64" transform="translate(130.761719 0.015625)"/>
      <use xlink:href="#DejaVuSans-6e" transform="translate(194.238281 0.015625)"/>
      <use xlink:href="#DejaVuSans-61" transform="translate(257.617188 0.015625)"/>
      <use xlink:href="#DejaVuSans-20" transform="translate(318.896484 0.015625)"/>
      <use xlink:href="#DejaVuSans-73" transform="translate(350.683594 0.015625)"/>
      <use xlink:href="#DejaVuSans-6e" transform="translate(402.783203 0.015625)"/>
      <use xlink:href="#DejaVuSans-61" transform="translate(466.162109 0.015625)"/>
      <use xlink:href="#DejaVuSans-67" transform="translate(527.441406 0.015625)"/>
      <use xlink:href="#DejaVuSans-61" transform="translate(590.917969 0.015625)"/>
      <use xlink:href="#DejaVuSans-20" transform="translate(652.197266 0.015625)"/>
      <use xlink:href="#DejaVuSans-Oblique-70" transform="translate(683.984375 0.015625)"/>
      <use xlink:href="#DejaVuSans-32" transform="translate(747.460938 -16.390625) scale(0.7)"/>
      <use xlink:href="#DejaVuSans-20" transform="translate(794.731445 0.015625)"/>
      <use xlink:href="#DejaVuSans-28" transform="translate(826.518555 0.015625)"/>
      <use xlink:href="#DejaVuSans-70" transform="translate(865.532227 0.015625)"/>
      <use xlink:href="#DejaVuSans-2e" transform="translate(929.008789 0.015625)"/>
      <use xlink:href="#DejaVuSans-75" transform="translate(960.795898 0.015625)"/>
      <use xlink:href="#DejaVuSans-2e" transform="translate(1024.174805 0.015625)"/>
      <use xlink:href="#DejaVuSans-29" transform="translate(1055.961914 0.015625)"/>
     </g>
    </g>
   </g>
   <g id="matplotlib.axis_2">
    <g id="ytick_1">
     <g id="line2d_13">
      <path d="M 43.803125 385.218125 
L 415.828125 385.218125 
" clip-path="url(#p65242cb1f9)" style="fill: none; stroke: #b0b0b0; stroke-width: 0.8; stroke-linecap: square"/>
     </g>
     <g id="line2d_14">
      <defs>
       <path id="m3280c19983" d="M 0 0 
L -3.5 0 
" style="stroke: #000000; stroke-width: 0.8"/>
      </defs>
      <g>
       <use xlink:href="#m3280c19983" x="43.803125" y="385.218125" style="stroke: #000000; stroke-width: 0.8"/>
      </g>
     </g>
     <g id="text_8">
      <!-- 0.0 -->
      <g transform="translate(20.9 389.017344) scale(0.1 -0.1)">
       <use xlink:href="#DejaVuSans-30"/>
       <use xlink:href="#DejaVuSans-2e" transform="translate(63.623047 0)"/>
       <use xlink:href="#DejaVuSans-30" transform="translate(95.410156 0)"/>
      </g>
     </g>
    </g>
    <g id="ytick_2">
     <g id="line2d_15">
      <path d="M 43.803125 316.091023 
L 415.828125 316.091023 
" clip-path="url(#p65242cb1f9)" style="fill: none; stroke: #b0b0b0; stroke-width: 0.8; stroke-linecap: square"/>
     </g>
     <g id="line2d_16">
      <g>
       <use xlink:href="#m3280c19983" x="43.803125" y="316.091023" style="stroke: #000000; stroke-width: 0.8"/>
      </g>
     </g>
     <g id="text_9">
      <!-- 0.2 -->
      <g transform="translate(20.9 319.890242) scale(0.1 -0.1)">
       <use xlink:href="#DejaVuSans-30"/>
       <use xlink:href="#DejaVuSans-2e" transform="translate(63.623047 0)"/>
       <use xlink:href="#DejaVuSans-32" transform="translate(95.410156 0)"/>
      </g>
     </g>
    </g>
    <g id="ytick_3">
     <g id="line2d_17">
      <path d="M 43.803125 246.963921 
L 415.828125 246.963921 
" clip-path="url(#p65242cb1f9)" style="fill: none; stroke: #b0b0b0; stroke-width: 0.8; stroke-linecap: square"/>
     </g>
     <g id="line2d_18">
      <g>
       <use xlink:href="#m3280c19983" x="43.803125" y="246.963921" style="stroke: #000000; stroke-width: 0.8"/>
      </g>
     </g>
     <g id="text_10">
      <!-- 0.4 -->
      <g transform="translate(20.9 250.76314) scale(0.1 -0.1)">
       <use xlink:href="#DejaVuSans-30"/>
       <use xlink:href="#DejaVuSans-2e" transform="translate(63.623047 0)"/>
       <use xlink:href="#DejaVuSans-34" transform="translate(95.410156 0)"/>
      </g>
     </g>
    </g>
    <g id="ytick_4">
     <g id="line2d_19">
      <path d="M 43.803125 177.836819 
L 415.828125 177.836819 
" clip-path="url(#p65242cb1f9)" style="fill: none; stroke: #b0b0b0; stroke-width: 0.8; stroke-linecap: square"/>
     </g>
     <g id="line2d_20">
      <g>
       <use xlink:href="#m3280c19983" x="43.803125" y="177.836819" style="stroke: #000000; stroke-width: 0.8"/>
      </g>
     </g>
     <g id="text_11">
      <!-- 0.6 -->
      <g transform="translate(20.9 181.636038) scale(0.1 -0.1)">
       <defs>
        <path id="DejaVuSans-36" d="M 2113 2584 
Q 1688 2584 1439 2293 
Q 1191 2003 1191 1497 
Q 1191 994 1439 701 
Q 1688 409 2113 409 
Q 2538 409 2786 701 
Q 3034 994 3034 1497 
Q 3034 2003 2786 2293 
Q 2538 2584 2113 2584 
z
M 3366 4563 
L 3366 3988 
Q 3128 4100 2886 4159 
Q 2644 4219 2406 4219 
Q 1781 4219 1451 3797 
Q 1122 3375 1075 2522 
Q 1259 2794 1537 2939 
Q 1816 3084 2150 3084 
Q 2853 3084 3261 2657 
Q 3669 2231 3669 1497 
Q 3669 778 3244 343 
Q 2819 -91 2113 -91 
Q 1303 -91 875 529 
Q 447 1150 447 2328 
Q 447 3434 972 4092 
Q 1497 4750 2381 4750 
Q 2619 4750 2861 4703 
Q 3103 4656 3366 4563 
z
" transform="scale(0.015625)"/>
       </defs>
       <use xlink:href="#DejaVuSans-30"/>
       <use xlink:href="#DejaVuSans-2e" transform="translate(63.623047 0)"/>
       <use xlink:href="#DejaVuSans-36" transform="translate(95.410156 0)"/>
      </g>
     </g>
    </g>
    <g id="ytick_5">
     <g id="line2d_21">
      <path d="M 43.803125 108.709717 
L 415.828125 108.709717 
" clip-path="url(#p65242cb1f9)" style="fill: none; stroke: #b0b0b0; stroke-width: 0.8; stroke-linecap: square"/>
     </g>
     <g id="line2d_22">
      <g>
       <use xlink:href="#m3280c19983" x="43.803125" y="108.709717" style="stroke: #000000; stroke-width: 0.8"/>
      </g>
     </g>
     <g id="text_12">
      <!-- 0.8 -->
      <g transform="translate(20.9 112.508936) scale(0.1 -0.1)">
       <defs>
        <path id="DejaVuSans-38" d="M 2034 2216 
Q 1584 2216 1326 1975 
Q 1069 1734 1069 1313 
Q 1069 891 1326 650 
Q 1584 409 2034 409 
Q 2484 409 2743 651 
Q 3003 894 3003 1313 
Q 3003 1734 2745 1975 
Q 2488 2216 2034 2216 
z
M 1403 2484 
Q 997 2584 770 2862 
Q 544 3141 544 3541 
Q 544 4100 942 4425 
Q 1341 4750 2034 4750 
Q 2731 4750 3128 4425 
Q 3525 4100 3525 3541 
Q 3525 3141 3298 2862 
Q 3072 2584 2669 2484 
Q 3125 2378 3379 2068 
Q 3634 1759 3634 1313 
Q 3634 634 3220 271 
Q 2806 -91 2034 -91 
Q 1263 -91 848 271 
Q 434 634 434 1313 
Q 434 1759 690 2068 
Q 947 2378 1403 2484 
z
M 1172 3481 
Q 1172 3119 1398 2916 
Q 1625 2713 2034 2713 
Q 2441 2713 2670 2916 
Q 2900 3119 2900 3481 
Q 2900 3844 2670 4047 
Q 2441 4250 2034 4250 
Q 1625 4250 1398 4047 
Q 1172 3844 1172 3481 
z
" transform="scale(0.015625)"/>
       </defs>
       <use xlink:href="#DejaVuSans-30"/>
       <use xlink:href="#DejaVuSans-2e" transform="translate(63.623047 0)"/>
       <use xlink:href="#DejaVuSans-38" transform="translate(95.410156 0)"/>
      </g>
     </g>
    </g>
    <g id="ytick_6">
     <g id="line2d_23">
      <path d="M 43.803125 39.582615 
L 415.828125 39.582615 
" clip-path="url(#p65242cb1f9)" style="fill: none; stroke: #b0b0b0; stroke-width: 0.8; stroke-linecap: square"/>
     </g>
     <g id="line2d_24">
      <g>
       <use xlink:href="#m3280c19983" x="43.803125" y="39.582615" style="stroke: #000000; stroke-width: 0.8"/>
      </g>
     </g>
     <g id="text_13">
      <!-- 1.0 -->
      <g transform="translate(20.9 43.381834) scale(0.1 -0.1)">
       <use xlink:href="#DejaVuSans-31"/>
       <use xlink:href="#DejaVuSans-2e" transform="translate(63.623047 0)"/>
       <use xlink:href="#DejaVuSans-30" transform="translate(95.410156 0)"/>
      </g>
     </g>
    </g>
    <g id="text_14">
     <!-- Napon $v_2$ (p.u.) -->
     <g transform="translate(14.8 241.918125) rotate(-90) scale(0.1 -0.1)">
      <defs>
       <path id="DejaVuSans-4e" d="M 628 4666 
L 1478 4666 
L 3547 763 
L 3547 4666 
L 4159 4666 
L 4159 0 
L 3309 0 
L 1241 3903 
L 1241 0 
L 628 0 
L 628 4666 
z
" transform="scale(0.015625)"/>
       <path id="DejaVuSans-6f" d="M 1959 3097 
Q 1497 3097 1228 2736 
Q 959 2375 959 1747 
Q 959 1119 1226 758 
Q 1494 397 1959 397 
Q 2419 397 2687 759 
Q 2956 1122 2956 1747 
Q 2956 2369 2687 2733 
Q 2419 3097 1959 3097 
z
M 1959 3584 
Q 2709 3584 3137 3096 
Q 3566 2609 3566 1747 
Q 3566 888 3137 398 
Q 2709 -91 1959 -91 
Q 1206 -91 779 398 
Q 353 888 353 1747 
Q 353 2609 779 3096 
Q 1206 3584 1959 3584 
z
" transform="scale(0.015625)"/>
       <path id="DejaVuSans-Oblique-76" d="M 459 3500 
L 1069 3500 
L 1581 525 
L 3256 3500 
L 3866 3500 
L 1875 0 
L 1100 0 
L 459 3500 
z
" transform="scale(0.015625)"/>
      </defs>
      <use xlink:href="#DejaVuSans-4e" transform="translate(0 0.125)"/>
      <use xlink:href="#DejaVuSans-61" transform="translate(74.804688 0.125)"/>
      <use xlink:href="#DejaVuSans-70" transform="translate(136.083984 0.125)"/>
      <use xlink:href="#DejaVuSans-6f" transform="translate(199.560547 0.125)"/>
      <use xlink:href="#DejaVuSans-6e" transform="translate(260.742188 0.125)"/>
      <use xlink:href="#DejaVuSans-20" transform="translate(324.121094 0.125)"/>
      <use xlink:href="#DejaVuSans-Oblique-76" transform="translate(355.908203 0.125)"/>
      <use xlink:href="#DejaVuSans-32" transform="translate(415.087891 -16.28125) scale(0.7)"/>
      <use xlink:href="#DejaVuSans-20" transform="translate(462.358398 0.125)"/>
      <use xlink:href="#DejaVuSans-28" transform="translate(494.145508 0.125)"/>
      <use xlink:href="#DejaVuSans-70" transform="translate(533.15918 0.125)"/>
      <use xlink:href="#DejaVuSans-2e" transform="translate(596.635742 0.125)"/>
      <use xlink:href="#DejaVuSans-75" transform="translate(628.422852 0.125)"/>
      <use xlink:href="#DejaVuSans-2e" transform="translate(691.801758 0.125)"/>
      <use xlink:href="#DejaVuSans-29" transform="translate(723.588867 0.125)"/>
     </g>
    </g>
   </g>
   <g id="line2d_25">
    <path d="M 44.511885 384.87242 
L 106.77247 354.38127 
L 139.574196 338.064011 
L 166.191743 324.581529 
L 189.190427 312.689289 
L 209.706864 301.834163 
L 228.058393 291.877869 
L 244.802814 282.543844 
L 259.982632 273.832087 
L 273.881276 265.604316 
L 286.649664 257.791391 
L 298.322607 250.393311 
L 309.043316 243.340936 
L 318.94322 236.565125 
L 327.951182 230.135019 
L 336.196962 223.981476 
L 343.796034 218.035356 
L 350.685088 212.3658 
L 356.975089 206.903666 
L 362.688138 201.648955 
L 367.847838 196.601668 
L 372.479167 191.761802 
L 376.608351 187.12936 
L 380.317503 182.6352 
L 383.57106 178.348462 
L 386.443841 174.200006 
L 388.952085 170.189832 
L 391.112725 166.31794 
L 392.943349 162.58433 
L 394.462153 158.989002 
L 395.710003 155.462814 
L 396.674609 152.074909 
L 397.388242 148.756144 
L 397.849105 145.575661 
L 398.080669 142.464319 
L 398.089438 139.422118 
L 397.874759 136.379917 
L 397.440712 133.406857 
L 396.794382 130.502938 
L 395.91958 127.599019 
L 394.836377 124.764241 
L 393.517407 121.929463 
L 391.952756 119.094685 
L 390.131742 116.259907 
L 388.042821 113.425129 
L 385.673478 110.590351 
L 383.010089 107.755572 
L 380.037769 104.920794 
L 376.74019 102.086016 
L 373.099352 99.251238 
L 369.095315 96.41646 
L 364.705873 93.581682 
L 359.90614 90.746904 
L 354.668046 87.912125 
L 348.959693 85.077347 
L 342.744532 82.242569 
L 335.980297 79.407791 
L 328.804729 76.642154 
L 321.005437 73.876517 
L 312.738993 71.18002 
L 303.745892 68.483524 
L 294.199881 65.856169 
L 284.063816 63.297954 
L 273.290099 60.808881 
L 261.816801 58.388948 
L 249.561783 56.038157 
L 236.83245 53.825647 
L 223.615721 51.751419 
L 209.886743 49.815473 
L 195.017667 47.948668 
L 180.024498 46.289285 
L 164.255876 44.768185 
L 148.387801 43.454507 
L 131.45645 42.279112 
L 114.229485 41.311139 
L 96.651059 40.550588 
L 78.469622 39.997461 
L 63.837879 39.720897 
L 43.803125 39.582615 
L 43.803125 39.582615 
" clip-path="url(#p65242cb1f9)" style="fill: none; stroke: #ff0000; stroke-width: 2; stroke-linecap: square"/>
   </g>
   <g id="line2d_26">
    <defs>
     <path id="m37a32a56ae" d="M 0 3 
C 0.795609 3 1.55874 2.683901 2.12132 2.12132 
C 2.683901 1.55874 3 0.795609 3 0 
C 3 -0.795609 2.683901 -1.55874 2.12132 -2.12132 
C 1.55874 -2.683901 0.795609 -3 0 -3 
C -0.795609 -3 -1.55874 -2.683901 -2.12132 -2.12132 
C -2.683901 -1.55874 -3 -0.795609 -3 0 
C -3 0.795609 -2.683901 1.55874 -2.12132 2.12132 
C -1.55874 2.683901 -0.795609 3 0 3 
z
" style="stroke: #ff0000"/>
    </defs>
    <g clip-path="url(#p65242cb1f9)">
     <use xlink:href="#m37a32a56ae" x="398.112649" y="140.804937" style="fill: #ff0000; stroke: #ff0000"/>
    </g>
   </g>
   <g id="line2d_27">
    <path d="M 44.48368 384.87242 
L 71.590205 370.975093 
L 95.116908 358.668008 
L 116.187768 347.398036 
L 135.241487 336.957756 
L 152.578006 327.208885 
L 168.485015 318.013141 
L 183.118607 309.301384 
L 196.628332 301.004472 
L 209.155145 293.053265 
L 220.726469 285.447763 
L 231.373517 278.187965 
L 241.226385 271.204731 
L 250.310678 264.498061 
L 258.74197 257.998814 
L 266.45444 251.77613 
L 273.559311 245.760869 
L 280.077556 239.953031 
L 286.031432 234.352615 
L 291.444346 228.959623 
L 296.340731 223.774053 
L 300.805011 218.726765 
L 304.850898 213.817759 
L 308.442081 209.116176 
L 311.652671 204.552875 
L 314.498301 200.127855 
L 316.995125 195.841117 
L 319.159775 191.692662 
L 321.039065 187.613347 
L 322.61229 183.672314 
L 323.91852 179.800422 
L 324.946273 176.066811 
L 325.726718 172.402342 
L 326.265811 168.807014 
L 326.569718 165.280826 
L 326.644813 161.82378 
L 326.497678 158.435874 
L 326.135101 155.11711 
L 325.549551 151.798345 
L 324.753316 148.548721 
L 323.729452 145.299097 
L 322.470511 142.049474 
L 320.968597 138.79985 
L 319.255304 135.619367 
L 317.29287 132.438884 
L 315.072377 129.258402 
L 312.584299 126.077919 
L 309.755133 122.828295 
L 306.62425 119.578671 
L 303.179011 116.329048 
L 299.405722 113.079424 
L 295.289494 109.8298 
L 290.814074 106.580177 
L 285.961647 103.330553 
L 280.712587 100.080929 
L 275.045172 96.831305 
L 268.935217 93.581682 
L 262.355637 90.332058 
L 255.275886 87.082434 
L 247.661259 83.832811 
L 239.471993 80.583187 
L 230.856351 77.402704 
L 221.595905 74.222221 
L 211.855897 71.110879 
L 201.375818 67.999538 
L 190.336282 64.957337 
L 178.702175 61.984277 
L 166.428963 59.080358 
L 153.45945 56.245579 
L 140.07699 53.549083 
L 125.890011 50.921728 
L 111.207277 48.432654 
L 95.994935 46.081863 
L 80.198809 43.869353 
L 64.312446 41.864266 
L 47.766387 39.997461 
L 43.803125 39.582615 
L 43.803125 39.582615 
" clip-path="url(#p65242cb1f9)" style="fill: none; stroke: #008000; stroke-width: 2; stroke-linecap: square"/>
   </g>
   <g id="line2d_28">
    <defs>
     <path id="m6e6584777d" d="M 0 3 
C 0.795609 3 1.55874 2.683901 2.12132 2.12132 
C 2.683901 1.55874 3 0.795609 3 0 
C 3 -0.795609 2.683901 -1.55874 2.12132 -2.12132 
C 1.55874 -2.683901 0.795609 -3 0 -3 
C -0.795609 -3 -1.55874 -2.683901 -2.12132 -2.12132 
C -2.683901 -1.55874 -3 -0.795609 -3 0 
C -3 0.795609 -2.683901 1.55874 -2.12132 2.12132 
C -1.55874 2.683901 -0.795609 3 0 3 
z
" style="stroke: #008000"/>
    </defs>
    <g clip-path="url(#p65242cb1f9)">
     <use xlink:href="#m6e6584777d" x="326.647907" y="162.376907" style="fill: #008000; stroke: #008000"/>
    </g>
   </g>
   <g id="line2d_29">
    <path d="M 44.442571 384.87242 
L 65.047354 373.602449 
L 83.804931 363.093027 
L 101.005126 353.205874 
L 116.923667 343.802708 
L 131.706092 334.814387 
L 145.381933 326.240912 
L 158.090699 318.013141 
L 169.860358 310.131075 
L 180.819988 302.525573 
L 190.992703 295.196634 
L 200.403882 288.144259 
L 209.080892 281.368448 
L 217.13572 274.80006 
L 224.587616 268.439094 
L 231.457058 262.285551 
L 237.765623 256.339431 
L 243.535864 250.600734 
L 248.854937 245.000319 
L 253.675589 239.607326 
L 258.078683 234.352615 
L 262.078083 229.236187 
L 265.688177 224.25804 
L 268.923841 219.418175 
L 271.800401 214.716591 
L 274.333595 210.15329 
L 276.539532 205.72827 
L 278.463231 201.372392 
L 280.085038 197.154795 
L 281.442682 193.006339 
L 282.524965 188.996165 
L 283.362212 185.055132 
L 283.960351 181.18324 
L 284.325482 177.380489 
L 284.463879 173.646879 
L 284.378329 169.913269 
L 284.070702 166.248799 
L 283.547676 162.653471 
L 282.799544 159.058143 
L 281.841105 155.531955 
L 280.653912 152.005768 
L 279.231445 148.47958 
L 277.566839 144.953393 
L 275.652851 141.427205 
L 273.481823 137.901018 
L 271.045641 134.37483 
L 268.335692 130.848643 
L 265.342806 127.322456 
L 262.0572 123.796268 
L 258.468408 120.270081 
L 254.5652 116.743893 
L 250.249208 113.148565 
L 245.579942 109.553237 
L 240.542383 105.957908 
L 235.120169 102.36258 
L 229.295396 98.767251 
L 223.048389 95.171923 
L 216.357414 91.576595 
L 209.198335 87.981266 
L 201.54418 84.385938 
L 193.364617 80.79061 
L 184.625278 77.195281 
L 175.472405 73.669094 
L 165.700693 70.142906 
L 155.260622 66.616719 
L 144.320377 63.159672 
L 132.858769 59.771767 
L 120.849426 56.453002 
L 108.259333 53.203378 
L 95.046813 50.022896 
L 81.158681 46.911554 
L 66.871343 43.938494 
L 51.806003 41.034575 
L 43.803125 39.582615 
L 43.803125 39.582615 
" clip-path="url(#p65242cb1f9)" style="fill: none; stroke: #add8e6; stroke-width: 2; stroke-linecap: square"/>
   </g>
   <g id="line2d_30">
    <defs>
     <path id="m0506a8165d" d="M 0 3 
C 0.795609 3 1.55874 2.683901 2.12132 2.12132 
C 2.683901 1.55874 3 0.795609 3 0 
C 3 -0.795609 2.683901 -1.55874 2.12132 -2.12132 
C 1.55874 -2.683901 0.795609 -3 0 -3 
C -0.795609 -3 -1.55874 -2.683901 -2.12132 -2.12132 
C -2.683901 -1.55874 -3 -0.795609 -3 0 
C -3 0.795609 -2.683901 1.55874 -2.12132 2.12132 
C -1.55874 2.683901 -0.795609 3 0 3 
z
" style="stroke: #add8e6"/>
    </defs>
    <g clip-path="url(#p65242cb1f9)">
     <use xlink:href="#m0506a8165d" x="284.46555" y="173.162892" style="fill: #add8e6; stroke: #add8e6"/>
    </g>
   </g>
   <g id="line2d_31">
    <path d="M 44.41589 384.87242 
L 62.565766 374.501281 
L 79.30648 364.683269 
L 94.903921 355.280102 
L 109.385 346.291781 
L 122.781706 337.718306 
L 135.233189 329.490535 
L 146.868304 321.539328 
L 157.70876 313.864685 
L 167.778519 306.466606 
L 177.192229 299.275949 
L 185.881603 292.361856 
L 193.957186 285.655186 
L 201.438437 279.155938 
L 208.3459 272.864114 
L 214.701082 266.779712 
L 220.592995 260.833592 
L 225.970687 255.094894 
L 230.917147 249.494479 
L 235.445574 244.032346 
L 239.517993 238.777635 
L 243.20779 233.661206 
L 246.529604 228.683059 
L 249.538969 223.774053 
L 252.203253 219.003329 
L 254.538166 214.370887 
L 256.588902 209.807585 
L 258.335028 205.382566 
L 259.814699 201.026687 
L 261.015555 196.80909 
L 261.968618 192.660635 
L 262.679715 188.58132 
L 263.15483 184.571146 
L 263.400106 180.630113 
L 263.421833 176.758221 
L 263.220878 172.886329 
L 262.80137 169.083577 
L 262.156184 165.280826 
L 261.29761 161.547216 
L 260.21026 157.813606 
L 258.888181 154.079996 
L 257.356303 150.415526 
L 255.586102 146.751057 
L 253.571066 143.086588 
L 251.304337 139.422118 
L 248.778683 135.757649 
L 245.93116 132.024039 
L 242.798336 128.290429 
L 239.3711 124.556818 
L 235.639741 120.823208 
L 231.593886 117.089598 
L 227.222418 113.355988 
L 222.422928 109.553237 
L 217.259648 105.750485 
L 211.71783 101.947734 
L 205.781435 98.144983 
L 199.432952 94.342232 
L 192.653171 90.539481 
L 185.420923 86.73673 
L 177.712748 82.933978 
L 169.502504 79.131227 
L 160.760867 75.328476 
L 151.454714 71.525725 
L 141.732102 67.792115 
L 131.388031 64.058505 
L 120.585469 60.394035 
L 109.086347 56.729566 
L 97.067656 53.134238 
L 84.503956 49.60805 
L 71.363494 46.151004 
L 57.606346 42.763098 
L 43.803125 39.582615 
L 43.803125 39.582615 
" clip-path="url(#p65242cb1f9)" style="fill: none; stroke: #ffa07a; stroke-width: 2; stroke-linecap: square"/>
   </g>
   <g id="line2d_32">
    <defs>
     <path id="m54307d9d08" d="M 0 3 
C 0.795609 3 1.55874 2.683901 2.12132 2.12132 
C 2.683901 1.55874 3 0.795609 3 0 
C 3 -0.795609 2.683901 -1.55874 2.12132 -2.12132 
C 1.55874 -2.683901 0.795609 -3 0 -3 
C -0.795609 -3 -1.55874 -2.683901 -2.12132 -2.12132 
C -2.683901 -1.55874 -3 -0.795609 -3 0 
C -3 0.795609 -2.683901 1.55874 -2.12132 2.12132 
C -1.55874 2.683901 -0.795609 3 0 3 
z
" style="stroke: #ffa07a"/>
    </defs>
    <g clip-path="url(#p65242cb1f9)">
     <use xlink:href="#m54307d9d08" x="263.439554" y="178.279321" style="fill: #ffa07a; stroke: #ffa07a"/>
    </g>
   </g>
   <g id="line2d_33">
    <path d="M 44.376943 384.87242 
L 59.878116 375.400113 
L 74.392252 366.27351 
L 87.943348 357.492612 
L 100.55874 349.057419 
L 112.36698 340.898789 
L 123.390524 333.016723 
L 133.745323 325.34208 
L 143.358999 317.944 
L 152.343689 310.753343 
L 160.717729 303.770109 
L 168.500505 296.994298 
L 175.712333 290.42591 
L 182.444983 283.995803 
L 188.64265 277.77312 
L 194.3914 271.688718 
L 199.703695 265.742598 
L 204.536069 260.003901 
L 208.965483 254.403485 
L 213.005775 248.941352 
L 216.671148 243.6175 
L 219.976131 238.43193 
L 222.974299 233.315501 
L 225.634929 228.337355 
L 227.973391 223.497489 
L 230.033356 218.726765 
L 231.795462 214.094323 
L 233.296687 209.531022 
L 234.542552 205.036861 
L 235.538719 200.611842 
L 236.290994 196.255963 
L 236.805314 191.969225 
L 237.08775 187.751629 
L 237.144499 183.603173 
L 236.977231 179.454717 
L 236.589518 175.375402 
L 235.987868 171.365228 
L 235.162763 167.355054 
L 234.109203 163.34488 
L 232.821988 159.334706 
L 231.324065 155.393673 
L 229.589865 151.45264 
L 227.613772 147.511607 
L 225.389912 143.570574 
L 222.912127 139.629541 
L 220.173951 135.688508 
L 217.113431 131.678334 
L 213.768705 127.66816 
L 210.131788 123.657986 
L 206.194221 119.647812 
L 201.947022 115.637638 
L 197.299045 111.558324 
L 192.310031 107.479009 
L 186.968473 103.399694 
L 181.262006 99.320379 
L 175.070828 95.171923 
L 168.473301 91.023467 
L 161.452924 86.875011 
L 153.991679 82.726556 
L 146.069803 78.5781 
L 137.66551 74.429644 
L 128.75466 70.281188 
L 119.31034 66.132732 
L 109.302355 61.984277 
L 98.878441 57.904962 
L 87.839587 53.825647 
L 76.347427 49.815473 
L 64.173584 45.805299 
L 51.492906 41.864266 
L 43.803125 39.582615 
L 43.803125 39.582615 
" clip-path="url(#p65242cb1f9)" style="fill: none; stroke: #ffc0cb; stroke-width: 2; stroke-linecap: square"/>
   </g>
   <g id="line2d_34">
    <defs>
     <path id="m3e07138d22" d="M 0 3 
C 0.795609 3 1.55874 2.683901 2.12132 2.12132 
C 2.683901 1.55874 3 0.795609 3 0 
C 3 -0.795609 2.683901 -1.55874 2.12132 -2.12132 
C 1.55874 -2.683901 0.795609 -3 0 -3 
C -0.795609 -3 -1.55874 -2.683901 -2.12132 -2.12132 
C -2.683901 -1.55874 -3 -0.795609 -3 0 
C -3 0.795609 -2.683901 1.55874 -2.12132 2.12132 
C -1.55874 2.683901 -0.795609 3 0 3 
z
" style="stroke: #ffc0cb"/>
    </defs>
    <g clip-path="url(#p65242cb1f9)">
     <use xlink:href="#m3e07138d22" x="237.151124" y="184.640287" style="fill: #ffc0cb; stroke: #ffc0cb"/>
    </g>
   </g>
   <g id="line2d_35">
    <path d="M 44.351693 384.87242 
L 58.509102 375.814959 
L 71.825257 367.03406 
L 84.319912 358.529726 
L 96.014999 350.301955 
L 106.93435 342.350748 
L 117.193348 334.606964 
L 126.722228 327.139744 
L 135.632222 319.879946 
L 144.022052 312.75843 
L 151.825001 305.844337 
L 159.061707 299.137667 
L 165.822958 292.569279 
L 172.054396 286.208313 
L 177.841093 279.985629 
L 183.195719 273.901227 
L 188.075695 268.024248 
L 192.557063 262.285551 
L 196.653656 256.685136 
L 200.425045 251.153861 
L 203.833371 245.760869 
L 206.893329 240.506158 
L 209.619836 235.389729 
L 212.059724 230.342441 
L 214.189771 225.433435 
L 216.050344 220.59357 
L 217.646843 215.822846 
L 218.984801 211.121263 
L 220.055411 206.557962 
L 220.885895 202.063801 
L 221.489758 197.569641 
L 221.858506 193.144621 
L 221.998277 188.788742 
L 221.915322 184.502005 
L 221.609267 180.215267 
L 221.086067 175.99767 
L 220.338148 171.780074 
L 219.378828 167.631618 
L 218.193152 163.483162 
L 216.776433 159.334706 
L 215.123798 155.18625 
L 213.230177 151.037795 
L 211.090284 146.889339 
L 208.698606 142.740883 
L 206.049377 138.592427 
L 203.136562 134.443971 
L 199.953833 130.295516 
L 196.434504 126.077919 
L 192.62196 121.860322 
L 188.508438 117.642725 
L 184.085727 113.425129 
L 179.26471 109.138391 
L 174.105577 104.851653 
L 168.597971 100.564916 
L 162.730818 96.278178 
L 156.388509 91.922299 
L 149.649291 87.566421 
L 142.498674 83.210542 
L 134.920945 78.854664 
L 126.898992 74.498785 
L 118.414104 70.142906 
L 109.445721 65.787028 
L 99.97114 61.431149 
L 89.965146 57.075271 
L 79.39957 52.719392 
L 68.242722 48.363513 
L 56.650839 44.076776 
L 44.412454 39.790038 
L 43.803125 39.582615 
L 43.803125 39.582615 
" clip-path="url(#p65242cb1f9)" style="fill: none; stroke: #ee82ee; stroke-width: 2; stroke-linecap: square"/>
   </g>
   <g id="line2d_36">
    <defs>
     <path id="m19e29316bd" d="M 0 3 
C 0.795609 3 1.55874 2.683901 2.12132 2.12132 
C 2.683901 1.55874 3 0.795609 3 0 
C 3 -0.795609 2.683901 -1.55874 2.12132 -2.12132 
C 1.55874 -2.683901 0.795609 -3 0 -3 
C -0.795609 -3 -1.55874 -2.683901 -2.12132 -2.12132 
C -2.683901 -1.55874 -3 -0.795609 -3 0 
C -3 0.795609 -2.683901 1.55874 -2.12132 2.12132 
C -1.55874 2.683901 -0.795609 3 0 3 
z
" style="stroke: #ee82ee"/>
    </defs>
    <g clip-path="url(#p65242cb1f9)">
     <use xlink:href="#m19e29316bd" x="221.999956" y="188.235615" style="fill: #ee82ee; stroke: #ee82ee"/>
    </g>
   </g>
   <g id="line2d_37">
    <path d="M 44.314887 384.87242 
L 56.800782 376.298945 
L 68.593826 367.932892 
L 79.617205 359.843404 
L 89.986975 351.961338 
L 99.721139 344.286694 
L 108.838595 336.819474 
L 117.43851 329.490535 
L 125.455196 322.36902 
L 132.982515 315.385786 
L 139.962522 308.609974 
L 146.48349 301.972445 
L 152.557941 295.473198 
L 158.198778 289.112232 
L 163.419242 282.889548 
L 168.232885 276.805147 
L 172.653536 270.859027 
L 176.695267 265.051188 
L 180.372365 259.381632 
L 183.699304 253.850358 
L 186.727427 248.388224 
L 189.42834 243.064373 
L 191.847201 237.809662 
L 193.98936 232.624092 
L 195.836626 227.576804 
L 197.424793 222.598657 
L 198.75959 217.689651 
L 199.846849 212.849786 
L 200.692498 208.079062 
L 201.302561 203.377479 
L 201.687157 198.675895 
L 201.841829 194.043453 
L 201.772846 189.480152 
L 201.480438 184.91685 
L 200.970366 180.42269 
L 200.236107 175.928529 
L 199.273778 171.434369 
L 198.099524 167.009349 
L 196.696328 162.58433 
L 195.060107 158.15931 
L 193.186637 153.734291 
L 191.07154 149.309271 
L 188.710279 144.884252 
L 186.098139 140.459232 
L 183.230218 136.034213 
L 180.050427 131.540052 
L 176.595959 127.045892 
L 172.860985 122.551731 
L 168.775262 117.98843 
L 164.387349 113.425129 
L 159.690206 108.861827 
L 154.597979 104.229385 
L 149.171254 99.596943 
L 143.401369 94.9645 
L 137.18504 90.262917 
L 130.595546 85.561334 
L 123.621981 80.859751 
L 116.252678 76.158167 
L 108.357625 71.387443 
L 100.028117 66.616719 
L 91.248907 61.845995 
L 82.003441 57.075271 
L 72.273667 52.304546 
L 62.03982 47.533822 
L 51.280145 42.763098 
L 43.803125 39.582615 
L 43.803125 39.582615 
" clip-path="url(#p65242cb1f9)" style="fill: none; stroke: #ffd700; stroke-width: 2; stroke-linecap: square"/>
   </g>
   <g id="line2d_38">
    <defs>
     <path id="mb7291d54a5" d="M 0 3 
C 0.795609 3 1.55874 2.683901 2.12132 2.12132 
C 2.683901 1.55874 3 0.795609 3 0 
C 3 -0.795609 2.683901 -1.55874 2.12132 -2.12132 
C 1.55874 -2.683901 0.795609 -3 0 -3 
C -0.795609 -3 -1.55874 -2.683901 -2.12132 -2.12132 
C -2.683901 -1.55874 -3 -0.795609 -3 0 
C -3 0.795609 -2.683901 1.55874 -2.12132 2.12132 
C -1.55874 2.683901 -0.795609 3 0 3 
z
" style="stroke: #ffd700"/>
    </defs>
    <g clip-path="url(#p65242cb1f9)">
     <use xlink:href="#mb7291d54a5" x="201.845736" y="193.213762" style="fill: #ffd700; stroke: #ffd700"/>
    </g>
   </g>
   <g id="line2d_39">
    <path d="M 398.112649 140.804937 
L 326.647907 162.376907 
L 284.46555 173.162892 
L 263.439554 178.279321 
L 237.151124 184.640287 
L 221.999956 188.235615 
L 201.845736 193.213762 
" clip-path="url(#p65242cb1f9)" style="fill: none; stroke-dasharray: 5.55,2.4; stroke-dashoffset: 0; stroke: #808080; stroke-width: 1.5"/>
   </g>
   <g id="patch_3">
    <path d="M 43.803125 385.218125 
L 43.803125 22.318125 
" style="fill: none; stroke: #000000; stroke-width: 0.8; stroke-linejoin: miter; stroke-linecap: square"/>
   </g>
   <g id="patch_4">
    <path d="M 415.828125 385.218125 
L 415.828125 22.318125 
" style="fill: none; stroke: #000000; stroke-width: 0.8; stroke-linejoin: miter; stroke-linecap: square"/>
   </g>
   <g id="patch_5">
    <path d="M 43.803125 385.218125 
L 415.828125 385.218125 
" style="fill: none; stroke: #000000; stroke-width: 0.8; stroke-linejoin: miter; stroke-linecap: square"/>
   </g>
   <g id="patch_6">
    <path d="M 43.803125 22.318125 
L 415.828125 22.318125 
" style="fill: none; stroke: #000000; stroke-width: 0.8; stroke-linejoin: miter; stroke-linecap: square"/>
   </g>
   <g id="text_15">
    <!-- PV krivulja za jednostavni primjer s 2 sabirnice -->
    <g transform="translate(89.474688 16.318125) scale(0.12 -0.12)">
     <defs>
      <path id="DejaVuSans-50" d="M 1259 4147 
L 1259 2394 
L 2053 2394 
Q 2494 2394 2734 2622 
Q 2975 2850 2975 3272 
Q 2975 3691 2734 3919 
Q 2494 4147 2053 4147 
L 1259 4147 
z
M 628 4666 
L 2053 4666 
Q 2838 4666 3239 4311 
Q 3641 3956 3641 3272 
Q 3641 2581 3239 2228 
Q 2838 1875 2053 1875 
L 1259 1875 
L 1259 0 
L 628 0 
L 628 4666 
z
" transform="scale(0.015625)"/>
      <path id="DejaVuSans-56" d="M 1831 0 
L 50 4666 
L 709 4666 
L 2188 738 
L 3669 4666 
L 4325 4666 
L 2547 0 
L 1831 0 
z
" transform="scale(0.015625)"/>
      <path id="DejaVuSans-6b" d="M 581 4863 
L 1159 4863 
L 1159 1991 
L 2875 3500 
L 3609 3500 
L 1753 1863 
L 3688 0 
L 2938 0 
L 1159 1709 
L 1159 0 
L 581 0 
L 581 4863 
z
" transform="scale(0.015625)"/>
      <path id="DejaVuSans-72" d="M 2631 2963 
Q 2534 3019 2420 3045 
Q 2306 3072 2169 3072 
Q 1681 3072 1420 2755 
Q 1159 2438 1159 1844 
L 1159 0 
L 581 0 
L 581 3500 
L 1159 3500 
L 1159 2956 
Q 1341 3275 1631 3429 
Q 1922 3584 2338 3584 
Q 2397 3584 2469 3576 
Q 2541 3569 2628 3553 
L 2631 2963 
z
" transform="scale(0.015625)"/>
      <path id="DejaVuSans-69" d="M 603 3500 
L 1178 3500 
L 1178 0 
L 603 0 
L 603 3500 
z
M 603 4863 
L 1178 4863 
L 1178 4134 
L 603 4134 
L 603 4863 
z
" transform="scale(0.015625)"/>
      <path id="DejaVuSans-76" d="M 191 3500 
L 800 3500 
L 1894 563 
L 2988 3500 
L 3597 3500 
L 2284 0 
L 1503 0 
L 191 3500 
z
" transform="scale(0.015625)"/>
      <path id="DejaVuSans-6c" d="M 603 4863 
L 1178 4863 
L 1178 0 
L 603 0 
L 603 4863 
z
" transform="scale(0.015625)"/>
      <path id="DejaVuSans-6a" d="M 603 3500 
L 1178 3500 
L 1178 -63 
Q 1178 -731 923 -1031 
Q 669 -1331 103 -1331 
L -116 -1331 
L -116 -844 
L 38 -844 
Q 366 -844 484 -692 
Q 603 -541 603 -63 
L 603 3500 
z
M 603 4863 
L 1178 4863 
L 1178 4134 
L 603 4134 
L 603 4863 
z
" transform="scale(0.015625)"/>
      <path id="DejaVuSans-7a" d="M 353 3500 
L 3084 3500 
L 3084 2975 
L 922 459 
L 3084 459 
L 3084 0 
L 275 0 
L 275 525 
L 2438 3041 
L 353 3041 
L 353 3500 
z
" transform="scale(0.015625)"/>
      <path id="DejaVuSans-65" d="M 3597 1894 
L 3597 1613 
L 953 1613 
Q 991 1019 1311 708 
Q 1631 397 2203 397 
Q 2534 397 2845 478 
Q 3156 559 3463 722 
L 3463 178 
Q 3153 47 2828 -22 
Q 2503 -91 2169 -91 
Q 1331 -91 842 396 
Q 353 884 353 1716 
Q 353 2575 817 3079 
Q 1281 3584 2069 3584 
Q 2775 3584 3186 3129 
Q 3597 2675 3597 1894 
z
M 3022 2063 
Q 3016 2534 2758 2815 
Q 2500 3097 2075 3097 
Q 1594 3097 1305 2825 
Q 1016 2553 972 2059 
L 3022 2063 
z
" transform="scale(0.015625)"/>
      <path id="DejaVuSans-74" d="M 1172 4494 
L 1172 3500 
L 2356 3500 
L 2356 3053 
L 1172 3053 
L 1172 1153 
Q 1172 725 1289 603 
Q 1406 481 1766 481 
L 2356 481 
L 2356 0 
L 1766 0 
Q 1100 0 847 248 
Q 594 497 594 1153 
L 594 3053 
L 172 3053 
L 172 3500 
L 594 3500 
L 594 4494 
L 1172 4494 
z
" transform="scale(0.015625)"/>
      <path id="DejaVuSans-6d" d="M 3328 2828 
Q 3544 3216 3844 3400 
Q 4144 3584 4550 3584 
Q 5097 3584 5394 3201 
Q 5691 2819 5691 2113 
L 5691 0 
L 5113 0 
L 5113 2094 
Q 5113 2597 4934 2840 
Q 4756 3084 4391 3084 
Q 3944 3084 3684 2787 
Q 3425 2491 3425 1978 
L 3425 0 
L 2847 0 
L 2847 2094 
Q 2847 2600 2669 2842 
Q 2491 3084 2119 3084 
Q 1678 3084 1418 2786 
Q 1159 2488 1159 1978 
L 1159 0 
L 581 0 
L 581 3500 
L 1159 3500 
L 1159 2956 
Q 1356 3278 1631 3431 
Q 1906 3584 2284 3584 
Q 2666 3584 2933 3390 
Q 3200 3197 3328 2828 
z
" transform="scale(0.015625)"/>
      <path id="DejaVuSans-62" d="M 3116 1747 
Q 3116 2381 2855 2742 
Q 2594 3103 2138 3103 
Q 1681 3103 1420 2742 
Q 1159 2381 1159 1747 
Q 1159 1113 1420 752 
Q 1681 391 2138 391 
Q 2594 391 2855 752 
Q 3116 1113 3116 1747 
z
M 1159 2969 
Q 1341 3281 1617 3432 
Q 1894 3584 2278 3584 
Q 2916 3584 3314 3078 
Q 3713 2572 3713 1747 
Q 3713 922 3314 415 
Q 2916 -91 2278 -91 
Q 1894 -91 1617 61 
Q 1341 213 1159 525 
L 1159 0 
L 581 0 
L 581 4863 
L 1159 4863 
L 1159 2969 
z
" transform="scale(0.015625)"/>
      <path id="DejaVuSans-63" d="M 3122 3366 
L 3122 2828 
Q 2878 2963 2633 3030 
Q 2388 3097 2138 3097 
Q 1578 3097 1268 2742 
Q 959 2388 959 1747 
Q 959 1106 1268 751 
Q 1578 397 2138 397 
Q 2388 397 2633 464 
Q 2878 531 3122 666 
L 3122 134 
Q 2881 22 2623 -34 
Q 2366 -91 2075 -91 
Q 1284 -91 818 406 
Q 353 903 353 1747 
Q 353 2603 823 3093 
Q 1294 3584 2113 3584 
Q 2378 3584 2631 3529 
Q 2884 3475 3122 3366 
z
" transform="scale(0.015625)"/>
     </defs>
     <use xlink:href="#DejaVuSans-50"/>
     <use xlink:href="#DejaVuSans-56" transform="translate(60.302734 0)"/>
     <use xlink:href="#DejaVuSans-20" transform="translate(128.710938 0)"/>
     <use xlink:href="#DejaVuSans-6b" transform="translate(160.498047 0)"/>
     <use xlink:href="#DejaVuSans-72" transform="translate(218.408203 0)"/>
     <use xlink:href="#DejaVuSans-69" transform="translate(259.521484 0)"/>
     <use xlink:href="#DejaVuSans-76" transform="translate(287.304688 0)"/>
     <use xlink:href="#DejaVuSans-75" transform="translate(346.484375 0)"/>
     <use xlink:href="#DejaVuSans-6c" transform="translate(409.863281 0)"/>
     <use xlink:href="#DejaVuSans-6a" transform="translate(437.646484 0)"/>
     <use xlink:href="#DejaVuSans-61" transform="translate(465.429688 0)"/>
     <use xlink:href="#DejaVuSans-20" transform="translate(526.708984 0)"/>
     <use xlink:href="#DejaVuSans-7a" transform="translate(558.496094 0)"/>
     <use xlink:href="#DejaVuSans-61" transform="translate(610.986328 0)"/>
     <use xlink:href="#DejaVuSans-20" transform="translate(672.265625 0)"/>
     <use xlink:href="#DejaVuSans-6a" transform="translate(704.052734 0)"/>
     <use xlink:href="#DejaVuSans-65" transform="translate(731.835938 0)"/>
     <use xlink:href="#DejaVuSans-64" transform="translate(793.359375 0)"/>
     <use xlink:href="#DejaVuSans-6e" transform="translate(856.835938 0)"/>
     <use xlink:href="#DejaVuSans-6f" transform="translate(920.214844 0)"/>
     <use xlink:href="#DejaVuSans-73" transform="translate(981.396484 0)"/>
     <use xlink:href="#DejaVuSans-74" transform="translate(1033.496094 0)"/>
     <use xlink:href="#DejaVuSans-61" transform="translate(1072.705078 0)"/>
     <use xlink:href="#DejaVuSans-76" transform="translate(1133.984375 0)"/>
     <use xlink:href="#DejaVuSans-6e" transform="translate(1193.164062 0)"/>
     <use xlink:href="#DejaVuSans-69" transform="translate(1256.542969 0)"/>
     <use xlink:href="#DejaVuSans-20" transform="translate(1284.326172 0)"/>
     <use xlink:href="#DejaVuSans-70" transform="translate(1316.113281 0)"/>
     <use xlink:href="#DejaVuSans-72" transform="translate(1379.589844 0)"/>
     <use xlink:href="#DejaVuSans-69" transform="translate(1420.703125 0)"/>
     <use xlink:href="#DejaVuSans-6d" transform="translate(1448.486328 0)"/>
     <use xlink:href="#DejaVuSans-6a" transform="translate(1545.898438 0)"/>
     <use xlink:href="#DejaVuSans-65" transform="translate(1573.681641 0)"/>
     <use xlink:href="#DejaVuSans-72" transform="translate(1635.205078 0)"/>
     <use xlink:href="#DejaVuSans-20" transform="translate(1676.318359 0)"/>
     <use xlink:href="#DejaVuSans-73" transform="translate(1708.105469 0)"/>
     <use xlink:href="#DejaVuSans-20" transform="translate(1760.205078 0)"/>
     <use xlink:href="#DejaVuSans-32" transform="translate(1791.992188 0)"/>
     <use xlink:href="#DejaVuSans-20" transform="translate(1855.615234 0)"/>
     <use xlink:href="#DejaVuSans-73" transform="translate(1887.402344 0)"/>
     <use xlink:href="#DejaVuSans-61" transform="translate(1939.501953 0)"/>
     <use xlink:href="#DejaVuSans-62" transform="translate(2000.78125 0)"/>
     <use xlink:href="#DejaVuSans-69" transform="translate(2064.257812 0)"/>
     <use xlink:href="#DejaVuSans-72" transform="translate(2092.041016 0)"/>
     <use xlink:href="#DejaVuSans-6e" transform="translate(2131.404297 0)"/>
     <use xlink:href="#DejaVuSans-69" transform="translate(2194.783203 0)"/>
     <use xlink:href="#DejaVuSans-63" transform="translate(2222.566406 0)"/>
     <use xlink:href="#DejaVuSans-65" transform="translate(2277.546875 0)"/>
    </g>
   </g>
   <g id="legend_1">
    <g id="patch_7">
     <path d="M 316.328125 380.218125 
L 408.828125 380.218125 
Q 410.828125 380.218125 410.828125 378.218125 
L 410.828125 276.318125 
Q 410.828125 274.318125 408.828125 274.318125 
L 316.328125 274.318125 
Q 314.328125 274.318125 314.328125 276.318125 
L 314.328125 378.218125 
Q 314.328125 380.218125 316.328125 380.218125 
z
" style="fill: #ffffff; opacity: 0.8; stroke: #cccccc; stroke-linejoin: miter"/>
    </g>
    <g id="line2d_40">
     <path d="M 318.328125 282.418125 
L 328.328125 282.418125 
L 338.328125 282.418125 
" style="fill: none; stroke: #ff0000; stroke-width: 2; stroke-linecap: square"/>
    </g>
    <g id="text_16">
     <!-- cos$\phi$ = 1 -->
     <g transform="translate(346.328125 285.918125) scale(0.1 -0.1)">
      <defs>
       <path id="DejaVuSans-Oblique-3d5" d="M 2991 4863 
L 2738 3572 
Q 3363 3572 3684 3094 
Q 4016 2606 3850 1747 
Q 3681 888 3159 400 
Q 2653 -78 2028 -78 
L 1784 -1331 
L 1213 -1331 
L 1456 -78 
Q 834 -78 509 400 
Q 178 888 347 1747 
Q 513 2606 1034 3094 
Q 1544 3572 2166 3572 
L 2419 4863 
L 2991 4863 
z
M 2128 434 
Q 2481 434 2784 756 
Q 3116 1116 3244 1747 
Q 3369 2372 3169 2738 
Q 2991 3059 2638 3059 
L 2128 434 
z
M 1556 434 
L 2066 3059 
Q 1716 3059 1413 2738 
Q 1072 2372 953 1747 
Q 834 1116 1028 756 
Q 1203 434 1556 434 
z
" transform="scale(0.015625)"/>
       <path id="DejaVuSans-3d" d="M 678 2906 
L 4684 2906 
L 4684 2381 
L 678 2381 
L 678 2906 
z
M 678 1631 
L 4684 1631 
L 4684 1100 
L 678 1100 
L 678 1631 
z
" transform="scale(0.015625)"/>
      </defs>
      <use xlink:href="#DejaVuSans-63" transform="translate(0 0.015625)"/>
      <use xlink:href="#DejaVuSans-6f" transform="translate(54.980469 0.015625)"/>
      <use xlink:href="#DejaVuSans-73" transform="translate(116.162109 0.015625)"/>
      <use xlink:href="#DejaVuSans-Oblique-3d5" transform="translate(168.261719 0.015625)"/>
      <use xlink:href="#DejaVuSans-20" transform="translate(234.228516 0.015625)"/>
      <use xlink:href="#DejaVuSans-3d" transform="translate(266.015625 0.015625)"/>
      <use xlink:href="#DejaVuSans-20" transform="translate(349.804688 0.015625)"/>
      <use xlink:href="#DejaVuSans-31" transform="translate(381.591797 0.015625)"/>
     </g>
    </g>
    <g id="line2d_41">
     <path d="M 318.328125 297.118125 
L 328.328125 297.118125 
L 338.328125 297.118125 
" style="fill: none; stroke: #008000; stroke-width: 2; stroke-linecap: square"/>
    </g>
    <g id="text_17">
     <!-- cos$\phi$ = 0.98 -->
     <g transform="translate(346.328125 300.618125) scale(0.1 -0.1)">
      <defs>
       <path id="DejaVuSans-39" d="M 703 97 
L 703 672 
Q 941 559 1184 500 
Q 1428 441 1663 441 
Q 2288 441 2617 861 
Q 2947 1281 2994 2138 
Q 2813 1869 2534 1725 
Q 2256 1581 1919 1581 
Q 1219 1581 811 2004 
Q 403 2428 403 3163 
Q 403 3881 828 4315 
Q 1253 4750 1959 4750 
Q 2769 4750 3195 4129 
Q 3622 3509 3622 2328 
Q 3622 1225 3098 567 
Q 2575 -91 1691 -91 
Q 1453 -91 1209 -44 
Q 966 3 703 97 
z
M 1959 2075 
Q 2384 2075 2632 2365 
Q 2881 2656 2881 3163 
Q 2881 3666 2632 3958 
Q 2384 4250 1959 4250 
Q 1534 4250 1286 3958 
Q 1038 3666 1038 3163 
Q 1038 2656 1286 2365 
Q 1534 2075 1959 2075 
z
" transform="scale(0.015625)"/>
      </defs>
      <use xlink:href="#DejaVuSans-63" transform="translate(0 0.015625)"/>
      <use xlink:href="#DejaVuSans-6f" transform="translate(54.980469 0.015625)"/>
      <use xlink:href="#DejaVuSans-73" transform="translate(116.162109 0.015625)"/>
      <use xlink:href="#DejaVuSans-Oblique-3d5" transform="translate(168.261719 0.015625)"/>
      <use xlink:href="#DejaVuSans-20" transform="translate(234.228516 0.015625)"/>
      <use xlink:href="#DejaVuSans-3d" transform="translate(266.015625 0.015625)"/>
      <use xlink:href="#DejaVuSans-20" transform="translate(349.804688 0.015625)"/>
      <use xlink:href="#DejaVuSans-30" transform="translate(381.591797 0.015625)"/>
      <use xlink:href="#DejaVuSans-2e" transform="translate(445.214844 0.015625)"/>
      <use xlink:href="#DejaVuSans-39" transform="translate(477.001953 0.015625)"/>
      <use xlink:href="#DejaVuSans-38" transform="translate(540.625 0.015625)"/>
     </g>
    </g>
    <g id="line2d_42">
     <path d="M 318.328125 311.818125 
L 328.328125 311.818125 
L 338.328125 311.818125 
" style="fill: none; stroke: #add8e6; stroke-width: 2; stroke-linecap: square"/>
    </g>
    <g id="text_18">
     <!-- cos$\phi$ = 0.95 -->
     <g transform="translate(346.328125 315.318125) scale(0.1 -0.1)">
      <use xlink:href="#DejaVuSans-63" transform="translate(0 0.015625)"/>
      <use xlink:href="#DejaVuSans-6f" transform="translate(54.980469 0.015625)"/>
      <use xlink:href="#DejaVuSans-73" transform="translate(116.162109 0.015625)"/>
      <use xlink:href="#DejaVuSans-Oblique-3d5" transform="translate(168.261719 0.015625)"/>
      <use xlink:href="#DejaVuSans-20" transform="translate(234.228516 0.015625)"/>
      <use xlink:href="#DejaVuSans-3d" transform="translate(266.015625 0.015625)"/>
      <use xlink:href="#DejaVuSans-20" transform="translate(349.804688 0.015625)"/>
      <use xlink:href="#DejaVuSans-30" transform="translate(381.591797 0.015625)"/>
      <use xlink:href="#DejaVuSans-2e" transform="translate(445.214844 0.015625)"/>
      <use xlink:href="#DejaVuSans-39" transform="translate(477.001953 0.015625)"/>
      <use xlink:href="#DejaVuSans-35" transform="translate(540.625 0.015625)"/>
     </g>
    </g>
    <g id="line2d_43">
     <path d="M 318.328125 326.518125 
L 328.328125 326.518125 
L 338.328125 326.518125 
" style="fill: none; stroke: #ffa07a; stroke-width: 2; stroke-linecap: square"/>
    </g>
    <g id="text_19">
     <!-- cos$\phi$ = 0.93 -->
     <g transform="translate(346.328125 330.018125) scale(0.1 -0.1)">
      <use xlink:href="#DejaVuSans-63" transform="translate(0 0.015625)"/>
      <use xlink:href="#DejaVuSans-6f" transform="translate(54.980469 0.015625)"/>
      <use xlink:href="#DejaVuSans-73" transform="translate(116.162109 0.015625)"/>
      <use xlink:href="#DejaVuSans-Oblique-3d5" transform="translate(168.261719 0.015625)"/>
      <use xlink:href="#DejaVuSans-20" transform="translate(234.228516 0.015625)"/>
      <use xlink:href="#DejaVuSans-3d" transform="translate(266.015625 0.015625)"/>
      <use xlink:href="#DejaVuSans-20" transform="translate(349.804688 0.015625)"/>
      <use xlink:href="#DejaVuSans-30" transform="translate(381.591797 0.015625)"/>
      <use xlink:href="#DejaVuSans-2e" transform="translate(445.214844 0.015625)"/>
      <use xlink:href="#DejaVuSans-39" transform="translate(477.001953 0.015625)"/>
      <use xlink:href="#DejaVuSans-33" transform="translate(540.625 0.015625)"/>
     </g>
    </g>
    <g id="line2d_44">
     <path d="M 318.328125 341.218125 
L 328.328125 341.218125 
L 338.328125 341.218125 
" style="fill: none; stroke: #ffc0cb; stroke-width: 2; stroke-linecap: square"/>
    </g>
    <g id="text_20">
     <!-- cos$\phi$ = 0.9 -->
     <g transform="translate(346.328125 344.718125) scale(0.1 -0.1)">
      <use xlink:href="#DejaVuSans-63" transform="translate(0 0.015625)"/>
      <use xlink:href="#DejaVuSans-6f" transform="translate(54.980469 0.015625)"/>
      <use xlink:href="#DejaVuSans-73" transform="translate(116.162109 0.015625)"/>
      <use xlink:href="#DejaVuSans-Oblique-3d5" transform="translate(168.261719 0.015625)"/>
      <use xlink:href="#DejaVuSans-20" transform="translate(234.228516 0.015625)"/>
      <use xlink:href="#DejaVuSans-3d" transform="translate(266.015625 0.015625)"/>
      <use xlink:href="#DejaVuSans-20" transform="translate(349.804688 0.015625)"/>
      <use xlink:href="#DejaVuSans-30" transform="translate(381.591797 0.015625)"/>
      <use xlink:href="#DejaVuSans-2e" transform="translate(445.214844 0.015625)"/>
      <use xlink:href="#DejaVuSans-39" transform="translate(477.001953 0.015625)"/>
     </g>
    </g>
    <g id="line2d_45">
     <path d="M 318.328125 355.918125 
L 328.328125 355.918125 
L 338.328125 355.918125 
" style="fill: none; stroke: #ee82ee; stroke-width: 2; stroke-linecap: square"/>
    </g>
    <g id="text_21">
     <!-- cos$\phi$ = 0.88 -->
     <g transform="translate(346.328125 359.418125) scale(0.1 -0.1)">
      <use xlink:href="#DejaVuSans-63" transform="translate(0 0.015625)"/>
      <use xlink:href="#DejaVuSans-6f" transform="translate(54.980469 0.015625)"/>
      <use xlink:href="#DejaVuSans-73" transform="translate(116.162109 0.015625)"/>
      <use xlink:href="#DejaVuSans-Oblique-3d5" transform="translate(168.261719 0.015625)"/>
      <use xlink:href="#DejaVuSans-20" transform="translate(234.228516 0.015625)"/>
      <use xlink:href="#DejaVuSans-3d" transform="translate(266.015625 0.015625)"/>
      <use xlink:href="#DejaVuSans-20" transform="translate(349.804688 0.015625)"/>
      <use xlink:href="#DejaVuSans-30" transform="translate(381.591797 0.015625)"/>
      <use xlink:href="#DejaVuSans-2e" transform="translate(445.214844 0.015625)"/>
      <use xlink:href="#DejaVuSans-38" transform="translate(474.376953 0.015625)"/>
      <use xlink:href="#DejaVuSans-38" transform="translate(538 0.015625)"/>
     </g>
    </g>
    <g id="line2d_46">
     <path d="M 318.328125 370.618125 
L 328.328125 370.618125 
L 338.328125 370.618125 
" style="fill: none; stroke: #ffd700; stroke-width: 2; stroke-linecap: square"/>
    </g>
    <g id="text_22">
     <!-- cos$\phi$ = 0.85 -->
     <g transform="translate(346.328125 374.118125) scale(0.1 -0.1)">
      <use xlink:href="#DejaVuSans-63" transform="translate(0 0.015625)"/>
      <use xlink:href="#DejaVuSans-6f" transform="translate(54.980469 0.015625)"/>
      <use xlink:href="#DejaVuSans-73" transform="translate(116.162109 0.015625)"/>
      <use xlink:href="#DejaVuSans-Oblique-3d5" transform="translate(168.261719 0.015625)"/>
      <use xlink:href="#DejaVuSans-20" transform="translate(234.228516 0.015625)"/>
      <use xlink:href="#DejaVuSans-3d" transform="translate(266.015625 0.015625)"/>
      <use xlink:href="#DejaVuSans-20" transform="translate(349.804688 0.015625)"/>
      <use xlink:href="#DejaVuSans-30" transform="translate(381.591797 0.015625)"/>
      <use xlink:href="#DejaVuSans-2e" transform="translate(445.214844 0.015625)"/>
      <use xlink:href="#DejaVuSans-38" transform="translate(474.376953 0.015625)"/>
      <use xlink:href="#DejaVuSans-35" transform="translate(538 0.015625)"/>
     </g>
    </g>
   </g>
  </g>
 </g>
 <defs>
  <clipPath id="p65242cb1f9">
   <rect x="43.803125" y="22.318125" width="372.025" height="362.9"/>
  </clipPath>
 </defs>
</svg>
