<?xml version="1.0" encoding="utf-8" standalone="no"?>
<!DOCTYPE svg PUBLIC "-//W3C//DTD SVG 1.1//EN"
  "http://www.w3.org/Graphics/SVG/1.1/DTD/svg11.dtd">
<svg xmlns:xlink="http://www.w3.org/1999/xlink" width="428.287812pt" height="421.278125pt" viewBox="0 0 428.287812 421.278125" xmlns="http://www.w3.org/2000/svg" version="1.1">
 <metadata>
  <rdf:RDF xmlns:dc="http://purl.org/dc/elements/1.1/" xmlns:cc="http://creativecommons.org/ns#" xmlns:rdf="http://www.w3.org/1999/02/22-rdf-syntax-ns#">
   <cc:Work>
    <dc:type rdf:resource="http://purl.org/dc/dcmitype/StillImage"/>
    <dc:date>2025-07-08T09:43:57.862192</dc:date>
    <dc:format>image/svg+xml</dc:format>
    <dc:creator>
     <cc:Agent>
      <dc:title>Matplotlib v3.10.0, https://matplotlib.org/</dc:title>
     </cc:Agent>
    </dc:creator>
   </cc:Work>
  </rdf:RDF>
 </metadata>
 <defs>
  <style type="text/css">*{stroke-linejoin: round; stroke-linecap: butt}</style>
 </defs>
 <g id="figure_1">
  <g id="patch_1">
   <path d="M 0 421.278125 
L 428.287812 421.278125 
L 428.287812 -0 
L 0 -0 
z
" style="fill: #ffffff"/>
  </g>
  <g id="axes_1">
   <g id="patch_2">
    <path d="M 52.182813 383.7 
L 415.832812 383.7 
L 415.832812 22.8 
L 52.182813 22.8 
z
" style="fill: #ffffff"/>
   </g>
   <g id="matplotlib.axis_1">
    <g id="xtick_1">
     <g id="line2d_1">
      <path d="M 52.182813 383.7 
L 52.182813 22.8 
" clip-path="url(#pdd6b970af5)" style="fill: none; stroke: #b0b0b0; stroke-width: 0.8; stroke-linecap: square"/>
     </g>
     <g id="line2d_2">
      <defs>
       <path id="mf94f28412d" d="M 0 0 
L 0 3.5 
" style="stroke: #000000; stroke-width: 0.8"/>
      </defs>
      <g>
       <use xlink:href="#mf94f28412d" x="52.182813" y="383.7" style="stroke: #000000; stroke-width: 0.8"/>
      </g>
     </g>
     <g id="text_1">
      <!-- 0.0 -->
      <g transform="translate(44.23125 398.298437) scale(0.1 -0.1)">
       <defs>
        <path id="DejaVuSans-30" d="M 2034 4250 
Q 1547 4250 1301 3770 
Q 1056 3291 1056 2328 
Q 1056 1369 1301 889 
Q 1547 409 2034 409 
Q 2525 409 2770 889 
Q 3016 1369 3016 2328 
Q 3016 3291 2770 3770 
Q 2525 4250 2034 4250 
z
M 2034 4750 
Q 2819 4750 3233 4129 
Q 3647 3509 3647 2328 
Q 3647 1150 3233 529 
Q 2819 -91 2034 -91 
Q 1250 -91 836 529 
Q 422 1150 422 2328 
Q 422 3509 836 4129 
Q 1250 4750 2034 4750 
z
" transform="scale(0.015625)"/>
        <path id="DejaVuSans-2e" d="M 684 794 
L 1344 794 
L 1344 0 
L 684 0 
L 684 794 
z
" transform="scale(0.015625)"/>
       </defs>
       <use xlink:href="#DejaVuSans-30"/>
       <use xlink:href="#DejaVuSans-2e" transform="translate(63.623047 0)"/>
       <use xlink:href="#DejaVuSans-30" transform="translate(95.410156 0)"/>
      </g>
     </g>
    </g>
    <g id="xtick_2">
     <g id="line2d_3">
      <path d="M 115.153109 383.7 
L 115.153109 22.8 
" clip-path="url(#pdd6b970af5)" style="fill: none; stroke: #b0b0b0; stroke-width: 0.8; stroke-linecap: square"/>
     </g>
     <g id="line2d_4">
      <g>
       <use xlink:href="#mf94f28412d" x="115.153109" y="383.7" style="stroke: #000000; stroke-width: 0.8"/>
      </g>
     </g>
     <g id="text_2">
      <!-- 0.2 -->
      <g transform="translate(107.201547 398.298437) scale(0.1 -0.1)">
       <defs>
        <path id="DejaVuSans-32" d="M 1228 531 
L 3431 531 
L 3431 0 
L 469 0 
L 469 531 
Q 828 903 1448 1529 
Q 2069 2156 2228 2338 
Q 2531 2678 2651 2914 
Q 2772 3150 2772 3378 
Q 2772 3750 2511 3984 
Q 2250 4219 1831 4219 
Q 1534 4219 1204 4116 
Q 875 4013 500 3803 
L 500 4441 
Q 881 4594 1212 4672 
Q 1544 4750 1819 4750 
Q 2544 4750 2975 4387 
Q 3406 4025 3406 3419 
Q 3406 3131 3298 2873 
Q 3191 2616 2906 2266 
Q 2828 2175 2409 1742 
Q 1991 1309 1228 531 
z
" transform="scale(0.015625)"/>
       </defs>
       <use xlink:href="#DejaVuSans-30"/>
       <use xlink:href="#DejaVuSans-2e" transform="translate(63.623047 0)"/>
       <use xlink:href="#DejaVuSans-32" transform="translate(95.410156 0)"/>
      </g>
     </g>
    </g>
    <g id="xtick_3">
     <g id="line2d_5">
      <path d="M 178.123406 383.7 
L 178.123406 22.8 
" clip-path="url(#pdd6b970af5)" style="fill: none; stroke: #b0b0b0; stroke-width: 0.8; stroke-linecap: square"/>
     </g>
     <g id="line2d_6">
      <g>
       <use xlink:href="#mf94f28412d" x="178.123406" y="383.7" style="stroke: #000000; stroke-width: 0.8"/>
      </g>
     </g>
     <g id="text_3">
      <!-- 0.4 -->
      <g transform="translate(170.171844 398.298437) scale(0.1 -0.1)">
       <defs>
        <path id="DejaVuSans-34" d="M 2419 4116 
L 825 1625 
L 2419 1625 
L 2419 4116 
z
M 2253 4666 
L 3047 4666 
L 3047 1625 
L 3713 1625 
L 3713 1100 
L 3047 1100 
L 3047 0 
L 2419 0 
L 2419 1100 
L 313 1100 
L 313 1709 
L 2253 4666 
z
" transform="scale(0.015625)"/>
       </defs>
       <use xlink:href="#DejaVuSans-30"/>
       <use xlink:href="#DejaVuSans-2e" transform="translate(63.623047 0)"/>
       <use xlink:href="#DejaVuSans-34" transform="translate(95.410156 0)"/>
      </g>
     </g>
    </g>
    <g id="xtick_4">
     <g id="line2d_7">
      <path d="M 241.093703 383.7 
L 241.093703 22.8 
" clip-path="url(#pdd6b970af5)" style="fill: none; stroke: #b0b0b0; stroke-width: 0.8; stroke-linecap: square"/>
     </g>
     <g id="line2d_8">
      <g>
       <use xlink:href="#mf94f28412d" x="241.093703" y="383.7" style="stroke: #000000; stroke-width: 0.8"/>
      </g>
     </g>
     <g id="text_4">
      <!-- 0.6 -->
      <g transform="translate(233.14214 398.298437) scale(0.1 -0.1)">
       <defs>
        <path id="DejaVuSans-36" d="M 2113 2584 
Q 1688 2584 1439 2293 
Q 1191 2003 1191 1497 
Q 1191 994 1439 701 
Q 1688 409 2113 409 
Q 2538 409 2786 701 
Q 3034 994 3034 1497 
Q 3034 2003 2786 2293 
Q 2538 2584 2113 2584 
z
M 3366 4563 
L 3366 3988 
Q 3128 4100 2886 4159 
Q 2644 4219 2406 4219 
Q 1781 4219 1451 3797 
Q 1122 3375 1075 2522 
Q 1259 2794 1537 2939 
Q 1816 3084 2150 3084 
Q 2853 3084 3261 2657 
Q 3669 2231 3669 1497 
Q 3669 778 3244 343 
Q 2819 -91 2113 -91 
Q 1303 -91 875 529 
Q 447 1150 447 2328 
Q 447 3434 972 4092 
Q 1497 4750 2381 4750 
Q 2619 4750 2861 4703 
Q 3103 4656 3366 4563 
z
" transform="scale(0.015625)"/>
       </defs>
       <use xlink:href="#DejaVuSans-30"/>
       <use xlink:href="#DejaVuSans-2e" transform="translate(63.623047 0)"/>
       <use xlink:href="#DejaVuSans-36" transform="translate(95.410156 0)"/>
      </g>
     </g>
    </g>
    <g id="xtick_5">
     <g id="line2d_9">
      <path d="M 304.064 383.7 
L 304.064 22.8 
" clip-path="url(#pdd6b970af5)" style="fill: none; stroke: #b0b0b0; stroke-width: 0.8; stroke-linecap: square"/>
     </g>
     <g id="line2d_10">
      <g>
       <use xlink:href="#mf94f28412d" x="304.064" y="383.7" style="stroke: #000000; stroke-width: 0.8"/>
      </g>
     </g>
     <g id="text_5">
      <!-- 0.8 -->
      <g transform="translate(296.112437 398.298437) scale(0.1 -0.1)">
       <defs>
        <path id="DejaVuSans-38" d="M 2034 2216 
Q 1584 2216 1326 1975 
Q 1069 1734 1069 1313 
Q 1069 891 1326 650 
Q 1584 409 2034 409 
Q 2484 409 2743 651 
Q 3003 894 3003 1313 
Q 3003 1734 2745 1975 
Q 2488 2216 2034 2216 
z
M 1403 2484 
Q 997 2584 770 2862 
Q 544 3141 544 3541 
Q 544 4100 942 4425 
Q 1341 4750 2034 4750 
Q 2731 4750 3128 4425 
Q 3525 4100 3525 3541 
Q 3525 3141 3298 2862 
Q 3072 2584 2669 2484 
Q 3125 2378 3379 2068 
Q 3634 1759 3634 1313 
Q 3634 634 3220 271 
Q 2806 -91 2034 -91 
Q 1263 -91 848 271 
Q 434 634 434 1313 
Q 434 1759 690 2068 
Q 947 2378 1403 2484 
z
M 1172 3481 
Q 1172 3119 1398 2916 
Q 1625 2713 2034 2713 
Q 2441 2713 2670 2916 
Q 2900 3119 2900 3481 
Q 2900 3844 2670 4047 
Q 2441 4250 2034 4250 
Q 1625 4250 1398 4047 
Q 1172 3844 1172 3481 
z
" transform="scale(0.015625)"/>
       </defs>
       <use xlink:href="#DejaVuSans-30"/>
       <use xlink:href="#DejaVuSans-2e" transform="translate(63.623047 0)"/>
       <use xlink:href="#DejaVuSans-38" transform="translate(95.410156 0)"/>
      </g>
     </g>
    </g>
    <g id="xtick_6">
     <g id="line2d_11">
      <path d="M 367.034297 383.7 
L 367.034297 22.8 
" clip-path="url(#pdd6b970af5)" style="fill: none; stroke: #b0b0b0; stroke-width: 0.8; stroke-linecap: square"/>
     </g>
     <g id="line2d_12">
      <g>
       <use xlink:href="#mf94f28412d" x="367.034297" y="383.7" style="stroke: #000000; stroke-width: 0.8"/>
      </g>
     </g>
     <g id="text_6">
      <!-- 1.0 -->
      <g transform="translate(359.082734 398.298437) scale(0.1 -0.1)">
       <defs>
        <path id="DejaVuSans-31" d="M 794 531 
L 1825 531 
L 1825 4091 
L 703 3866 
L 703 4441 
L 1819 4666 
L 2450 4666 
L 2450 531 
L 3481 531 
L 3481 0 
L 794 0 
L 794 531 
z
" transform="scale(0.015625)"/>
       </defs>
       <use xlink:href="#DejaVuSans-31"/>
       <use xlink:href="#DejaVuSans-2e" transform="translate(63.623047 0)"/>
       <use xlink:href="#DejaVuSans-30" transform="translate(95.410156 0)"/>
      </g>
     </g>
    </g>
    <g id="text_7">
     <!-- Napon $v_2$ (p.u.) -->
     <g transform="translate(195.857812 411.978125) scale(0.1 -0.1)">
      <defs>
       <path id="DejaVuSans-4e" d="M 628 4666 
L 1478 4666 
L 3547 763 
L 3547 4666 
L 4159 4666 
L 4159 0 
L 3309 0 
L 1241 3903 
L 1241 0 
L 628 0 
L 628 4666 
z
" transform="scale(0.015625)"/>
       <path id="DejaVuSans-61" d="M 2194 1759 
Q 1497 1759 1228 1600 
Q 959 1441 959 1056 
Q 959 750 1161 570 
Q 1363 391 1709 391 
Q 2188 391 2477 730 
Q 2766 1069 2766 1631 
L 2766 1759 
L 2194 1759 
z
M 3341 1997 
L 3341 0 
L 2766 0 
L 2766 531 
Q 2569 213 2275 61 
Q 1981 -91 1556 -91 
Q 1019 -91 701 211 
Q 384 513 384 1019 
Q 384 1609 779 1909 
Q 1175 2209 1959 2209 
L 2766 2209 
L 2766 2266 
Q 2766 2663 2505 2880 
Q 2244 3097 1772 3097 
Q 1472 3097 1187 3025 
Q 903 2953 641 2809 
L 641 3341 
Q 956 3463 1253 3523 
Q 1550 3584 1831 3584 
Q 2591 3584 2966 3190 
Q 3341 2797 3341 1997 
z
" transform="scale(0.015625)"/>
       <path id="DejaVuSans-70" d="M 1159 525 
L 1159 -1331 
L 581 -1331 
L 581 3500 
L 1159 3500 
L 1159 2969 
Q 1341 3281 1617 3432 
Q 1894 3584 2278 3584 
Q 2916 3584 3314 3078 
Q 3713 2572 3713 1747 
Q 3713 922 3314 415 
Q 2916 -91 2278 -91 
Q 1894 -91 1617 61 
Q 1341 213 1159 525 
z
M 3116 1747 
Q 3116 2381 2855 2742 
Q 2594 3103 2138 3103 
Q 1681 3103 1420 2742 
Q 1159 2381 1159 1747 
Q 1159 1113 1420 752 
Q 1681 391 2138 391 
Q 2594 391 2855 752 
Q 3116 1113 3116 1747 
z
" transform="scale(0.015625)"/>
       <path id="DejaVuSans-6f" d="M 1959 3097 
Q 1497 3097 1228 2736 
Q 959 2375 959 1747 
Q 959 1119 1226 758 
Q 1494 397 1959 397 
Q 2419 397 2687 759 
Q 2956 1122 2956 1747 
Q 2956 2369 2687 2733 
Q 2419 3097 1959 3097 
z
M 1959 3584 
Q 2709 3584 3137 3096 
Q 3566 2609 3566 1747 
Q 3566 888 3137 398 
Q 2709 -91 1959 -91 
Q 1206 -91 779 398 
Q 353 888 353 1747 
Q 353 2609 779 3096 
Q 1206 3584 1959 3584 
z
" transform="scale(0.015625)"/>
       <path id="DejaVuSans-6e" d="M 3513 2113 
L 3513 0 
L 2938 0 
L 2938 2094 
Q 2938 2591 2744 2837 
Q 2550 3084 2163 3084 
Q 1697 3084 1428 2787 
Q 1159 2491 1159 1978 
L 1159 0 
L 581 0 
L 581 3500 
L 1159 3500 
L 1159 2956 
Q 1366 3272 1645 3428 
Q 1925 3584 2291 3584 
Q 2894 3584 3203 3211 
Q 3513 2838 3513 2113 
z
" transform="scale(0.015625)"/>
       <path id="DejaVuSans-20" transform="scale(0.015625)"/>
       <path id="DejaVuSans-Oblique-76" d="M 459 3500 
L 1069 3500 
L 1581 525 
L 3256 3500 
L 3866 3500 
L 1875 0 
L 1100 0 
L 459 3500 
z
" transform="scale(0.015625)"/>
       <path id="DejaVuSans-28" d="M 1984 4856 
Q 1566 4138 1362 3434 
Q 1159 2731 1159 2009 
Q 1159 1288 1364 580 
Q 1569 -128 1984 -844 
L 1484 -844 
Q 1016 -109 783 600 
Q 550 1309 550 2009 
Q 550 2706 781 3412 
Q 1013 4119 1484 4856 
L 1984 4856 
z
" transform="scale(0.015625)"/>
       <path id="DejaVuSans-75" d="M 544 1381 
L 544 3500 
L 1119 3500 
L 1119 1403 
Q 1119 906 1312 657 
Q 1506 409 1894 409 
Q 2359 409 2629 706 
Q 2900 1003 2900 1516 
L 2900 3500 
L 3475 3500 
L 3475 0 
L 2900 0 
L 2900 538 
Q 2691 219 2414 64 
Q 2138 -91 1772 -91 
Q 1169 -91 856 284 
Q 544 659 544 1381 
z
M 1991 3584 
L 1991 3584 
z
" transform="scale(0.015625)"/>
       <path id="DejaVuSans-29" d="M 513 4856 
L 1013 4856 
Q 1481 4119 1714 3412 
Q 1947 2706 1947 2009 
Q 1947 1309 1714 600 
Q 1481 -109 1013 -844 
L 513 -844 
Q 928 -128 1133 580 
Q 1338 1288 1338 2009 
Q 1338 2731 1133 3434 
Q 928 4138 513 4856 
z
" transform="scale(0.015625)"/>
      </defs>
      <use xlink:href="#DejaVuSans-4e" transform="translate(0 0.125)"/>
      <use xlink:href="#DejaVuSans-61" transform="translate(74.804688 0.125)"/>
      <use xlink:href="#DejaVuSans-70" transform="translate(136.083984 0.125)"/>
      <use xlink:href="#DejaVuSans-6f" transform="translate(199.560547 0.125)"/>
      <use xlink:href="#DejaVuSans-6e" transform="translate(260.742188 0.125)"/>
      <use xlink:href="#DejaVuSans-20" transform="translate(324.121094 0.125)"/>
      <use xlink:href="#DejaVuSans-Oblique-76" transform="translate(355.908203 0.125)"/>
      <use xlink:href="#DejaVuSans-32" transform="translate(415.087891 -16.28125) scale(0.7)"/>
      <use xlink:href="#DejaVuSans-20" transform="translate(462.358398 0.125)"/>
      <use xlink:href="#DejaVuSans-28" transform="translate(494.145508 0.125)"/>
      <use xlink:href="#DejaVuSans-70" transform="translate(533.15918 0.125)"/>
      <use xlink:href="#DejaVuSans-2e" transform="translate(596.635742 0.125)"/>
      <use xlink:href="#DejaVuSans-75" transform="translate(628.422852 0.125)"/>
      <use xlink:href="#DejaVuSans-2e" transform="translate(691.801758 0.125)"/>
      <use xlink:href="#DejaVuSans-29" transform="translate(723.588867 0.125)"/>
     </g>
    </g>
   </g>
   <g id="matplotlib.axis_2">
    <g id="ytick_1">
     <g id="line2d_13">
      <path d="M 52.182813 371.072189 
L 415.832812 371.072189 
" clip-path="url(#pdd6b970af5)" style="fill: none; stroke: #b0b0b0; stroke-width: 0.8; stroke-linecap: square"/>
     </g>
     <g id="line2d_14">
      <defs>
       <path id="m7a5fbf3e3a" d="M 0 0 
L -3.5 0 
" style="stroke: #000000; stroke-width: 0.8"/>
      </defs>
      <g>
       <use xlink:href="#m7a5fbf3e3a" x="52.182813" y="371.072189" style="stroke: #000000; stroke-width: 0.8"/>
      </g>
     </g>
     <g id="text_8">
      <!-- −2.0 -->
      <g transform="translate(20.9 374.871408) scale(0.1 -0.1)">
       <defs>
        <path id="DejaVuSans-2212" d="M 678 2272 
L 4684 2272 
L 4684 1741 
L 678 1741 
L 678 2272 
z
" transform="scale(0.015625)"/>
       </defs>
       <use xlink:href="#DejaVuSans-2212"/>
       <use xlink:href="#DejaVuSans-32" transform="translate(83.789062 0)"/>
       <use xlink:href="#DejaVuSans-2e" transform="translate(147.412109 0)"/>
       <use xlink:href="#DejaVuSans-30" transform="translate(179.199219 0)"/>
      </g>
     </g>
    </g>
    <g id="ytick_2">
     <g id="line2d_15">
      <path d="M 52.182813 321.520628 
L 415.832812 321.520628 
" clip-path="url(#pdd6b970af5)" style="fill: none; stroke: #b0b0b0; stroke-width: 0.8; stroke-linecap: square"/>
     </g>
     <g id="line2d_16">
      <g>
       <use xlink:href="#m7a5fbf3e3a" x="52.182813" y="321.520628" style="stroke: #000000; stroke-width: 0.8"/>
      </g>
     </g>
     <g id="text_9">
      <!-- −1.5 -->
      <g transform="translate(20.9 325.319847) scale(0.1 -0.1)">
       <defs>
        <path id="DejaVuSans-35" d="M 691 4666 
L 3169 4666 
L 3169 4134 
L 1269 4134 
L 1269 2991 
Q 1406 3038 1543 3061 
Q 1681 3084 1819 3084 
Q 2600 3084 3056 2656 
Q 3513 2228 3513 1497 
Q 3513 744 3044 326 
Q 2575 -91 1722 -91 
Q 1428 -91 1123 -41 
Q 819 9 494 109 
L 494 744 
Q 775 591 1075 516 
Q 1375 441 1709 441 
Q 2250 441 2565 725 
Q 2881 1009 2881 1497 
Q 2881 1984 2565 2268 
Q 2250 2553 1709 2553 
Q 1456 2553 1204 2497 
Q 953 2441 691 2322 
L 691 4666 
z
" transform="scale(0.015625)"/>
       </defs>
       <use xlink:href="#DejaVuSans-2212"/>
       <use xlink:href="#DejaVuSans-31" transform="translate(83.789062 0)"/>
       <use xlink:href="#DejaVuSans-2e" transform="translate(147.412109 0)"/>
       <use xlink:href="#DejaVuSans-35" transform="translate(179.199219 0)"/>
      </g>
     </g>
    </g>
    <g id="ytick_3">
     <g id="line2d_17">
      <path d="M 52.182813 271.969068 
L 415.832812 271.969068 
" clip-path="url(#pdd6b970af5)" style="fill: none; stroke: #b0b0b0; stroke-width: 0.8; stroke-linecap: square"/>
     </g>
     <g id="line2d_18">
      <g>
       <use xlink:href="#m7a5fbf3e3a" x="52.182813" y="271.969068" style="stroke: #000000; stroke-width: 0.8"/>
      </g>
     </g>
     <g id="text_10">
      <!-- −1.0 -->
      <g transform="translate(20.9 275.768286) scale(0.1 -0.1)">
       <use xlink:href="#DejaVuSans-2212"/>
       <use xlink:href="#DejaVuSans-31" transform="translate(83.789062 0)"/>
       <use xlink:href="#DejaVuSans-2e" transform="translate(147.412109 0)"/>
       <use xlink:href="#DejaVuSans-30" transform="translate(179.199219 0)"/>
      </g>
     </g>
    </g>
    <g id="ytick_4">
     <g id="line2d_19">
      <path d="M 52.182813 222.417507 
L 415.832812 222.417507 
" clip-path="url(#pdd6b970af5)" style="fill: none; stroke: #b0b0b0; stroke-width: 0.8; stroke-linecap: square"/>
     </g>
     <g id="line2d_20">
      <g>
       <use xlink:href="#m7a5fbf3e3a" x="52.182813" y="222.417507" style="stroke: #000000; stroke-width: 0.8"/>
      </g>
     </g>
     <g id="text_11">
      <!-- −0.5 -->
      <g transform="translate(20.9 226.216725) scale(0.1 -0.1)">
       <use xlink:href="#DejaVuSans-2212"/>
       <use xlink:href="#DejaVuSans-30" transform="translate(83.789062 0)"/>
       <use xlink:href="#DejaVuSans-2e" transform="translate(147.412109 0)"/>
       <use xlink:href="#DejaVuSans-35" transform="translate(179.199219 0)"/>
      </g>
     </g>
    </g>
    <g id="ytick_5">
     <g id="line2d_21">
      <path d="M 52.182813 172.865946 
L 415.832812 172.865946 
" clip-path="url(#pdd6b970af5)" style="fill: none; stroke: #b0b0b0; stroke-width: 0.8; stroke-linecap: square"/>
     </g>
     <g id="line2d_22">
      <g>
       <use xlink:href="#m7a5fbf3e3a" x="52.182813" y="172.865946" style="stroke: #000000; stroke-width: 0.8"/>
      </g>
     </g>
     <g id="text_12">
      <!-- 0.0 -->
      <g transform="translate(29.279688 176.665164) scale(0.1 -0.1)">
       <use xlink:href="#DejaVuSans-30"/>
       <use xlink:href="#DejaVuSans-2e" transform="translate(63.623047 0)"/>
       <use xlink:href="#DejaVuSans-30" transform="translate(95.410156 0)"/>
      </g>
     </g>
    </g>
    <g id="ytick_6">
     <g id="line2d_23">
      <path d="M 52.182813 123.314385 
L 415.832812 123.314385 
" clip-path="url(#pdd6b970af5)" style="fill: none; stroke: #b0b0b0; stroke-width: 0.8; stroke-linecap: square"/>
     </g>
     <g id="line2d_24">
      <g>
       <use xlink:href="#m7a5fbf3e3a" x="52.182813" y="123.314385" style="stroke: #000000; stroke-width: 0.8"/>
      </g>
     </g>
     <g id="text_13">
      <!-- 0.5 -->
      <g transform="translate(29.279688 127.113604) scale(0.1 -0.1)">
       <use xlink:href="#DejaVuSans-30"/>
       <use xlink:href="#DejaVuSans-2e" transform="translate(63.623047 0)"/>
       <use xlink:href="#DejaVuSans-35" transform="translate(95.410156 0)"/>
      </g>
     </g>
    </g>
    <g id="ytick_7">
     <g id="line2d_25">
      <path d="M 52.182813 73.762824 
L 415.832812 73.762824 
" clip-path="url(#pdd6b970af5)" style="fill: none; stroke: #b0b0b0; stroke-width: 0.8; stroke-linecap: square"/>
     </g>
     <g id="line2d_26">
      <g>
       <use xlink:href="#m7a5fbf3e3a" x="52.182813" y="73.762824" style="stroke: #000000; stroke-width: 0.8"/>
      </g>
     </g>
     <g id="text_14">
      <!-- 1.0 -->
      <g transform="translate(29.279688 77.562043) scale(0.1 -0.1)">
       <use xlink:href="#DejaVuSans-31"/>
       <use xlink:href="#DejaVuSans-2e" transform="translate(63.623047 0)"/>
       <use xlink:href="#DejaVuSans-30" transform="translate(95.410156 0)"/>
      </g>
     </g>
    </g>
    <g id="ytick_8">
     <g id="line2d_27">
      <path d="M 52.182813 24.211263 
L 415.832812 24.211263 
" clip-path="url(#pdd6b970af5)" style="fill: none; stroke: #b0b0b0; stroke-width: 0.8; stroke-linecap: square"/>
     </g>
     <g id="line2d_28">
      <g>
       <use xlink:href="#m7a5fbf3e3a" x="52.182813" y="24.211263" style="stroke: #000000; stroke-width: 0.8"/>
      </g>
     </g>
     <g id="text_15">
      <!-- 1.5 -->
      <g transform="translate(29.279688 28.010482) scale(0.1 -0.1)">
       <use xlink:href="#DejaVuSans-31"/>
       <use xlink:href="#DejaVuSans-2e" transform="translate(63.623047 0)"/>
       <use xlink:href="#DejaVuSans-35" transform="translate(95.410156 0)"/>
      </g>
     </g>
    </g>
    <g id="text_16">
     <!-- Jalova snaga $q_2$ (p.u.) -->
     <g transform="translate(14.8 257.1) rotate(-90) scale(0.1 -0.1)">
      <defs>
       <path id="DejaVuSans-4a" d="M 628 4666 
L 1259 4666 
L 1259 325 
Q 1259 -519 939 -900 
Q 619 -1281 -91 -1281 
L -331 -1281 
L -331 -750 
L -134 -750 
Q 284 -750 456 -515 
Q 628 -281 628 325 
L 628 4666 
z
" transform="scale(0.015625)"/>
       <path id="DejaVuSans-6c" d="M 603 4863 
L 1178 4863 
L 1178 0 
L 603 0 
L 603 4863 
z
" transform="scale(0.015625)"/>
       <path id="DejaVuSans-76" d="M 191 3500 
L 800 3500 
L 1894 563 
L 2988 3500 
L 3597 3500 
L 2284 0 
L 1503 0 
L 191 3500 
z
" transform="scale(0.015625)"/>
       <path id="DejaVuSans-73" d="M 2834 3397 
L 2834 2853 
Q 2591 2978 2328 3040 
Q 2066 3103 1784 3103 
Q 1356 3103 1142 2972 
Q 928 2841 928 2578 
Q 928 2378 1081 2264 
Q 1234 2150 1697 2047 
L 1894 2003 
Q 2506 1872 2764 1633 
Q 3022 1394 3022 966 
Q 3022 478 2636 193 
Q 2250 -91 1575 -91 
Q 1294 -91 989 -36 
Q 684 19 347 128 
L 347 722 
Q 666 556 975 473 
Q 1284 391 1588 391 
Q 1994 391 2212 530 
Q 2431 669 2431 922 
Q 2431 1156 2273 1281 
Q 2116 1406 1581 1522 
L 1381 1569 
Q 847 1681 609 1914 
Q 372 2147 372 2553 
Q 372 3047 722 3315 
Q 1072 3584 1716 3584 
Q 2034 3584 2315 3537 
Q 2597 3491 2834 3397 
z
" transform="scale(0.015625)"/>
       <path id="DejaVuSans-67" d="M 2906 1791 
Q 2906 2416 2648 2759 
Q 2391 3103 1925 3103 
Q 1463 3103 1205 2759 
Q 947 2416 947 1791 
Q 947 1169 1205 825 
Q 1463 481 1925 481 
Q 2391 481 2648 825 
Q 2906 1169 2906 1791 
z
M 3481 434 
Q 3481 -459 3084 -895 
Q 2688 -1331 1869 -1331 
Q 1566 -1331 1297 -1286 
Q 1028 -1241 775 -1147 
L 775 -588 
Q 1028 -725 1275 -790 
Q 1522 -856 1778 -856 
Q 2344 -856 2625 -561 
Q 2906 -266 2906 331 
L 2906 616 
Q 2728 306 2450 153 
Q 2172 0 1784 0 
Q 1141 0 747 490 
Q 353 981 353 1791 
Q 353 2603 747 3093 
Q 1141 3584 1784 3584 
Q 2172 3584 2450 3431 
Q 2728 3278 2906 2969 
L 2906 3500 
L 3481 3500 
L 3481 434 
z
" transform="scale(0.015625)"/>
       <path id="DejaVuSans-Oblique-71" d="M 2669 525 
Q 2438 222 2123 65 
Q 1809 -91 1428 -91 
Q 897 -91 595 267 
Q 294 625 294 1253 
Q 294 1759 480 2231 
Q 666 2703 1013 3078 
Q 1238 3322 1530 3453 
Q 1822 3584 2144 3584 
Q 2531 3584 2781 3431 
Q 3031 3278 3144 2969 
L 3244 3494 
L 3822 3494 
L 2888 -1319 
L 2309 -1319 
L 2669 525 
z
M 891 1338 
Q 891 875 1084 633 
Q 1278 391 1644 391 
Q 2188 391 2572 911 
Q 2956 1431 2956 2175 
Q 2956 2625 2757 2864 
Q 2559 3103 2188 3103 
Q 1916 3103 1684 2976 
Q 1453 2850 1281 2606 
Q 1100 2350 995 2006 
Q 891 1663 891 1338 
z
" transform="scale(0.015625)"/>
      </defs>
      <use xlink:href="#DejaVuSans-4a" transform="translate(0 0.015625)"/>
      <use xlink:href="#DejaVuSans-61" transform="translate(29.492188 0.015625)"/>
      <use xlink:href="#DejaVuSans-6c" transform="translate(90.771484 0.015625)"/>
      <use xlink:href="#DejaVuSans-6f" transform="translate(118.554688 0.015625)"/>
      <use xlink:href="#DejaVuSans-76" transform="translate(179.736328 0.015625)"/>
      <use xlink:href="#DejaVuSans-61" transform="translate(238.916016 0.015625)"/>
      <use xlink:href="#DejaVuSans-20" transform="translate(300.195312 0.015625)"/>
      <use xlink:href="#DejaVuSans-73" transform="translate(331.982422 0.015625)"/>
      <use xlink:href="#DejaVuSans-6e" transform="translate(384.082031 0.015625)"/>
      <use xlink:href="#DejaVuSans-61" transform="translate(447.460938 0.015625)"/>
      <use xlink:href="#DejaVuSans-67" transform="translate(508.740234 0.015625)"/>
      <use xlink:href="#DejaVuSans-61" transform="translate(572.216797 0.015625)"/>
      <use xlink:href="#DejaVuSans-20" transform="translate(633.496094 0.015625)"/>
      <use xlink:href="#DejaVuSans-Oblique-71" transform="translate(665.283203 0.015625)"/>
      <use xlink:href="#DejaVuSans-32" transform="translate(728.759766 -16.390625) scale(0.7)"/>
      <use xlink:href="#DejaVuSans-20" transform="translate(776.030273 0.015625)"/>
      <use xlink:href="#DejaVuSans-28" transform="translate(807.817383 0.015625)"/>
      <use xlink:href="#DejaVuSans-70" transform="translate(846.831055 0.015625)"/>
      <use xlink:href="#DejaVuSans-2e" transform="translate(910.307617 0.015625)"/>
      <use xlink:href="#DejaVuSans-75" transform="translate(942.094727 0.015625)"/>
      <use xlink:href="#DejaVuSans-2e" transform="translate(1005.473633 0.015625)"/>
      <use xlink:href="#DejaVuSans-29" transform="translate(1037.260742 0.015625)"/>
     </g>
    </g>
   </g>
   <g id="line2d_29">
    <path d="M 52.252094 172.865946 
L 366.996507 172.865946 
L 366.996507 172.865946 
" clip-path="url(#pdd6b970af5)" style="fill: none; stroke: #ff0000; stroke-width: 2; stroke-linecap: square"/>
   </g>
   <g id="line2d_30">
    <defs>
     <path id="mfc36d1a198" d="M -2 4 
L 0 2 
L 2 4 
L 4 2 
L 2 0 
L 4 -2 
L 2 -4 
L 0 -2 
L -2 -4 
L -4 -2 
L -2 0 
L -4 2 
z
" style="stroke: #000000; stroke-linejoin: miter"/>
    </defs>
    <g clip-path="url(#pdd6b970af5)">
     <use xlink:href="#mfc36d1a198" x="59.249493" y="172.865946" style="fill: #ff0000; stroke: #000000; stroke-linejoin: miter"/>
    </g>
   </g>
   <g id="line2d_31">
    <path d="M 52.252094 172.959848 
L 59.318774 182.350346 
L 66.454736 191.467333 
L 73.659979 200.314724 
L 80.865222 208.813688 
L 88.070465 216.972743 
L 95.275708 224.797866 
L 102.41167 232.222319 
L 109.478351 239.257305 
L 116.47575 245.912267 
L 123.403868 252.195205 
L 130.193424 258.054679 
L 136.913699 263.56089 
L 143.495411 268.666708 
L 149.938561 273.385686 
L 156.243149 277.730898 
L 162.409174 281.715075 
L 168.505918 285.39098 
L 174.4641 288.72468 
L 180.283719 291.728405 
L 185.964776 294.414335 
L 191.576552 296.822868 
L 197.049766 298.931932 
L 202.453698 300.77589 
L 207.719068 302.338831 
L 212.915156 303.64909 
L 217.972683 304.697061 
L 222.960928 305.505026 
L 227.879892 306.07627 
L 232.729575 306.414085 
L 237.440695 306.521838 
L 242.082534 306.409397 
L 246.724374 306.073543 
L 251.296932 305.517635 
L 255.800209 304.745023 
L 260.234204 303.759066 
L 264.598919 302.563133 
L 268.963633 301.136099 
L 273.259067 299.498299 
L 277.5545 297.620658 
L 281.780652 295.530571 
L 286.006804 293.190458 
L 290.163675 290.635059 
L 294.320546 287.817619 
L 298.408136 284.780519 
L 302.495726 281.467002 
L 306.583315 277.863822 
L 310.601624 274.025102 
L 314.619933 269.876574 
L 318.56896 265.480686 
L 322.517987 260.749667 
L 326.397734 255.754411 
L 330.27748 250.391347 
L 334.087945 244.739662 
L 337.829129 238.790712 
L 341.501032 232.533591 
L 345.103653 225.954526 
L 348.636993 219.036075 
L 352.101053 211.756001 
L 355.426549 204.247977 
L 358.682765 196.337842 
L 361.800418 188.170011 
L 364.779509 179.732559 
L 367.620037 171.005672 
L 370.252722 162.200301 
L 372.746845 153.073108 
L 375.033124 143.85648 
L 377.111559 134.555135 
L 378.982151 125.163957 
L 380.6449 115.660143 
L 382.030523 106.485758 
L 383.208304 97.224475 
L 384.108959 88.514547 
L 384.801771 79.810967 
L 385.286739 70.89615 
L 385.494583 64.135266 
L 385.494583 64.135266 
" clip-path="url(#pdd6b970af5)" style="fill: none; stroke: #008000; stroke-width: 2; stroke-linecap: square"/>
   </g>
   <g id="line2d_32">
    <defs>
     <path id="m5116916de9" d="M -2 4 
L 0 2 
L 2 4 
L 4 2 
L 2 0 
L 4 -2 
L 2 -4 
L 0 -2 
L -2 -4 
L -4 -2 
L -2 0 
L -4 2 
z
" style="stroke: #000000; stroke-linejoin: miter"/>
    </defs>
    <g clip-path="url(#pdd6b970af5)">
     <use xlink:href="#m5116916de9" x="237.371414" y="306.521857" style="fill: #008000; stroke: #000000; stroke-linejoin: miter"/>
    </g>
   </g>
   <g id="line2d_33">
    <path d="M 52.252094 172.993807 
L 59.388056 185.928493 
L 66.454736 198.280245 
L 73.452136 210.063462 
L 80.310973 221.181057 
L 87.100529 231.763655 
L 93.751522 241.720524 
L 100.263953 251.074388 
L 106.707103 259.940403 
L 113.011691 268.2383 
L 119.177716 275.988856 
L 125.205179 283.212373 
L 131.09408 289.928764 
L 136.913699 296.23066 
L 142.594756 302.056472 
L 148.137251 307.425412 
L 153.541183 312.356493 
L 158.875834 316.925978 
L 164.071923 321.087507 
L 169.19873 324.909502 
L 174.186975 328.353214 
L 179.105939 331.479348 
L 183.886341 334.256733 
L 188.597461 336.738464 
L 193.239301 338.931756 
L 197.742577 340.816734 
L 202.176573 342.435253 
L 206.541288 343.794613 
L 210.836721 344.902142 
L 215.062873 345.765204 
L 219.219744 346.391194 
L 223.376615 346.792366 
L 227.464205 346.963871 
L 231.482513 346.913212 
L 235.500822 346.641351 
L 239.519131 346.144325 
L 243.468158 345.432487 
L 247.417185 344.495086 
L 251.366213 343.327834 
L 255.31524 341.926242 
L 259.264268 340.285605 
L 263.213295 338.400986 
L 267.162322 336.267192 
L 271.11135 333.878761 
L 275.060377 331.229928 
L 279.009405 328.314606 
L 283.027713 325.067939 
L 287.046022 321.53147 
L 291.064331 317.697531 
L 295.082639 313.55794 
L 299.170229 309.024344 
L 303.257819 304.155526 
L 307.345408 298.940836 
L 311.502279 293.271173 
L 315.65915 287.218769 
L 319.816021 280.76929 
L 323.972892 273.907033 
L 328.129763 266.614711 
L 332.286634 258.873189 
L 336.443505 250.661166 
L 340.600376 241.954772 
L 344.757247 232.727067 
L 348.914118 222.9474 
L 353.001708 212.758386 
L 357.089298 201.962885 
L 361.107606 190.715276 
L 365.056634 178.998512 
L 368.93638 166.790832 
L 372.746845 154.064418 
L 376.488029 140.783514 
L 380.09065 127.172065 
L 383.554709 113.224293 
L 386.880206 98.927246 
L 390.067141 84.258019 
L 393.115513 69.179453 
L 395.956041 54.01832 
L 398.519445 39.204545 
L 398.519445 39.204545 
" clip-path="url(#pdd6b970af5)" style="fill: none; stroke: #add8e6; stroke-width: 2; stroke-linecap: square"/>
   </g>
   <g id="line2d_34">
    <defs>
     <path id="m05169a4d41" d="M -2 4 
L 0 2 
L 2 4 
L 4 2 
L 2 0 
L 4 -2 
L 2 -4 
L 0 -2 
L -2 -4 
L -4 -2 
L -2 0 
L -4 2 
z
" style="stroke: #000000; stroke-linejoin: miter"/>
    </defs>
    <g clip-path="url(#pdd6b970af5)">
     <use xlink:href="#m05169a4d41" x="228.572704" y="346.971769" style="fill: #add8e6; stroke: #000000; stroke-linejoin: miter"/>
    </g>
   </g>
   <g id="line2d_35">
    <path d="M 52.252094 173.012692 
L 59.318774 187.719211 
L 66.246893 201.631676 
L 73.036448 214.775981 
L 79.756723 227.304089 
L 86.338436 239.104283 
L 92.781586 250.201044 
L 99.086173 260.61849 
L 105.252198 270.380434 
L 111.279661 279.510425 
L 117.168562 288.031781 
L 122.9189 295.967611 
L 128.530676 303.340832 
L 134.07317 310.258389 
L 139.477103 316.649677 
L 144.742473 322.537248 
L 149.938561 328.014313 
L 154.996088 333.023542 
L 159.915052 337.587134 
L 164.764734 341.784941 
L 169.475855 345.572513 
L 174.117694 349.021029 
L 178.620971 352.094433 
L 183.054967 354.855374 
L 187.419681 357.31297 
L 191.715115 359.476358 
L 195.941267 361.35469 
L 200.098138 362.957133 
L 204.185727 364.292867 
L 208.204036 365.371085 
L 212.153063 366.200986 
L 216.03281 366.791779 
L 219.912556 367.157208 
L 223.723021 367.293972 
L 227.533486 367.207781 
L 231.27467 366.903456 
L 235.015854 366.378614 
L 238.757038 365.630349 
L 242.498221 364.655667 
L 246.239405 363.451472 
L 249.980589 362.014565 
L 253.721773 360.341638 
L 257.532238 358.391571 
L 261.342703 356.189357 
L 265.153168 353.731103 
L 269.032914 350.960908 
L 272.912661 347.916642 
L 276.861688 344.531778 
L 280.810715 340.85308 
L 284.829024 336.802734 
L 288.847333 332.436764 
L 292.934922 327.665324 
L 297.091793 322.464479 
L 301.248664 316.904647 
L 305.474817 310.875895 
L 309.700969 304.458922 
L 313.996402 297.529189 
L 318.291835 290.178051 
L 322.65655 282.265042 
L 327.021264 273.892521 
L 331.45526 264.902485 
L 335.889256 255.408569 
L 340.392533 245.233214 
L 344.89581 234.501462 
L 349.399086 223.192195 
L 353.902363 211.282138 
L 358.40564 198.7455 
L 362.908917 185.553523 
L 367.412194 171.67393 
L 371.915471 157.07022 
L 376.418748 141.700768 
L 380.852743 125.773056 
L 385.286739 109.003392 
L 389.651454 91.612805 
L 393.946887 73.573959 
L 398.173039 54.852008 
L 398.519445 53.271793 
L 398.519445 53.271793 
" clip-path="url(#pdd6b970af5)" style="fill: none; stroke: #ffa07a; stroke-width: 2; stroke-linecap: square"/>
   </g>
   <g id="line2d_36">
    <defs>
     <path id="m5bc8e57797" d="M -2 4 
L 0 2 
L 2 4 
L 4 2 
L 2 0 
L 4 -2 
L 2 -4 
L 0 -2 
L -2 -4 
L -4 -2 
L -2 0 
L -4 2 
z
" style="stroke: #000000; stroke-linejoin: miter"/>
    </defs>
    <g clip-path="url(#pdd6b970af5)">
     <use xlink:href="#m5bc8e57797" x="224.138708" y="367.295455" style="fill: #ffa07a; stroke: #000000; stroke-linejoin: miter"/>
    </g>
   </g>
   <g id="patch_3">
    <path d="M 52.182813 383.7 
L 52.182813 22.8 
" style="fill: none; stroke: #000000; stroke-width: 0.8; stroke-linejoin: miter; stroke-linecap: square"/>
   </g>
   <g id="patch_4">
    <path d="M 415.832812 383.7 
L 415.832812 22.8 
" style="fill: none; stroke: #000000; stroke-width: 0.8; stroke-linejoin: miter; stroke-linecap: square"/>
   </g>
   <g id="patch_5">
    <path d="M 52.182813 383.7 
L 415.832812 383.7 
" style="fill: none; stroke: #000000; stroke-width: 0.8; stroke-linejoin: miter; stroke-linecap: square"/>
   </g>
   <g id="patch_6">
    <path d="M 52.182813 22.8 
L 415.832812 22.8 
" style="fill: none; stroke: #000000; stroke-width: 0.8; stroke-linejoin: miter; stroke-linecap: square"/>
   </g>
   <g id="text_17">
    <!-- Q-V krivulje s označenim kritičnim točkama gdje je $dQ/dV_2 = 0$ -->
    <g transform="translate(46.927813 16.8) scale(0.12 -0.12)">
     <defs>
      <path id="DejaVuSans-51" d="M 2522 4238 
Q 1834 4238 1429 3725 
Q 1025 3213 1025 2328 
Q 1025 1447 1429 934 
Q 1834 422 2522 422 
Q 3209 422 3611 934 
Q 4013 1447 4013 2328 
Q 4013 3213 3611 3725 
Q 3209 4238 2522 4238 
z
M 3406 84 
L 4238 -825 
L 3475 -825 
L 2784 -78 
Q 2681 -84 2626 -87 
Q 2572 -91 2522 -91 
Q 1538 -91 948 567 
Q 359 1225 359 2328 
Q 359 3434 948 4092 
Q 1538 4750 2522 4750 
Q 3503 4750 4090 4092 
Q 4678 3434 4678 2328 
Q 4678 1516 4351 937 
Q 4025 359 3406 84 
z
" transform="scale(0.015625)"/>
      <path id="DejaVuSans-2d" d="M 313 2009 
L 1997 2009 
L 1997 1497 
L 313 1497 
L 313 2009 
z
" transform="scale(0.015625)"/>
      <path id="DejaVuSans-56" d="M 1831 0 
L 50 4666 
L 709 4666 
L 2188 738 
L 3669 4666 
L 4325 4666 
L 2547 0 
L 1831 0 
z
" transform="scale(0.015625)"/>
      <path id="DejaVuSans-6b" d="M 581 4863 
L 1159 4863 
L 1159 1991 
L 2875 3500 
L 3609 3500 
L 1753 1863 
L 3688 0 
L 2938 0 
L 1159 1709 
L 1159 0 
L 581 0 
L 581 4863 
z
" transform="scale(0.015625)"/>
      <path id="DejaVuSans-72" d="M 2631 2963 
Q 2534 3019 2420 3045 
Q 2306 3072 2169 3072 
Q 1681 3072 1420 2755 
Q 1159 2438 1159 1844 
L 1159 0 
L 581 0 
L 581 3500 
L 1159 3500 
L 1159 2956 
Q 1341 3275 1631 3429 
Q 1922 3584 2338 3584 
Q 2397 3584 2469 3576 
Q 2541 3569 2628 3553 
L 2631 2963 
z
" transform="scale(0.015625)"/>
      <path id="DejaVuSans-69" d="M 603 3500 
L 1178 3500 
L 1178 0 
L 603 0 
L 603 3500 
z
M 603 4863 
L 1178 4863 
L 1178 4134 
L 603 4134 
L 603 4863 
z
" transform="scale(0.015625)"/>
      <path id="DejaVuSans-6a" d="M 603 3500 
L 1178 3500 
L 1178 -63 
Q 1178 -731 923 -1031 
Q 669 -1331 103 -1331 
L -116 -1331 
L -116 -844 
L 38 -844 
Q 366 -844 484 -692 
Q 603 -541 603 -63 
L 603 3500 
z
M 603 4863 
L 1178 4863 
L 1178 4134 
L 603 4134 
L 603 4863 
z
" transform="scale(0.015625)"/>
      <path id="DejaVuSans-65" d="M 3597 1894 
L 3597 1613 
L 953 1613 
Q 991 1019 1311 708 
Q 1631 397 2203 397 
Q 2534 397 2845 478 
Q 3156 559 3463 722 
L 3463 178 
Q 3153 47 2828 -22 
Q 2503 -91 2169 -91 
Q 1331 -91 842 396 
Q 353 884 353 1716 
Q 353 2575 817 3079 
Q 1281 3584 2069 3584 
Q 2775 3584 3186 3129 
Q 3597 2675 3597 1894 
z
M 3022 2063 
Q 3016 2534 2758 2815 
Q 2500 3097 2075 3097 
Q 1594 3097 1305 2825 
Q 1016 2553 972 2059 
L 3022 2063 
z
" transform="scale(0.015625)"/>
      <path id="DejaVuSans-7a" d="M 353 3500 
L 3084 3500 
L 3084 2975 
L 922 459 
L 3084 459 
L 3084 0 
L 275 0 
L 275 525 
L 2438 3041 
L 353 3041 
L 353 3500 
z
" transform="scale(0.015625)"/>
      <path id="DejaVuSans-10d" d="M 3122 3366 
L 3122 2828 
Q 2878 2963 2633 3030 
Q 2388 3097 2138 3097 
Q 1578 3097 1268 2742 
Q 959 2388 959 1747 
Q 959 1106 1268 751 
Q 1578 397 2138 397 
Q 2388 397 2633 464 
Q 2878 531 3122 666 
L 3122 134 
Q 2881 22 2623 -34 
Q 2366 -91 2075 -91 
Q 1284 -91 818 406 
Q 353 903 353 1747 
Q 353 2603 823 3093 
Q 1294 3584 2113 3584 
Q 2378 3584 2631 3529 
Q 2884 3475 3122 3366 
z
M 1797 3944 
L 1031 5119 
L 1466 5119 
L 2028 4353 
L 2591 5119 
L 3025 5119 
L 2259 3944 
L 1797 3944 
z
" transform="scale(0.015625)"/>
      <path id="DejaVuSans-6d" d="M 3328 2828 
Q 3544 3216 3844 3400 
Q 4144 3584 4550 3584 
Q 5097 3584 5394 3201 
Q 5691 2819 5691 2113 
L 5691 0 
L 5113 0 
L 5113 2094 
Q 5113 2597 4934 2840 
Q 4756 3084 4391 3084 
Q 3944 3084 3684 2787 
Q 3425 2491 3425 1978 
L 3425 0 
L 2847 0 
L 2847 2094 
Q 2847 2600 2669 2842 
Q 2491 3084 2119 3084 
Q 1678 3084 1418 2786 
Q 1159 2488 1159 1978 
L 1159 0 
L 581 0 
L 581 3500 
L 1159 3500 
L 1159 2956 
Q 1356 3278 1631 3431 
Q 1906 3584 2284 3584 
Q 2666 3584 2933 3390 
Q 3200 3197 3328 2828 
z
" transform="scale(0.015625)"/>
      <path id="DejaVuSans-74" d="M 1172 4494 
L 1172 3500 
L 2356 3500 
L 2356 3053 
L 1172 3053 
L 1172 1153 
Q 1172 725 1289 603 
Q 1406 481 1766 481 
L 2356 481 
L 2356 0 
L 1766 0 
Q 1100 0 847 248 
Q 594 497 594 1153 
L 594 3053 
L 172 3053 
L 172 3500 
L 594 3500 
L 594 4494 
L 1172 4494 
z
" transform="scale(0.015625)"/>
      <path id="DejaVuSans-64" d="M 2906 2969 
L 2906 4863 
L 3481 4863 
L 3481 0 
L 2906 0 
L 2906 525 
Q 2725 213 2448 61 
Q 2172 -91 1784 -91 
Q 1150 -91 751 415 
Q 353 922 353 1747 
Q 353 2572 751 3078 
Q 1150 3584 1784 3584 
Q 2172 3584 2448 3432 
Q 2725 3281 2906 2969 
z
M 947 1747 
Q 947 1113 1208 752 
Q 1469 391 1925 391 
Q 2381 391 2643 752 
Q 2906 1113 2906 1747 
Q 2906 2381 2643 2742 
Q 2381 3103 1925 3103 
Q 1469 3103 1208 2742 
Q 947 2381 947 1747 
z
" transform="scale(0.015625)"/>
      <path id="DejaVuSans-Oblique-64" d="M 2675 525 
Q 2444 222 2128 65 
Q 1813 -91 1428 -91 
Q 903 -91 598 267 
Q 294 625 294 1247 
Q 294 1766 478 2236 
Q 663 2706 1013 3078 
Q 1244 3325 1534 3454 
Q 1825 3584 2144 3584 
Q 2481 3584 2739 3421 
Q 2997 3259 3138 2956 
L 3513 4863 
L 4091 4863 
L 3144 0 
L 2566 0 
L 2675 525 
z
M 891 1350 
Q 891 897 1095 644 
Q 1300 391 1663 391 
Q 1931 391 2161 520 
Q 2391 650 2566 903 
Q 2750 1166 2856 1509 
Q 2963 1853 2963 2188 
Q 2963 2622 2758 2865 
Q 2553 3109 2194 3109 
Q 1922 3109 1687 2981 
Q 1453 2853 1288 2613 
Q 1106 2353 998 2009 
Q 891 1666 891 1350 
z
" transform="scale(0.015625)"/>
      <path id="DejaVuSans-Oblique-51" d="M 2309 -84 
Q 2275 -88 2237 -89 
Q 2200 -91 2125 -91 
Q 1250 -91 756 411 
Q 263 913 263 1797 
Q 263 2319 452 2844 
Q 641 3369 978 3788 
Q 1369 4269 1858 4509 
Q 2347 4750 2938 4750 
Q 3794 4750 4287 4245 
Q 4781 3741 4781 2869 
Q 4781 1928 4265 1147 
Q 3750 366 2919 44 
L 3553 -825 
L 2847 -825 
L 2309 -84 
z
M 2919 4238 
Q 2400 4238 2003 3986 
Q 1606 3734 1313 3219 
Q 1125 2891 1026 2522 
Q 928 2153 928 1778 
Q 928 1128 1239 775 
Q 1550 422 2119 422 
Q 2631 422 3032 676 
Q 3434 931 3719 1434 
Q 3909 1772 4009 2142 
Q 4109 2513 4109 2881 
Q 4109 3528 3796 3883 
Q 3484 4238 2919 4238 
z
" transform="scale(0.015625)"/>
      <path id="DejaVuSans-2f" d="M 1625 4666 
L 2156 4666 
L 531 -594 
L 0 -594 
L 1625 4666 
z
" transform="scale(0.015625)"/>
      <path id="DejaVuSans-Oblique-56" d="M 1319 0 
L 500 4666 
L 1119 4666 
L 1797 653 
L 4063 4666 
L 4750 4666 
L 2053 0 
L 1319 0 
z
" transform="scale(0.015625)"/>
      <path id="DejaVuSans-3d" d="M 678 2906 
L 4684 2906 
L 4684 2381 
L 678 2381 
L 678 2906 
z
M 678 1631 
L 4684 1631 
L 4684 1100 
L 678 1100 
L 678 1631 
z
" transform="scale(0.015625)"/>
     </defs>
     <use xlink:href="#DejaVuSans-51" transform="translate(0 0.015625)"/>
     <use xlink:href="#DejaVuSans-2d" transform="translate(78.710938 0.015625)"/>
     <use xlink:href="#DejaVuSans-56" transform="translate(114.794922 0.015625)"/>
     <use xlink:href="#DejaVuSans-20" transform="translate(183.203125 0.015625)"/>
     <use xlink:href="#DejaVuSans-6b" transform="translate(214.990234 0.015625)"/>
     <use xlink:href="#DejaVuSans-72" transform="translate(272.900391 0.015625)"/>
     <use xlink:href="#DejaVuSans-69" transform="translate(314.013672 0.015625)"/>
     <use xlink:href="#DejaVuSans-76" transform="translate(341.796875 0.015625)"/>
     <use xlink:href="#DejaVuSans-75" transform="translate(400.976562 0.015625)"/>
     <use xlink:href="#DejaVuSans-6c" transform="translate(464.355469 0.015625)"/>
     <use xlink:href="#DejaVuSans-6a" transform="translate(492.138672 0.015625)"/>
     <use xlink:href="#DejaVuSans-65" transform="translate(519.921875 0.015625)"/>
     <use xlink:href="#DejaVuSans-20" transform="translate(581.445312 0.015625)"/>
     <use xlink:href="#DejaVuSans-73" transform="translate(613.232422 0.015625)"/>
     <use xlink:href="#DejaVuSans-20" transform="translate(665.332031 0.015625)"/>
     <use xlink:href="#DejaVuSans-6f" transform="translate(697.119141 0.015625)"/>
     <use xlink:href="#DejaVuSans-7a" transform="translate(758.300781 0.015625)"/>
     <use xlink:href="#DejaVuSans-6e" transform="translate(810.791016 0.015625)"/>
     <use xlink:href="#DejaVuSans-61" transform="translate(874.169922 0.015625)"/>
     <use xlink:href="#DejaVuSans-10d" transform="translate(935.449219 0.015625)"/>
     <use xlink:href="#DejaVuSans-65" transform="translate(990.429688 0.015625)"/>
     <use xlink:href="#DejaVuSans-6e" transform="translate(1051.953125 0.015625)"/>
     <use xlink:href="#DejaVuSans-69" transform="translate(1115.332031 0.015625)"/>
     <use xlink:href="#DejaVuSans-6d" transform="translate(1143.115234 0.015625)"/>
     <use xlink:href="#DejaVuSans-20" transform="translate(1240.527344 0.015625)"/>
     <use xlink:href="#DejaVuSans-6b" transform="translate(1272.314453 0.015625)"/>
     <use xlink:href="#DejaVuSans-72" transform="translate(1330.224609 0.015625)"/>
     <use xlink:href="#DejaVuSans-69" transform="translate(1371.337891 0.015625)"/>
     <use xlink:href="#DejaVuSans-74" transform="translate(1399.121094 0.015625)"/>
     <use xlink:href="#DejaVuSans-69" transform="translate(1438.330078 0.015625)"/>
     <use xlink:href="#DejaVuSans-10d" transform="translate(1466.113281 0.015625)"/>
     <use xlink:href="#DejaVuSans-6e" transform="translate(1521.09375 0.015625)"/>
     <use xlink:href="#DejaVuSans-69" transform="translate(1584.472656 0.015625)"/>
     <use xlink:href="#DejaVuSans-6d" transform="translate(1612.255859 0.015625)"/>
     <use xlink:href="#DejaVuSans-20" transform="translate(1709.667969 0.015625)"/>
     <use xlink:href="#DejaVuSans-74" transform="translate(1741.455078 0.015625)"/>
     <use xlink:href="#DejaVuSans-6f" transform="translate(1780.664062 0.015625)"/>
     <use xlink:href="#DejaVuSans-10d" transform="translate(1841.845703 0.015625)"/>
     <use xlink:href="#DejaVuSans-6b" transform="translate(1896.826172 0.015625)"/>
     <use xlink:href="#DejaVuSans-61" transform="translate(1954.736328 0.015625)"/>
     <use xlink:href="#DejaVuSans-6d" transform="translate(2016.015625 0.015625)"/>
     <use xlink:href="#DejaVuSans-61" transform="translate(2113.427734 0.015625)"/>
     <use xlink:href="#DejaVuSans-20" transform="translate(2174.707031 0.015625)"/>
     <use xlink:href="#DejaVuSans-67" transform="translate(2206.494141 0.015625)"/>
     <use xlink:href="#DejaVuSans-64" transform="translate(2269.970703 0.015625)"/>
     <use xlink:href="#DejaVuSans-6a" transform="translate(2333.447266 0.015625)"/>
     <use xlink:href="#DejaVuSans-65" transform="translate(2361.230469 0.015625)"/>
     <use xlink:href="#DejaVuSans-20" transform="translate(2422.753906 0.015625)"/>
     <use xlink:href="#DejaVuSans-6a" transform="translate(2454.541016 0.015625)"/>
     <use xlink:href="#DejaVuSans-65" transform="translate(2482.324219 0.015625)"/>
     <use xlink:href="#DejaVuSans-20" transform="translate(2543.847656 0.015625)"/>
     <use xlink:href="#DejaVuSans-Oblique-64" transform="translate(2575.634766 0.015625)"/>
     <use xlink:href="#DejaVuSans-Oblique-51" transform="translate(2639.111328 0.015625)"/>
     <use xlink:href="#DejaVuSans-2f" transform="translate(2717.822266 0.015625)"/>
     <use xlink:href="#DejaVuSans-Oblique-64" transform="translate(2751.513672 0.015625)"/>
     <use xlink:href="#DejaVuSans-Oblique-56" transform="translate(2814.990234 0.015625)"/>
     <use xlink:href="#DejaVuSans-32" transform="translate(2883.398438 -16.390625) scale(0.7)"/>
     <use xlink:href="#DejaVuSans-3d" transform="translate(2950.151367 0.015625)"/>
     <use xlink:href="#DejaVuSans-30" transform="translate(3053.422852 0.015625)"/>
    </g>
   </g>
   <g id="legend_1">
    <g id="patch_7">
     <path d="M 58.013813 127.4248 
L 176.799613 127.4248 
Q 178.465613 127.4248 178.465613 125.7588 
L 178.465613 28.631 
Q 178.465613 26.965 176.799613 26.965 
L 58.013813 26.965 
Q 56.347813 26.965 56.347813 28.631 
L 56.347813 125.7588 
Q 56.347813 127.4248 58.013813 127.4248 
z
" style="fill: #ffffff; opacity: 0.8; stroke: #cccccc; stroke-linejoin: miter"/>
    </g>
    <g id="line2d_37">
     <path d="M 59.679813 33.7123 
L 68.009813 33.7123 
L 76.339813 33.7123 
" style="fill: none; stroke: #ff0000; stroke-width: 2; stroke-linecap: square"/>
    </g>
    <g id="text_18">
     <!-- cos$\phi$ = 1 -->
     <g transform="translate(83.003813 36.6278) scale(0.0833 -0.0833)">
      <defs>
       <path id="DejaVuSans-63" d="M 3122 3366 
L 3122 2828 
Q 2878 2963 2633 3030 
Q 2388 3097 2138 3097 
Q 1578 3097 1268 2742 
Q 959 2388 959 1747 
Q 959 1106 1268 751 
Q 1578 397 2138 397 
Q 2388 397 2633 464 
Q 2878 531 3122 666 
L 3122 134 
Q 2881 22 2623 -34 
Q 2366 -91 2075 -91 
Q 1284 -91 818 406 
Q 353 903 353 1747 
Q 353 2603 823 3093 
Q 1294 3584 2113 3584 
Q 2378 3584 2631 3529 
Q 2884 3475 3122 3366 
z
" transform="scale(0.015625)"/>
       <path id="DejaVuSans-Oblique-3d5" d="M 2991 4863 
L 2738 3572 
Q 3363 3572 3684 3094 
Q 4016 2606 3850 1747 
Q 3681 888 3159 400 
Q 2653 -78 2028 -78 
L 1784 -1331 
L 1213 -1331 
L 1456 -78 
Q 834 -78 509 400 
Q 178 888 347 1747 
Q 513 2606 1034 3094 
Q 1544 3572 2166 3572 
L 2419 4863 
L 2991 4863 
z
M 2128 434 
Q 2481 434 2784 756 
Q 3116 1116 3244 1747 
Q 3369 2372 3169 2738 
Q 2991 3059 2638 3059 
L 2128 434 
z
M 1556 434 
L 2066 3059 
Q 1716 3059 1413 2738 
Q 1072 2372 953 1747 
Q 834 1116 1028 756 
Q 1203 434 1556 434 
z
" transform="scale(0.015625)"/>
      </defs>
      <use xlink:href="#DejaVuSans-63" transform="translate(0 0.015625)"/>
      <use xlink:href="#DejaVuSans-6f" transform="translate(54.980469 0.015625)"/>
      <use xlink:href="#DejaVuSans-73" transform="translate(116.162109 0.015625)"/>
      <use xlink:href="#DejaVuSans-Oblique-3d5" transform="translate(168.261719 0.015625)"/>
      <use xlink:href="#DejaVuSans-20" transform="translate(234.228516 0.015625)"/>
      <use xlink:href="#DejaVuSans-3d" transform="translate(266.015625 0.015625)"/>
      <use xlink:href="#DejaVuSans-20" transform="translate(349.804688 0.015625)"/>
      <use xlink:href="#DejaVuSans-31" transform="translate(381.591797 0.015625)"/>
     </g>
    </g>
    <g id="line2d_38">
     <g>
      <use xlink:href="#mfc36d1a198" x="68.009813" y="45.9574" style="fill: #ff0000; stroke: #000000; stroke-linejoin: miter"/>
     </g>
    </g>
    <g id="text_19">
     <!-- dQ/dV=0 (cos$\phi$=1) -->
     <g transform="translate(83.003813 48.8729) scale(0.0833 -0.0833)">
      <use xlink:href="#DejaVuSans-64" transform="translate(0 0.015625)"/>
      <use xlink:href="#DejaVuSans-51" transform="translate(63.476562 0.015625)"/>
      <use xlink:href="#DejaVuSans-2f" transform="translate(142.1875 0.015625)"/>
      <use xlink:href="#DejaVuSans-64" transform="translate(175.878906 0.015625)"/>
      <use xlink:href="#DejaVuSans-56" transform="translate(239.355469 0.015625)"/>
      <use xlink:href="#DejaVuSans-3d" transform="translate(307.763672 0.015625)"/>
      <use xlink:href="#DejaVuSans-30" transform="translate(391.552734 0.015625)"/>
      <use xlink:href="#DejaVuSans-20" transform="translate(455.175781 0.015625)"/>
      <use xlink:href="#DejaVuSans-28" transform="translate(486.962891 0.015625)"/>
      <use xlink:href="#DejaVuSans-63" transform="translate(525.976562 0.015625)"/>
      <use xlink:href="#DejaVuSans-6f" transform="translate(580.957031 0.015625)"/>
      <use xlink:href="#DejaVuSans-73" transform="translate(642.138672 0.015625)"/>
      <use xlink:href="#DejaVuSans-Oblique-3d5" transform="translate(694.238281 0.015625)"/>
      <use xlink:href="#DejaVuSans-3d" transform="translate(760.205078 0.015625)"/>
      <use xlink:href="#DejaVuSans-31" transform="translate(843.994141 0.015625)"/>
      <use xlink:href="#DejaVuSans-29" transform="translate(907.617188 0.015625)"/>
     </g>
    </g>
    <g id="line2d_39">
     <path d="M 59.679813 58.2025 
L 68.009813 58.2025 
L 76.339813 58.2025 
" style="fill: none; stroke: #008000; stroke-width: 2; stroke-linecap: square"/>
    </g>
    <g id="text_20">
     <!-- cos$\phi$ = 0.95 -->
     <g transform="translate(83.003813 61.118) scale(0.0833 -0.0833)">
      <defs>
       <path id="DejaVuSans-39" d="M 703 97 
L 703 672 
Q 941 559 1184 500 
Q 1428 441 1663 441 
Q 2288 441 2617 861 
Q 2947 1281 2994 2138 
Q 2813 1869 2534 1725 
Q 2256 1581 1919 1581 
Q 1219 1581 811 2004 
Q 403 2428 403 3163 
Q 403 3881 828 4315 
Q 1253 4750 1959 4750 
Q 2769 4750 3195 4129 
Q 3622 3509 3622 2328 
Q 3622 1225 3098 567 
Q 2575 -91 1691 -91 
Q 1453 -91 1209 -44 
Q 966 3 703 97 
z
M 1959 2075 
Q 2384 2075 2632 2365 
Q 2881 2656 2881 3163 
Q 2881 3666 2632 3958 
Q 2384 4250 1959 4250 
Q 1534 4250 1286 3958 
Q 1038 3666 1038 3163 
Q 1038 2656 1286 2365 
Q 1534 2075 1959 2075 
z
" transform="scale(0.015625)"/>
      </defs>
      <use xlink:href="#DejaVuSans-63" transform="translate(0 0.015625)"/>
      <use xlink:href="#DejaVuSans-6f" transform="translate(54.980469 0.015625)"/>
      <use xlink:href="#DejaVuSans-73" transform="translate(116.162109 0.015625)"/>
      <use xlink:href="#DejaVuSans-Oblique-3d5" transform="translate(168.261719 0.015625)"/>
      <use xlink:href="#DejaVuSans-20" transform="translate(234.228516 0.015625)"/>
      <use xlink:href="#DejaVuSans-3d" transform="translate(266.015625 0.015625)"/>
      <use xlink:href="#DejaVuSans-20" transform="translate(349.804688 0.015625)"/>
      <use xlink:href="#DejaVuSans-30" transform="translate(381.591797 0.015625)"/>
      <use xlink:href="#DejaVuSans-2e" transform="translate(445.214844 0.015625)"/>
      <use xlink:href="#DejaVuSans-39" transform="translate(477.001953 0.015625)"/>
      <use xlink:href="#DejaVuSans-35" transform="translate(540.625 0.015625)"/>
     </g>
    </g>
    <g id="line2d_40">
     <g>
      <use xlink:href="#m5116916de9" x="68.009813" y="70.4476" style="fill: #008000; stroke: #000000; stroke-linejoin: miter"/>
     </g>
    </g>
    <g id="text_21">
     <!-- dQ/dV=0 (cos$\phi$=0.95) -->
     <g transform="translate(83.003813 73.3631) scale(0.0833 -0.0833)">
      <use xlink:href="#DejaVuSans-64" transform="translate(0 0.015625)"/>
      <use xlink:href="#DejaVuSans-51" transform="translate(63.476562 0.015625)"/>
      <use xlink:href="#DejaVuSans-2f" transform="translate(142.1875 0.015625)"/>
      <use xlink:href="#DejaVuSans-64" transform="translate(175.878906 0.015625)"/>
      <use xlink:href="#DejaVuSans-56" transform="translate(239.355469 0.015625)"/>
      <use xlink:href="#DejaVuSans-3d" transform="translate(307.763672 0.015625)"/>
      <use xlink:href="#DejaVuSans-30" transform="translate(391.552734 0.015625)"/>
      <use xlink:href="#DejaVuSans-20" transform="translate(455.175781 0.015625)"/>
      <use xlink:href="#DejaVuSans-28" transform="translate(486.962891 0.015625)"/>
      <use xlink:href="#DejaVuSans-63" transform="translate(525.976562 0.015625)"/>
      <use xlink:href="#DejaVuSans-6f" transform="translate(580.957031 0.015625)"/>
      <use xlink:href="#DejaVuSans-73" transform="translate(642.138672 0.015625)"/>
      <use xlink:href="#DejaVuSans-Oblique-3d5" transform="translate(694.238281 0.015625)"/>
      <use xlink:href="#DejaVuSans-3d" transform="translate(760.205078 0.015625)"/>
      <use xlink:href="#DejaVuSans-30" transform="translate(843.994141 0.015625)"/>
      <use xlink:href="#DejaVuSans-2e" transform="translate(907.617188 0.015625)"/>
      <use xlink:href="#DejaVuSans-39" transform="translate(939.404297 0.015625)"/>
      <use xlink:href="#DejaVuSans-35" transform="translate(1003.027344 0.015625)"/>
      <use xlink:href="#DejaVuSans-29" transform="translate(1066.650391 0.015625)"/>
     </g>
    </g>
    <g id="line2d_41">
     <path d="M 59.679813 82.6927 
L 68.009813 82.6927 
L 76.339813 82.6927 
" style="fill: none; stroke: #add8e6; stroke-width: 2; stroke-linecap: square"/>
    </g>
    <g id="text_22">
     <!-- cos$\phi$ = 0.9 -->
     <g transform="translate(83.003813 85.6082) scale(0.0833 -0.0833)">
      <use xlink:href="#DejaVuSans-63" transform="translate(0 0.015625)"/>
      <use xlink:href="#DejaVuSans-6f" transform="translate(54.980469 0.015625)"/>
      <use xlink:href="#DejaVuSans-73" transform="translate(116.162109 0.015625)"/>
      <use xlink:href="#DejaVuSans-Oblique-3d5" transform="translate(168.261719 0.015625)"/>
      <use xlink:href="#DejaVuSans-20" transform="translate(234.228516 0.015625)"/>
      <use xlink:href="#DejaVuSans-3d" transform="translate(266.015625 0.015625)"/>
      <use xlink:href="#DejaVuSans-20" transform="translate(349.804688 0.015625)"/>
      <use xlink:href="#DejaVuSans-30" transform="translate(381.591797 0.015625)"/>
      <use xlink:href="#DejaVuSans-2e" transform="translate(445.214844 0.015625)"/>
      <use xlink:href="#DejaVuSans-39" transform="translate(477.001953 0.015625)"/>
     </g>
    </g>
    <g id="line2d_42">
     <g>
      <use xlink:href="#m05169a4d41" x="68.009813" y="94.9378" style="fill: #add8e6; stroke: #000000; stroke-linejoin: miter"/>
     </g>
    </g>
    <g id="text_23">
     <!-- dQ/dV=0 (cos$\phi$=0.9) -->
     <g transform="translate(83.003813 97.8533) scale(0.0833 -0.0833)">
      <use xlink:href="#DejaVuSans-64" transform="translate(0 0.015625)"/>
      <use xlink:href="#DejaVuSans-51" transform="translate(63.476562 0.015625)"/>
      <use xlink:href="#DejaVuSans-2f" transform="translate(142.1875 0.015625)"/>
      <use xlink:href="#DejaVuSans-64" transform="translate(175.878906 0.015625)"/>
      <use xlink:href="#DejaVuSans-56" transform="translate(239.355469 0.015625)"/>
      <use xlink:href="#DejaVuSans-3d" transform="translate(307.763672 0.015625)"/>
      <use xlink:href="#DejaVuSans-30" transform="translate(391.552734 0.015625)"/>
      <use xlink:href="#DejaVuSans-20" transform="translate(455.175781 0.015625)"/>
      <use xlink:href="#DejaVuSans-28" transform="translate(486.962891 0.015625)"/>
      <use xlink:href="#DejaVuSans-63" transform="translate(525.976562 0.015625)"/>
      <use xlink:href="#DejaVuSans-6f" transform="translate(580.957031 0.015625)"/>
      <use xlink:href="#DejaVuSans-73" transform="translate(642.138672 0.015625)"/>
      <use xlink:href="#DejaVuSans-Oblique-3d5" transform="translate(694.238281 0.015625)"/>
      <use xlink:href="#DejaVuSans-3d" transform="translate(760.205078 0.015625)"/>
      <use xlink:href="#DejaVuSans-30" transform="translate(843.994141 0.015625)"/>
      <use xlink:href="#DejaVuSans-2e" transform="translate(907.617188 0.015625)"/>
      <use xlink:href="#DejaVuSans-39" transform="translate(939.404297 0.015625)"/>
      <use xlink:href="#DejaVuSans-29" transform="translate(1003.027344 0.015625)"/>
     </g>
    </g>
    <g id="line2d_43">
     <path d="M 59.679813 107.1829 
L 68.009813 107.1829 
L 76.339813 107.1829 
" style="fill: none; stroke: #ffa07a; stroke-width: 2; stroke-linecap: square"/>
    </g>
    <g id="text_24">
     <!-- cos$\phi$ = 0.86 -->
     <g transform="translate(83.003813 110.0984) scale(0.0833 -0.0833)">
      <use xlink:href="#DejaVuSans-63" transform="translate(0 0.015625)"/>
      <use xlink:href="#DejaVuSans-6f" transform="translate(54.980469 0.015625)"/>
      <use xlink:href="#DejaVuSans-73" transform="translate(116.162109 0.015625)"/>
      <use xlink:href="#DejaVuSans-Oblique-3d5" transform="translate(168.261719 0.015625)"/>
      <use xlink:href="#DejaVuSans-20" transform="translate(234.228516 0.015625)"/>
      <use xlink:href="#DejaVuSans-3d" transform="translate(266.015625 0.015625)"/>
      <use xlink:href="#DejaVuSans-20" transform="translate(349.804688 0.015625)"/>
      <use xlink:href="#DejaVuSans-30" transform="translate(381.591797 0.015625)"/>
      <use xlink:href="#DejaVuSans-2e" transform="translate(445.214844 0.015625)"/>
      <use xlink:href="#DejaVuSans-38" transform="translate(474.376953 0.015625)"/>
      <use xlink:href="#DejaVuSans-36" transform="translate(538 0.015625)"/>
     </g>
    </g>
    <g id="line2d_44">
     <g>
      <use xlink:href="#m5bc8e57797" x="68.009813" y="119.428" style="fill: #ffa07a; stroke: #000000; stroke-linejoin: miter"/>
     </g>
    </g>
    <g id="text_25">
     <!-- dQ/dV=0 (cos$\phi$=0.86) -->
     <g transform="translate(83.003813 122.3435) scale(0.0833 -0.0833)">
      <use xlink:href="#DejaVuSans-64" transform="translate(0 0.015625)"/>
      <use xlink:href="#DejaVuSans-51" transform="translate(63.476562 0.015625)"/>
      <use xlink:href="#DejaVuSans-2f" transform="translate(142.1875 0.015625)"/>
      <use xlink:href="#DejaVuSans-64" transform="translate(175.878906 0.015625)"/>
      <use xlink:href="#DejaVuSans-56" transform="translate(239.355469 0.015625)"/>
      <use xlink:href="#DejaVuSans-3d" transform="translate(307.763672 0.015625)"/>
      <use xlink:href="#DejaVuSans-30" transform="translate(391.552734 0.015625)"/>
      <use xlink:href="#DejaVuSans-20" transform="translate(455.175781 0.015625)"/>
      <use xlink:href="#DejaVuSans-28" transform="translate(486.962891 0.015625)"/>
      <use xlink:href="#DejaVuSans-63" transform="translate(525.976562 0.015625)"/>
      <use xlink:href="#DejaVuSans-6f" transform="translate(580.957031 0.015625)"/>
      <use xlink:href="#DejaVuSans-73" transform="translate(642.138672 0.015625)"/>
      <use xlink:href="#DejaVuSans-Oblique-3d5" transform="translate(694.238281 0.015625)"/>
      <use xlink:href="#DejaVuSans-3d" transform="translate(760.205078 0.015625)"/>
      <use xlink:href="#DejaVuSans-30" transform="translate(843.994141 0.015625)"/>
      <use xlink:href="#DejaVuSans-2e" transform="translate(907.617188 0.015625)"/>
      <use xlink:href="#DejaVuSans-38" transform="translate(936.779297 0.015625)"/>
      <use xlink:href="#DejaVuSans-36" transform="translate(1000.402344 0.015625)"/>
      <use xlink:href="#DejaVuSans-29" transform="translate(1064.025391 0.015625)"/>
     </g>
    </g>
   </g>
  </g>
 </g>
 <defs>
  <clipPath id="pdd6b970af5">
   <rect x="52.182813" y="22.8" width="363.65" height="360.9"/>
  </clipPath>
 </defs>
</svg>
