<?xml version="1.0" encoding="utf-8" standalone="no"?>
<!DOCTYPE svg PUBLIC "-//W3C//DTD SVG 1.1//EN"
  "http://www.w3.org/Graphics/SVG/1.1/DTD/svg11.dtd">
<svg xmlns:xlink="http://www.w3.org/1999/xlink" width="711.032812pt" height="422.52625pt" viewBox="0 0 711.032812 422.52625" xmlns="http://www.w3.org/2000/svg" version="1.1">
 <metadata>
  <rdf:RDF xmlns:dc="http://purl.org/dc/elements/1.1/" xmlns:cc="http://creativecommons.org/ns#" xmlns:rdf="http://www.w3.org/1999/02/22-rdf-syntax-ns#">
   <cc:Work>
    <dc:type rdf:resource="http://purl.org/dc/dcmitype/StillImage"/>
    <dc:date>2025-07-08T15:28:09.706617</dc:date>
    <dc:format>image/svg+xml</dc:format>
    <dc:creator>
     <cc:Agent>
      <dc:title>Matplotlib v3.10.0, https://matplotlib.org/</dc:title>
     </cc:Agent>
    </dc:creator>
   </cc:Work>
  </rdf:RDF>
 </metadata>
 <defs>
  <style type="text/css">*{stroke-linejoin: round; stroke-linecap: butt}</style>
 </defs>
 <g id="figure_1">
  <g id="patch_1">
   <path d="M 0 422.52625 
L 711.032812 422.52625 
L 711.032812 0 
L 0 0 
z
" style="fill: #ffffff"/>
  </g>
  <g id="axes_1">
   <g id="patch_2">
    <path d="M 52.182813 384.948125 
L 703.832813 384.948125 
L 703.832813 22.798125 
L 52.182813 22.798125 
z
" style="fill: #ffffff"/>
   </g>
   <g id="matplotlib.axis_1">
    <g id="xtick_1">
     <g id="line2d_1">
      <path d="M 126.726121 384.948125 
L 126.726121 22.798125 
" clip-path="url(#p20c8db52a6)" style="fill: none; stroke: #b0b0b0; stroke-width: 0.8; stroke-linecap: square"/>
     </g>
     <g id="line2d_2">
      <defs>
       <path id="m24d478e1b7" d="M 0 0 
L 0 3.5 
" style="stroke: #000000; stroke-width: 0.8"/>
      </defs>
      <g>
       <use xlink:href="#m24d478e1b7" x="126.726121" y="384.948125" style="stroke: #000000; stroke-width: 0.8"/>
      </g>
     </g>
     <g id="text_1">
      <!-- 0.2 -->
      <g transform="translate(118.774559 399.546562) scale(0.1 -0.1)">
       <defs>
        <path id="DejaVuSans-30" d="M 2034 4250 
Q 1547 4250 1301 3770 
Q 1056 3291 1056 2328 
Q 1056 1369 1301 889 
Q 1547 409 2034 409 
Q 2525 409 2770 889 
Q 3016 1369 3016 2328 
Q 3016 3291 2770 3770 
Q 2525 4250 2034 4250 
z
M 2034 4750 
Q 2819 4750 3233 4129 
Q 3647 3509 3647 2328 
Q 3647 1150 3233 529 
Q 2819 -91 2034 -91 
Q 1250 -91 836 529 
Q 422 1150 422 2328 
Q 422 3509 836 4129 
Q 1250 4750 2034 4750 
z
" transform="scale(0.015625)"/>
        <path id="DejaVuSans-2e" d="M 684 794 
L 1344 794 
L 1344 0 
L 684 0 
L 684 794 
z
" transform="scale(0.015625)"/>
        <path id="DejaVuSans-32" d="M 1228 531 
L 3431 531 
L 3431 0 
L 469 0 
L 469 531 
Q 828 903 1448 1529 
Q 2069 2156 2228 2338 
Q 2531 2678 2651 2914 
Q 2772 3150 2772 3378 
Q 2772 3750 2511 3984 
Q 2250 4219 1831 4219 
Q 1534 4219 1204 4116 
Q 875 4013 500 3803 
L 500 4441 
Q 881 4594 1212 4672 
Q 1544 4750 1819 4750 
Q 2544 4750 2975 4387 
Q 3406 4025 3406 3419 
Q 3406 3131 3298 2873 
Q 3191 2616 2906 2266 
Q 2828 2175 2409 1742 
Q 1991 1309 1228 531 
z
" transform="scale(0.015625)"/>
       </defs>
       <use xlink:href="#DejaVuSans-30"/>
       <use xlink:href="#DejaVuSans-2e" transform="translate(63.623047 0)"/>
       <use xlink:href="#DejaVuSans-32" transform="translate(95.410156 0)"/>
      </g>
     </g>
    </g>
    <g id="xtick_2">
     <g id="line2d_3">
      <path d="M 251.575778 384.948125 
L 251.575778 22.798125 
" clip-path="url(#p20c8db52a6)" style="fill: none; stroke: #b0b0b0; stroke-width: 0.8; stroke-linecap: square"/>
     </g>
     <g id="line2d_4">
      <g>
       <use xlink:href="#m24d478e1b7" x="251.575778" y="384.948125" style="stroke: #000000; stroke-width: 0.8"/>
      </g>
     </g>
     <g id="text_2">
      <!-- 0.4 -->
      <g transform="translate(243.624215 399.546562) scale(0.1 -0.1)">
       <defs>
        <path id="DejaVuSans-34" d="M 2419 4116 
L 825 1625 
L 2419 1625 
L 2419 4116 
z
M 2253 4666 
L 3047 4666 
L 3047 1625 
L 3713 1625 
L 3713 1100 
L 3047 1100 
L 3047 0 
L 2419 0 
L 2419 1100 
L 313 1100 
L 313 1709 
L 2253 4666 
z
" transform="scale(0.015625)"/>
       </defs>
       <use xlink:href="#DejaVuSans-30"/>
       <use xlink:href="#DejaVuSans-2e" transform="translate(63.623047 0)"/>
       <use xlink:href="#DejaVuSans-34" transform="translate(95.410156 0)"/>
      </g>
     </g>
    </g>
    <g id="xtick_3">
     <g id="line2d_5">
      <path d="M 376.425435 384.948125 
L 376.425435 22.798125 
" clip-path="url(#p20c8db52a6)" style="fill: none; stroke: #b0b0b0; stroke-width: 0.8; stroke-linecap: square"/>
     </g>
     <g id="line2d_6">
      <g>
       <use xlink:href="#m24d478e1b7" x="376.425435" y="384.948125" style="stroke: #000000; stroke-width: 0.8"/>
      </g>
     </g>
     <g id="text_3">
      <!-- 0.6 -->
      <g transform="translate(368.473872 399.546562) scale(0.1 -0.1)">
       <defs>
        <path id="DejaVuSans-36" d="M 2113 2584 
Q 1688 2584 1439 2293 
Q 1191 2003 1191 1497 
Q 1191 994 1439 701 
Q 1688 409 2113 409 
Q 2538 409 2786 701 
Q 3034 994 3034 1497 
Q 3034 2003 2786 2293 
Q 2538 2584 2113 2584 
z
M 3366 4563 
L 3366 3988 
Q 3128 4100 2886 4159 
Q 2644 4219 2406 4219 
Q 1781 4219 1451 3797 
Q 1122 3375 1075 2522 
Q 1259 2794 1537 2939 
Q 1816 3084 2150 3084 
Q 2853 3084 3261 2657 
Q 3669 2231 3669 1497 
Q 3669 778 3244 343 
Q 2819 -91 2113 -91 
Q 1303 -91 875 529 
Q 447 1150 447 2328 
Q 447 3434 972 4092 
Q 1497 4750 2381 4750 
Q 2619 4750 2861 4703 
Q 3103 4656 3366 4563 
z
" transform="scale(0.015625)"/>
       </defs>
       <use xlink:href="#DejaVuSans-30"/>
       <use xlink:href="#DejaVuSans-2e" transform="translate(63.623047 0)"/>
       <use xlink:href="#DejaVuSans-36" transform="translate(95.410156 0)"/>
      </g>
     </g>
    </g>
    <g id="xtick_4">
     <g id="line2d_7">
      <path d="M 501.275091 384.948125 
L 501.275091 22.798125 
" clip-path="url(#p20c8db52a6)" style="fill: none; stroke: #b0b0b0; stroke-width: 0.8; stroke-linecap: square"/>
     </g>
     <g id="line2d_8">
      <g>
       <use xlink:href="#m24d478e1b7" x="501.275091" y="384.948125" style="stroke: #000000; stroke-width: 0.8"/>
      </g>
     </g>
     <g id="text_4">
      <!-- 0.8 -->
      <g transform="translate(493.323529 399.546562) scale(0.1 -0.1)">
       <defs>
        <path id="DejaVuSans-38" d="M 2034 2216 
Q 1584 2216 1326 1975 
Q 1069 1734 1069 1313 
Q 1069 891 1326 650 
Q 1584 409 2034 409 
Q 2484 409 2743 651 
Q 3003 894 3003 1313 
Q 3003 1734 2745 1975 
Q 2488 2216 2034 2216 
z
M 1403 2484 
Q 997 2584 770 2862 
Q 544 3141 544 3541 
Q 544 4100 942 4425 
Q 1341 4750 2034 4750 
Q 2731 4750 3128 4425 
Q 3525 4100 3525 3541 
Q 3525 3141 3298 2862 
Q 3072 2584 2669 2484 
Q 3125 2378 3379 2068 
Q 3634 1759 3634 1313 
Q 3634 634 3220 271 
Q 2806 -91 2034 -91 
Q 1263 -91 848 271 
Q 434 634 434 1313 
Q 434 1759 690 2068 
Q 947 2378 1403 2484 
z
M 1172 3481 
Q 1172 3119 1398 2916 
Q 1625 2713 2034 2713 
Q 2441 2713 2670 2916 
Q 2900 3119 2900 3481 
Q 2900 3844 2670 4047 
Q 2441 4250 2034 4250 
Q 1625 4250 1398 4047 
Q 1172 3844 1172 3481 
z
" transform="scale(0.015625)"/>
       </defs>
       <use xlink:href="#DejaVuSans-30"/>
       <use xlink:href="#DejaVuSans-2e" transform="translate(63.623047 0)"/>
       <use xlink:href="#DejaVuSans-38" transform="translate(95.410156 0)"/>
      </g>
     </g>
    </g>
    <g id="xtick_5">
     <g id="line2d_9">
      <path d="M 626.124748 384.948125 
L 626.124748 22.798125 
" clip-path="url(#p20c8db52a6)" style="fill: none; stroke: #b0b0b0; stroke-width: 0.8; stroke-linecap: square"/>
     </g>
     <g id="line2d_10">
      <g>
       <use xlink:href="#m24d478e1b7" x="626.124748" y="384.948125" style="stroke: #000000; stroke-width: 0.8"/>
      </g>
     </g>
     <g id="text_5">
      <!-- 1.0 -->
      <g transform="translate(618.173185 399.546562) scale(0.1 -0.1)">
       <defs>
        <path id="DejaVuSans-31" d="M 794 531 
L 1825 531 
L 1825 4091 
L 703 3866 
L 703 4441 
L 1819 4666 
L 2450 4666 
L 2450 531 
L 3481 531 
L 3481 0 
L 794 0 
L 794 531 
z
" transform="scale(0.015625)"/>
       </defs>
       <use xlink:href="#DejaVuSans-31"/>
       <use xlink:href="#DejaVuSans-2e" transform="translate(63.623047 0)"/>
       <use xlink:href="#DejaVuSans-30" transform="translate(95.410156 0)"/>
      </g>
     </g>
    </g>
    <g id="text_6">
     <!-- Napon $v_2$ (p.u.) -->
     <g transform="translate(339.857813 413.22625) scale(0.1 -0.1)">
      <defs>
       <path id="DejaVuSans-4e" d="M 628 4666 
L 1478 4666 
L 3547 763 
L 3547 4666 
L 4159 4666 
L 4159 0 
L 3309 0 
L 1241 3903 
L 1241 0 
L 628 0 
L 628 4666 
z
" transform="scale(0.015625)"/>
       <path id="DejaVuSans-61" d="M 2194 1759 
Q 1497 1759 1228 1600 
Q 959 1441 959 1056 
Q 959 750 1161 570 
Q 1363 391 1709 391 
Q 2188 391 2477 730 
Q 2766 1069 2766 1631 
L 2766 1759 
L 2194 1759 
z
M 3341 1997 
L 3341 0 
L 2766 0 
L 2766 531 
Q 2569 213 2275 61 
Q 1981 -91 1556 -91 
Q 1019 -91 701 211 
Q 384 513 384 1019 
Q 384 1609 779 1909 
Q 1175 2209 1959 2209 
L 2766 2209 
L 2766 2266 
Q 2766 2663 2505 2880 
Q 2244 3097 1772 3097 
Q 1472 3097 1187 3025 
Q 903 2953 641 2809 
L 641 3341 
Q 956 3463 1253 3523 
Q 1550 3584 1831 3584 
Q 2591 3584 2966 3190 
Q 3341 2797 3341 1997 
z
" transform="scale(0.015625)"/>
       <path id="DejaVuSans-70" d="M 1159 525 
L 1159 -1331 
L 581 -1331 
L 581 3500 
L 1159 3500 
L 1159 2969 
Q 1341 3281 1617 3432 
Q 1894 3584 2278 3584 
Q 2916 3584 3314 3078 
Q 3713 2572 3713 1747 
Q 3713 922 3314 415 
Q 2916 -91 2278 -91 
Q 1894 -91 1617 61 
Q 1341 213 1159 525 
z
M 3116 1747 
Q 3116 2381 2855 2742 
Q 2594 3103 2138 3103 
Q 1681 3103 1420 2742 
Q 1159 2381 1159 1747 
Q 1159 1113 1420 752 
Q 1681 391 2138 391 
Q 2594 391 2855 752 
Q 3116 1113 3116 1747 
z
" transform="scale(0.015625)"/>
       <path id="DejaVuSans-6f" d="M 1959 3097 
Q 1497 3097 1228 2736 
Q 959 2375 959 1747 
Q 959 1119 1226 758 
Q 1494 397 1959 397 
Q 2419 397 2687 759 
Q 2956 1122 2956 1747 
Q 2956 2369 2687 2733 
Q 2419 3097 1959 3097 
z
M 1959 3584 
Q 2709 3584 3137 3096 
Q 3566 2609 3566 1747 
Q 3566 888 3137 398 
Q 2709 -91 1959 -91 
Q 1206 -91 779 398 
Q 353 888 353 1747 
Q 353 2609 779 3096 
Q 1206 3584 1959 3584 
z
" transform="scale(0.015625)"/>
       <path id="DejaVuSans-6e" d="M 3513 2113 
L 3513 0 
L 2938 0 
L 2938 2094 
Q 2938 2591 2744 2837 
Q 2550 3084 2163 3084 
Q 1697 3084 1428 2787 
Q 1159 2491 1159 1978 
L 1159 0 
L 581 0 
L 581 3500 
L 1159 3500 
L 1159 2956 
Q 1366 3272 1645 3428 
Q 1925 3584 2291 3584 
Q 2894 3584 3203 3211 
Q 3513 2838 3513 2113 
z
" transform="scale(0.015625)"/>
       <path id="DejaVuSans-20" transform="scale(0.015625)"/>
       <path id="DejaVuSans-Oblique-76" d="M 459 3500 
L 1069 3500 
L 1581 525 
L 3256 3500 
L 3866 3500 
L 1875 0 
L 1100 0 
L 459 3500 
z
" transform="scale(0.015625)"/>
       <path id="DejaVuSans-28" d="M 1984 4856 
Q 1566 4138 1362 3434 
Q 1159 2731 1159 2009 
Q 1159 1288 1364 580 
Q 1569 -128 1984 -844 
L 1484 -844 
Q 1016 -109 783 600 
Q 550 1309 550 2009 
Q 550 2706 781 3412 
Q 1013 4119 1484 4856 
L 1984 4856 
z
" transform="scale(0.015625)"/>
       <path id="DejaVuSans-75" d="M 544 1381 
L 544 3500 
L 1119 3500 
L 1119 1403 
Q 1119 906 1312 657 
Q 1506 409 1894 409 
Q 2359 409 2629 706 
Q 2900 1003 2900 1516 
L 2900 3500 
L 3475 3500 
L 3475 0 
L 2900 0 
L 2900 538 
Q 2691 219 2414 64 
Q 2138 -91 1772 -91 
Q 1169 -91 856 284 
Q 544 659 544 1381 
z
M 1991 3584 
L 1991 3584 
z
" transform="scale(0.015625)"/>
       <path id="DejaVuSans-29" d="M 513 4856 
L 1013 4856 
Q 1481 4119 1714 3412 
Q 1947 2706 1947 2009 
Q 1947 1309 1714 600 
Q 1481 -109 1013 -844 
L 513 -844 
Q 928 -128 1133 580 
Q 1338 1288 1338 2009 
Q 1338 2731 1133 3434 
Q 928 4138 513 4856 
z
" transform="scale(0.015625)"/>
      </defs>
      <use xlink:href="#DejaVuSans-4e" transform="translate(0 0.125)"/>
      <use xlink:href="#DejaVuSans-61" transform="translate(74.804688 0.125)"/>
      <use xlink:href="#DejaVuSans-70" transform="translate(136.083984 0.125)"/>
      <use xlink:href="#DejaVuSans-6f" transform="translate(199.560547 0.125)"/>
      <use xlink:href="#DejaVuSans-6e" transform="translate(260.742188 0.125)"/>
      <use xlink:href="#DejaVuSans-20" transform="translate(324.121094 0.125)"/>
      <use xlink:href="#DejaVuSans-Oblique-76" transform="translate(355.908203 0.125)"/>
      <use xlink:href="#DejaVuSans-32" transform="translate(415.087891 -16.28125) scale(0.7)"/>
      <use xlink:href="#DejaVuSans-20" transform="translate(462.358398 0.125)"/>
      <use xlink:href="#DejaVuSans-28" transform="translate(494.145508 0.125)"/>
      <use xlink:href="#DejaVuSans-70" transform="translate(533.15918 0.125)"/>
      <use xlink:href="#DejaVuSans-2e" transform="translate(596.635742 0.125)"/>
      <use xlink:href="#DejaVuSans-75" transform="translate(628.422852 0.125)"/>
      <use xlink:href="#DejaVuSans-2e" transform="translate(691.801758 0.125)"/>
      <use xlink:href="#DejaVuSans-29" transform="translate(723.588867 0.125)"/>
     </g>
    </g>
   </g>
   <g id="matplotlib.axis_2">
    <g id="ytick_1">
     <g id="line2d_11">
      <path d="M 52.182813 371.496187 
L 703.832813 371.496187 
" clip-path="url(#p20c8db52a6)" style="fill: none; stroke: #b0b0b0; stroke-width: 0.8; stroke-linecap: square"/>
     </g>
     <g id="line2d_12">
      <defs>
       <path id="mfb157b123e" d="M 0 0 
L -3.5 0 
" style="stroke: #000000; stroke-width: 0.8"/>
      </defs>
      <g>
       <use xlink:href="#mfb157b123e" x="52.182813" y="371.496187" style="stroke: #000000; stroke-width: 0.8"/>
      </g>
     </g>
     <g id="text_7">
      <!-- −0.3 -->
      <g transform="translate(20.9 375.295406) scale(0.1 -0.1)">
       <defs>
        <path id="DejaVuSans-2212" d="M 678 2272 
L 4684 2272 
L 4684 1741 
L 678 1741 
L 678 2272 
z
" transform="scale(0.015625)"/>
        <path id="DejaVuSans-33" d="M 2597 2516 
Q 3050 2419 3304 2112 
Q 3559 1806 3559 1356 
Q 3559 666 3084 287 
Q 2609 -91 1734 -91 
Q 1441 -91 1130 -33 
Q 819 25 488 141 
L 488 750 
Q 750 597 1062 519 
Q 1375 441 1716 441 
Q 2309 441 2620 675 
Q 2931 909 2931 1356 
Q 2931 1769 2642 2001 
Q 2353 2234 1838 2234 
L 1294 2234 
L 1294 2753 
L 1863 2753 
Q 2328 2753 2575 2939 
Q 2822 3125 2822 3475 
Q 2822 3834 2567 4026 
Q 2313 4219 1838 4219 
Q 1578 4219 1281 4162 
Q 984 4106 628 3988 
L 628 4550 
Q 988 4650 1302 4700 
Q 1616 4750 1894 4750 
Q 2613 4750 3031 4423 
Q 3450 4097 3450 3541 
Q 3450 3153 3228 2886 
Q 3006 2619 2597 2516 
z
" transform="scale(0.015625)"/>
       </defs>
       <use xlink:href="#DejaVuSans-2212"/>
       <use xlink:href="#DejaVuSans-30" transform="translate(83.789062 0)"/>
       <use xlink:href="#DejaVuSans-2e" transform="translate(147.412109 0)"/>
       <use xlink:href="#DejaVuSans-33" transform="translate(179.199219 0)"/>
      </g>
     </g>
    </g>
    <g id="ytick_2">
     <g id="line2d_13">
      <path d="M 52.182813 305.980063 
L 703.832813 305.980063 
" clip-path="url(#p20c8db52a6)" style="fill: none; stroke: #b0b0b0; stroke-width: 0.8; stroke-linecap: square"/>
     </g>
     <g id="line2d_14">
      <g>
       <use xlink:href="#mfb157b123e" x="52.182813" y="305.980063" style="stroke: #000000; stroke-width: 0.8"/>
      </g>
     </g>
     <g id="text_8">
      <!-- −0.2 -->
      <g transform="translate(20.9 309.779282) scale(0.1 -0.1)">
       <use xlink:href="#DejaVuSans-2212"/>
       <use xlink:href="#DejaVuSans-30" transform="translate(83.789062 0)"/>
       <use xlink:href="#DejaVuSans-2e" transform="translate(147.412109 0)"/>
       <use xlink:href="#DejaVuSans-32" transform="translate(179.199219 0)"/>
      </g>
     </g>
    </g>
    <g id="ytick_3">
     <g id="line2d_15">
      <path d="M 52.182813 240.463939 
L 703.832813 240.463939 
" clip-path="url(#p20c8db52a6)" style="fill: none; stroke: #b0b0b0; stroke-width: 0.8; stroke-linecap: square"/>
     </g>
     <g id="line2d_16">
      <g>
       <use xlink:href="#mfb157b123e" x="52.182813" y="240.463939" style="stroke: #000000; stroke-width: 0.8"/>
      </g>
     </g>
     <g id="text_9">
      <!-- −0.1 -->
      <g transform="translate(20.9 244.263157) scale(0.1 -0.1)">
       <use xlink:href="#DejaVuSans-2212"/>
       <use xlink:href="#DejaVuSans-30" transform="translate(83.789062 0)"/>
       <use xlink:href="#DejaVuSans-2e" transform="translate(147.412109 0)"/>
       <use xlink:href="#DejaVuSans-31" transform="translate(179.199219 0)"/>
      </g>
     </g>
    </g>
    <g id="ytick_4">
     <g id="line2d_17">
      <path d="M 52.182813 174.947814 
L 703.832813 174.947814 
" clip-path="url(#p20c8db52a6)" style="fill: none; stroke: #b0b0b0; stroke-width: 0.8; stroke-linecap: square"/>
     </g>
     <g id="line2d_18">
      <g>
       <use xlink:href="#mfb157b123e" x="52.182813" y="174.947814" style="stroke: #000000; stroke-width: 0.8"/>
      </g>
     </g>
     <g id="text_10">
      <!-- 0.0 -->
      <g transform="translate(29.279688 178.747033) scale(0.1 -0.1)">
       <use xlink:href="#DejaVuSans-30"/>
       <use xlink:href="#DejaVuSans-2e" transform="translate(63.623047 0)"/>
       <use xlink:href="#DejaVuSans-30" transform="translate(95.410156 0)"/>
      </g>
     </g>
    </g>
    <g id="ytick_5">
     <g id="line2d_19">
      <path d="M 52.182813 109.43169 
L 703.832813 109.43169 
" clip-path="url(#p20c8db52a6)" style="fill: none; stroke: #b0b0b0; stroke-width: 0.8; stroke-linecap: square"/>
     </g>
     <g id="line2d_20">
      <g>
       <use xlink:href="#mfb157b123e" x="52.182813" y="109.43169" style="stroke: #000000; stroke-width: 0.8"/>
      </g>
     </g>
     <g id="text_11">
      <!-- 0.1 -->
      <g transform="translate(29.279688 113.230909) scale(0.1 -0.1)">
       <use xlink:href="#DejaVuSans-30"/>
       <use xlink:href="#DejaVuSans-2e" transform="translate(63.623047 0)"/>
       <use xlink:href="#DejaVuSans-31" transform="translate(95.410156 0)"/>
      </g>
     </g>
    </g>
    <g id="ytick_6">
     <g id="line2d_21">
      <path d="M 52.182813 43.915566 
L 703.832813 43.915566 
" clip-path="url(#p20c8db52a6)" style="fill: none; stroke: #b0b0b0; stroke-width: 0.8; stroke-linecap: square"/>
     </g>
     <g id="line2d_22">
      <g>
       <use xlink:href="#mfb157b123e" x="52.182813" y="43.915566" style="stroke: #000000; stroke-width: 0.8"/>
      </g>
     </g>
     <g id="text_12">
      <!-- 0.2 -->
      <g transform="translate(29.279688 47.714784) scale(0.1 -0.1)">
       <use xlink:href="#DejaVuSans-30"/>
       <use xlink:href="#DejaVuSans-2e" transform="translate(63.623047 0)"/>
       <use xlink:href="#DejaVuSans-32" transform="translate(95.410156 0)"/>
      </g>
     </g>
    </g>
    <g id="text_13">
     <!-- Jalova snaga $q_2$ (p.u.) -->
     <g transform="translate(14.8 257.723125) rotate(-90) scale(0.1 -0.1)">
      <defs>
       <path id="DejaVuSans-4a" d="M 628 4666 
L 1259 4666 
L 1259 325 
Q 1259 -519 939 -900 
Q 619 -1281 -91 -1281 
L -331 -1281 
L -331 -750 
L -134 -750 
Q 284 -750 456 -515 
Q 628 -281 628 325 
L 628 4666 
z
" transform="scale(0.015625)"/>
       <path id="DejaVuSans-6c" d="M 603 4863 
L 1178 4863 
L 1178 0 
L 603 0 
L 603 4863 
z
" transform="scale(0.015625)"/>
       <path id="DejaVuSans-76" d="M 191 3500 
L 800 3500 
L 1894 563 
L 2988 3500 
L 3597 3500 
L 2284 0 
L 1503 0 
L 191 3500 
z
" transform="scale(0.015625)"/>
       <path id="DejaVuSans-73" d="M 2834 3397 
L 2834 2853 
Q 2591 2978 2328 3040 
Q 2066 3103 1784 3103 
Q 1356 3103 1142 2972 
Q 928 2841 928 2578 
Q 928 2378 1081 2264 
Q 1234 2150 1697 2047 
L 1894 2003 
Q 2506 1872 2764 1633 
Q 3022 1394 3022 966 
Q 3022 478 2636 193 
Q 2250 -91 1575 -91 
Q 1294 -91 989 -36 
Q 684 19 347 128 
L 347 722 
Q 666 556 975 473 
Q 1284 391 1588 391 
Q 1994 391 2212 530 
Q 2431 669 2431 922 
Q 2431 1156 2273 1281 
Q 2116 1406 1581 1522 
L 1381 1569 
Q 847 1681 609 1914 
Q 372 2147 372 2553 
Q 372 3047 722 3315 
Q 1072 3584 1716 3584 
Q 2034 3584 2315 3537 
Q 2597 3491 2834 3397 
z
" transform="scale(0.015625)"/>
       <path id="DejaVuSans-67" d="M 2906 1791 
Q 2906 2416 2648 2759 
Q 2391 3103 1925 3103 
Q 1463 3103 1205 2759 
Q 947 2416 947 1791 
Q 947 1169 1205 825 
Q 1463 481 1925 481 
Q 2391 481 2648 825 
Q 2906 1169 2906 1791 
z
M 3481 434 
Q 3481 -459 3084 -895 
Q 2688 -1331 1869 -1331 
Q 1566 -1331 1297 -1286 
Q 1028 -1241 775 -1147 
L 775 -588 
Q 1028 -725 1275 -790 
Q 1522 -856 1778 -856 
Q 2344 -856 2625 -561 
Q 2906 -266 2906 331 
L 2906 616 
Q 2728 306 2450 153 
Q 2172 0 1784 0 
Q 1141 0 747 490 
Q 353 981 353 1791 
Q 353 2603 747 3093 
Q 1141 3584 1784 3584 
Q 2172 3584 2450 3431 
Q 2728 3278 2906 2969 
L 2906 3500 
L 3481 3500 
L 3481 434 
z
" transform="scale(0.015625)"/>
       <path id="DejaVuSans-Oblique-71" d="M 2669 525 
Q 2438 222 2123 65 
Q 1809 -91 1428 -91 
Q 897 -91 595 267 
Q 294 625 294 1253 
Q 294 1759 480 2231 
Q 666 2703 1013 3078 
Q 1238 3322 1530 3453 
Q 1822 3584 2144 3584 
Q 2531 3584 2781 3431 
Q 3031 3278 3144 2969 
L 3244 3494 
L 3822 3494 
L 2888 -1319 
L 2309 -1319 
L 2669 525 
z
M 891 1338 
Q 891 875 1084 633 
Q 1278 391 1644 391 
Q 2188 391 2572 911 
Q 2956 1431 2956 2175 
Q 2956 2625 2757 2864 
Q 2559 3103 2188 3103 
Q 1916 3103 1684 2976 
Q 1453 2850 1281 2606 
Q 1100 2350 995 2006 
Q 891 1663 891 1338 
z
" transform="scale(0.015625)"/>
      </defs>
      <use xlink:href="#DejaVuSans-4a" transform="translate(0 0.015625)"/>
      <use xlink:href="#DejaVuSans-61" transform="translate(29.492188 0.015625)"/>
      <use xlink:href="#DejaVuSans-6c" transform="translate(90.771484 0.015625)"/>
      <use xlink:href="#DejaVuSans-6f" transform="translate(118.554688 0.015625)"/>
      <use xlink:href="#DejaVuSans-76" transform="translate(179.736328 0.015625)"/>
      <use xlink:href="#DejaVuSans-61" transform="translate(238.916016 0.015625)"/>
      <use xlink:href="#DejaVuSans-20" transform="translate(300.195312 0.015625)"/>
      <use xlink:href="#DejaVuSans-73" transform="translate(331.982422 0.015625)"/>
      <use xlink:href="#DejaVuSans-6e" transform="translate(384.082031 0.015625)"/>
      <use xlink:href="#DejaVuSans-61" transform="translate(447.460938 0.015625)"/>
      <use xlink:href="#DejaVuSans-67" transform="translate(508.740234 0.015625)"/>
      <use xlink:href="#DejaVuSans-61" transform="translate(572.216797 0.015625)"/>
      <use xlink:href="#DejaVuSans-20" transform="translate(633.496094 0.015625)"/>
      <use xlink:href="#DejaVuSans-Oblique-71" transform="translate(665.283203 0.015625)"/>
      <use xlink:href="#DejaVuSans-32" transform="translate(728.759766 -16.390625) scale(0.7)"/>
      <use xlink:href="#DejaVuSans-20" transform="translate(776.030273 0.015625)"/>
      <use xlink:href="#DejaVuSans-28" transform="translate(807.817383 0.015625)"/>
      <use xlink:href="#DejaVuSans-70" transform="translate(846.831055 0.015625)"/>
      <use xlink:href="#DejaVuSans-2e" transform="translate(910.307617 0.015625)"/>
      <use xlink:href="#DejaVuSans-75" transform="translate(942.094727 0.015625)"/>
      <use xlink:href="#DejaVuSans-2e" transform="translate(1005.473633 0.015625)"/>
      <use xlink:href="#DejaVuSans-29" transform="translate(1037.260742 0.015625)"/>
     </g>
    </g>
   </g>
   <g id="line2d_23">
    <path d="M 626.093538 174.947814 
L 124.301625 174.947814 
L 124.301625 174.947814 
" clip-path="url(#p20c8db52a6)" style="fill: none; stroke: #ff0000; stroke-width: 1.5; stroke-linecap: square"/>
   </g>
   <g id="line2d_24">
    <defs>
     <path id="m92a1d766a5" d="M -4 4 
L 4 -4 
M -4 -4 
L 4 4 
" style="stroke: #ff0000"/>
    </defs>
    <g clip-path="url(#p20c8db52a6)">
     <use xlink:href="#m92a1d766a5" x="626.093538" y="174.947814" style="fill: #ff0000; stroke: #ff0000"/>
    </g>
   </g>
   <g id="line2d_25">
    <path d="M 624.84772 173.642847 
L 621.847296 170.817167 
L 618.587704 168.052034 
L 614.917028 165.232614 
L 610.816849 162.375091 
L 606.459082 159.609951 
L 601.666022 156.833489 
L 596.42933 154.063558 
L 590.744926 151.318447 
L 584.836071 148.71048 
L 578.499468 146.15296 
L 571.74245 143.662858 
L 564.57675 141.256409 
L 557.018365 138.948796 
L 548.837749 136.688287 
L 540.303008 134.564609 
L 531.444138 132.58803 
L 522.039459 130.719047 
L 512.125108 128.980912 
L 501.744656 127.393627 
L 490.948107 125.973481 
L 479.790645 124.732755 
L 468.089815 123.659696 
L 455.92361 122.772566 
L 443.375908 122.083541 
L 430.312519 121.592234 
L 416.84648 121.310041 
L 402.889292 121.241126 
L 388.390537 121.394038 
L 373.34013 121.778351 
L 357.768449 122.401518 
L 341.744003 123.266174 
L 325.07478 124.389829 
L 307.830199 125.776507 
L 289.906326 127.442791 
L 271.356118 129.391735 
L 252.081954 131.640989 
L 231.993343 134.210174 
L 210.9985 137.121159 
L 189.038106 140.392342 
L 165.97516 144.054429 
L 141.605999 148.151421 
L 117.796461 152.356047 
L 117.796461 152.356047 
" clip-path="url(#p20c8db52a6)" style="fill: none; stroke: #008000; stroke-width: 1.5; stroke-linecap: square"/>
   </g>
   <g id="line2d_26">
    <defs>
     <path id="m07c2638826" d="M -4 4 
L 4 -4 
M -4 -4 
L 4 4 
" style="stroke: #008000"/>
    </defs>
    <g clip-path="url(#p20c8db52a6)">
     <use xlink:href="#m07c2638826" x="405.548721" y="121.237442" style="fill: #008000; stroke: #008000"/>
    </g>
   </g>
   <g id="line2d_27">
    <path d="M 622.988288 171.704843 
L 617.281729 166.043899 
L 611.171284 160.301095 
L 604.986033 154.797773 
L 598.739917 149.533293 
L 592.113796 144.247831 
L 585.449319 139.221869 
L 578.760007 134.451153 
L 571.723253 129.710962 
L 564.686425 125.239625 
L 557.327862 120.835415 
L 549.995664 116.708425 
L 542.371021 112.679358 
L 534.799874 108.930396 
L 526.968025 105.303849 
L 519.216524 101.954921 
L 511.23737 98.746486 
L 503.051644 95.696097 
L 494.681475 92.818989 
L 486.149786 90.127978 
L 477.480024 87.633399 
L 468.6959 85.343108 
L 459.821118 83.262529 
L 450.879131 81.394746 
L 441.892901 79.740639 
L 432.623583 78.260416 
L 423.1161 76.97239 
L 413.660321 75.914794 
L 404.039356 75.059808 
L 394.296477 74.413838 
L 384.254886 73.972084 
L 374.191478 73.750205 
L 363.943802 73.74422 
L 353.38371 73.96291 
L 342.780544 74.40488 
L 332.017853 75.074225 
L 321.012457 75.981409 
L 309.865898 77.122604 
L 298.529384 78.505566 
L 286.983334 80.137258 
L 275.234909 82.021358 
L 263.201504 84.177661 
L 250.961788 86.598409 
L 238.513578 89.287911 
L 225.813676 92.260294 
L 212.889129 95.514097 
L 199.688562 99.067359 
L 186.207975 102.927252 
L 172.452899 107.09774 
L 158.392609 111.593768 
L 143.981187 116.436916 
L 129.248192 121.623836 
L 114.137084 127.180855 
L 104.157289 130.977261 
L 104.157289 130.977261 
" clip-path="url(#p20c8db52a6)" style="fill: none; stroke: #ffa500; stroke-width: 1.5; stroke-linecap: square"/>
   </g>
   <g id="line2d_28">
    <defs>
     <path id="mf504351eec" d="M -4 4 
L 4 -4 
M -4 -4 
L 4 4 
" style="stroke: #ffa500"/>
    </defs>
    <g clip-path="url(#p20c8db52a6)">
     <use xlink:href="#mf504351eec" x="368.804975" y="73.719835" style="fill: #ffa500; stroke: #ffa500"/>
    </g>
   </g>
   <g id="line2d_29">
    <path d="M 619.91378 168.525924 
L 611.949937 160.570312 
L 604.097381 153.025692 
L 595.768296 145.340962 
L 587.57402 138.092505 
L 579.516544 131.259977 
L 571.597275 124.823549 
L 563.2667 118.345058 
L 555.096267 112.276275 
L 547.08592 106.595159 
L 538.71739 100.938778 
L 530.52922 95.674878 
L 522.519783 90.780095 
L 514.203329 85.959025 
L 506.083531 81.504415 
L 497.696908 77.160809 
L 489.523069 73.174903 
L 481.121107 69.3282 
L 472.945886 65.825121 
L 464.579155 62.481023 
L 456.050405 59.319223 
L 447.776453 56.486586 
L 439.373143 53.842684 
L 430.867668 51.402226 
L 422.286354 49.176653 
L 413.654482 47.174254 
L 404.996139 45.40033 
L 396.334095 43.8574 
L 387.689703 42.545434 
L 379.08283 41.462116 
L 370.252735 40.578694 
L 361.518437 39.9289 
L 352.638816 39.49357 
L 343.660966 39.281184 
L 334.62906 39.295444 
L 325.584035 39.535705 
L 316.563363 39.997502 
L 307.402762 40.69047 
L 298.164972 41.614787 
L 288.907384 42.765198 
L 279.516106 44.158355 
L 270.067937 45.786659 
L 260.487025 47.666877 
L 250.863772 49.784386 
L 241.153186 52.150526 
L 231.337194 54.773321 
L 221.421154 57.655334 
L 211.430002 60.792178 
L 201.316392 64.202282 
L 191.156918 67.862296 
L 180.819181 71.82423 
L 170.38933 76.060883 
L 159.85791 80.579167 
L 149.180173 85.403097 
L 138.365161 90.534504 
L 127.441764 95.964178 
L 116.362456 101.720731 
L 105.139823 107.803646 
L 93.771875 114.219504 
L 82.251759 120.977803 
L 81.803267 121.246073 
L 81.803267 121.246073 
" clip-path="url(#p20c8db52a6)" style="fill: none; stroke: #0000ff; stroke-width: 1.5; stroke-linecap: square"/>
   </g>
   <g id="line2d_30">
    <defs>
     <path id="m6032681627" d="M -4 4 
L 4 -4 
M -4 -4 
L 4 4 
" style="stroke: #0000ff"/>
    </defs>
    <g clip-path="url(#p20c8db52a6)">
     <use xlink:href="#m6032681627" x="339.804042" y="39.259489" style="fill: #0000ff; stroke: #0000ff"/>
    </g>
   </g>
   <g id="line2d_31">
    <path d="M 627.344348 176.263262 
L 629.709827 179.051593 
L 631.809005 181.876054 
L 633.552941 184.593022 
L 635.04127 187.329717 
L 636.213342 189.941705 
L 637.145691 192.559468 
L 637.835105 195.176957 
L 638.261963 197.650896 
L 638.467296 200.113903 
L 638.45046 202.560796 
L 638.211508 204.986456 
L 637.751188 207.38586 
L 637.070941 209.754119 
L 636.172883 212.086505 
L 635.059791 214.378487 
L 633.655354 216.749213 
L 632.019881 219.065361 
L 630.158827 221.322508 
L 627.962853 223.630251 
L 625.531569 225.863845 
L 622.734808 228.125179 
L 619.698597 230.296803 
L 616.273176 232.47217 
L 612.438816 234.634262 
L 608.361304 236.679261 
L 603.864964 238.68656 
L 598.939037 240.639015 
L 593.576644 242.519656 
L 587.775099 244.312011 
L 581.536141 246.000427 
L 574.86606 247.570392 
L 567.775701 249.008835 
L 560.280367 250.30439 
L 552.151354 251.480272 
L 543.65427 252.484636 
L 534.565765 253.333758 
L 524.91594 254.008773 
L 514.743635 254.494882 
L 504.095585 254.78172 
L 492.775022 254.862993 
L 480.851742 254.724208 
L 468.405859 254.3579 
L 455.289939 253.750804 
L 441.390516 252.883687 
L 426.855146 251.754314 
L 411.421113 250.330191 
L 395.112981 248.598448 
L 378.007897 246.556661 
L 359.8861 244.167756 
L 340.680987 241.409741 
L 320.192437 238.239743 
L 298.35725 234.633989 
L 274.75286 230.506993 
L 249.13891 225.799069 
L 220.866917 220.372406 
L 188.782322 213.981797 
L 150.418766 206.104809 
L 126.726121 201.154264 
L 126.726121 201.154264 
" clip-path="url(#p20c8db52a6)" style="fill: none; stroke: #ff00ff; stroke-width: 1.5; stroke-linecap: square"/>
   </g>
   <g id="line2d_32">
    <defs>
     <path id="m974e2cee04" d="M -4 4 
L 4 -4 
M -4 -4 
L 4 4 
" style="stroke: #ff00ff"/>
    </defs>
    <g clip-path="url(#p20c8db52a6)">
     <use xlink:href="#m974e2cee04" x="494.277453" y="254.864633" style="fill: #ff00ff; stroke: #ff00ff"/>
    </g>
   </g>
   <g id="line2d_33">
    <path d="M 627.971635 176.924945 
L 631.499404 180.939038 
L 634.804631 185.035874 
L 637.875472 189.207007 
L 640.565359 193.230032 
L 643.02433 197.303337 
L 645.24382 201.417914 
L 647.118432 205.34542 
L 648.764945 209.293061 
L 650.177936 213.252157 
L 651.352697 217.213811 
L 652.285267 221.16897 
L 652.940781 224.890198 
L 653.375432 228.589762 
L 653.587889 232.259982 
L 653.577499 235.893268 
L 653.344293 239.48217 
L 652.888989 243.019432 
L 652.212981 246.498042 
L 651.318332 249.911272 
L 650.207753 253.252726 
L 648.884583 256.516378 
L 647.352758 259.696602 
L 645.616784 262.788208 
L 643.681697 265.78646 
L 641.553025 268.687099 
L 639.094788 271.647789 
L 636.433819 274.490959 
L 633.578158 277.213374 
L 630.536229 279.812427 
L 627.132899 282.41985 
L 623.542382 284.886003 
L 619.775523 287.209995 
L 615.632 289.502511 
L 611.318226 291.637834 
L 606.619711 293.712155 
L 601.762708 295.616879 
L 596.520493 297.433714 
L 590.889366 299.142319 
L 585.122501 300.661475 
L 578.979545 302.051596 
L 572.46525 303.29619 
L 565.58777 304.380464 
L 558.358646 305.291597 
L 550.792696 306.018962 
L 542.907842 306.554298 
L 534.451912 306.89948 
L 525.721849 307.03007 
L 516.474235 306.940862 
L 507.014039 306.628781 
L 496.841929 306.065893 
L 486.276651 305.2535 
L 475.370016 304.192476 
L 463.925599 302.857082 
L 451.775536 301.211938 
L 439.024735 299.255578 
L 425.785811 296.997282 
L 411.739147 294.371137 
L 397.064533 291.397989 
L 381.554016 288.024864 
L 365.277757 284.255742 
L 348.013226 280.027859 
L 329.534417 275.269719 
L 309.82551 269.961658 
L 288.574717 264.004832 
L 265.362792 257.263492 
L 239.585922 249.541273 
L 209.939069 240.420891 
L 173.391766 228.933369 
L 126.106516 213.868284 
L 126.106516 213.868284 
" clip-path="url(#p20c8db52a6)" style="fill: none; stroke: #ffd700; stroke-width: 1.5; stroke-linecap: square"/>
   </g>
   <g id="line2d_34">
    <defs>
     <path id="madeeac5d57" d="M -4 4 
L 4 -4 
M -4 -4 
L 4 4 
" style="stroke: #ffd700"/>
    </defs>
    <g clip-path="url(#p20c8db52a6)">
     <use xlink:href="#madeeac5d57" x="524.631842" y="307.031311" style="fill: #ffd700; stroke: #ffd700"/>
    </g>
   </g>
   <g id="line2d_35">
    <path d="M 628.600182 177.589285 
L 633.171249 182.71106 
L 637.568579 187.97375 
L 641.778353 193.3695 
L 645.581097 198.595858 
L 649.191637 203.924968 
L 652.598665 209.347322 
L 655.791185 214.852534 
L 658.758603 220.429372 
L 661.345362 225.751332 
L 663.714281 231.115744 
L 665.857846 236.511368 
L 667.769132 241.926509 
L 669.441863 247.349096 
L 670.870464 252.766759 
L 671.987693 257.849975 
L 672.881019 262.907107 
L 673.547725 267.92755 
L 673.985767 272.900753 
L 674.193799 277.81629 
L 674.171179 282.663933 
L 673.917977 287.43372 
L 673.434974 292.116026 
L 672.774763 296.41803 
L 671.915652 300.627802 
L 670.859938 304.738504 
L 669.610422 308.74373 
L 668.170389 312.637536 
L 666.543583 316.414466 
L 664.734184 320.069577 
L 662.746773 323.598451 
L 660.586309 326.997211 
L 658.258088 330.262522 
L 655.767717 333.391599 
L 652.939221 336.576602 
L 649.940349 339.602003 
L 646.778785 342.466427 
L 643.462419 345.169155 
L 639.999301 347.710096 
L 636.397595 350.089755 
L 632.428138 352.442631 
L 628.321423 354.616579 
L 624.087327 356.614145 
L 619.476225 358.540427 
L 614.744803 360.276759 
L 609.63246 361.908857 
L 604.411594 363.341029 
L 598.812539 364.64007 
L 593.121362 365.733539 
L 587.061363 366.670078 
L 580.636314 367.430021 
L 574.149113 367.97581 
L 567.317285 368.330989 
L 560.151693 368.48205 
L 552.666013 368.418031 
L 544.876613 368.130689 
L 536.802364 367.614612 
L 528.167517 366.836843 
L 519.296815 365.814349 
L 509.925891 364.508075 
L 500.094643 362.908088 
L 489.848111 361.010708 
L 479.235662 358.818485 
L 468.040237 356.276016 
L 456.338924 353.38754 
L 444.214185 350.166548 
L 431.262744 346.492036 
L 417.631649 342.387343 
L 403.47448 337.890814 
L 388.524541 332.909696 
L 372.612728 327.372675 
L 355.674882 321.241616 
L 337.417035 314.392375 
L 317.772513 306.782092 
L 296.222709 298.190892 
L 272.215047 288.375264 
L 244.440132 276.771389 
L 209.808974 262.049043 
L 124.301625 225.344833 
L 124.301625 225.344833 
" clip-path="url(#p20c8db52a6)" style="fill: none; stroke: #ee82ee; stroke-width: 1.5; stroke-linecap: square"/>
   </g>
   <g id="line2d_36">
    <defs>
     <path id="m810fd044c8" d="M -4 4 
L 4 -4 
M -4 -4 
L 4 4 
" style="stroke: #ee82ee"/>
    </defs>
    <g clip-path="url(#p20c8db52a6)">
     <use xlink:href="#m810fd044c8" x="558.655737" y="368.486761" style="fill: #ee82ee; stroke: #ee82ee"/>
    </g>
   </g>
   <g id="patch_3">
    <path d="M 52.182813 384.948125 
L 52.182813 22.798125 
" style="fill: none; stroke: #000000; stroke-width: 0.8; stroke-linejoin: miter; stroke-linecap: square"/>
   </g>
   <g id="patch_4">
    <path d="M 703.832813 384.948125 
L 703.832813 22.798125 
" style="fill: none; stroke: #000000; stroke-width: 0.8; stroke-linejoin: miter; stroke-linecap: square"/>
   </g>
   <g id="patch_5">
    <path d="M 52.182813 384.948125 
L 703.832813 384.948125 
" style="fill: none; stroke: #000000; stroke-width: 0.8; stroke-linejoin: miter; stroke-linecap: square"/>
   </g>
   <g id="patch_6">
    <path d="M 52.182813 22.798125 
L 703.832813 22.798125 
" style="fill: none; stroke: #000000; stroke-width: 0.8; stroke-linejoin: miter; stroke-linecap: square"/>
   </g>
   <g id="text_14">
    <!-- Q–V krivulje za različite vrijednosti faktora snage cos(φ) (normalizirano) -->
    <g transform="translate(162.9275 16.798125) scale(0.12 -0.12)">
     <defs>
      <path id="DejaVuSans-51" d="M 2522 4238 
Q 1834 4238 1429 3725 
Q 1025 3213 1025 2328 
Q 1025 1447 1429 934 
Q 1834 422 2522 422 
Q 3209 422 3611 934 
Q 4013 1447 4013 2328 
Q 4013 3213 3611 3725 
Q 3209 4238 2522 4238 
z
M 3406 84 
L 4238 -825 
L 3475 -825 
L 2784 -78 
Q 2681 -84 2626 -87 
Q 2572 -91 2522 -91 
Q 1538 -91 948 567 
Q 359 1225 359 2328 
Q 359 3434 948 4092 
Q 1538 4750 2522 4750 
Q 3503 4750 4090 4092 
Q 4678 3434 4678 2328 
Q 4678 1516 4351 937 
Q 4025 359 3406 84 
z
" transform="scale(0.015625)"/>
      <path id="DejaVuSans-2013" d="M 313 1978 
L 2888 1978 
L 2888 1528 
L 313 1528 
L 313 1978 
z
" transform="scale(0.015625)"/>
      <path id="DejaVuSans-56" d="M 1831 0 
L 50 4666 
L 709 4666 
L 2188 738 
L 3669 4666 
L 4325 4666 
L 2547 0 
L 1831 0 
z
" transform="scale(0.015625)"/>
      <path id="DejaVuSans-6b" d="M 581 4863 
L 1159 4863 
L 1159 1991 
L 2875 3500 
L 3609 3500 
L 1753 1863 
L 3688 0 
L 2938 0 
L 1159 1709 
L 1159 0 
L 581 0 
L 581 4863 
z
" transform="scale(0.015625)"/>
      <path id="DejaVuSans-72" d="M 2631 2963 
Q 2534 3019 2420 3045 
Q 2306 3072 2169 3072 
Q 1681 3072 1420 2755 
Q 1159 2438 1159 1844 
L 1159 0 
L 581 0 
L 581 3500 
L 1159 3500 
L 1159 2956 
Q 1341 3275 1631 3429 
Q 1922 3584 2338 3584 
Q 2397 3584 2469 3576 
Q 2541 3569 2628 3553 
L 2631 2963 
z
" transform="scale(0.015625)"/>
      <path id="DejaVuSans-69" d="M 603 3500 
L 1178 3500 
L 1178 0 
L 603 0 
L 603 3500 
z
M 603 4863 
L 1178 4863 
L 1178 4134 
L 603 4134 
L 603 4863 
z
" transform="scale(0.015625)"/>
      <path id="DejaVuSans-6a" d="M 603 3500 
L 1178 3500 
L 1178 -63 
Q 1178 -731 923 -1031 
Q 669 -1331 103 -1331 
L -116 -1331 
L -116 -844 
L 38 -844 
Q 366 -844 484 -692 
Q 603 -541 603 -63 
L 603 3500 
z
M 603 4863 
L 1178 4863 
L 1178 4134 
L 603 4134 
L 603 4863 
z
" transform="scale(0.015625)"/>
      <path id="DejaVuSans-65" d="M 3597 1894 
L 3597 1613 
L 953 1613 
Q 991 1019 1311 708 
Q 1631 397 2203 397 
Q 2534 397 2845 478 
Q 3156 559 3463 722 
L 3463 178 
Q 3153 47 2828 -22 
Q 2503 -91 2169 -91 
Q 1331 -91 842 396 
Q 353 884 353 1716 
Q 353 2575 817 3079 
Q 1281 3584 2069 3584 
Q 2775 3584 3186 3129 
Q 3597 2675 3597 1894 
z
M 3022 2063 
Q 3016 2534 2758 2815 
Q 2500 3097 2075 3097 
Q 1594 3097 1305 2825 
Q 1016 2553 972 2059 
L 3022 2063 
z
" transform="scale(0.015625)"/>
      <path id="DejaVuSans-7a" d="M 353 3500 
L 3084 3500 
L 3084 2975 
L 922 459 
L 3084 459 
L 3084 0 
L 275 0 
L 275 525 
L 2438 3041 
L 353 3041 
L 353 3500 
z
" transform="scale(0.015625)"/>
      <path id="DejaVuSans-10d" d="M 3122 3366 
L 3122 2828 
Q 2878 2963 2633 3030 
Q 2388 3097 2138 3097 
Q 1578 3097 1268 2742 
Q 959 2388 959 1747 
Q 959 1106 1268 751 
Q 1578 397 2138 397 
Q 2388 397 2633 464 
Q 2878 531 3122 666 
L 3122 134 
Q 2881 22 2623 -34 
Q 2366 -91 2075 -91 
Q 1284 -91 818 406 
Q 353 903 353 1747 
Q 353 2603 823 3093 
Q 1294 3584 2113 3584 
Q 2378 3584 2631 3529 
Q 2884 3475 3122 3366 
z
M 1797 3944 
L 1031 5119 
L 1466 5119 
L 2028 4353 
L 2591 5119 
L 3025 5119 
L 2259 3944 
L 1797 3944 
z
" transform="scale(0.015625)"/>
      <path id="DejaVuSans-74" d="M 1172 4494 
L 1172 3500 
L 2356 3500 
L 2356 3053 
L 1172 3053 
L 1172 1153 
Q 1172 725 1289 603 
Q 1406 481 1766 481 
L 2356 481 
L 2356 0 
L 1766 0 
Q 1100 0 847 248 
Q 594 497 594 1153 
L 594 3053 
L 172 3053 
L 172 3500 
L 594 3500 
L 594 4494 
L 1172 4494 
z
" transform="scale(0.015625)"/>
      <path id="DejaVuSans-64" d="M 2906 2969 
L 2906 4863 
L 3481 4863 
L 3481 0 
L 2906 0 
L 2906 525 
Q 2725 213 2448 61 
Q 2172 -91 1784 -91 
Q 1150 -91 751 415 
Q 353 922 353 1747 
Q 353 2572 751 3078 
Q 1150 3584 1784 3584 
Q 2172 3584 2448 3432 
Q 2725 3281 2906 2969 
z
M 947 1747 
Q 947 1113 1208 752 
Q 1469 391 1925 391 
Q 2381 391 2643 752 
Q 2906 1113 2906 1747 
Q 2906 2381 2643 2742 
Q 2381 3103 1925 3103 
Q 1469 3103 1208 2742 
Q 947 2381 947 1747 
z
" transform="scale(0.015625)"/>
      <path id="DejaVuSans-66" d="M 2375 4863 
L 2375 4384 
L 1825 4384 
Q 1516 4384 1395 4259 
Q 1275 4134 1275 3809 
L 1275 3500 
L 2222 3500 
L 2222 3053 
L 1275 3053 
L 1275 0 
L 697 0 
L 697 3053 
L 147 3053 
L 147 3500 
L 697 3500 
L 697 3744 
Q 697 4328 969 4595 
Q 1241 4863 1831 4863 
L 2375 4863 
z
" transform="scale(0.015625)"/>
      <path id="DejaVuSans-63" d="M 3122 3366 
L 3122 2828 
Q 2878 2963 2633 3030 
Q 2388 3097 2138 3097 
Q 1578 3097 1268 2742 
Q 959 2388 959 1747 
Q 959 1106 1268 751 
Q 1578 397 2138 397 
Q 2388 397 2633 464 
Q 2878 531 3122 666 
L 3122 134 
Q 2881 22 2623 -34 
Q 2366 -91 2075 -91 
Q 1284 -91 818 406 
Q 353 903 353 1747 
Q 353 2603 823 3093 
Q 1294 3584 2113 3584 
Q 2378 3584 2631 3529 
Q 2884 3475 3122 3366 
z
" transform="scale(0.015625)"/>
      <path id="DejaVuSans-3c6" d="M 2591 3034 
Q 2388 3034 2388 2581 
L 2388 438 
Q 2684 438 2981 763 
Q 3247 1053 3247 1750 
Q 3247 2400 2978 2750 
Q 2759 3034 2591 3034 
z
M 2591 3525 
Q 3028 3525 3425 3113 
Q 3853 2672 3853 1750 
Q 3853 903 3425 400 
Q 3022 -75 2388 -75 
L 2388 -1331 
L 1816 -1331 
L 1816 -78 
Q 1194 -78 775 400 
Q 350 888 350 1747 
Q 350 2641 775 3097 
Q 1094 3438 1613 3525 
L 1613 3016 
Q 1406 2944 1225 2700 
Q 956 2341 956 1747 
Q 956 1116 1225 756 
Q 1466 434 1816 434 
L 1816 2581 
Q 1816 3525 2591 3525 
z
" transform="scale(0.015625)"/>
      <path id="DejaVuSans-6d" d="M 3328 2828 
Q 3544 3216 3844 3400 
Q 4144 3584 4550 3584 
Q 5097 3584 5394 3201 
Q 5691 2819 5691 2113 
L 5691 0 
L 5113 0 
L 5113 2094 
Q 5113 2597 4934 2840 
Q 4756 3084 4391 3084 
Q 3944 3084 3684 2787 
Q 3425 2491 3425 1978 
L 3425 0 
L 2847 0 
L 2847 2094 
Q 2847 2600 2669 2842 
Q 2491 3084 2119 3084 
Q 1678 3084 1418 2786 
Q 1159 2488 1159 1978 
L 1159 0 
L 581 0 
L 581 3500 
L 1159 3500 
L 1159 2956 
Q 1356 3278 1631 3431 
Q 1906 3584 2284 3584 
Q 2666 3584 2933 3390 
Q 3200 3197 3328 2828 
z
" transform="scale(0.015625)"/>
     </defs>
     <use xlink:href="#DejaVuSans-51"/>
     <use xlink:href="#DejaVuSans-2013" transform="translate(78.710938 0)"/>
     <use xlink:href="#DejaVuSans-56" transform="translate(128.710938 0)"/>
     <use xlink:href="#DejaVuSans-20" transform="translate(197.119141 0)"/>
     <use xlink:href="#DejaVuSans-6b" transform="translate(228.90625 0)"/>
     <use xlink:href="#DejaVuSans-72" transform="translate(286.816406 0)"/>
     <use xlink:href="#DejaVuSans-69" transform="translate(327.929688 0)"/>
     <use xlink:href="#DejaVuSans-76" transform="translate(355.712891 0)"/>
     <use xlink:href="#DejaVuSans-75" transform="translate(414.892578 0)"/>
     <use xlink:href="#DejaVuSans-6c" transform="translate(478.271484 0)"/>
     <use xlink:href="#DejaVuSans-6a" transform="translate(506.054688 0)"/>
     <use xlink:href="#DejaVuSans-65" transform="translate(533.837891 0)"/>
     <use xlink:href="#DejaVuSans-20" transform="translate(595.361328 0)"/>
     <use xlink:href="#DejaVuSans-7a" transform="translate(627.148438 0)"/>
     <use xlink:href="#DejaVuSans-61" transform="translate(679.638672 0)"/>
     <use xlink:href="#DejaVuSans-20" transform="translate(740.917969 0)"/>
     <use xlink:href="#DejaVuSans-72" transform="translate(772.705078 0)"/>
     <use xlink:href="#DejaVuSans-61" transform="translate(813.818359 0)"/>
     <use xlink:href="#DejaVuSans-7a" transform="translate(875.097656 0)"/>
     <use xlink:href="#DejaVuSans-6c" transform="translate(927.587891 0)"/>
     <use xlink:href="#DejaVuSans-69" transform="translate(955.371094 0)"/>
     <use xlink:href="#DejaVuSans-10d" transform="translate(983.154297 0)"/>
     <use xlink:href="#DejaVuSans-69" transform="translate(1038.134766 0)"/>
     <use xlink:href="#DejaVuSans-74" transform="translate(1065.917969 0)"/>
     <use xlink:href="#DejaVuSans-65" transform="translate(1105.126953 0)"/>
     <use xlink:href="#DejaVuSans-20" transform="translate(1166.650391 0)"/>
     <use xlink:href="#DejaVuSans-76" transform="translate(1198.4375 0)"/>
     <use xlink:href="#DejaVuSans-72" transform="translate(1257.617188 0)"/>
     <use xlink:href="#DejaVuSans-69" transform="translate(1298.730469 0)"/>
     <use xlink:href="#DejaVuSans-6a" transform="translate(1326.513672 0)"/>
     <use xlink:href="#DejaVuSans-65" transform="translate(1354.296875 0)"/>
     <use xlink:href="#DejaVuSans-64" transform="translate(1415.820312 0)"/>
     <use xlink:href="#DejaVuSans-6e" transform="translate(1479.296875 0)"/>
     <use xlink:href="#DejaVuSans-6f" transform="translate(1542.675781 0)"/>
     <use xlink:href="#DejaVuSans-73" transform="translate(1603.857422 0)"/>
     <use xlink:href="#DejaVuSans-74" transform="translate(1655.957031 0)"/>
     <use xlink:href="#DejaVuSans-69" transform="translate(1695.166016 0)"/>
     <use xlink:href="#DejaVuSans-20" transform="translate(1722.949219 0)"/>
     <use xlink:href="#DejaVuSans-66" transform="translate(1754.736328 0)"/>
     <use xlink:href="#DejaVuSans-61" transform="translate(1789.941406 0)"/>
     <use xlink:href="#DejaVuSans-6b" transform="translate(1851.220703 0)"/>
     <use xlink:href="#DejaVuSans-74" transform="translate(1909.130859 0)"/>
     <use xlink:href="#DejaVuSans-6f" transform="translate(1948.339844 0)"/>
     <use xlink:href="#DejaVuSans-72" transform="translate(2009.521484 0)"/>
     <use xlink:href="#DejaVuSans-61" transform="translate(2050.634766 0)"/>
     <use xlink:href="#DejaVuSans-20" transform="translate(2111.914062 0)"/>
     <use xlink:href="#DejaVuSans-73" transform="translate(2143.701172 0)"/>
     <use xlink:href="#DejaVuSans-6e" transform="translate(2195.800781 0)"/>
     <use xlink:href="#DejaVuSans-61" transform="translate(2259.179688 0)"/>
     <use xlink:href="#DejaVuSans-67" transform="translate(2320.458984 0)"/>
     <use xlink:href="#DejaVuSans-65" transform="translate(2383.935547 0)"/>
     <use xlink:href="#DejaVuSans-20" transform="translate(2445.458984 0)"/>
     <use xlink:href="#DejaVuSans-63" transform="translate(2477.246094 0)"/>
     <use xlink:href="#DejaVuSans-6f" transform="translate(2532.226562 0)"/>
     <use xlink:href="#DejaVuSans-73" transform="translate(2593.408203 0)"/>
     <use xlink:href="#DejaVuSans-28" transform="translate(2645.507812 0)"/>
     <use xlink:href="#DejaVuSans-3c6" transform="translate(2684.521484 0)"/>
     <use xlink:href="#DejaVuSans-29" transform="translate(2750.488281 0)"/>
     <use xlink:href="#DejaVuSans-20" transform="translate(2789.501953 0)"/>
     <use xlink:href="#DejaVuSans-28" transform="translate(2821.289062 0)"/>
     <use xlink:href="#DejaVuSans-6e" transform="translate(2860.302734 0)"/>
     <use xlink:href="#DejaVuSans-6f" transform="translate(2923.681641 0)"/>
     <use xlink:href="#DejaVuSans-72" transform="translate(2984.863281 0)"/>
     <use xlink:href="#DejaVuSans-6d" transform="translate(3024.226562 0)"/>
     <use xlink:href="#DejaVuSans-61" transform="translate(3121.638672 0)"/>
     <use xlink:href="#DejaVuSans-6c" transform="translate(3182.917969 0)"/>
     <use xlink:href="#DejaVuSans-69" transform="translate(3210.701172 0)"/>
     <use xlink:href="#DejaVuSans-7a" transform="translate(3238.484375 0)"/>
     <use xlink:href="#DejaVuSans-69" transform="translate(3290.974609 0)"/>
     <use xlink:href="#DejaVuSans-72" transform="translate(3318.757812 0)"/>
     <use xlink:href="#DejaVuSans-61" transform="translate(3359.871094 0)"/>
     <use xlink:href="#DejaVuSans-6e" transform="translate(3421.150391 0)"/>
     <use xlink:href="#DejaVuSans-6f" transform="translate(3484.529297 0)"/>
     <use xlink:href="#DejaVuSans-29" transform="translate(3545.710938 0)"/>
    </g>
   </g>
   <g id="legend_1">
    <g id="patch_7">
     <path d="M 587.646233 115.050272 
L 698.001813 115.050272 
Q 699.667813 115.050272 699.667813 113.384272 
L 699.667813 28.629125 
Q 699.667813 26.963125 698.001813 26.963125 
L 587.646233 26.963125 
Q 585.980233 26.963125 585.980233 28.629125 
L 585.980233 113.384272 
Q 585.980233 115.050272 587.646233 115.050272 
z
" style="fill: #ffffff; opacity: 0.8; stroke: #cccccc; stroke-linejoin: miter"/>
    </g>
    <g id="line2d_37">
     <path d="M 589.312233 33.709123 
L 597.642233 33.709123 
L 605.972233 33.709123 
" style="fill: none; stroke: #ff0000; stroke-width: 1.5; stroke-linecap: square"/>
    </g>
    <g id="text_15">
     <!-- cos(φ) = 1.0 -->
     <g transform="translate(612.636233 36.624623) scale(0.0833 -0.0833)">
      <defs>
       <path id="DejaVuSans-3d" d="M 678 2906 
L 4684 2906 
L 4684 2381 
L 678 2381 
L 678 2906 
z
M 678 1631 
L 4684 1631 
L 4684 1100 
L 678 1100 
L 678 1631 
z
" transform="scale(0.015625)"/>
      </defs>
      <use xlink:href="#DejaVuSans-63"/>
      <use xlink:href="#DejaVuSans-6f" transform="translate(54.980469 0)"/>
      <use xlink:href="#DejaVuSans-73" transform="translate(116.162109 0)"/>
      <use xlink:href="#DejaVuSans-28" transform="translate(168.261719 0)"/>
      <use xlink:href="#DejaVuSans-3c6" transform="translate(207.275391 0)"/>
      <use xlink:href="#DejaVuSans-29" transform="translate(273.242188 0)"/>
      <use xlink:href="#DejaVuSans-20" transform="translate(312.255859 0)"/>
      <use xlink:href="#DejaVuSans-3d" transform="translate(344.042969 0)"/>
      <use xlink:href="#DejaVuSans-20" transform="translate(427.832031 0)"/>
      <use xlink:href="#DejaVuSans-31" transform="translate(459.619141 0)"/>
      <use xlink:href="#DejaVuSans-2e" transform="translate(523.242188 0)"/>
      <use xlink:href="#DejaVuSans-30" transform="translate(555.029297 0)"/>
     </g>
    </g>
    <g id="line2d_38">
     <path d="M 589.312233 45.936002 
L 597.642233 45.936002 
L 605.972233 45.936002 
" style="fill: none; stroke: #008000; stroke-width: 1.5; stroke-linecap: square"/>
    </g>
    <g id="text_16">
     <!-- cos(φ) = 0.98 (ind.) -->
     <g transform="translate(612.636233 48.851502) scale(0.0833 -0.0833)">
      <defs>
       <path id="DejaVuSans-39" d="M 703 97 
L 703 672 
Q 941 559 1184 500 
Q 1428 441 1663 441 
Q 2288 441 2617 861 
Q 2947 1281 2994 2138 
Q 2813 1869 2534 1725 
Q 2256 1581 1919 1581 
Q 1219 1581 811 2004 
Q 403 2428 403 3163 
Q 403 3881 828 4315 
Q 1253 4750 1959 4750 
Q 2769 4750 3195 4129 
Q 3622 3509 3622 2328 
Q 3622 1225 3098 567 
Q 2575 -91 1691 -91 
Q 1453 -91 1209 -44 
Q 966 3 703 97 
z
M 1959 2075 
Q 2384 2075 2632 2365 
Q 2881 2656 2881 3163 
Q 2881 3666 2632 3958 
Q 2384 4250 1959 4250 
Q 1534 4250 1286 3958 
Q 1038 3666 1038 3163 
Q 1038 2656 1286 2365 
Q 1534 2075 1959 2075 
z
" transform="scale(0.015625)"/>
      </defs>
      <use xlink:href="#DejaVuSans-63"/>
      <use xlink:href="#DejaVuSans-6f" transform="translate(54.980469 0)"/>
      <use xlink:href="#DejaVuSans-73" transform="translate(116.162109 0)"/>
      <use xlink:href="#DejaVuSans-28" transform="translate(168.261719 0)"/>
      <use xlink:href="#DejaVuSans-3c6" transform="translate(207.275391 0)"/>
      <use xlink:href="#DejaVuSans-29" transform="translate(273.242188 0)"/>
      <use xlink:href="#DejaVuSans-20" transform="translate(312.255859 0)"/>
      <use xlink:href="#DejaVuSans-3d" transform="translate(344.042969 0)"/>
      <use xlink:href="#DejaVuSans-20" transform="translate(427.832031 0)"/>
      <use xlink:href="#DejaVuSans-30" transform="translate(459.619141 0)"/>
      <use xlink:href="#DejaVuSans-2e" transform="translate(523.242188 0)"/>
      <use xlink:href="#DejaVuSans-39" transform="translate(555.029297 0)"/>
      <use xlink:href="#DejaVuSans-38" transform="translate(618.652344 0)"/>
      <use xlink:href="#DejaVuSans-20" transform="translate(682.275391 0)"/>
      <use xlink:href="#DejaVuSans-28" transform="translate(714.0625 0)"/>
      <use xlink:href="#DejaVuSans-69" transform="translate(753.076172 0)"/>
      <use xlink:href="#DejaVuSans-6e" transform="translate(780.859375 0)"/>
      <use xlink:href="#DejaVuSans-64" transform="translate(844.238281 0)"/>
      <use xlink:href="#DejaVuSans-2e" transform="translate(907.714844 0)"/>
      <use xlink:href="#DejaVuSans-29" transform="translate(939.501953 0)"/>
     </g>
    </g>
    <g id="line2d_39">
     <path d="M 589.312233 58.16288 
L 597.642233 58.16288 
L 605.972233 58.16288 
" style="fill: none; stroke: #ffa500; stroke-width: 1.5; stroke-linecap: square"/>
    </g>
    <g id="text_17">
     <!-- cos(φ) = 0.89 (ind.) -->
     <g transform="translate(612.636233 61.07838) scale(0.0833 -0.0833)">
      <use xlink:href="#DejaVuSans-63"/>
      <use xlink:href="#DejaVuSans-6f" transform="translate(54.980469 0)"/>
      <use xlink:href="#DejaVuSans-73" transform="translate(116.162109 0)"/>
      <use xlink:href="#DejaVuSans-28" transform="translate(168.261719 0)"/>
      <use xlink:href="#DejaVuSans-3c6" transform="translate(207.275391 0)"/>
      <use xlink:href="#DejaVuSans-29" transform="translate(273.242188 0)"/>
      <use xlink:href="#DejaVuSans-20" transform="translate(312.255859 0)"/>
      <use xlink:href="#DejaVuSans-3d" transform="translate(344.042969 0)"/>
      <use xlink:href="#DejaVuSans-20" transform="translate(427.832031 0)"/>
      <use xlink:href="#DejaVuSans-30" transform="translate(459.619141 0)"/>
      <use xlink:href="#DejaVuSans-2e" transform="translate(523.242188 0)"/>
      <use xlink:href="#DejaVuSans-38" transform="translate(555.029297 0)"/>
      <use xlink:href="#DejaVuSans-39" transform="translate(618.652344 0)"/>
      <use xlink:href="#DejaVuSans-20" transform="translate(682.275391 0)"/>
      <use xlink:href="#DejaVuSans-28" transform="translate(714.0625 0)"/>
      <use xlink:href="#DejaVuSans-69" transform="translate(753.076172 0)"/>
      <use xlink:href="#DejaVuSans-6e" transform="translate(780.859375 0)"/>
      <use xlink:href="#DejaVuSans-64" transform="translate(844.238281 0)"/>
      <use xlink:href="#DejaVuSans-2e" transform="translate(907.714844 0)"/>
      <use xlink:href="#DejaVuSans-29" transform="translate(939.501953 0)"/>
     </g>
    </g>
    <g id="line2d_40">
     <path d="M 589.312233 70.389758 
L 597.642233 70.389758 
L 605.972233 70.389758 
" style="fill: none; stroke: #0000ff; stroke-width: 1.5; stroke-linecap: square"/>
    </g>
    <g id="text_18">
     <!-- cos(φ) = 0.71 (ind.) -->
     <g transform="translate(612.636233 73.305258) scale(0.0833 -0.0833)">
      <defs>
       <path id="DejaVuSans-37" d="M 525 4666 
L 3525 4666 
L 3525 4397 
L 1831 0 
L 1172 0 
L 2766 4134 
L 525 4134 
L 525 4666 
z
" transform="scale(0.015625)"/>
      </defs>
      <use xlink:href="#DejaVuSans-63"/>
      <use xlink:href="#DejaVuSans-6f" transform="translate(54.980469 0)"/>
      <use xlink:href="#DejaVuSans-73" transform="translate(116.162109 0)"/>
      <use xlink:href="#DejaVuSans-28" transform="translate(168.261719 0)"/>
      <use xlink:href="#DejaVuSans-3c6" transform="translate(207.275391 0)"/>
      <use xlink:href="#DejaVuSans-29" transform="translate(273.242188 0)"/>
      <use xlink:href="#DejaVuSans-20" transform="translate(312.255859 0)"/>
      <use xlink:href="#DejaVuSans-3d" transform="translate(344.042969 0)"/>
      <use xlink:href="#DejaVuSans-20" transform="translate(427.832031 0)"/>
      <use xlink:href="#DejaVuSans-30" transform="translate(459.619141 0)"/>
      <use xlink:href="#DejaVuSans-2e" transform="translate(523.242188 0)"/>
      <use xlink:href="#DejaVuSans-37" transform="translate(555.029297 0)"/>
      <use xlink:href="#DejaVuSans-31" transform="translate(618.652344 0)"/>
      <use xlink:href="#DejaVuSans-20" transform="translate(682.275391 0)"/>
      <use xlink:href="#DejaVuSans-28" transform="translate(714.0625 0)"/>
      <use xlink:href="#DejaVuSans-69" transform="translate(753.076172 0)"/>
      <use xlink:href="#DejaVuSans-6e" transform="translate(780.859375 0)"/>
      <use xlink:href="#DejaVuSans-64" transform="translate(844.238281 0)"/>
      <use xlink:href="#DejaVuSans-2e" transform="translate(907.714844 0)"/>
      <use xlink:href="#DejaVuSans-29" transform="translate(939.501953 0)"/>
     </g>
    </g>
    <g id="line2d_41">
     <path d="M 589.312233 82.616636 
L 597.642233 82.616636 
L 605.972233 82.616636 
" style="fill: none; stroke: #ff00ff; stroke-width: 1.5; stroke-linecap: square"/>
    </g>
    <g id="text_19">
     <!-- cos(φ) = 0.98 (kap.) -->
     <g transform="translate(612.636233 85.532136) scale(0.0833 -0.0833)">
      <use xlink:href="#DejaVuSans-63"/>
      <use xlink:href="#DejaVuSans-6f" transform="translate(54.980469 0)"/>
      <use xlink:href="#DejaVuSans-73" transform="translate(116.162109 0)"/>
      <use xlink:href="#DejaVuSans-28" transform="translate(168.261719 0)"/>
      <use xlink:href="#DejaVuSans-3c6" transform="translate(207.275391 0)"/>
      <use xlink:href="#DejaVuSans-29" transform="translate(273.242188 0)"/>
      <use xlink:href="#DejaVuSans-20" transform="translate(312.255859 0)"/>
      <use xlink:href="#DejaVuSans-3d" transform="translate(344.042969 0)"/>
      <use xlink:href="#DejaVuSans-20" transform="translate(427.832031 0)"/>
      <use xlink:href="#DejaVuSans-30" transform="translate(459.619141 0)"/>
      <use xlink:href="#DejaVuSans-2e" transform="translate(523.242188 0)"/>
      <use xlink:href="#DejaVuSans-39" transform="translate(555.029297 0)"/>
      <use xlink:href="#DejaVuSans-38" transform="translate(618.652344 0)"/>
      <use xlink:href="#DejaVuSans-20" transform="translate(682.275391 0)"/>
      <use xlink:href="#DejaVuSans-28" transform="translate(714.0625 0)"/>
      <use xlink:href="#DejaVuSans-6b" transform="translate(753.076172 0)"/>
      <use xlink:href="#DejaVuSans-61" transform="translate(809.236328 0)"/>
      <use xlink:href="#DejaVuSans-70" transform="translate(870.515625 0)"/>
      <use xlink:href="#DejaVuSans-2e" transform="translate(933.992188 0)"/>
      <use xlink:href="#DejaVuSans-29" transform="translate(965.779297 0)"/>
     </g>
    </g>
    <g id="line2d_42">
     <path d="M 589.312233 94.843514 
L 597.642233 94.843514 
L 605.972233 94.843514 
" style="fill: none; stroke: #ffd700; stroke-width: 1.5; stroke-linecap: square"/>
    </g>
    <g id="text_20">
     <!-- cos(φ) = 0.96 (kap.) -->
     <g transform="translate(612.636233 97.759014) scale(0.0833 -0.0833)">
      <use xlink:href="#DejaVuSans-63"/>
      <use xlink:href="#DejaVuSans-6f" transform="translate(54.980469 0)"/>
      <use xlink:href="#DejaVuSans-73" transform="translate(116.162109 0)"/>
      <use xlink:href="#DejaVuSans-28" transform="translate(168.261719 0)"/>
      <use xlink:href="#DejaVuSans-3c6" transform="translate(207.275391 0)"/>
      <use xlink:href="#DejaVuSans-29" transform="translate(273.242188 0)"/>
      <use xlink:href="#DejaVuSans-20" transform="translate(312.255859 0)"/>
      <use xlink:href="#DejaVuSans-3d" transform="translate(344.042969 0)"/>
      <use xlink:href="#DejaVuSans-20" transform="translate(427.832031 0)"/>
      <use xlink:href="#DejaVuSans-30" transform="translate(459.619141 0)"/>
      <use xlink:href="#DejaVuSans-2e" transform="translate(523.242188 0)"/>
      <use xlink:href="#DejaVuSans-39" transform="translate(555.029297 0)"/>
      <use xlink:href="#DejaVuSans-36" transform="translate(618.652344 0)"/>
      <use xlink:href="#DejaVuSans-20" transform="translate(682.275391 0)"/>
      <use xlink:href="#DejaVuSans-28" transform="translate(714.0625 0)"/>
      <use xlink:href="#DejaVuSans-6b" transform="translate(753.076172 0)"/>
      <use xlink:href="#DejaVuSans-61" transform="translate(809.236328 0)"/>
      <use xlink:href="#DejaVuSans-70" transform="translate(870.515625 0)"/>
      <use xlink:href="#DejaVuSans-2e" transform="translate(933.992188 0)"/>
      <use xlink:href="#DejaVuSans-29" transform="translate(965.779297 0)"/>
     </g>
    </g>
    <g id="line2d_43">
     <path d="M 589.312233 107.070392 
L 597.642233 107.070392 
L 605.972233 107.070392 
" style="fill: none; stroke: #ee82ee; stroke-width: 1.5; stroke-linecap: square"/>
    </g>
    <g id="text_21">
     <!-- cos(φ) = 0.93 (kap.) -->
     <g transform="translate(612.636233 109.985892) scale(0.0833 -0.0833)">
      <use xlink:href="#DejaVuSans-63"/>
      <use xlink:href="#DejaVuSans-6f" transform="translate(54.980469 0)"/>
      <use xlink:href="#DejaVuSans-73" transform="translate(116.162109 0)"/>
      <use xlink:href="#DejaVuSans-28" transform="translate(168.261719 0)"/>
      <use xlink:href="#DejaVuSans-3c6" transform="translate(207.275391 0)"/>
      <use xlink:href="#DejaVuSans-29" transform="translate(273.242188 0)"/>
      <use xlink:href="#DejaVuSans-20" transform="translate(312.255859 0)"/>
      <use xlink:href="#DejaVuSans-3d" transform="translate(344.042969 0)"/>
      <use xlink:href="#DejaVuSans-20" transform="translate(427.832031 0)"/>
      <use xlink:href="#DejaVuSans-30" transform="translate(459.619141 0)"/>
      <use xlink:href="#DejaVuSans-2e" transform="translate(523.242188 0)"/>
      <use xlink:href="#DejaVuSans-39" transform="translate(555.029297 0)"/>
      <use xlink:href="#DejaVuSans-33" transform="translate(618.652344 0)"/>
      <use xlink:href="#DejaVuSans-20" transform="translate(682.275391 0)"/>
      <use xlink:href="#DejaVuSans-28" transform="translate(714.0625 0)"/>
      <use xlink:href="#DejaVuSans-6b" transform="translate(753.076172 0)"/>
      <use xlink:href="#DejaVuSans-61" transform="translate(809.236328 0)"/>
      <use xlink:href="#DejaVuSans-70" transform="translate(870.515625 0)"/>
      <use xlink:href="#DejaVuSans-2e" transform="translate(933.992188 0)"/>
      <use xlink:href="#DejaVuSans-29" transform="translate(965.779297 0)"/>
     </g>
    </g>
   </g>
  </g>
 </g>
 <defs>
  <clipPath id="p20c8db52a6">
   <rect x="52.182813" y="22.798125" width="651.65" height="362.15"/>
  </clipPath>
 </defs>
</svg>
