<?xml version="1.0" standalone="no"?>
<!DOCTYPE svg PUBLIC "-//W3C//DTD SVG 20010904//EN"
 "http://www.w3.org/TR/2001/REC-SVG-20010904/DTD/svg10.dtd">
<svg version="1.0" xmlns="http://www.w3.org/2000/svg"
 width="398.000000pt" height="148.000000pt" viewBox="0 0 398.000000 148.000000"
 preserveAspectRatio="xMidYMid meet">

<g transform="translate(0.000000,148.000000) scale(0.100000,-0.100000)"
fill="#000000" stroke="none">
<path d="M999 1248 c-5 -19 -2 -88 4 -88 4 0 7 20 7 45 0 25 -2 45 -5 45 -3 0
-5 -1 -6 -2z"/>
<path d="M3067 1243 c-10 -9 -9 -23 1 -23 5 0 9 7 9 15 0 17 -1 18 -10 8z"/>
<path d="M3097 1230 c4 -14 -3 -30 -17 -45 l-23 -25 31 0 c18 0 32 4 32 9 0 5
-10 7 -22 4 l-23 -6 24 26 c13 15 21 33 18 41 -9 24 -26 19 -20 -4z"/>
<path d="M1984 999 c-4 -8 -3 -9 4 -5 13 8 15 -7 6 -41 -4 -13 -11 -20 -20
-16 -8 3 -14 0 -14 -6 0 -17 28 -13 39 7 14 27 17 65 4 69 -6 2 -15 -1 -19 -8z"/>
<path d="M2048 1003 c18 -7 15 -41 -5 -46 -14 -4 -12 -5 5 -6 16 -1 22 5 22
19 0 11 7 20 15 20 8 0 15 5 15 10 0 6 -15 10 -32 9 -18 0 -27 -3 -20 -6z"/>
<path d="M1010 870 l0 -130 -159 0 -159 0 -11 45 c-21 85 -109 154 -196 155
-61 0 -139 -41 -171 -90 -38 -58 -45 -149 -15 -207 40 -79 113 -119 206 -111
87 7 154 67 177 157 l10 41 159 0 159 0 0 -135 c0 -178 18 -180 22 -2 l3 132
383 3 382 2 0 24 c0 13 8 33 18 45 14 19 20 20 35 9 14 -11 15 -19 7 -48 -11
-39 1 -90 27 -111 13 -11 17 -10 29 6 20 27 17 72 -7 111 -18 29 -18 35 -5 40
27 10 51 0 48 -21 -1 -11 -5 -36 -8 -56 -5 -29 -1 -41 20 -65 25 -28 26 -28
41 -10 21 27 19 75 -5 111 -27 41 -25 47 13 43 26 -2 31 -7 29 -23 -15 -84
-14 -92 12 -121 25 -28 26 -28 41 -10 20 27 19 54 -5 101 -11 22 -20 42 -20
46 0 13 32 19 50 9 16 -9 18 -15 10 -36 -14 -36 -12 -71 5 -104 19 -37 38 -38
53 -5 16 35 15 42 -9 93 -17 35 -19 46 -9 52 18 11 56 -5 51 -22 -3 -7 -7 -34
-9 -60 -3 -37 0 -50 17 -67 29 -29 38 -27 51 14 10 31 9 41 -9 76 -28 52 -26
61 7 57 19 -2 32 -13 47 -40 l20 -38 373 0 372 0 0 -135 c0 -113 2 -135 15
-135 13 0 15 22 15 135 l0 135 160 0 160 0 0 -70 0 -70 106 71 c58 39 102 74
98 79 -15 13 -193 130 -199 130 -3 0 -5 -29 -5 -65 l0 -65 -160 0 -160 0 0
130 c0 109 -2 130 -15 130 -13 0 -15 -21 -15 -130 l0 -130 -368 0 -369 0 -24
38 c-25 38 -41 43 -141 41 -20 0 -59 0 -85 1 -10 0 -69 -1 -131 -2 -63 -2
-119 0 -125 4 -20 12 -46 -11 -53 -47 l-6 -35 -379 0 -379 0 0 130 c0 80 -4
130 -10 130 -6 0 -10 -50 -10 -130z m-418 25 c42 -28 88 -108 88 -155 0 -149
-153 -244 -288 -179 -110 54 -139 212 -54 303 66 71 174 84 254 31z m2953
-102 c47 -31 85 -59 85 -62 0 -5 -27 -24 -151 -104 l-29 -19 0 121 c0 67 2
121 5 121 3 0 43 -25 90 -57z m-1625 -88 c0 -16 -4 -36 -9 -44 -23 -36 -59 48
-41 95 l11 29 19 -25 c11 -14 20 -38 20 -55z m74 50 c20 -30 21 -79 2 -94 -22
-18 -50 40 -41 85 7 40 17 43 39 9z m95 -19 c11 -30 12 -42 2 -64 l-13 -27
-19 24 c-20 24 -23 49 -13 89 9 31 26 23 43 -22z m85 10 c20 -41 20 -57 3 -81
-13 -17 -15 -17 -30 6 -17 24 -22 65 -11 93 9 24 20 19 38 -18z m90 -4 c14
-30 15 -44 6 -66 -10 -28 -11 -28 -30 -11 -20 18 -27 66 -14 99 10 25 20 19
38 -22z"/>
<path d="M367 782 c-10 -10 -17 -23 -17 -28 0 -5 5 -1 11 9 6 10 20 22 32 27
15 6 17 9 6 9 -9 1 -23 -7 -32 -17z"/>
<path d="M440 787 c15 -8 28 -27 35 -51 12 -41 46 -76 75 -76 27 0 70 39 70
63 -1 18 -3 16 -15 -10 -27 -62 -105 -50 -119 18 -7 38 -32 69 -55 69 -10 0
-7 -5 9 -13z"/>
<path d="M2127 968 c-4 -31 -2 -47 7 -37 8 10 15 69 7 69 -5 0 -11 -15 -14
-32z"/>
<path d="M3590 485 c0 -12 -27 -15 -142 -18 l-143 -3 143 -2 c114 -2 142 -5
142 -16 0 -12 7 -12 51 -1 28 8 53 16 56 19 3 2 -15 10 -38 16 -24 6 -50 13
-56 15 -7 2 -13 -2 -13 -10z"/>
<path d="M1154 336 c-9 -38 4 -68 29 -64 18 2 22 10 22 43 0 34 -4 40 -22 43
-17 3 -24 -3 -29 -22z m41 -21 c0 -16 -6 -30 -12 -32 -9 -3 -13 7 -13 32 0 25
4 35 13 33 6 -3 12 -17 12 -33z"/>
<path d="M3451 333 c-1 -14 -9 -23 -23 -26 -23 -4 -23 -4 -1 -6 14 -1 23 -9
26 -23 4 -23 4 -23 6 -1 1 14 9 23 24 26 22 4 22 4 0 6 -14 1 -23 9 -26 24 -4
22 -4 22 -6 0z"/>
<path d="M798 325 c-9 -10 4 -55 16 -55 19 0 36 22 35 45 -1 17 -2 17 -8 -4
-9 -35 -34 -41 -25 -7 5 23 -4 35 -18 21z"/>
<path d="M1104 319 c-4 -8 -3 -9 4 -5 13 8 15 -7 6 -41 -4 -13 -11 -20 -20
-16 -8 3 -14 0 -14 -6 0 -17 28 -13 39 7 14 27 17 65 4 69 -6 2 -15 -1 -19 -8z"/>
<path d="M3249 328 c-6 -32 -5 -88 2 -88 5 0 9 7 9 15 0 8 7 15 15 15 9 0 18
7 21 15 4 8 12 15 20 15 8 0 14 4 14 10 0 5 -7 7 -15 4 -8 -4 -15 -1 -15 5 0
9 -49 17 -51 9z m41 -22 c0 -15 -18 -31 -26 -23 -7 7 7 37 17 37 5 0 9 -6 9
-14z"/>
<path d="M3554 319 c-4 -8 -3 -9 4 -5 13 8 15 -7 6 -41 -4 -15 -11 -20 -22
-16 -14 5 -15 3 -4 -8 17 -18 39 5 44 45 3 30 -14 46 -28 25z"/>
<path d="M3609 308 c-9 -17 -9 -24 5 -33 9 -7 16 -17 16 -24 0 -6 5 -11 10
-11 6 0 10 6 10 14 0 7 3 28 6 45 6 27 4 31 -14 31 -12 0 -27 -10 -33 -22z
m34 -8 c-3 -11 -9 -20 -14 -20 -10 0 -12 24 -2 33 13 13 21 7 16 -13z"/>
<path d="M3342 297 c3 -15 2 -25 -1 -22 -4 2 -13 0 -21 -6 -11 -6 -9 -9 11 -9
22 0 27 5 27 25 0 14 -5 28 -11 32 -6 4 -8 -4 -5 -20z"/>
<path d="M3670 310 c0 -5 7 -7 15 -4 20 8 19 -5 -2 -28 -15 -17 -15 -18 8 -18
17 0 20 3 10 9 -9 6 -10 11 -2 15 18 12 12 36 -9 36 -11 0 -20 -4 -20 -10z"/>
<path d="M875 280 c0 -16 3 -30 8 -30 4 0 7 14 7 30 0 17 -3 30 -7 30 -5 0 -8
-13 -8 -30z"/>
<path d="M978 303 c12 -2 32 -2 45 0 12 2 2 4 -23 4 -25 0 -35 -2 -22 -4z"/>
</g>
</svg>
